<svg id="OBJECTS" xmlns="http://www.w3.org/2000/svg" xmlns:xlink="http://www.w3.org/1999/xlink" viewBox="0 0 150 150"><defs><style>.cls-1{fill:none;}.cls-2{fill:#fff;}.cls-3{fill:#393c75;}.cls-4{fill:#e58d4d;}.cls-5{fill:#0b3884;}.cls-6{clip-path:url(#clip-path);}</style><clipPath id="clip-path"><circle class="cls-1" cx="80.09" cy="83.52" r="47.38"/></clipPath></defs><circle class="cls-2" cx="80.19" cy="77.76" r="41.53"/><path class="cls-3" d="M84.86,148.18C38.55,147.62,6.31,99.4,25,56.72,35,33.36,59.45,17.18,84.86,17.81c-34.08.21-63,29.57-62.16,63.67.13,24.4,16.2,47.5,38.85,56.34a60.37,60.37,0,0,0,23.31,4.31v6.05Z"/><path class="cls-4" d="M89.81,11.09h4.42a.84.84,0,0,1,.84.84v.84a.84.84,0,0,1-.84.84H89.81a0,0,0,0,1,0,0V11.09A0,0,0,0,1,89.81,11.09Z" transform="translate(-0.57 5.48) rotate(-3.39)"/><path class="cls-4" d="M89.82,21.47h4.42a.84.84,0,0,1,.84.84v.84a.84.84,0,0,1-.84.84H89.82a0,0,0,0,1,0,0V21.47A0,0,0,0,1,89.82,21.47Z" transform="translate(1.42 -5.14) rotate(3.21)"/><path class="cls-4" d="M85.67,30.1l9-9.73C96,20.46,106,19.66,106,17.62c-.08-2.89-11.34-2.91-11.34-2.91L85.59,5c-.52-.22-.87-.24-1.06-.07-.4.34-.08,1.5.94,3.46l3.87,6.67-9.22.66-4.88-2.93-.83,1,1.41,2.31c-1.67.38-2.74,1-2.72,1.54S74.28,18.78,76,19l-1.29,2.44.74.91,4.95-3,9,.63-3.84,6.72c-1,2-1.32,3.13-.93,3.47C84.8,30.35,85.15,30.32,85.67,30.1Z"/><path class="cls-4" d="M85.59,5c-.52-.21-.88-.23-1.07-.07-.39.35-.07,1.5,1,3.47l.34.58,3.68.19Z"/><path class="cls-4" d="M85.67,30.1c-.52.22-.87.25-1.07.08-.39-.34-.08-1.5.93-3.47l.33-.58,3.69-.22Z"/><circle class="cls-5" cx="80.09" cy="83.52" r="47.38"/><g class="cls-6"><path class="cls-4" d="M2.43,53.52C2.34,55.05,4.68,54.75,3.54,56c-.89,1-1.7-.14-1.88,1.56-.36,3.36,4.67,1.82,6.11,2-1.27,1.1-3.33.56-4.43,1.73.86.46,2.33-.11,3.27-.46,1.61-.6.93-.9,1.93-2C10,57.24,13.48,59,15,59.87c1.21.74,1.86,1.6,3.1,2.42.48.32.69.76,1.24,1,.77.4,1.93.05,2.49,1,.82,1.35-.63,4-.13,5.66.38,1.33,1.51,2.34,2.29,3.36A11.42,11.42,0,0,1,26,76.78c.31.83.69,2.25,1.81,2-.21-1.06-.47-2.63-1.33-3.41a5.93,5.93,0,0,1,2.6,2.13c.59.88.22,1.84.65,2.58,1.37,2.31,3.78,1.43,5.7,2.35,1.51.72,2.41,2.81,3.78,3.72,1.73,1.15,2.81-.8,3.19,1.64.27,1.67-.52,2.45-1.17,3.87a4.86,4.86,0,0,0,1,5.26,20.46,20.46,0,0,1,2.12,2.23c.21.35-.09.87.11,1.18.31.47.89.56,1.21,1,1.54,2-.2,6.6-.45,9a16,16,0,0,1-1.1,4.63,6.38,6.38,0,0,0-.05,4.33c.84,2.84,1.75,3.44,4.87,3.28-1.07-.56-2.23-1.67-1.56-2.91.21-.39,1.29-.55,1.37-1,.18-1.18-1.34-.38-1.53-1.17-.14-.56,1.24-1.17,1.54-1.56s.35-1.49.79-1.83c1.4-1,3,.64,3.72-1.86-2.63-.23.54-1.68,1-2.19s.94-1.34,1.35-1.93.58-1.29.94-1.8c.66-.92,1-.78,2.19-1.08,1.69-.43,1.32-.36,1.72-1.71.31-1.06.47-2.19.75-3.23.31-1.2.38-1,1.2-2.08,2.1-2.69-.78-3.76-2.8-4.71A33.17,33.17,0,0,0,56,91.89c-1.46-.49-1.2-.92-2.11-1.9s-2.1-1-3.18-1.51-1.5-1.42-2.41-2-1.26-.2-2.15-.21-1.57-.48-2.43-.56c-1.6-.14-3.84,1.21-4.94-.6-.26-.43,0-1.17-.28-1.56s-.72-.34-.93-.6c-.66-.83-.88-.48-.75-1.56.07-.57.91-.76.76-1.54-1.07-.06-2.28.23-3.13-.59C33,77.89,34.49,76.57,36,76c.84-.34,3.06-1.21,3.92-.86s.7,1.81,1.47,1.8c.36-.74.41-2.21.81-2.94.6-1.09,1.75-1.19,2.13-2.37.27-.79-.06-1.37.43-2.18.4-.66,1.18-.74,1.6-1.35s.11-1.3.64-1.72a6.6,6.6,0,0,1,2.12-.12,3.69,3.69,0,0,1-.91,1c1.06.22,2.39-.76,3.23-1.24-.07-.19,0-.53-.1-.73,1.31-.22,2,.88,3.2.58.4-1.15-.57-1.18-1.06-1.88s-.54-1.75-1.07-2.29-1-.33-1.42-.61a6.43,6.43,0,0,1-1.27-1.63c-.5-.68-1.84-2.35-2.32-.4-1.52-.11-1.91-2.5-3.78-2.18-1.61.28-.68,1-.67,2s-1.25,3.07-.65,3.85c-1.27.74-1.65-.88-2.47-1.43-1-.71-2.54-.86-3.69-1.66s-1.63-.87-.07-2.42a5.65,5.65,0,0,1,2-1.4c1.07-.09,1.6,1.07,2.67.41-.22-1-1.48-.62-1.5-1.76A10.09,10.09,0,0,1,41.19,54c.22-.55.12-1-.74-1.23,1-.32,3.7-.7,4.55.35,1.12,1.4-1.73,1.71-2.24,2.44.93.63,1.94-.27,2.85.06.7.26.57,1.19,1.93,1,0,.19.05.41.06.57,2.32.62,1.08-1.24,1.18-1.64.15-.61,1-.78,1.07-1.44-1.07-.32-2.78,0-2.62-1.67-1.57-.48-3.08-.82-4.64-1.42a3.46,3.46,0,0,0-2.28-.33c-.58,0-1.48-.07-1.9,0-3.44.69,1.39,1.85.46,3-.36.44-2.52-.22-2.76-.65-.55-1,.38-1.41.58-2.28-2.51-1-1.84,2.4-3.77,3.17-1.06.43-2.37-.45-3.46-.42a18.13,18.13,0,0,1-1.84.31c-1.27-.12-2.35-.8-3.67-.92-.65,0-1.34-.13-2-.14a35.07,35.07,0,0,0-7,.06c-2,.37-3.52-.21-5.5-.56-1.79-.31-3.81.24-5.62.32-.71,0-1.8-.48-1.45.86C2.75,53.05,2.33,54,2.43,53.52Z"/><path class="cls-4" d="M47.71,47.47a3.34,3.34,0,0,1-2,.65c1.38,1.74,6-.45,7.69,1.36.69.72.12,1.39.34,2.18s.89,1.33,1.28,2c-2.77,1.64,1.91,3.6,3,4.12.62.27,1,1,1.72.68,1.34-.57,0-2.36.91-3.18.76-.68,3.59-.4,4.57-.77,1.18-.45.92-1.13,1.65-1.74,1.17-1,4.33-1.58,1.7-3.72.92-.48,2.33-1.46,2.5-2.53-1-.41-2.2-.29-3.26-.71-.25-.09-.38-.55-.86-.66-.66-.15-1.39.34-2,.42-1.52.19-9.78-.69-9.68.94a21.39,21.39,0,0,0-4.46.2c-.59.15-.84.57-1.45.72S47.35,47.78,47.71,47.47Z"/><path class="cls-4" d="M83.83,72c-1.49,1.67,2.49,1.76,3.41,2.17.67.3,2.28,1.77,1.89-.13a8,8,0,0,1,3.88.9A14.52,14.52,0,0,1,94.16,77a8.12,8.12,0,0,1,1.15,2.09,12,12,0,0,0,3.42,5.11c.53.49,1.09,1.38,1.68,1.56.89.28,2.08-.68,3.09-.6,0,.89-.87,1.11-1.3,1.78a24.89,24.89,0,0,0-.93,2.61c-.86,1.79-2.86,3.2-3.18,5-.39,2.28,2.06,4.26-.3,6.06-1.49,1.13-1.88.87-2,3-.07,1.08.08,1.36-.65,2.12s-.94-.29-1.07,1c-.08.8.94,1.09,0,2.15s-2.92.82-4.07,1.48c-.61.35-1.56,1.65-2.48,1.19-1.13-.56.2-.71.19-1.4,0-1.49-1.43-2.31-1.64-3.89-.14-1,.09-1.16-.38-2s-.87-.78-1.09-1.82c-.45-2.13,1-3.38.65-5.47a10.57,10.57,0,0,0-.34-2c-.41-.8-1.76-.81-2-1.59-.6-1.79,1.82-3-.45-4.43a6.59,6.59,0,0,1-1.57-.59c-.71-.06-1,.45-1.64.61-1,.25-1.65-.18-2.55-.21a10.91,10.91,0,0,1-2,0,4.89,4.89,0,0,1-3-2.77c-.71-1.62.08-3-.36-4.8-.37-1.47-.49-1.58.63-2.86.86-1,1.49-1.93,2.25-2.92.28-.37.77-.08,1-.61s-.25-1.33,0-1.67c.42-.59,1.47,0,1.73-.78.34-1.07-1.16-.9-1.6-1.42a2.85,2.85,0,0,1-.27-2.6c.66-.82,3-.14,3.41-1.4.28-.92-1.39-1.47-1.66-2.2.45-.66,1.87-.76,2.59-1.11,1.42-.71,2.31-1.95,4-1.82-.06-.55-.52-2.18.68-1.62.56.25.29,1.2.9,1.49s2.16-.41,2.8-.55c1.61-.34,1.6-.71,2.53-1.46.64-.52,2.38-1.75,3.34-1.57-1.08-.45-5.12.84-5-1.2.09-1.23,2.26-.89,2.31-2.21s-1.3-.66-1.91-.22-.69,1.07-1,1.39-1.28.76-1.39,1.09c-.23.67.62,1.1.38,1.86A3.65,3.65,0,0,1,85.52,60c-.31-2.22-.91-1.4-2.38-1.26-2.46.23,0-1.13-1.68-2,.75-.62,1.89-.62,2.62-1.18.54-.43.65-1.15,1.16-1.55a10.77,10.77,0,0,1,2.38-.88,14,14,0,0,1,2.36-.9c2.54-.53,6.84.47,8.61,2.33-1.07,1.39-2.32-.48-3.37,0s.46,1.31.75,1.87c.47-.14,1.12-.71,1.55-.76s.7.68,1.24.4c.89-.44.51-1.25,1.75-1.71a18.9,18.9,0,0,1,3.87-1.15c.94-.12,1.79.28,2.7.11a5.25,5.25,0,0,0-.12-.62c1.82-.13,3,.81,4.46,1.09-.52-1.45-.64-2.39,1.43-2.79.16.51-.36,1-.26,1.4,0,0,.38.9.4.78-.09.66.67,1.22-.77,1.26a1,1,0,0,0,.13.64,2.58,2.58,0,0,0,2.16-2c.16-.48-.61-.53-.07-1.07.71-.73,2.36.4,2.24-1.25,2.64-.81,5.7-.78,8.09-1.55,1.67-.53,6.19-1.37,7.75.13-1.12.59-3.2.3-3.83,1.51.84.26,1.37-.15,2.22-.3a8.33,8.33,0,0,1,3.6.27c1.52.36,2.18-.32,3.58-.2,1.68.14,1,1.72,2.64,1.76.37,0,.75-.54,1.14-.61.86-.15,1.75.21,2.57,0,.05-1,4.19-.54,5.37-.35A53.31,53.31,0,0,1,155.18,53c.54.13,1-.09,1.47,0a12.77,12.77,0,0,1,1.76.59c.9-.14.8-.74,2-.73,2.2,0,4.61,1.92,6.73,2-.33.72-1.22.57-1.41,1.38-1.53-.53-2.83-1.22-4.25-.16.27.17.51.64.75.8-.69.19-1.67-.08-2.32.23s-.49,1-1.6,1.33c-1.33.34-3.28-.47-4.23.9.19.17.31.51.51.68a7.9,7.9,0,0,1-3.28,3.17c-.63-.41-.72-2.54-.31-3.08s1.87-1.16,2.41-1.66a17,17,0,0,0,1.27-1.48c-1.48-.47-2.37.87-3.64,1.3-1.11.37-2,0-3.13.16-1.65.2-5,.88-6,2.31,1.43.93,2.55.45,3.71,2a30.06,30.06,0,0,1-2.5,3.23c-.78,1.06-1.55,2.3-2.87,2.7-1.08.32-1.45-.27-1.81.86-.25.8.58,2,.93,2.59-.44.36-.39.29-.88.22.13-.33,0-.83.21-1.2-1.5-.9-4-2.76-5.11-.06a6.68,6.68,0,0,0,1.69.4c-1.24.93-.42,1.25-.19,2.27.29,1.34,0,1.91-.78,3.16a5.45,5.45,0,0,1-2.8,2.37c-1.19.51-2.92.57-3.65,1.77,1,1.08,2.38,1.1,2.14,3a5.63,5.63,0,0,1-2.11,3c-.8-2-3.1-2.65-4.37-3.94-.24-.25,0-.78-.14-1.07a10,10,0,0,0-1.07-1.09c-.38-.44-.68-1.38-1.28-1.58-1-.34-1.46.35-2,1.2-.15.24.09.77-.1,1.07s-.9.51-1.22.88c-1.12,1.26-.64,3.55-2.44,4.14-1.15-1.1-2-6-1.93-7.53-1.29,1.32-1.6.31-2.64-.37-.84-.55.42-.3-.77-.77-.5-.2-1.2.07-1.73,0a11.39,11.39,0,0,1-4.21-1.61c-.78-.47-1.08-1.76-2.27-.79,1.06,1,2.13,4.33,3.92,2,1.24,1.8,2,1.83-.23,3.41A23,23,0,0,1,100,83.58c-.78-.72-.7-1.87-1.34-2.63-.37-.43-1.12-.57-1.54-1.06-.66-.76-.6-1.63-1-2.46-.57-1.11-2.18-1.75-2.16-3.14,2.6.08,1.55-1.48,1.69-3.38-1-.28-1.72.14-2.62.09-1.41-.07-1.11-.36-1.71-1.2-.24-.34-.74-2-1.67-.9s.79,1.1.81,1.51-.66,1.32-1.32,1.09-.53-1.86-.85-2.56S84.6,65.22,84,67c1,1,3.22,1.8,2.78,3.53-.41.23-.88.41-1.23.64-.67-.74.32-1.2-.39-2.24a2.89,2.89,0,0,0-2.48-1.48,7.84,7.84,0,0,0-1.4.64c-.23.1-.68-.16-.89,0s-.14.68-.26.77c-.84.63-3,1.1-2.61,2.61C78.17,72.65,82,72,83.83,72Z"/><path class="cls-4" d="M122.32,91a3,3,0,0,0-.8,1.68c-.83.35-1.26-.63-2,0-.38.33,0,1.45-.83,2-1,.78-3.49.67-4.17,2.12-.54,1.13.36.8.52,1.74.11.64-.12,1.75,0,2.53s-.22,1.83.42,2.44c1.25,1.21,1.63-.22,2.4-.77,1.2-.85,6.62-1.69,6.68.43,1.32.4,3,.21,2.64,2.17a4.07,4.07,0,0,0,3.69-.75c.16-.2-.11-.65,0-.86a15,15,0,0,1,1-1.23c.6-.82,1.41-1.65,1.24-2.84-.28-2-3.19-3.64-4.08-5.38-.35-.68-.21-1.38-.55-2.09s-1-.86-1.15-1.69c-1.67.66.55,2.24,0,3.29-.36.67-2.69-.12-3-.75s1.23-1.09.15-1.87C123.83,90.76,122.64,91.42,122.32,91Z"/><path class="cls-4" d="M67.92,130.71a4.34,4.34,0,0,1,1.91-4c1.09-.57,2.42-.34,3.62-.34,2.27,0,5.2.49,7.38-.07.24-1.36.67-1.7,1.76-2.58.24-.19.9-.77,1.2-.76.83,0,.61.87,1,1.21,1.79,1.57,3-3,4.57-3.53.55-.19,1.11-.07,1.65-.28.33-.12.76-.52,1.06-.61,2.06-.59,1,.82.5,1.8s-1.29,2.54.35,2.45c.67,0,1.22-.49,1.93-.53s1.29,0,1.92,0c1.2,0,1.92.43,3.14.47a2.9,2.9,0,0,1,2.41,1.43c1.21,2-2.82,2.92-4.1,3.39-2.25.82-4.39,2.22-6.73,2.78a37.34,37.34,0,0,1-8.68.58,20.15,20.15,0,0,1-4.79-.1C76.8,131.73,66.3,131.5,67.92,130.71Z"/><path class="cls-4" d="M90.52,36.44c1.42,0,1.8.34,1.1,1.57-.59,1-.71.94-.21,2.15-.74,1-2.52.28-3.53-.1-.51-.18-1.34-1-1.91-.74s-.18,1.17-.23,1.69A1.61,1.61,0,0,1,83,42.22a8.63,8.63,0,0,1-1.13-1.28c-.66-.73-.67-.59-1.46-.42a7.69,7.69,0,0,1-1.92.25,1.85,1.85,0,0,0-1.55.48c-1.29.8-2.24.32-3.15-.94-.37-.5-.34-1.4-1-1.53-.51-.09-1.34.55-2,.56-1.93,0-1.9-1.41-1.92-2.9.86-.78,1.27-.46,2.38-.49a29.48,29.48,0,0,0,3.41-.5c1.76-.22,3.74-.92,5.51-.92s3.53.94,5.29.94a21.47,21.47,0,0,1,2.66,0C89.07,35.58,89.48,36.44,90.52,36.44Z"/></g></svg>