<svg id="OBJECTS" xmlns="http://www.w3.org/2000/svg" xmlns:xlink="http://www.w3.org/1999/xlink" viewBox="0 0 425.99 149.15"><defs><style>.cls-1{fill:none;}.cls-2{fill:#0b3884;}.cls-3{fill:#e58d4d;}.cls-4{fill:#fff;}.cls-5{fill:#393c75;}.cls-6{clip-path:url(#clip-path);}</style><clipPath id="clip-path"><circle class="cls-1" cx="65.11" cy="80.28" r="43.55"/></clipPath></defs><path class="cls-2" d="M139.18,101.55v9.9h-5.94q-6.35,0-9.9-3.11T119.79,98.2V83.05h-4.64v-9.7h4.64V64.07h11.68v9.28h7.64v9.7h-7.64V98.34a3.19,3.19,0,0,0,.82,2.46,4,4,0,0,0,2.73.75Z"/><path class="cls-2" d="M154.3,109.6a17.47,17.47,0,0,1-7-6.82,22.13,22.13,0,0,1,0-20.72,17.67,17.67,0,0,1,7.11-6.87,22.62,22.62,0,0,1,20.2,0,17.64,17.64,0,0,1,7.1,6.87,21.75,21.75,0,0,1,0,20.68,17.73,17.73,0,0,1-7.17,6.86A21.37,21.37,0,0,1,164.37,112,21,21,0,0,1,154.3,109.6Zm15.77-10.17q2.35-2.46,2.36-7t-2.29-7a7.76,7.76,0,0,0-11.3,0c-1.5,1.62-2.25,4-2.25,7.07s.74,5.39,2.22,7a7.17,7.17,0,0,0,5.56,2.46A7.6,7.6,0,0,0,170.07,99.43Z"/><path class="cls-2" d="M229.51,73.35v38.1H217.83v-5.19a12.81,12.81,0,0,1-4.81,4.06,14.64,14.64,0,0,1-6.73,1.54,15,15,0,0,1-7.71-2,13.13,13.13,0,0,1-5.19-5.63,19.16,19.16,0,0,1-1.84-8.67V73.35h11.6V94a8.36,8.36,0,0,0,2,5.94,7,7,0,0,0,5.33,2.11,7,7,0,0,0,5.39-2.11,8.36,8.36,0,0,0,2-5.94V73.35Z"/><path class="cls-2" d="M256.06,74.75a13.29,13.29,0,0,1,6.83-1.81V85.3h-3.21c-2.91,0-5.1.63-6.55,1.88s-2.19,3.44-2.19,6.59v17.68H239.27V73.35h11.67V79.7A15.59,15.59,0,0,1,256.06,74.75Z"/><path class="cls-3" d="M270.71,67.58a5.84,5.84,0,0,1-1.95-4.47,5.94,5.94,0,0,1,1.95-4.54,7.07,7.07,0,0,1,5-1.81,7,7,0,0,1,4.95,1.81,6,6,0,0,1,1.94,4.54,5.86,5.86,0,0,1-1.94,4.47,7,7,0,0,1-4.95,1.81A7.07,7.07,0,0,1,270.71,67.58Z"/><rect class="cls-2" x="269.85" y="73.35" width="11.67" height="38.1"/><path class="cls-2" d="M291.46,82a16.9,16.9,0,0,1,6.76-6.83,20.27,20.27,0,0,1,9.94-2.38,18.9,18.9,0,0,1,12,3.75,17.69,17.69,0,0,1,6.31,10.58H314A6,6,0,0,0,308,82.77a6.12,6.12,0,0,0-5.12,2.49c-1.27,1.67-1.91,4-1.91,7.14s.64,5.47,1.91,7.13A6.1,6.1,0,0,0,308,102,6,6,0,0,0,314,97.66h12.42a17.88,17.88,0,0,1-6.35,10.51A18.67,18.67,0,0,1,308.16,112a20.17,20.17,0,0,1-9.94-2.39,16.82,16.82,0,0,1-6.76-6.82A21.39,21.39,0,0,1,289,92.4,21.39,21.39,0,0,1,291.46,82Z"/><path class="cls-2" d="M368,77.28q4,4.34,4,11.91v22.26h-11.6V90.76a8.36,8.36,0,0,0-2-5.94,7.75,7.75,0,0,0-10.65,0,8.31,8.31,0,0,0-2,5.94v20.69H334V60.93h11.68V78.47a12.53,12.53,0,0,1,4.84-4,15.53,15.53,0,0,1,6.9-1.5A13.55,13.55,0,0,1,368,77.28Z"/><path class="cls-2" d="M388.68,109.6a17.47,17.47,0,0,1-7-6.82,20.38,20.38,0,0,1-2.56-10.38,20.13,20.13,0,0,1,2.6-10.34,17.58,17.58,0,0,1,7.1-6.87,22.62,22.62,0,0,1,20.2,0,17.73,17.73,0,0,1,7.11,6.87,20.33,20.33,0,0,1,2.59,10.34,20,20,0,0,1-2.63,10.34,17.73,17.73,0,0,1-7.17,6.86A21.37,21.37,0,0,1,398.75,112,21,21,0,0,1,388.68,109.6Zm15.77-10.17q2.35-2.46,2.36-7t-2.29-7a7.76,7.76,0,0,0-11.3,0c-1.5,1.62-2.25,4-2.25,7.07s.74,5.39,2.22,7a7.17,7.17,0,0,0,5.56,2.46A7.6,7.6,0,0,0,404.45,99.43Z"/><circle class="cls-4" cx="65.2" cy="74.98" r="38.18"/><path class="cls-5" d="M69.5,140c-42.68-.57-72.39-45-55.08-84.36,9.17-21.48,31.7-36.34,55.08-35.73-31.3.23-57.8,27.22-57,58.53.15,22.36,14.9,43.52,35.67,51.59a55.29,55.29,0,0,0,21.35,3.92V140Z"/><path class="cls-3" d="M74,13.7h4a.84.84,0,0,1,.84.84v.64A.84.84,0,0,1,78,16H74a0,0,0,0,1,0,0V13.7A0,0,0,0,1,74,13.7Z" transform="translate(-0.74 4.54) rotate(-3.39)"/><path class="cls-3" d="M74.06,23.23h4a.84.84,0,0,1,.84.84v.64a.84.84,0,0,1-.84.84h-4a0,0,0,0,1,0,0V23.23A0,0,0,0,1,74.06,23.23Z" transform="translate(1.49 -4.24) rotate(3.21)"/><path class="cls-3" d="M70.25,31.17l8.26-9c1.26.09,10.46-.65,10.41-2.52C88.85,17,78.49,17,78.49,17l-8.32-8.9c-.48-.19-.8-.21-1-.06q-.54.48.87,3.18c1.19,2,2.37,4.09,3.55,6.13L65.14,18l-4.48-2.69-.76,1,1.29,2.12c-1.54.35-2.52.94-2.5,1.42s1.08,1,2.62,1.19l-1.19,2.25.68.84,4.55-2.77,8.29.58-3.52,6.18c-.94,1.81-1.22,2.87-.86,3.18C69.44,31.4,69.77,31.37,70.25,31.17Z"/><path class="cls-3" d="M70.17,8.12c-.48-.2-.81-.22-1-.06q-.54.46.87,3.18l.31.53,3.39.18Z"/><path class="cls-3" d="M70.25,31.17c-.48.2-.81.23-1,.07-.36-.31-.08-1.37.86-3.18l.3-.54,3.38-.2Z"/><circle class="cls-2" cx="65.11" cy="80.28" r="43.55"/><g class="cls-6"><path class="cls-3" d="M-6.27,52.7c-.09,1.41,2.06,1.13,1,2.27-.81.89-1.55-.13-1.72,1.43-.34,3.09,4.29,1.68,5.61,1.83-1.16,1-3.06.52-4.07,1.59.8.42,2.14-.1,3-.42,1.48-.55.85-.83,1.78-1.84,1.31-1.44,4.53.13,5.92,1C6.39,59.22,7,60,8.12,60.76c.44.29.63.7,1.14,1,.71.36,1.78,0,2.29.89.75,1.24-.58,3.63-.12,5.2a10.13,10.13,0,0,0,2.1,3.09,10.45,10.45,0,0,1,1.89,3.18c.28.77.63,2.07,1.66,1.83a5.91,5.91,0,0,0-1.22-3.14,5.51,5.51,0,0,1,2.39,2c.54.81.2,1.7.6,2.37,1.26,2.13,3.47,1.32,5.23,2.16,1.39.66,2.22,2.59,3.48,3.42,1.59,1.06,2.58-.73,2.94,1.52.24,1.52-.48,2.25-1.08,3.55a4.46,4.46,0,0,0,.9,4.83,19,19,0,0,1,2,2c.19.32-.09.81.1,1.09.29.43.82.51,1.12.9,1.41,1.85-.19,6.07-.43,8.24a14.82,14.82,0,0,1-1,4.26,5.79,5.79,0,0,0-.05,4c.78,2.61,1.61,3.17,4.47,3-1-.52-2-1.54-1.43-2.68.2-.36,1.19-.5,1.26-1,.17-1.08-1.22-.34-1.41-1.07-.12-.52,1.15-1.08,1.42-1.43s.32-1.38.73-1.68c1.29-1,2.76.58,3.42-1.71-2.42-.22.49-1.55.89-2a21,21,0,0,0,1.24-1.78c.37-.53.53-1.18.87-1.65.6-.85.91-.72,2-1,1.55-.39,1.22-.32,1.58-1.56.29-1,.44-2,.68-3,.29-1.1.36-.94,1.11-1.91,1.93-2.48-.72-3.46-2.57-4.33A28.16,28.16,0,0,0,43,88c-1.34-.45-1.1-.85-1.93-1.75s-1.93-.9-2.93-1.39-1.37-1.3-2.21-1.78-1.16-.19-2-.21-1.44-.43-2.23-.5c-1.47-.13-3.53,1.11-4.54-.56-.24-.39,0-1.08-.26-1.43s-.66-.31-.86-.56c-.6-.76-.8-.43-.68-1.43.06-.52.83-.7.69-1.41-1-.06-2.09.21-2.87-.55-1.35-1.3,0-2.51,1.35-3.05.77-.31,2.81-1.11,3.6-.78s.65,1.65,1.35,1.65c.33-.68.38-2,.75-2.7.55-1,1.6-1.1,2-2.18.24-.73-.06-1.26.39-2s1.09-.69,1.47-1.25.11-1.19.59-1.58a6.15,6.15,0,0,1,2-.11,3.4,3.4,0,0,1-.84,1c1,.19,2.2-.7,3-1.15-.07-.17,0-.48-.1-.66,1.21-.21,1.87.81,3,.52.36-1-.52-1.07-1-1.72s-.49-1.61-1-2.1-.94-.31-1.3-.56a5.66,5.66,0,0,1-1.17-1.51c-.46-.62-1.69-2.15-2.13-.36-1.4-.1-1.76-2.3-3.48-2-1.48.25-.63.92-.61,1.86s-1.16,2.82-.6,3.54c-1.17.68-1.52-.81-2.27-1.32-1-.65-2.34-.78-3.39-1.52s-1.5-.8-.07-2.22a5,5,0,0,1,1.88-1.29c1-.08,1.47,1,2.45.37-.2-.93-1.36-.56-1.38-1.62a10,10,0,0,1,1.8-.5c.2-.5.1-.94-.68-1.13.94-.3,3.39-.65,4.18.33,1,1.28-1.59,1.56-2.06,2.24.85.58,1.79-.25,2.61,0,.65.24.53,1.09,1.78,1,0,.17.05.37.06.52,2.13.57,1-1.14,1.08-1.51.14-.55.89-.72,1-1.32-1-.29-2.55,0-2.4-1.54-1.45-.44-2.83-.75-4.27-1.3a3.12,3.12,0,0,0-2.09-.3c-.54,0-1.37-.07-1.75,0-3.16.63,1.27,1.69.42,2.72-.33.4-2.31-.21-2.53-.6-.51-.91.34-1.3.52-2.09-2.29-1-1.69,2.2-3.46,2.91-1,.39-2.18-.42-3.18-.39a14.88,14.88,0,0,1-1.69.28c-1.17-.11-2.16-.73-3.38-.84-.59,0-1.22-.12-1.81-.13a33.27,33.27,0,0,0-6.4,0c-1.83.34-3.23-.19-5.06-.5-1.64-.29-3.49.21-5.16.29-.66,0-1.66-.44-1.34.78C-6,52.27-6.36,53.15-6.27,52.7Z"/><path class="cls-3" d="M35.34,47.14a3.08,3.08,0,0,1-1.82.6c1.27,1.59,5.47-.42,7.07,1.25.63.66.11,1.27.31,2s.82,1.22,1.17,1.84c-2.54,1.52,1.77,3.32,2.81,3.79.57.26.95.9,1.58.63,1.24-.52,0-2.17.84-2.93.7-.62,3.3-.37,4.2-.7,1.09-.41.85-1,1.52-1.6,1.07-.9,4-1.46,1.56-3.42.85-.44,2.14-1.35,2.29-2.33-.95-.37-2-.26-3-.65-.23-.08-.35-.51-.79-.61-.61-.14-1.28.32-1.84.39-1.4.18-9-.63-8.9.86a19.41,19.41,0,0,0-4.11.19c-.54.13-.77.52-1.33.66S35,47.42,35.34,47.14Z"/><path class="cls-3" d="M68.55,69.65c-1.37,1.55,2.29,1.63,3.14,2,.61.28,2.09,1.63,1.73-.12a7.53,7.53,0,0,1,3.57.83,13.68,13.68,0,0,1,1.06,1.93,7.55,7.55,0,0,1,1,1.92,11.1,11.1,0,0,0,3.15,4.7c.48.45,1,1.26,1.54,1.43.82.26,1.92-.62,2.85-.55,0,.82-.8,1-1.21,1.64s-.51,1.7-.85,2.39c-.79,1.65-2.63,3-2.92,4.64-.36,2.09,1.9,3.91-.28,5.56-1.37,1-1.73.8-1.85,2.73-.07,1,.07,1.25-.6,2s-.86-.26-1,.88c-.08.73.86,1,0,2s-2.68.75-3.74,1.36c-.56.32-1.43,1.51-2.27,1.1-1-.52.17-.65.17-1.29,0-1.37-1.31-2.13-1.51-3.58-.13-.88.08-1.06-.35-1.85s-.8-.71-1-1.67c-.42-2,1-3.11.59-5a9.11,9.11,0,0,0-.31-1.88c-.37-.74-1.61-.75-1.85-1.46-.55-1.65,1.67-2.78-.42-4.08.25.16-1.75-.56-1.44-.54-.65,0-1,.42-1.51.56-.9.24-1.52-.16-2.34-.19a8.52,8.52,0,0,1-1.82,0,4.4,4.4,0,0,1-2.74-2.54c-.66-1.49.07-2.8-.33-4.41-.34-1.35-.46-1.46.57-2.63.79-.91,1.38-1.77,2.08-2.68.25-.34.7-.08,1-.57s-.23-1.22,0-1.53c.38-.54,1.36,0,1.59-.72.32-1-1.06-.82-1.47-1.3a2.65,2.65,0,0,1-.25-2.39c.61-.75,2.79-.13,3.14-1.28.26-.85-1.28-1.36-1.53-2,.42-.61,1.72-.7,2.39-1,1.3-.64,2.12-1.79,3.69-1.67-.06-.5-.48-2,.62-1.49.52.24.27,1.11.83,1.38s2-.38,2.57-.51c1.49-.31,1.47-.65,2.33-1.35.59-.47,2.19-1.6,3.07-1.43-1-.42-4.7.77-4.57-1.11.08-1.13,2.08-.82,2.12-2s-1.19-.61-1.75-.2-.64,1-.92,1.28-1.18.7-1.28,1c-.21.62.57,1,.35,1.7a3.28,3.28,0,0,1-1.51,1.2c-.29-2-.84-1.29-2.19-1.16-2.26.22,0-1-1.55-1.82.69-.57,1.74-.56,2.41-1.08.49-.39.59-1,1.06-1.42A10.49,10.49,0,0,1,72,52.37a12.69,12.69,0,0,1,2.18-.82c2.33-.48,6.28.43,7.91,2.14-1,1.28-2.13-.44-3.1,0s.42,1.19.69,1.71c.43-.12,1-.65,1.42-.7s.65.63,1.15.37c.81-.41.47-1.15,1.6-1.57a16.72,16.72,0,0,1,3.56-1.06c.86-.11,1.64.26,2.48.1a3.38,3.38,0,0,0-.11-.57c1.67-.12,2.76.74,4.1,1-.48-1.33-.58-2.2,1.32-2.56.15.47-.33.94-.24,1.29,0,0,.35.83.36.71-.08.61.62,1.12-.71,1.17a.85.85,0,0,0,.13.58,2.37,2.37,0,0,0,2-1.84c.15-.44-.56-.48-.07-1,.66-.67,2.18.37,2.07-1.15,2.43-.75,5.23-.72,7.44-1.43,1.53-.49,5.68-1.25,7.12.12-1,.55-2.94.28-3.52,1.4.77.23,1.26-.14,2-.29a7.64,7.64,0,0,1,3.31.26c1.4.32,2-.3,3.29-.19,1.54.13.9,1.58,2.42,1.62.34,0,.69-.5,1.05-.56.79-.14,1.61.19,2.37,0,0-.91,3.85-.5,4.93-.33a50.1,50.1,0,0,1,4.94,1.34c.49.13.89-.08,1.35,0a10.88,10.88,0,0,1,1.62.54c.82-.13.73-.69,1.8-.67,2,0,4.23,1.76,6.19,1.83-.3.66-1.12.53-1.3,1.27-1.4-.49-2.6-1.12-3.91-.15.25.16.47.59.69.73-.64.18-1.54-.07-2.13.21s-.45,1-1.47,1.23c-1.22.31-3-.43-3.89.83.18.15.29.46.47.62a7.33,7.33,0,0,1-3,2.92c-.57-.39-.66-2.34-.28-2.84s1.72-1.07,2.21-1.52a17.69,17.69,0,0,0,1.17-1.36c-1.36-.44-2.18.8-3.34,1.19s-1.82,0-2.88.15c-1.52.19-4.56.81-5.52,2.12,1.31.86,2.34.41,3.41,1.81A27.8,27.8,0,0,1,123,64c-.71,1-1.42,2.11-2.63,2.48-1,.3-1.33-.24-1.66.8-.24.74.53,1.88.85,2.38-.41.33-.36.26-.81.2.12-.31,0-.76.19-1.11-1.38-.82-3.65-2.53-4.69,0a6,6,0,0,0,1.55.36c-1.14.86-.38,1.15-.18,2.1a3.11,3.11,0,0,1-.72,2.9,5,5,0,0,1-2.56,2.18c-1.1.47-2.69.52-3.36,1.62.9,1,2.19,1,2,2.74A5.14,5.14,0,0,1,109,83.41c-.74-1.88-2.85-2.43-4-3.61-.23-.23,0-.72-.13-1s-.74-.71-1-1-.63-1.26-1.18-1.45c-.92-.31-1.34.32-1.84,1.1-.14.23.09.71-.09,1s-.83.48-1.12.81c-1,1.16-.59,3.27-2.25,3.81-1.05-1-1.81-5.48-1.77-6.92-1.19,1.21-1.47.29-2.42-.34-.78-.51.38-.28-.72-.71-.46-.19-1.1.06-1.58,0A10.44,10.44,0,0,1,87,73.61c-.72-.43-1-1.62-2.09-.73,1,1,2,4,3.61,1.84,1.13,1.66,1.8,1.68-.22,3.14a21,21,0,0,1-5,2.47c-.71-.66-.63-1.71-1.23-2.42-.33-.4-1-.52-1.41-1-.61-.69-.56-1.49-1-2.25-.52-1-2-1.61-2-2.89,2.39.08,1.43-1.36,1.56-3.11-1-.25-1.58.13-2.41.09-1.29-.06-1-.34-1.57-1.11-.22-.31-.68-1.8-1.54-.83s.73,1,.75,1.39-.6,1.22-1.22,1-.48-1.71-.77-2.35-3.35-3.43-3.92-1.78c1,.94,3,1.65,2.55,3.25-.37.2-.8.37-1.12.58-.62-.68.29-1.1-.36-2.05a2.64,2.64,0,0,0-2.28-1.36,6.94,6.94,0,0,0-1.29.58c-.21.1-.63-.14-.82,0s-.12.63-.24.71c-.77.58-2.8,1-2.4,2.4C63.35,70.29,66.88,69.65,68.55,69.65Z"/><path class="cls-3" d="M103.93,87.12a2.81,2.81,0,0,0-.74,1.55c-.76.32-1.15-.58-1.84,0-.35.3,0,1.33-.75,1.86-1,.72-3.21.62-3.84,2-.49,1,.33.74.48,1.6.1.59-.11,1.6,0,2.32s-.19,1.69.39,2.25c1.15,1.11,1.5-.21,2.2-.71,1.11-.78,6.09-1.55,6.15.39,1.21.37,2.71.2,2.42,2a3.77,3.77,0,0,0,3.4-.69c.15-.18-.11-.59,0-.79.28-.46.54-.68.87-1.13.56-.76,1.3-1.52,1.15-2.61-.26-1.83-2.94-3.34-3.75-4.94-.32-.63-.2-1.28-.51-1.93s-.91-.79-1.06-1.55c-1.53.61.51,2.06,0,3-.33.61-2.47-.12-2.74-.69s1.14-1,.15-1.73C105.32,86.93,104.22,87.54,103.93,87.12Z"/><path class="cls-3" d="M53.92,123.65A4,4,0,0,1,55.68,120c1-.53,2.22-.31,3.33-.31,2.08,0,4.78.44,6.79-.07.21-1.25.61-1.56,1.61-2.37.22-.18.83-.71,1.1-.7.76,0,.56.79.92,1.11,1.65,1.45,2.8-2.76,4.21-3.25.5-.17,1-.06,1.51-.25.3-.11.7-.48,1-.56,1.89-.55,1,.75.45,1.65s-1.18,2.34.33,2.26c.61,0,1.12-.45,1.77-.49s1.18,0,1.77,0c1.1,0,1.76.4,2.88.44a2.66,2.66,0,0,1,2.22,1.31c1.11,1.82-2.6,2.69-3.77,3.12-2.07.76-4,2-6.19,2.55a34.06,34.06,0,0,1-8,.54,18,18,0,0,1-4.41-.1C62.09,124.59,52.44,124.38,53.92,123.65Z"/><path class="cls-3" d="M74.7,37c1.31,0,1.66.32,1,1.45-.55,1-.65.87-.19,2-.68.94-2.31.25-3.25-.09-.46-.17-1.23-.94-1.75-.68s-.17,1.07-.22,1.54a1.48,1.48,0,0,1-2.5,1.13,8.29,8.29,0,0,1-1-1.18c-.61-.68-.62-.55-1.34-.39a6.6,6.6,0,0,1-1.77.22,1.72,1.72,0,0,0-1.42.45c-1.19.74-2.07.29-2.9-.86-.33-.46-.31-1.29-1-1.41-.47-.08-1.23.51-1.79.52-1.78,0-1.76-1.3-1.77-2.68.79-.71,1.17-.42,2.19-.44a29.12,29.12,0,0,0,3.13-.46c1.62-.2,3.43-.85,5.07-.85s3.24.87,4.86.87a19.88,19.88,0,0,1,2.44,0C73.37,36.21,73.75,37,74.7,37Z"/></g></svg>