<svg width="100" height="31" viewBox="0 0 100 31" fill="none" xmlns="http://www.w3.org/2000/svg">
<g clip-path="url(#clip0_414_9236)">
<g clip-path="url(#clip1_414_9236)">
<g clip-path="url(#clip2_414_9236)">
<mask id="mask0_414_9236" style="mask-type:luminance" maskUnits="userSpaceOnUse" x="1" y="0" width="97" height="30">
<path d="M97.8771 0.848633H1.53906V29.854H97.8771V0.848633Z" fill="white"/>
</mask>
<g mask="url(#mask0_414_9236)">
<g opacity="0.4">
<path fill-rule="evenodd" clip-rule="evenodd" d="M61.308 23.5354C55.7315 27.6581 47.6211 29.855 40.6253 29.855C31.2938 29.9014 22.2802 26.4669 15.3457 20.2227C14.8392 19.7496 15.2776 19.1069 15.9226 19.4796C22.6379 23.3442 30.1565 25.6021 37.8898 26.0769C45.6232 26.5518 53.3615 25.2305 60.4992 22.2165C61.443 21.8461 62.2207 22.8638 61.308 23.5354Z" fill="black"/>
<path fill-rule="evenodd" clip-rule="evenodd" d="M63.6408 20.8656C62.9312 19.9529 58.9101 20.426 57.1181 20.6625C56.577 20.7306 56.4754 20.2574 56.9831 19.9193C60.1943 17.6555 65.4316 18.3306 66.0408 19.0748C66.6501 19.8191 65.8724 25.091 62.8643 27.5914C62.3912 27.9629 61.9515 27.7597 62.1546 27.2532C62.8296 25.564 64.3504 21.8118 63.6408 20.8656Z" fill="black"/>
<path fill-rule="evenodd" clip-rule="evenodd" d="M57.2189 4.0336V1.8413C57.215 1.76923 57.2264 1.69716 57.2523 1.62978C57.2781 1.56239 57.3178 1.50119 57.3689 1.45016C57.4199 1.39912 57.4811 1.35938 57.5485 1.33353C57.6159 1.30769 57.688 1.29633 57.7601 1.30015H67.5574C67.7053 1.2964 67.8489 1.35106 67.9569 1.45234C68.0649 1.55362 68.1286 1.69337 68.1343 1.8413V3.70013C68.1343 4.00475 67.8643 4.40977 67.3913 5.08477L62.3223 12.3171C64.2541 12.213 66.179 12.6197 67.9036 13.4963C68.0532 13.5819 68.1784 13.7047 68.267 13.8525C68.3558 14.0004 68.405 14.1685 68.41 14.3409V16.6728C68.41 17.0109 68.072 17.3824 67.7005 17.1793C66.1014 16.3517 64.3259 15.9225 62.5254 15.9283C60.7248 15.9341 58.9523 16.3748 57.3584 17.2128C57.2778 17.2417 57.1914 17.2507 57.1066 17.2389C57.0218 17.227 56.941 17.1949 56.8713 17.1451C56.8015 17.0954 56.7449 17.0295 56.7062 16.9531C56.6674 16.8766 56.6478 16.792 56.6489 16.7063V14.4724C56.6157 13.9502 56.7455 13.4304 57.0204 12.9851L62.9051 4.57013H57.8015C57.6536 4.57388 57.5101 4.51922 57.4021 4.41795C57.2941 4.31667 57.2304 4.17692 57.2246 4.02899L57.2189 4.0336ZM21.497 17.649H18.5189C18.3856 17.6357 18.2604 17.5788 18.1626 17.4873C18.0648 17.3957 17.9998 17.2745 17.9778 17.1424V1.8713C17.9834 1.72337 18.0473 1.58362 18.1551 1.48234C18.2631 1.38106 18.4067 1.3264 18.5547 1.33015H21.3239C21.461 1.33202 21.5924 1.38495 21.6925 1.47864C21.7926 1.57233 21.8541 1.70002 21.8651 1.83669V3.83053H21.9332C22.1963 3.00632 22.7146 2.2871 23.4132 1.77675C24.1119 1.26641 24.9546 0.991372 25.8199 0.991372C26.6851 0.991372 27.5278 1.26641 28.2265 1.77675C28.9251 2.2871 29.4434 3.00632 29.7066 3.83053C30.0031 2.98079 30.5626 2.24758 31.3038 1.73721C32.0451 1.22684 32.9297 0.965856 33.8292 0.992077C34.4971 0.978604 35.1584 1.12498 35.7582 1.41903C36.3579 1.71308 36.8787 2.14627 37.277 2.68246C38.2232 3.96669 38.0201 5.82553 38.0201 7.4813V17.147C38.0143 17.295 37.9506 17.4347 37.8426 17.536C37.7346 17.6373 37.5911 17.692 37.4432 17.6882H34.5031C34.3624 17.6798 34.2296 17.62 34.1299 17.5203C34.0302 17.4206 33.9704 17.2878 33.962 17.147V9.03667C34.0073 8.07857 33.9845 7.11848 33.8938 6.1636C33.8319 5.75713 33.6128 5.39123 33.2837 5.14477C32.9545 4.89831 32.5418 4.791 32.1343 4.84592C31.7463 4.85712 31.3701 4.98145 31.052 5.20367C30.7338 5.4259 30.4876 5.7363 30.3436 6.09667C30.0986 7.05623 30.0074 8.04856 30.0736 9.03667V17.147C30.0678 17.295 30.0041 17.4347 29.8961 17.536C29.7881 17.6373 29.6446 17.692 29.4966 17.6882H26.5231C26.3824 17.6798 26.2496 17.62 26.1499 17.5203C26.0502 17.4206 25.9904 17.2878 25.982 17.147V9.03667C25.982 7.34628 26.252 4.81246 24.1566 4.81246C22.0278 4.81246 22.0947 7.2459 22.0947 9.03667V17.147C22.0735 17.2915 21.9996 17.4232 21.8875 17.5166C21.7752 17.6101 21.6325 17.6589 21.4866 17.6536L21.497 17.649ZM76.5838 0.987464C81.0111 0.987464 83.4113 4.77208 83.4113 9.60554C83.4113 14.2694 80.7747 17.987 76.5838 17.987C72.2581 17.987 69.8916 14.2024 69.8916 9.47053C69.8582 4.70514 72.2569 0.987464 76.5838 0.987464ZM76.5838 4.13054C74.3915 4.13054 74.252 7.1386 74.252 8.99745C74.252 10.8563 74.2186 14.844 76.5505 14.844C78.849 14.844 78.9839 11.6328 78.9839 9.6736C79.0254 8.30787 78.8774 6.94297 78.5443 5.61785C78.4519 5.17529 78.2022 4.78116 77.8416 4.50855C77.4809 4.23593 77.0337 4.10328 76.5828 4.13515L76.5838 4.13054ZM89.1216 17.649H86.1482C86.0074 17.6405 85.8746 17.5808 85.7749 17.4811C85.6752 17.3814 85.6154 17.2486 85.607 17.1078V1.80323C85.6257 1.66333 85.6944 1.5349 85.8005 1.44178C85.9066 1.34865 86.0427 1.2971 86.184 1.29667H88.9532C89.0789 1.30087 89.1999 1.34614 89.2976 1.42551C89.3953 1.50488 89.4644 1.61401 89.4943 1.7363V4.06821H89.5623C90.407 1.97283 91.5561 0.993203 93.6181 0.993203C94.3041 0.962033 94.9864 1.11093 95.5971 1.42509C96.2079 1.73924 96.7257 2.20771 97.0992 2.78398C97.877 4.00128 97.877 6.06205 97.877 7.54936V17.1817C97.8566 17.318 97.7862 17.4419 97.6796 17.5293C97.573 17.6168 97.4378 17.6614 97.3001 17.6547H94.3265C94.1982 17.6426 94.0768 17.5905 93.9797 17.5055C93.8826 17.4206 93.8147 17.3073 93.7855 17.1817V8.86822C93.7855 7.17899 93.9886 4.74553 91.9266 4.74553C91.5533 4.76295 91.1927 4.88667 90.8873 5.10212C90.5818 5.31758 90.3444 5.61578 90.2028 5.96167C89.8412 6.88614 89.68 7.87681 89.7297 8.86822V17.1147C89.7109 17.2632 89.639 17.4 89.5272 17.4995C89.4154 17.599 89.2713 17.6546 89.1216 17.6559V17.649ZM49.412 10.3486C49.5224 11.4369 49.3354 12.5348 48.8709 13.5251C48.6823 13.9165 48.3909 14.2493 48.0275 14.4874C47.6643 14.7257 47.243 14.8606 46.8089 14.8774C45.6551 14.8774 44.9836 13.9982 44.9836 12.714C44.9836 10.1755 47.2474 9.70592 49.4109 9.70592L49.412 10.3486ZM52.42 17.6178C52.3238 17.7019 52.2035 17.7537 52.0761 17.766C51.9489 17.7782 51.821 17.7502 51.7105 17.6859C51.0221 17.1288 50.4384 16.4537 49.9866 15.692C49.3974 16.4125 48.6466 16.9839 47.795 17.3597C46.9436 17.7356 46.0156 17.9055 45.0863 17.8555C44.4763 17.8913 43.8661 17.7947 43.2971 17.5722C42.7281 17.3498 42.2141 17.0067 41.7903 16.5668C41.3665 16.1269 41.0429 15.6004 40.8418 15.0236C40.6407 14.4467 40.5669 13.8332 40.6254 13.2251C40.5904 12.1858 40.8766 11.1609 41.4449 10.29C42.0134 9.41908 42.8364 8.74455 43.802 8.35823C45.6159 7.75659 47.5031 7.40412 49.412 7.31052V6.93899C49.513 6.1968 49.3833 5.44149 49.0404 4.77553C48.8462 4.5236 48.5946 4.3216 48.3066 4.18635C48.0186 4.0511 47.7026 3.98647 47.3846 3.99782C46.8346 3.94982 46.286 4.1058 45.8435 4.43601C45.4009 4.76623 45.0953 5.24761 44.9846 5.78859C44.9165 6.05859 44.7539 6.32975 44.4782 6.32975L41.605 6.02515C41.5356 6.0154 41.4689 5.99174 41.4089 5.95558C41.3489 5.91942 41.2968 5.87151 41.2557 5.81473C41.2148 5.75793 41.1856 5.69343 41.17 5.6251C41.1545 5.55677 41.1529 5.48602 41.1654 5.41707C41.8415 1.90245 44.9847 0.854748 47.8232 0.854748C49.4544 0.784994 51.0548 1.31396 52.3231 2.34205C53.7758 3.69436 53.6409 5.51859 53.6409 7.47898V12.1094C53.6598 13.1382 54.0569 14.1241 54.7566 14.8786C54.9597 15.1486 54.9932 15.4867 54.7566 15.6563C54.1093 16.1663 53.0258 17.1124 52.42 17.6178ZM10.3785 10.3486C10.489 11.4369 10.3019 12.5348 9.83735 13.5251C9.64887 13.9165 9.35735 14.2493 8.99409 14.4874C8.63082 14.7257 8.20954 14.8606 7.77544 14.8774C6.62159 14.8774 5.95005 13.9982 5.95005 12.714C5.95005 10.1755 8.21389 9.70592 10.3774 9.70592L10.3785 10.3486ZM13.3532 17.6178C13.2568 17.7019 13.1366 17.7537 13.0093 17.766C12.882 17.7782 12.7541 17.7502 12.6435 17.6859C11.9552 17.1288 11.3714 16.4537 10.9197 15.692C10.3304 16.4125 9.57958 16.9839 8.72816 17.3597C7.87672 17.7356 6.94866 17.9055 6.01929 17.8555C5.40945 17.8913 4.7991 17.7947 4.23017 17.5722C3.66123 17.3498 3.14719 17.0067 2.72337 16.5668C2.29955 16.1269 1.97598 15.6004 1.7749 15.0236C1.57383 14.4467 1.50001 13.8332 1.55852 13.2251C1.52348 12.1858 1.80965 11.1609 2.37806 10.29C2.94647 9.41908 3.76949 8.74455 4.73504 8.35823C6.54898 7.75659 8.43624 7.40412 10.345 7.31052V6.93899C10.4461 6.1968 10.3164 5.44149 9.97352 4.77553C9.77924 4.5236 9.52767 4.3216 9.23971 4.18635C8.95174 4.0511 8.63568 3.98647 8.31774 3.99782C7.76765 3.94982 7.21914 4.1058 6.77659 4.43601C6.33403 4.76623 6.02835 5.24761 5.91775 5.78859C5.84967 6.05859 5.6812 6.32975 5.4112 6.32975L2.53813 6.02515C2.46875 6.0154 2.40204 5.99174 2.34202 5.95558C2.282 5.91942 2.2299 5.87151 2.18884 5.81473C2.14779 5.75793 2.11862 5.69343 2.1031 5.6251C2.08758 5.55677 2.08601 5.48602 2.0985 5.41707C2.77466 1.90245 5.91774 0.854748 8.7562 0.854748C10.3874 0.784994 11.9879 1.31396 13.2563 2.34205C14.7089 3.69436 14.5739 5.51859 14.5739 7.47898V12.1094C14.593 13.1381 14.9901 14.124 15.6897 14.8786C15.8928 15.1486 15.9263 15.4867 15.6897 15.6563C15.047 16.1628 13.9659 17.109 13.3578 17.6178H13.3532Z" fill="black"/>
</g>
</g>
</g>
</g>
</g>
<defs>
<clipPath id="clip0_414_9236">
<rect width="100" height="30" fill="white" transform="translate(0 0.848633)"/>
</clipPath>
<clipPath id="clip1_414_9236">
<rect width="100" height="30" fill="white" transform="translate(0 0.848633)"/>
</clipPath>
<clipPath id="clip2_414_9236">
<rect width="96.9231" height="30" fill="white" transform="translate(1.53906 0.848633)"/>
</clipPath>
</defs>
</svg>
