<svg width="100" height="31" viewBox="0 0 100 31" fill="none" xmlns="http://www.w3.org/2000/svg">
<g clip-path="url(#clip0_414_9247)">
<g clip-path="url(#clip1_414_9247)">
<mask id="mask0_414_9247" style="mask-type:luminance" maskUnits="userSpaceOnUse" x="0" y="3" width="100" height="25">
<path d="M99.2 3.80176H0V27.462H99.2V3.80176Z" fill="white"/>
</mask>
<g mask="url(#mask0_414_9247)">
<g opacity="0.4">
<path d="M23.2988 25.8885H17.7964L16.1096 21.8295H6.94458L5.41084 25.8885H0L8.26626 5.3861H14.1892L23.2988 25.8885ZM11.3036 10.2849L8.29157 18.2512H14.6048L11.3036 10.2849ZM43.2831 5.3861H47.7325V25.8885H42.6217V13.0789L37.0904 19.5114H36.3084L30.7771 13.0789V25.8885H25.6626V5.3861H30.1205L36.6988 12.9921L43.2831 5.3861ZM60.6831 5.3861C68.1687 5.3861 72.0157 10.0451 72.0157 15.6668C72.0157 21.5584 68.2879 25.8885 60.112 25.8885H51.6337V5.3861H60.6831ZM56.747 22.1307H60.0831C65.2241 22.1307 66.7566 18.6367 66.7566 15.6355C66.7566 12.1174 64.8626 9.14272 60.0229 9.14272H56.747V22.1307ZM82.1831 10.2475L75.7385 3.80176H99.2V27.2644L92.7554 20.8198V10.2475H82.1831ZM82.1759 11.5391L75.5422 18.174V27.462H84.8289L91.4639 20.8271H82.1759V11.5391Z" fill="black"/>
</g>
</g>
</g>
</g>
<defs>
<clipPath id="clip0_414_9247">
<rect width="100" height="30" fill="white" transform="translate(0 0.848633)"/>
</clipPath>
<clipPath id="clip1_414_9247">
<rect width="100" height="24.0964" fill="white" transform="translate(0 3.80176)"/>
</clipPath>
</defs>
</svg>
