<svg width="100" height="31" viewBox="0 0 100 31" fill="none" xmlns="http://www.w3.org/2000/svg">
<g clip-path="url(#clip0_414_9256)">
<g clip-path="url(#clip1_414_9256)">
<g opacity="0.4">
<path d="M40.6415 27.5923H38.4922V19.0752H40.6415V27.5923Z" fill="black"/>
<path d="M57.9729 21.5149C57.4181 21.2138 56.7964 21.057 56.1651 21.059C55.8584 21.0422 55.5516 21.0889 55.2637 21.1961C54.9759 21.3033 54.7132 21.4686 54.4923 21.682C54.2713 21.8953 54.0968 22.152 53.9796 22.436C53.8625 22.7199 53.8053 23.0249 53.8115 23.332C53.8051 23.6391 53.8621 23.9443 53.9791 24.2283C54.0961 24.5124 54.2706 24.7693 54.4916 24.9828C54.7126 25.1962 54.9753 25.3618 55.2633 25.4689C55.5513 25.5761 55.8584 25.6227 56.1651 25.6056C56.7959 25.607 57.4171 25.4515 57.9729 25.1533V27.4391C57.3381 27.6338 56.6784 27.7356 56.0144 27.7418C55.4219 27.7693 54.8301 27.6749 54.2755 27.4646C53.7209 27.2543 53.2154 26.9325 52.7901 26.519C52.3647 26.1058 52.0286 25.6098 51.8024 25.0615C51.5762 24.5133 51.4649 23.9243 51.4751 23.3313C51.4654 22.7385 51.5772 22.15 51.8036 21.602C52.0301 21.0542 52.3663 20.5586 52.7916 20.1456C53.2169 19.7327 53.7223 19.4113 54.2765 19.2011C54.8308 18.991 55.4223 18.8964 56.0144 18.9235C56.6791 18.9253 57.3395 19.0284 57.9729 19.2298V21.5149ZM35.5394 21.5149C34.9855 21.2133 34.3644 21.0565 33.7336 21.0598C33.4267 21.0423 33.1195 21.0888 32.8313 21.1958C32.543 21.3027 32.28 21.4679 32.0587 21.6813C31.8372 21.8946 31.6624 22.1515 31.5449 22.4356C31.4276 22.7198 31.3702 23.0253 31.3765 23.3327C31.3701 23.6402 31.4274 23.9458 31.5447 24.23C31.6619 24.5144 31.8367 24.7713 32.058 24.9848C32.2794 25.1983 32.5426 25.3637 32.8309 25.4707C33.1193 25.5776 33.4266 25.6238 33.7336 25.6063C34.3639 25.6085 34.9846 25.4528 35.5394 25.154V27.4398C34.904 27.6355 34.2435 27.7373 33.5787 27.7425C32.9864 27.77 32.3948 27.6756 31.8404 27.4653C31.2861 27.255 30.7809 26.9332 30.3558 26.5198C29.9309 26.1063 29.5952 25.6102 29.3695 25.0619C29.1438 24.5136 29.0329 23.9248 29.0437 23.332C29.0339 22.7395 29.1455 22.1515 29.3716 21.6038C29.5978 21.0562 29.9337 20.5605 30.3587 20.1477C30.7836 19.7348 31.2886 19.4135 31.8426 19.2032C32.3964 18.9929 32.9875 18.8981 33.5794 18.9249C34.2445 18.9257 34.9055 19.0284 35.5394 19.2298V21.5149ZM64.7344 21.0918C64.4402 21.089 64.1484 21.1453 63.8763 21.2571C63.6042 21.369 63.3573 21.5344 63.1501 21.7433C62.943 21.9522 62.7799 22.2003 62.6703 22.4733C62.5607 22.7463 62.507 23.0386 62.5123 23.3327C62.5067 23.627 62.5603 23.9192 62.6697 24.1924C62.7791 24.4656 62.9422 24.7143 63.1494 24.9234C63.3566 25.1325 63.6036 25.298 63.8759 25.41C64.1481 25.522 64.44 25.5784 64.7344 25.5756C65.0288 25.5783 65.3207 25.522 65.5929 25.41C65.8651 25.298 66.1122 25.1325 66.3194 24.9234C66.5267 24.7144 66.69 24.466 66.7997 24.1928C66.9094 23.9195 66.9632 23.627 66.958 23.3327C66.9625 23.0383 66.9079 22.7459 66.7975 22.473C66.6871 22.2 66.5231 21.9518 66.3151 21.7433C66.1079 21.5345 65.861 21.3694 65.5889 21.2575C65.3168 21.1456 65.0251 21.0891 64.7309 21.0918H64.7344ZM69.2309 23.332C69.2363 23.9203 69.1229 24.5038 68.8976 25.0473C68.6722 25.5907 68.3396 26.0831 67.9194 26.495C67.4993 26.9069 67.0004 27.2298 66.4524 27.4443C65.9046 27.6589 65.319 27.7604 64.7309 27.7433C64.1428 27.7605 63.5572 27.6591 63.0093 27.4447C62.4614 27.2303 61.9624 26.9075 61.5422 26.4957C61.122 26.0838 60.7892 25.5912 60.5639 25.0476C60.3386 24.504 60.2253 23.9204 60.2308 23.332C60.2258 22.7438 60.3394 22.1606 60.565 21.6174C60.7906 21.0742 61.1235 20.5823 61.5437 20.1707C61.9639 19.7591 62.4627 19.4363 63.0105 19.222C63.5582 19.0078 64.1436 18.9063 64.7316 18.9235C65.3194 18.9065 65.9046 19.0083 66.4522 19.2228C66.9999 19.4372 67.4986 19.7598 67.9186 20.1714C68.3387 20.583 68.6714 21.0747 68.897 21.6178C69.1226 22.1608 69.2356 22.744 69.2309 23.332ZM48.7901 21.0105C48.242 20.8595 47.6783 20.7727 47.1101 20.7514C46.2487 20.7514 45.7809 21.0368 45.7809 21.449C45.7809 21.9683 46.4123 22.1491 46.7659 22.2605L47.3586 22.4493C47.9217 22.5683 48.4284 22.8735 48.7968 23.3156C49.1651 23.7578 49.3739 24.3108 49.3894 24.8861C49.3894 27.029 47.508 27.7433 45.863 27.7433C45.0844 27.736 44.3081 27.6583 43.5436 27.5106V25.5491C44.2038 25.7411 44.8858 25.8475 45.5729 25.8662C46.6444 25.8662 47.1336 25.5535 47.1336 25.0713C47.1336 24.6428 46.7051 24.3906 46.1751 24.2235C46.0459 24.1799 45.8494 24.1192 45.7165 24.0749C44.5194 23.6963 43.5215 22.9925 43.5215 21.5833C43.5215 19.9904 44.7144 18.9207 46.6951 18.9207C47.4016 18.9303 48.1045 19.021 48.7901 19.1913V21.0092V21.0105Z" fill="black"/>
<path d="M26.7632 9.9206C26.7624 9.63824 26.6496 9.3676 26.4495 9.16831C26.2494 8.96903 25.9784 8.85753 25.696 8.85788C25.4138 8.85774 25.143 8.96924 24.943 9.16831C24.743 9.36738 24.63 9.63767 24.6289 9.91988V12.1562C24.6367 12.4345 24.7524 12.6988 24.9516 12.8932C25.1507 13.0876 25.4177 13.1967 25.696 13.1977C25.9746 13.1977 26.2422 13.0889 26.4416 12.8942C26.6411 12.6997 26.7565 12.4348 26.7632 12.1562V9.9206ZM32.6239 6.9864C32.6239 6.70337 32.5114 6.43178 32.3113 6.23165C32.1112 6.03153 31.8398 5.91915 31.5567 5.91915C31.2737 5.91915 31.0023 6.03153 30.8021 6.23165C30.602 6.43178 30.4896 6.70337 30.4896 6.9864V12.1562C30.4896 12.4392 30.602 12.7109 30.8021 12.911C31.0023 13.1111 31.2737 13.2235 31.5567 13.2235C31.8398 13.2235 32.1112 13.1111 32.3113 12.911C32.5114 12.7109 32.6239 12.4392 32.6239 12.1562V6.9864ZM38.4854 2.97063C38.4846 2.68829 38.3719 2.41771 38.1719 2.21833C37.9721 2.01895 37.7012 1.90722 37.4189 1.90723C37.1363 1.90703 36.8651 2.01878 36.6651 2.21833C36.465 2.41788 36.3524 2.68874 36.3518 2.97133V14.2806C36.3586 14.559 36.4741 14.8238 36.6735 15.0182C36.8729 15.2127 37.1404 15.3215 37.4189 15.3214C37.6974 15.3215 37.9649 15.2127 38.1643 15.0182C38.3636 14.8238 38.4791 14.559 38.486 14.2806L38.4854 2.97063ZM44.3461 6.9864C44.3461 6.70337 44.2336 6.43178 44.0335 6.23165C43.8334 6.03153 43.5619 5.91915 43.2789 5.91915C42.9959 5.91915 42.7244 6.03153 42.5243 6.23165C42.3241 6.43178 42.2117 6.70337 42.2117 6.9864V12.1562C42.2117 12.4392 42.3241 12.7109 42.5243 12.911C42.7244 13.1111 42.9959 13.2235 43.2789 13.2235C43.5619 13.2235 43.8334 13.1111 44.0335 12.911C44.2336 12.7109 44.3461 12.4392 44.3461 12.1562V6.9864ZM50.2031 9.9206C50.2034 9.63903 50.0917 9.36903 49.8929 9.16974C49.6939 8.97038 49.424 8.85831 49.1424 8.85788C48.8601 8.85731 48.5891 8.96881 48.389 9.16796C48.1889 9.36717 48.0761 9.6376 48.0753 9.91988V12.1562C48.0753 12.4383 48.1874 12.7091 48.3869 12.9085C48.5863 13.108 48.8568 13.22 49.1389 13.22C49.4204 13.219 49.69 13.1065 49.8886 12.9072C50.0874 12.7078 50.1989 12.4377 50.1989 12.1562L50.2031 9.9206ZM56.0668 6.9864C56.0599 6.70886 55.9448 6.44508 55.7461 6.25118C55.5474 6.05729 55.2808 5.94855 55.0032 5.94845C54.7256 5.94855 54.4589 6.05729 54.2603 6.25118C54.0616 6.44508 53.9465 6.70886 53.9396 6.9864V12.1562C53.9396 12.4383 54.0516 12.7091 54.2511 12.9085C54.4506 13.108 54.7211 13.22 55.0032 13.22C55.2853 13.22 55.5558 13.108 55.7552 12.9085C55.9547 12.7091 56.0668 12.4383 56.0668 12.1562V6.9864ZM61.9318 2.97063C61.9316 2.68868 61.8194 2.41833 61.6199 2.21903C61.4205 2.01972 61.1501 1.90792 60.8682 1.90792C60.5862 1.90792 60.3158 2.01972 60.1164 2.21903C59.9169 2.41833 59.8048 2.68868 59.8046 2.97063V14.2806C59.7961 14.4726 59.8399 14.6632 59.931 14.8324C60.0222 15.0015 60.1574 15.143 60.3224 15.2415C60.4875 15.3398 60.6761 15.3915 60.8682 15.3915C61.0603 15.3915 61.2489 15.3398 61.4139 15.2415C61.579 15.143 61.7144 15.0013 61.8055 14.832C61.8967 14.6627 61.9404 14.472 61.9318 14.28V2.97063ZM67.7954 6.9864C67.7949 6.84554 67.7666 6.70616 67.7121 6.57624C67.6577 6.44632 67.5782 6.32837 67.4781 6.22921C67.3779 6.13038 67.2593 6.05231 67.1289 5.99937C66.9984 5.94643 66.8589 5.91954 66.7182 5.92055C66.4361 5.92073 66.1655 6.03313 65.9661 6.2327C65.7666 6.43227 65.6546 6.70286 65.6546 6.985V12.1555C65.6542 12.2955 65.6815 12.4342 65.7348 12.5636C65.7881 12.693 65.8664 12.8108 65.9653 12.91C66.1649 13.1099 66.4357 13.2224 66.7182 13.2228C66.8591 13.224 66.9989 13.1974 67.1295 13.1443C67.2601 13.0912 67.3788 13.0127 67.4789 12.9135C67.5791 12.8143 67.6586 12.6965 67.713 12.5664C67.7673 12.4363 67.7953 12.2965 67.7954 12.1555V6.985V6.9864ZM73.6481 9.9206C73.6481 9.63817 73.5359 9.36731 73.3362 9.1676C73.1365 8.96788 72.8656 8.85546 72.5832 8.85546C72.3007 8.85546 72.0299 8.96788 71.8301 9.1676C71.6304 9.36731 71.5181 9.63817 71.5181 9.9206V12.1562C71.5179 12.2963 71.5452 12.4352 71.5986 12.5647C71.652 12.6942 71.7304 12.8118 71.8293 12.911C71.9282 13.0102 72.0457 13.0888 72.1751 13.1426C72.3044 13.1963 72.4431 13.2241 72.5832 13.2242C72.7231 13.224 72.8616 13.1963 72.9909 13.1426C73.1201 13.0888 73.2375 13.0101 73.3363 12.911C73.4351 12.8119 73.5135 12.6944 73.5669 12.565C73.6203 12.4357 73.6476 12.2969 73.6474 12.157V9.92131L73.6481 9.9206Z" fill="black"/>
<path d="M72.4158 26.4697V26.6033H72.0358V27.5914H71.8794V26.604H71.498V26.4697H72.4158ZM72.4952 26.4697H72.7394L73.075 27.3898H73.0808L73.4058 26.4704H73.6458V27.5914H73.4858V26.672H73.4801L73.1401 27.5914H72.9923L72.6601 26.672H72.653V27.5914H72.4965L72.4952 26.4697Z" fill="black"/>
</g>
</g>
</g>
<defs>
<clipPath id="clip0_414_9256">
<rect width="100" height="30" fill="white" transform="translate(0 0.848633)"/>
</clipPath>
<clipPath id="clip1_414_9256">
<rect width="100" height="30" fill="white" transform="translate(0 0.848633)"/>
</clipPath>
</defs>
</svg>
