<svg width="100" height="31" viewBox="0 0 100 31" fill="none" xmlns="http://www.w3.org/2000/svg">
<g clip-path="url(#clip0_414_9265)">
<g clip-path="url(#clip1_414_9265)">
<mask id="mask0_414_9265" style="mask-type:luminance" maskUnits="userSpaceOnUse" x="0" y="6" width="100" height="20">
<path d="M99.6033 6.0127H0V25.4742H99.6033V6.0127Z" fill="white"/>
</mask>
<g mask="url(#mask0_414_9265)">
<g opacity="0.4">
<path fill-rule="evenodd" clip-rule="evenodd" d="M3.03331 7.84461C3.7778 7.19774 4.64295 6.70464 5.57891 6.39373C6.51487 6.08283 7.50311 5.96026 8.48664 6.03311C9.47025 6.10595 10.4296 6.37276 11.3096 6.81816C12.1895 7.26356 12.9725 7.87873 13.6136 8.62821C14.9922 10.0223 15.7974 11.8829 15.8699 13.8421C15.9425 15.8013 15.2771 17.7164 14.0054 19.2085L8.12757 25.0864C6.95216 24.3028 4.99315 22.7356 5.77675 21.1675C7.34397 19.2085 9.30131 17.6429 10.871 15.6815C12.0464 14.1143 11.2628 10.979 8.91197 10.5872C8.38451 10.4028 7.81845 10.357 7.26811 10.454C6.71779 10.5511 6.2016 10.7878 5.76898 11.1415C5.33636 11.4953 5.00181 11.9542 4.79736 12.4742C4.59292 12.9943 4.52543 13.5582 4.60134 14.1118C4.60134 16.0708 6.16856 17.2462 7.34397 18.4225C6.16856 19.5979 4.60134 20.3815 4.60134 21.947C3.42593 20.3798 1.46692 19.2044 0.682494 17.2446C-0.03392 15.6406 -0.191649 13.8428 0.234543 12.1386C0.660735 10.4344 1.64621 8.92247 3.03331 7.84461Z" fill="black"/>
<path fill-rule="evenodd" clip-rule="evenodd" d="M28.1137 7.84337C28.5055 6.66795 29.6809 7.05976 30.4645 7.05976V21.554H28.1137V20.3819C27.1702 21.1425 25.9948 21.5574 24.7829 21.5574C23.5711 21.5574 22.3956 21.1425 21.4522 20.3819C20.367 19.3911 19.717 18.0117 19.6437 16.5441C19.5703 15.0764 20.0795 13.6391 21.0604 12.545C21.9425 11.5849 23.1424 10.9766 24.4382 10.8326C25.734 10.6885 27.0382 11.0185 28.1096 11.7614L28.1137 7.84337ZM24.5891 12.9376C22.6301 13.3294 21.0645 16.072 22.6301 18.0319C22.9228 18.4589 23.3227 18.8014 23.7897 19.0249C24.2565 19.2485 24.7741 19.3453 25.2902 19.3056C25.8065 19.2659 26.3031 19.0911 26.7303 18.7988C27.1576 18.5065 27.5004 18.1068 27.7243 17.6401C28.8973 15.6802 26.9374 12.9368 24.5866 12.9368L24.5891 12.9376Z" fill="black"/>
<path fill-rule="evenodd" clip-rule="evenodd" d="M32.4219 10.9775H34.7727V11.7611C35.5563 10.5857 37.1235 10.5857 38.6915 10.9775C38.2997 11.7611 37.9079 12.1529 37.9079 12.9365C36.3407 12.5447 34.7735 13.3283 34.7735 14.5037V20.3816C34.3809 21.5611 33.2055 21.5611 32.4219 21.5611V10.9775Z" fill="black"/>
<path fill-rule="evenodd" clip-rule="evenodd" d="M42.2179 10.9798C46.1368 9.41259 50.0548 13.3306 49.2671 17.2495C48.4794 21.1683 42.9974 23.1274 40.2507 20.3839C37.1163 17.6413 38.2917 11.7634 42.2097 10.9798H42.2179ZM43.3933 12.9388C42.7353 13.1144 42.1353 13.4603 41.6538 13.9419C41.1722 14.4234 40.8262 15.0234 40.6507 15.6815C40.5703 16.1285 40.5924 16.588 40.7156 17.0252C40.8387 17.4625 41.0595 17.866 41.3614 18.2055C41.6632 18.5449 42.0383 18.8114 42.4581 18.9846C42.8779 19.158 43.3317 19.2337 43.7851 19.206C45.3524 19.206 46.9196 18.0306 46.9196 16.4634C46.9196 14.506 44.9614 12.547 43.395 12.9388H43.3933Z" fill="black"/>
<path fill-rule="evenodd" clip-rule="evenodd" d="M50.8398 10.98H53.1907V11.7636C54.2621 11.0207 55.5662 10.6908 56.8621 10.8348C58.1579 10.9789 59.3578 11.5871 60.2398 12.5472C60.7243 13.0507 61.1003 13.6482 61.3447 14.3028C61.589 14.9574 61.6966 15.6551 61.6606 16.3528C61.6246 17.0506 61.446 17.7336 61.1356 18.3596C60.8253 18.9856 60.3898 19.5413 59.8562 19.9923C58.289 21.9513 55.1538 21.9513 53.1948 20.7759V24.3005C52.803 25.4759 51.6275 25.4759 50.8439 25.4759V10.98H50.8398ZM55.9341 12.939C53.5833 13.3308 52.4095 16.0735 53.5833 17.6415C54.7587 19.6005 57.8939 19.6005 58.6776 17.6415C60.2439 15.6817 58.2849 12.939 55.9341 12.939Z" fill="black"/>
<path fill-rule="evenodd" clip-rule="evenodd" d="M65.7281 11.3726C66.7198 10.8164 67.8636 10.5925 68.9918 10.7335C70.12 10.8745 71.1734 11.3731 71.9978 12.1562C71.606 12.548 71.2142 13.3316 70.4306 13.7234C70.0653 13.4275 69.6363 13.2205 69.1773 13.1189C68.7183 13.0172 68.242 13.0236 67.786 13.1376C67.33 13.2516 66.9066 13.47 66.5495 13.7757C66.1924 14.0813 65.9111 14.4658 65.7281 14.8988C65.5578 15.3628 65.4968 15.8598 65.5497 16.3512C65.6028 16.8426 65.7683 17.3152 66.0337 17.7322C66.299 18.1492 66.6569 18.4994 67.0796 18.7557C67.5022 19.0118 67.9783 19.1671 68.4707 19.2094C69.2543 19.2094 70.0379 18.8176 70.8215 18.8176C71.5215 19.1258 72.0806 19.6849 72.3888 20.3848C69.6461 22.7357 64.9437 21.952 63.7683 18.4258C62.201 16.0742 63.3765 12.9381 65.7281 11.3726Z" fill="black"/>
<path fill-rule="evenodd" clip-rule="evenodd" d="M72.3908 18.032C71.217 14.5058 73.958 10.5869 77.4851 10.5869C78.8958 10.6485 80.2442 11.1853 81.3114 12.1102C82.3788 13.035 83.1017 14.2935 83.3632 15.6812V21.5591C82.1878 21.5591 81.4039 21.5591 80.6203 20.7755C77.8777 22.7345 73.5711 21.1673 72.3916 18.0329L72.3908 18.032ZM77.4851 12.9377C76.9454 13.0393 76.4379 13.2684 76.0048 13.606C75.5718 13.9436 75.2258 14.38 74.9957 14.8785C74.7656 15.3771 74.6582 15.9235 74.6823 16.4721C74.7064 17.0206 74.8613 17.5555 75.1342 18.032C76.7015 19.9911 79.8367 19.5992 80.6203 17.6402C80.821 17.1235 80.8943 16.5661 80.8341 16.0151C80.7739 15.464 80.582 14.9356 80.2745 14.4743C79.967 14.0131 79.553 13.6327 79.0674 13.3653C78.5819 13.0978 78.0392 12.9512 77.4851 12.9377Z" fill="black"/>
<path fill-rule="evenodd" clip-rule="evenodd" d="M84.9297 10.9792H87.2805V11.7629C88.4559 10.1956 91.1994 10.5874 92.7666 12.1547C94.7256 9.80384 98.6444 10.5874 99.4281 13.3301C99.8199 15.6809 99.4281 18.4243 99.4281 20.7752C99.4281 21.5588 98.2526 21.5588 97.0772 21.5588C97.0772 19.2079 97.469 16.8563 97.0772 14.5096C97.001 14.0982 96.783 13.7266 96.4608 13.4591C96.1387 13.1917 95.7338 13.0453 95.3149 13.0453C94.8969 13.0453 94.4912 13.1917 94.1699 13.4591C93.8477 13.7266 93.6297 14.0982 93.5526 14.5096V21.5588H91.2018C91.2666 19.0706 91.1362 16.5812 90.81 14.1137C90.4182 12.5465 87.6756 12.9383 87.6756 14.5055C87.3502 16.8403 87.219 19.1981 87.2838 21.5547H84.9297V10.9792Z" fill="black"/>
</g>
</g>
</g>
</g>
<defs>
<clipPath id="clip0_414_9265">
<rect width="100" height="30" fill="white" transform="translate(0 0.848633)"/>
</clipPath>
<clipPath id="clip1_414_9265">
<rect width="100" height="19.6721" fill="white" transform="translate(0 6.0127)"/>
</clipPath>
</defs>
</svg>
