<svg width="100" height="31" viewBox="0 0 100 31" fill="none" xmlns="http://www.w3.org/2000/svg">
<g clip-path="url(#clip0_414_9281)">
<g clip-path="url(#clip1_414_9281)">
<g clip-path="url(#clip2_414_9281)">
<mask id="mask0_414_9281" style="mask-type:luminance" maskUnits="userSpaceOnUse" x="0" y="0" width="99" height="31">
<path d="M98.9944 0.848633H0.800781V30.6626H98.9944V0.848633Z" fill="white"/>
</mask>
<g mask="url(#mask0_414_9281)">
<g opacity="0.4">
<path d="M0.800781 21.9326V1.28543H4.42718V21.9326H0.800781ZM13.7116 6.95423C12.6855 6.93111 11.6651 7.11356 10.7105 7.49081C9.756 7.86808 8.88661 8.43254 8.15355 9.15093C7.4205 9.86933 6.83861 10.7272 6.44215 11.6739C6.04571 12.6206 5.8427 13.6372 5.8451 14.6635C5.8475 15.6899 6.05526 16.7054 6.45614 17.6503C6.85703 18.5951 7.44293 19.4502 8.17933 20.1652C8.91573 20.8801 9.78776 21.4405 10.7441 21.8134C11.7004 22.1861 12.7216 22.3638 13.7476 22.3358C14.7655 22.3459 15.7755 22.1539 16.7188 21.7708C17.662 21.3876 18.5197 20.8211 19.2424 20.1038C19.9649 19.3867 20.538 18.5333 20.9283 17.593C21.3186 16.6526 21.5183 15.6443 21.5159 14.6262C21.5135 13.6081 21.3091 12.6007 20.9145 11.6622C20.5198 10.7238 19.9427 9.873 19.2167 9.15925C18.4908 8.44549 17.6303 7.88295 16.6853 7.50423C15.7403 7.12551 14.7295 6.93936 13.7116 6.95423ZM13.6696 10.4486C14.6303 10.4456 15.5623 10.7756 16.3071 11.3825C17.0518 11.9893 17.5632 12.8355 17.7541 13.7771C17.9452 14.7186 17.8039 15.6972 17.3547 16.5463C16.9053 17.3954 16.1754 18.0625 15.2896 18.434C14.4036 18.8057 13.4163 18.8587 12.4957 18.5843C11.575 18.3097 10.778 17.7246 10.2402 16.9285C9.70244 16.1326 9.45717 15.1747 9.54619 14.2181C9.63519 13.2616 10.053 12.3654 10.7284 11.6822C11.5078 10.8993 12.5649 10.4559 13.6696 10.4486ZM30.6664 6.95423C29.6403 6.93111 28.6199 7.11356 27.6653 7.49081C26.7108 7.86808 25.8414 8.43254 25.1083 9.15093C24.3753 9.86933 23.7934 10.7272 23.3969 11.6739C23.0005 12.6206 22.7975 13.6372 22.7999 14.6635C22.8023 15.6899 23.01 16.7054 23.4109 17.6503C23.8119 18.5951 24.3977 19.4502 25.1341 20.1652C25.8706 20.8801 26.7426 21.4405 27.6989 21.8134C28.6552 22.1861 29.6764 22.3638 30.7024 22.3358C31.7272 22.3608 32.7463 22.1786 33.699 21.8003C34.6517 21.4219 35.5181 20.8552 36.2465 20.1338C36.9748 19.4125 37.5501 18.5516 37.9377 17.6027C38.3253 16.6538 38.5174 15.6364 38.5024 14.6114C38.6041 13.1975 38.1835 11.7952 37.3204 10.6706L38.326 10.3262V7.38263H33.1816C32.371 7.10174 31.5195 6.95698 30.6616 6.95423H30.6664ZM30.6244 10.4486C31.585 10.4461 32.5168 10.7766 33.261 11.3838C34.0054 11.991 34.5163 12.8373 34.7069 13.7789C34.8975 14.7203 34.7559 15.6988 34.3063 16.5476C33.8567 17.3965 33.1267 18.0632 32.2408 18.4345C31.3549 18.8058 30.3677 18.8586 29.4472 18.5839C28.5267 18.3092 27.7299 17.7241 27.1923 16.928C26.6547 16.1321 26.4095 15.1742 26.4987 14.2178C26.5877 13.2613 27.0054 12.3653 27.6808 11.6822C28.4608 10.8987 29.5188 10.4553 30.6244 10.4486ZM34.8244 22.9382C34.8244 24.0484 34.3834 25.113 33.5985 25.8979C32.8135 26.6828 31.7489 27.1238 30.6388 27.1238C29.5287 27.1238 28.464 26.6828 27.6791 25.8979C26.8942 25.113 26.4532 24.0484 26.4532 22.9382H22.7728C22.7556 23.9728 22.9498 24.9998 23.3436 25.9566C23.7373 26.9134 24.3225 27.7796 25.0629 28.5023C25.8033 29.2249 26.6835 29.7888 27.6495 30.1592C28.6155 30.5297 29.647 30.6989 30.6808 30.6566C31.7049 30.6828 32.7238 30.5017 33.6762 30.1244C34.6287 29.7472 35.4951 29.1814 36.2236 28.461C36.952 27.7406 37.5274 26.8806 37.9152 25.9324C38.3032 24.9841 38.4955 23.9674 38.4808 22.943L34.8244 22.9382ZM39.9628 21.929V7.38263H43.5904V21.9326L39.9628 21.929ZM47.1112 21.929V10.6418H45.166V7.38263H47.1112V2.91503H50.7376V7.38263H52.7356V10.6418H50.7376V21.9326L47.1112 21.929ZM44.17 3.24863C44.17 3.7233 44.0292 4.18732 43.7655 4.582C43.5018 4.97668 43.1269 5.28429 42.6885 5.46594C42.2499 5.64759 41.7673 5.69512 41.3017 5.60252C40.8363 5.50991 40.4086 5.28134 40.0729 4.94568C39.7373 4.61004 39.5087 4.1824 39.4161 3.71685C39.3235 3.2513 39.3711 2.76874 39.5526 2.33019C39.7343 1.89165 40.042 1.51682 40.4367 1.25311C40.8313 0.98939 41.2953 0.848633 41.77 0.848633C42.4065 0.848633 43.0169 1.10149 43.467 1.55158C43.9171 2.00166 44.17 2.61212 44.17 3.24863ZM60.8896 6.94463C59.8643 6.92384 58.8456 7.11262 57.8958 7.49941C56.946 7.88619 56.0853 8.46285 55.3662 9.19402C54.6472 9.92519 54.085 10.7955 53.7142 11.7516C53.3434 12.7077 53.1717 13.7294 53.2096 14.7542C53.1676 15.7769 53.3409 16.797 53.7183 17.7485C54.0957 18.7 54.6688 19.5614 55.4004 20.2772C56.1321 20.993 57.0059 21.5471 57.9653 21.9036C58.9248 22.2601 59.9484 22.4111 60.97 22.3466C62.2026 22.3856 63.4293 22.1593 64.5669 21.6832C65.7046 21.207 66.7266 20.492 67.564 19.5866L65.14 17.159C64.0524 18.2982 62.586 19.0006 61.0168 19.1342C60.1067 19.17 59.2126 18.8879 58.4878 18.3364C57.763 17.7848 57.2529 16.9981 57.0448 16.1114H68.3464V15.113C68.3464 11.1278 66.04 6.94583 60.8956 6.94583L60.8896 6.94463ZM60.7696 10.1378C61.6605 10.0866 62.5387 10.3681 63.2339 10.9278C63.9289 11.4874 64.3914 12.2853 64.5316 13.1666H56.9356C57.1139 12.2891 57.5976 11.5032 58.3007 10.9487C59.0038 10.3941 59.8806 10.1068 60.7756 10.1378H60.7696ZM77.4124 22.3478C76.4007 22.3489 75.3987 22.1506 74.4636 21.7644C73.5285 21.3781 72.6786 20.8116 71.9626 20.0969C70.5163 18.6536 69.7026 16.6949 69.7006 14.6516C69.6985 12.6084 70.5082 10.648 71.9515 9.2018C73.3948 7.75556 75.3535 6.9419 77.3968 6.93983C78.5847 6.93094 79.7596 7.1875 80.8356 7.69074C81.9117 8.194 82.8617 8.93124 83.6164 9.84863L81.0808 12.3686C80.6278 11.8138 80.0645 11.359 79.4266 11.0331C78.7888 10.7071 78.0903 10.5171 77.3752 10.475C76.8245 10.4613 76.2766 10.5593 75.7648 10.763C75.2529 10.9668 74.7876 11.272 74.3969 11.6605C74.0063 12.0489 73.6983 12.5124 73.4916 13.0231C73.285 13.5338 73.1838 14.081 73.1944 14.6318C73.1805 15.184 73.2779 15.7331 73.4808 16.2468C73.6837 16.7604 73.9881 17.2279 74.3755 17.6214C74.7629 18.0149 75.2257 18.3264 75.7361 18.5372C76.2465 18.7481 76.7941 18.8539 77.3464 18.8486C78.0667 18.8112 78.7714 18.6232 79.4146 18.2965C80.0578 17.97 80.6254 17.5122 81.0808 16.9526L83.6368 19.4726C82.8799 20.387 81.928 21.1204 80.8506 21.6187C79.7733 22.1171 78.5981 22.3679 77.4112 22.3526L77.4124 22.3478ZM84.958 21.9434V1.23263H88.5844V8.84183C89.1299 8.21465 89.8096 7.71819 90.5729 7.38916C91.3362 7.06014 92.1639 6.90699 92.9944 6.94103C96.7924 6.94103 98.9944 9.76463 98.9944 13.3754V21.9434H95.3608V13.9286C95.4153 13.4861 95.3724 13.037 95.2354 12.6128C95.0982 12.1886 94.8701 11.7994 94.5669 11.4725C94.2636 11.1457 93.8927 10.889 93.4799 10.7204C93.0671 10.5518 92.6225 10.4755 92.1772 10.4966C91.6929 10.4581 91.206 10.5255 90.7504 10.6941C90.2947 10.8628 89.8812 11.1285 89.5386 11.473C89.1961 11.8176 88.9326 12.2325 88.7667 12.6891C88.6006 13.1456 88.5359 13.633 88.5772 14.117V21.9494H84.958V21.9434Z" fill="black"/>
</g>
</g>
</g>
</g>
</g>
<defs>
<clipPath id="clip0_414_9281">
<rect width="100" height="30" fill="white" transform="translate(0 0.848633)"/>
</clipPath>
<clipPath id="clip1_414_9281">
<rect width="100" height="30" fill="white" transform="translate(0 0.848633)"/>
</clipPath>
<clipPath id="clip2_414_9281">
<rect width="98.4" height="30" fill="white" transform="translate(0.800781 0.848633)"/>
</clipPath>
</defs>
</svg>
