<svg width="100" height="31" viewBox="0 0 100 31" fill="none" xmlns="http://www.w3.org/2000/svg">
<g clip-path="url(#clip0_414_9290)">
<g clip-path="url(#clip1_414_9290)">
<g clip-path="url(#clip2_414_9290)">
<mask id="mask0_414_9290" style="mask-type:luminance" maskUnits="userSpaceOnUse" x="0" y="0" width="99" height="31">
<path d="M98.9 0.848633H0.5V30.3606H98.9V0.848633Z" fill="white"/>
</mask>
<g mask="url(#mask0_414_9290)">
<g opacity="0.4">
<path d="M15.257 0.848633C12.3385 0.848831 9.48572 1.71442 7.05924 3.33595C4.63276 4.95748 2.7416 7.26212 1.62491 9.95845C0.508213 12.6547 0.216138 15.6216 0.785614 18.484C1.35509 21.3463 2.76054 23.9755 4.82425 26.039C6.88795 28.1026 9.51722 29.5079 12.3796 30.0771C15.2419 30.6464 18.2088 30.3541 20.9051 29.2373C23.6013 28.1204 25.9058 26.2291 27.5272 23.8025C29.1486 21.3759 30.014 18.523 30.014 15.6046C30.014 13.6667 29.6323 11.7478 28.8906 9.95752C28.149 8.16718 27.062 6.54044 25.6917 5.17021C24.3213 3.79997 22.6945 2.71308 20.9041 1.97158C19.1137 1.23008 17.1948 0.848502 15.257 0.848633ZM22.024 22.1306C21.9606 22.2334 21.8777 22.3227 21.7798 22.3934C21.6819 22.4641 21.5711 22.5149 21.4536 22.5427C21.3361 22.5706 21.2143 22.575 21.0951 22.5558C20.9759 22.5365 20.8617 22.494 20.759 22.4306C17.294 20.3146 12.933 19.8306 7.79596 21.0086C7.55806 21.0628 7.30836 21.0203 7.10179 20.8905C6.89522 20.7606 6.7487 20.554 6.69446 20.3161C6.64022 20.0782 6.68271 19.8285 6.81258 19.6219C6.94245 19.4154 7.14906 19.2688 7.38696 19.2146C13.008 17.9306 17.83 18.4836 21.719 20.8606C21.8227 20.9236 21.913 21.0066 21.9846 21.1047C22.0561 21.2027 22.1076 21.314 22.1359 21.4321C22.1643 21.5501 22.169 21.6726 22.1498 21.7925C22.1306 21.9124 22.0878 22.0273 22.024 22.1306ZM23.83 18.1126C23.6705 18.3727 23.4142 18.5588 23.1176 18.63C22.821 18.7013 22.5082 18.6518 22.248 18.4926C17.769 15.9955 12.4826 15.3766 7.54796 16.7716C7.25622 16.8608 6.94098 16.8305 6.67158 16.6874C6.40219 16.5442 6.20071 16.2998 6.11146 16.0081C6.02221 15.7164 6.05252 15.4011 6.1957 15.1317C6.33888 14.8623 6.58322 14.6608 6.87496 14.5716C9.62881 13.7788 12.5132 13.5438 15.3591 13.8804C18.205 14.2169 20.955 15.1183 23.448 16.5316C23.5767 16.6106 23.6887 16.7141 23.7775 16.8364C23.8662 16.9586 23.93 17.0972 23.9652 17.2441C24.0004 17.391 24.0063 17.5434 23.9826 17.6926C23.9589 17.8418 23.906 17.9848 23.827 18.1136L23.83 18.1126ZM23.985 13.9286C19.229 11.1036 11.385 10.8436 6.84196 12.2226C6.66745 12.2791 6.48344 12.3002 6.30067 12.2847C6.11791 12.2693 5.94006 12.2175 5.77752 12.1325C5.61499 12.0476 5.47102 11.931 5.35405 11.7897C5.23708 11.6485 5.14945 11.4853 5.09627 11.3097C5.0431 11.1342 5.02545 10.9498 5.04436 10.7674C5.06327 10.585 5.11837 10.4081 5.20642 10.2472C5.29447 10.0863 5.41371 9.94458 5.55717 9.8303C5.70064 9.71601 5.86545 9.63148 6.04196 9.58163C11.254 7.99963 19.919 8.30463 25.395 11.5556C25.5508 11.648 25.687 11.7703 25.7956 11.9154C25.9043 12.0604 25.9832 12.2255 26.0281 12.4011C26.0729 12.5767 26.0828 12.7594 26.057 12.9388C26.0313 13.1182 25.9704 13.2907 25.878 13.4466C25.7855 13.6025 25.6633 13.7386 25.5182 13.8473C25.3731 13.9559 25.2081 14.0349 25.0325 14.0797C24.8569 14.1246 24.6742 14.1344 24.4948 14.1087C24.3154 14.0829 24.1428 14.022 23.987 13.9296L23.985 13.9286ZM40.648 14.4716C38.1 13.8636 37.648 13.4376 37.648 12.5416C37.648 11.6946 38.448 11.1256 39.63 11.1256C40.9047 11.1711 42.1287 11.6362 43.112 12.4486C43.1298 12.4618 43.1502 12.4713 43.1717 12.4766C43.1933 12.4819 43.2157 12.4828 43.2377 12.4794C43.2596 12.4759 43.2807 12.4682 43.2996 12.4565C43.3185 12.4449 43.335 12.4296 43.348 12.4116L44.592 10.6576C44.6166 10.6229 44.627 10.58 44.6211 10.5378C44.6151 10.4956 44.5933 10.4572 44.56 10.4306C43.1814 9.303 41.4477 8.70066 39.667 8.73063C36.916 8.73063 34.994 10.3816 34.994 12.7436C34.994 15.2766 36.652 16.1736 39.517 16.8656C41.954 17.4276 42.366 17.8976 42.366 18.7386C42.366 19.6706 41.534 20.2506 40.195 20.2506C38.6762 20.2389 37.2213 19.638 36.137 18.5746C36.1031 18.5458 36.0594 18.5311 36.015 18.5336C35.9929 18.5351 35.9713 18.541 35.9516 18.5509C35.9318 18.5609 35.9143 18.5747 35.9 18.5916L34.5 20.2516C34.4719 20.2849 34.4579 20.3279 34.4608 20.3713C34.4638 20.4148 34.4836 20.4554 34.516 20.4846C36.0542 21.8784 38.0582 22.6463 40.134 22.6376C43.098 22.6376 45.013 21.0186 45.013 18.5106C45.018 16.3946 43.751 15.2226 40.648 14.4686H40.643L40.648 14.4716ZM51.724 11.9586C51.1062 11.9505 50.4951 12.0856 49.9383 12.3533C49.3815 12.621 48.8944 13.0141 48.515 13.5016V12.3336C48.5151 12.3117 48.5109 12.29 48.5026 12.2698C48.4943 12.2495 48.4821 12.2311 48.4667 12.2156C48.4513 12.2001 48.4329 12.1877 48.4127 12.1793C48.3925 12.1709 48.3708 12.1666 48.349 12.1666H46.068C46.0461 12.1666 46.0244 12.1709 46.0042 12.1793C45.984 12.1877 45.9657 12.2001 45.9502 12.2156C45.9348 12.2311 45.9226 12.2495 45.9143 12.2698C45.906 12.29 45.9018 12.3117 45.902 12.3336V25.3026C45.902 25.3467 45.9194 25.389 45.9505 25.4203C45.9816 25.4516 46.0238 25.4693 46.068 25.4696H48.348C48.3921 25.4693 48.4343 25.4516 48.4654 25.4203C48.4965 25.389 48.514 25.3467 48.514 25.3026V21.2096C48.9074 21.6749 49.3995 22.0466 49.9546 22.2978C50.5097 22.5489 51.1138 22.6732 51.723 22.6616C54.111 22.6616 56.528 20.8236 56.528 17.3106C56.528 13.7976 54.114 11.9576 51.728 11.9576L51.724 11.9586ZM53.876 17.3106C53.9159 17.6894 53.8768 18.0723 53.761 18.4351C53.6452 18.7979 53.4553 19.1328 53.2034 19.4184C52.9514 19.704 52.6429 19.9341 52.2974 20.0943C51.9518 20.2544 51.5767 20.341 51.196 20.3486C50.8143 20.3364 50.439 20.2472 50.0926 20.0864C49.7462 19.9255 49.4359 19.6964 49.1803 19.4126C48.9247 19.1289 48.729 18.7965 48.6051 18.4352C48.4811 18.074 48.4314 17.6915 48.459 17.3106C48.4313 16.9296 48.4809 16.547 48.6048 16.1856C48.7287 15.8243 48.9243 15.4917 49.1799 15.2079C49.4356 14.9241 49.7459 14.6948 50.0923 14.5339C50.4388 14.373 50.8142 14.2838 51.196 14.2716C51.5752 14.2836 51.948 14.3731 52.2914 14.5346C52.6347 14.6962 52.9414 14.9263 53.1924 15.2108C53.4435 15.4953 53.6337 15.8282 53.7512 16.189C53.8688 16.5498 53.9112 16.9308 53.876 17.3086V17.3106ZM62.723 11.9586C61.6663 11.9785 60.6391 12.3102 59.7703 12.9119C58.9015 13.5136 58.2299 14.3587 57.8398 15.3408C57.4496 16.323 57.3584 17.3986 57.5775 18.4325C57.7966 19.4663 58.3162 20.4124 59.0712 21.1519C59.8262 21.8914 60.7829 22.3914 61.821 22.589C62.8592 22.7867 63.9327 22.6732 64.9066 22.2628C65.8805 21.8524 66.7114 21.1634 67.295 20.2823C67.8786 19.4013 68.1889 18.3674 68.187 17.3106C68.1833 16.5993 68.0387 15.8958 67.7615 15.2408C67.4842 14.5858 67.0798 13.9922 66.5717 13.4945C66.0635 12.9968 65.4617 12.6048 64.8011 12.3411C64.1405 12.0775 63.4342 11.9475 62.723 11.9586ZM62.723 20.3666C62.3312 20.363 61.9443 20.28 61.5856 20.1228C61.2268 19.9655 60.9036 19.7372 60.6355 19.4516C60.3674 19.166 60.1599 18.8291 60.0256 18.4611C59.8912 18.0931 59.8329 17.7018 59.854 17.3106C59.8286 16.9233 59.8831 16.535 60.014 16.1697C60.1449 15.8043 60.3495 15.4697 60.615 15.1867C60.8805 14.9036 61.2013 14.6781 61.5576 14.5242C61.9138 14.3702 62.2979 14.291 62.686 14.2916C63.0788 14.2943 63.467 14.3766 63.8271 14.5334C64.1873 14.6902 64.512 14.9182 64.7817 15.2039C65.0514 15.4895 65.2604 15.8268 65.3962 16.1954C65.532 16.564 65.5918 16.9563 65.572 17.3486C65.5964 17.737 65.5407 18.1263 65.4083 18.4923C65.276 18.8583 65.0699 19.1932 64.8027 19.4762C64.5356 19.7592 64.2131 19.9842 63.8553 20.1374C63.4976 20.2906 63.1121 20.3686 62.723 20.3666ZM74.753 12.1666H72.242V9.59963C72.2421 9.57775 72.2379 9.55605 72.2296 9.5358C72.2213 9.51554 72.2091 9.49712 72.1937 9.4816C72.1783 9.46608 72.1599 9.45376 72.1397 9.44536C72.1195 9.43696 72.0978 9.43263 72.076 9.43263H69.795C69.7507 9.43289 69.7084 9.45057 69.6772 9.48183C69.6459 9.51309 69.6282 9.55542 69.628 9.59963V12.1666H68.528C68.5061 12.1666 68.4844 12.1709 68.4642 12.1793C68.444 12.1877 68.4257 12.2001 68.4102 12.2156C68.3948 12.2311 68.3826 12.2495 68.3743 12.2698C68.366 12.29 68.3618 12.3117 68.362 12.3336V14.2946C68.362 14.3387 68.3794 14.381 68.4105 14.4123C68.4416 14.4436 68.4838 14.4613 68.528 14.4616H69.628V19.5356C69.628 21.5846 70.648 22.6246 72.662 22.6246C73.4088 22.6425 74.1467 22.4587 74.798 22.0926C74.8238 22.0785 74.8454 22.0577 74.8603 22.0323C74.8753 22.007 74.8831 21.978 74.883 21.9486V20.0796C74.8829 20.0513 74.8756 20.0235 74.8618 19.9988C74.848 19.9742 74.8281 19.9534 74.804 19.9386C74.78 19.9233 74.7523 19.9146 74.7239 19.9134C74.6955 19.9121 74.6672 19.9184 74.642 19.9316C74.2282 20.1456 73.7688 20.2561 73.303 20.2536C72.572 20.2536 72.244 19.9206 72.244 19.1766V14.4626H74.755C74.7768 14.4626 74.7985 14.4583 74.8187 14.4499C74.8389 14.4415 74.8573 14.4291 74.8727 14.4136C74.8881 14.3981 74.9003 14.3797 74.9086 14.3594C74.9169 14.3392 74.9211 14.3175 74.921 14.2956V12.3356C74.9216 12.3137 74.9179 12.292 74.9099 12.2716C74.902 12.2512 74.89 12.2327 74.8746 12.2171C74.8593 12.2015 74.841 12.1891 74.8208 12.1808C74.8005 12.1725 74.7788 12.1683 74.757 12.1686L74.753 12.1666ZM83.5 12.1766V11.8616C83.5 10.9346 83.856 10.5206 84.652 10.5206C85.091 10.5258 85.5259 10.606 85.938 10.7576C85.9631 10.7661 85.9898 10.7684 86.016 10.7644C86.0422 10.7604 86.0671 10.7502 86.0885 10.7347C86.1099 10.7191 86.1273 10.6986 86.1393 10.675C86.1512 10.6513 86.1572 10.6251 86.157 10.5986V8.67163C86.1574 8.63576 86.1461 8.60073 86.1248 8.57186C86.1035 8.54299 86.0733 8.52185 86.039 8.51163C85.4234 8.32368 84.7825 8.23193 84.139 8.23963C82.033 8.23963 80.918 9.42663 80.918 11.6696V12.1526H79.818C79.7738 12.1529 79.7314 12.1705 79.7002 12.2018C79.6689 12.2331 79.6512 12.2754 79.651 12.3196V14.2906C79.6512 14.3348 79.6689 14.3771 79.7002 14.4084C79.7314 14.4397 79.7738 14.4573 79.818 14.4576H80.918V22.2826C80.918 22.3269 80.9356 22.3694 80.9669 22.4007C80.9982 22.432 81.0407 22.4496 81.085 22.4496H83.365C83.3869 22.4497 83.4087 22.4455 83.429 22.4372C83.4494 22.4288 83.4678 22.4165 83.4833 22.401C83.4989 22.3854 83.5112 22.367 83.5195 22.3467C83.5279 22.3263 83.5321 22.3046 83.532 22.2826V14.4626H85.662L88.925 22.2866C88.555 23.1076 88.19 23.2716 87.693 23.2716C87.2501 23.2606 86.8173 23.1374 86.435 22.9136C86.394 22.8931 86.3469 22.8889 86.303 22.9016C86.2809 22.9088 86.2607 22.9205 86.2434 22.936C86.2262 22.9515 86.2124 22.9704 86.203 22.9916L85.429 24.6916C85.4111 24.7301 85.4086 24.774 85.422 24.8144C85.4354 24.8547 85.4636 24.8884 85.501 24.9086C86.2428 25.3292 87.0833 25.5446 87.936 25.5326C89.621 25.5326 90.553 24.7466 91.372 22.6326L95.338 12.4046C95.3478 12.3795 95.3514 12.3523 95.3485 12.3255C95.3456 12.2987 95.3362 12.2729 95.3212 12.2505C95.3061 12.2281 95.2859 12.2097 95.2622 12.1968C95.2384 12.1839 95.212 12.177 95.185 12.1766H92.809C92.7741 12.1763 92.74 12.187 92.7115 12.2071C92.683 12.2272 92.6615 12.2557 92.65 12.2886L90.217 19.2376L87.548 12.2846C87.536 12.2532 87.5148 12.2261 87.4871 12.207C87.4594 12.1879 87.4266 12.1776 87.393 12.1776H83.493L83.5 12.1766ZM78.429 12.1666H76.148C76.1038 12.1669 76.0614 12.1845 76.0302 12.2158C75.9989 12.2471 75.9812 12.2894 75.981 12.3336V22.2856C75.981 22.3075 75.9853 22.3292 75.9937 22.3495C76.0021 22.3698 76.0144 22.3882 76.0299 22.4037C76.0454 22.4192 76.0638 22.4315 76.0841 22.4399C76.1043 22.4483 76.126 22.4526 76.148 22.4526H78.43C78.4519 22.4526 78.4736 22.4483 78.4939 22.4399C78.5141 22.4315 78.5325 22.4192 78.548 22.4037C78.5636 22.3882 78.5759 22.3698 78.5843 22.3495C78.5926 22.3292 78.597 22.3075 78.597 22.2856V12.3346C78.597 12.2903 78.5794 12.2478 78.548 12.2165C78.5167 12.1852 78.4743 12.1676 78.43 12.1676L78.429 12.1666ZM77.301 7.63463C76.9774 7.63443 76.661 7.73019 76.3919 7.90979C76.1227 8.08939 75.9129 8.34477 75.7889 8.64364C75.6649 8.9425 75.6323 9.27143 75.6952 9.58882C75.7581 9.90621 75.9138 10.1978 76.1424 10.4268C76.3711 10.6557 76.6625 10.8117 76.9798 10.875C77.2971 10.9383 77.6261 10.9061 77.9251 10.7825C78.2241 10.6588 78.4798 10.4493 78.6597 10.1804C78.8396 9.91144 78.9358 9.5952 78.936 9.27163C78.9361 9.05679 78.8939 8.84402 78.8118 8.64548C78.7297 8.44694 78.6093 8.26652 78.4575 8.11451C78.3057 7.9625 78.1254 7.84188 77.927 7.75955C77.7285 7.67721 77.5158 7.63476 77.301 7.63463ZM97.287 15.3716C96.9689 15.3708 96.6582 15.2758 96.3941 15.0987C96.13 14.9215 95.9242 14.6701 95.8029 14.3761C95.6815 14.0821 95.6499 13.7588 95.712 13.4469C95.7742 13.135 95.9274 12.8485 96.1522 12.6235C96.377 12.3986 96.6634 12.2452 96.9753 12.1829C97.2871 12.1205 97.6105 12.1519 97.9045 12.2731C98.1986 12.3943 98.4501 12.5999 98.6275 12.8639C98.8048 13.1279 98.9 13.4386 98.901 13.7566C98.903 13.9692 98.8626 14.18 98.7822 14.3768C98.7018 14.5735 98.583 14.7523 98.4328 14.9027C98.2825 15.053 98.1038 15.1719 97.9071 15.2525C97.7103 15.333 97.4995 15.3735 97.287 15.3716ZM97.296 12.3116C97.0084 12.3088 96.7265 12.3916 96.4861 12.5495C96.2457 12.7073 96.0577 12.9331 95.9459 13.1981C95.8342 13.4631 95.8037 13.7553 95.8585 14.0376C95.9133 14.32 96.0508 14.5796 96.2535 14.7836C96.4562 14.9876 96.715 15.1267 96.997 15.1832C97.279 15.2398 97.5714 15.2112 97.8371 15.1011C98.1027 14.991 98.3297 14.8044 98.489 14.565C98.6484 14.3256 98.7329 14.0442 98.732 13.7566C98.7332 13.5673 98.6969 13.3796 98.6253 13.2043C98.5536 13.029 98.448 12.8697 98.3146 12.7354C98.1811 12.6011 98.0224 12.4945 97.8476 12.4218C97.6728 12.349 97.4853 12.3116 97.296 12.3116ZM97.652 13.9216L98.107 14.5576H97.723L97.314 13.9746H96.963V14.5576H96.642V12.8716H97.393C97.786 12.8716 98.043 13.0716 98.043 13.4096C98.0487 13.5271 98.0128 13.6428 97.9417 13.7364C97.8705 13.8301 97.7687 13.8956 97.654 13.9216H97.652ZM97.381 13.1616H96.963V13.6946H97.381C97.589 13.6946 97.714 13.5946 97.714 13.4276C97.714 13.2606 97.588 13.1566 97.38 13.1566L97.381 13.1616Z" fill="black"/>
</g>
</g>
</g>
</g>
</g>
<defs>
<clipPath id="clip0_414_9290">
<rect width="100" height="30" fill="white" transform="translate(0 0.848633)"/>
</clipPath>
<clipPath id="clip1_414_9290">
<rect width="100" height="30" fill="white" transform="translate(0 0.848633)"/>
</clipPath>
<clipPath id="clip2_414_9290">
<rect width="99" height="30" fill="white" transform="translate(0.5 0.848633)"/>
</clipPath>
</defs>
</svg>
