<svg width="36" height="36" viewBox="0 0 36 36" fill="none" xmlns="http://www.w3.org/2000/svg">
<path fill-rule="evenodd" clip-rule="evenodd" d="M16.1017 5.57259C15.1299 5.57259 14.3032 6.24787 14.0711 7.15803H21.8741C21.6421 6.24787 20.8154 5.57259 19.8436 5.57259H16.1017ZM24.0787 7.15802H26.9505C29.9962 7.15802 32.4764 9.66829 32.4764 12.7511C32.4764 12.7511 32.3894 14.0561 32.3604 15.8735C32.3575 16.0173 32.2878 16.1582 32.1733 16.2435C31.4757 16.7587 30.8374 17.1845 30.7794 17.2137C28.3718 18.8285 25.574 19.9647 22.5935 20.53C22.3991 20.5681 22.2078 20.4669 22.1091 20.2937C21.2736 18.8462 19.7131 17.9038 17.9726 17.9038C16.2438 17.9038 14.6687 18.8359 13.8086 20.2848C13.7085 20.4552 13.52 20.5534 13.3271 20.5168C10.3712 19.9501 7.57345 18.8153 5.18034 17.2284L3.78798 16.2596C3.67195 16.1862 3.59943 16.054 3.59943 15.9073C3.55592 15.1586 3.4834 12.7511 3.4834 12.7511C3.4834 9.66829 5.96354 7.15802 9.00933 7.15802H11.8666C12.1421 5.02944 13.9261 3.37061 16.1017 3.37061H19.8436C22.0192 3.37061 23.8031 5.02944 24.0787 7.15802ZM31.9832 19.0488L31.9252 19.0783C28.9955 21.0453 25.4711 22.3519 21.7726 22.8951C21.2504 22.9684 20.7283 22.6308 20.5833 22.1024C20.2642 20.8986 19.2344 20.1058 18.0016 20.1058H17.9871H17.9581C16.7254 20.1058 15.6955 20.8986 15.3765 22.1024C15.2315 22.6308 14.7093 22.9684 14.1872 22.8951C10.4887 22.3519 6.96429 21.0453 4.03454 19.0783C4.02004 19.0636 3.87501 18.9755 3.75898 19.0488C3.62844 19.1223 3.62844 19.2985 3.62844 19.2985L3.72997 26.7852C3.72997 29.868 6.1956 32.3636 9.24139 32.3636H26.7039C29.7497 32.3636 32.2153 29.868 32.2153 26.7852L32.3314 19.2985C32.3314 19.2985 32.3314 19.1223 32.2008 19.0488C32.1283 19.0049 32.0413 19.0196 31.9832 19.0488ZM19.0605 25.1999C19.0605 25.8164 18.5818 26.3007 17.9726 26.3007C17.378 26.3007 16.8848 25.8164 16.8848 25.1999V23.306C16.8848 22.7041 17.378 22.205 17.9726 22.205C18.5818 22.205 19.0605 22.7041 19.0605 23.306V25.1999Z" fill="#EC692E"/>
</svg>
