<svg width="20" height="20" viewBox="0 0 20 20" fill="none" xmlns="http://www.w3.org/2000/svg">
<g clip-path="url(#clip0_417_50132)">
<path d="M4.16536 3.33301H7.4987C7.71971 3.33301 7.93167 3.42081 8.08795 3.57709C8.24423 3.73337 8.33203 3.94533 8.33203 4.16634V9.16634C8.33203 9.38736 8.24423 9.59932 8.08795 9.7556C7.93167 9.91188 7.71971 9.99967 7.4987 9.99967H4.16536C3.94435 9.99967 3.73239 9.91188 3.57611 9.7556C3.41983 9.59932 3.33203 9.38736 3.33203 9.16634V4.16634C3.33203 3.94533 3.41983 3.73337 3.57611 3.57709C3.73239 3.42081 3.94435 3.33301 4.16536 3.33301Z" stroke="#7E8B95" stroke-width="1.5" stroke-linecap="round" stroke-linejoin="round"/>
<path d="M4.16536 13.333H7.4987C7.71971 13.333 7.93167 13.4208 8.08795 13.5771C8.24423 13.7334 8.33203 13.9453 8.33203 14.1663V15.833C8.33203 16.054 8.24423 16.266 8.08795 16.4223C7.93167 16.5785 7.71971 16.6663 7.4987 16.6663H4.16536C3.94435 16.6663 3.73239 16.5785 3.57611 16.4223C3.41983 16.266 3.33203 16.054 3.33203 15.833V14.1663C3.33203 13.9453 3.41983 13.7334 3.57611 13.5771C3.73239 13.4208 3.94435 13.333 4.16536 13.333Z" stroke="#7E8B95" stroke-width="1.5" stroke-linecap="round" stroke-linejoin="round"/>
<path d="M12.5013 10H15.8346C16.0556 10 16.2676 10.0878 16.4239 10.2441C16.5802 10.4004 16.668 10.6123 16.668 10.8333V15.8333C16.668 16.0543 16.5802 16.2663 16.4239 16.4226C16.2676 16.5789 16.0556 16.6667 15.8346 16.6667H12.5013C12.2803 16.6667 12.0683 16.5789 11.912 16.4226C11.7558 16.2663 11.668 16.0543 11.668 15.8333V10.8333C11.668 10.6123 11.7558 10.4004 11.912 10.2441C12.0683 10.0878 12.2803 10 12.5013 10Z" stroke="#7E8B95" stroke-width="1.5" stroke-linecap="round" stroke-linejoin="round"/>
<path d="M12.5013 3.33301H15.8346C16.0556 3.33301 16.2676 3.42081 16.4239 3.57709C16.5802 3.73337 16.668 3.94533 16.668 4.16634V5.83301C16.668 6.05402 16.5802 6.26598 16.4239 6.42226C16.2676 6.57854 16.0556 6.66634 15.8346 6.66634H12.5013C12.2803 6.66634 12.0683 6.57854 11.912 6.42226C11.7558 6.26598 11.668 6.05402 11.668 5.83301V4.16634C11.668 3.94533 11.7558 3.73337 11.912 3.57709C12.0683 3.42081 12.2803 3.33301 12.5013 3.33301Z" stroke="#7E8B95" stroke-width="1.5" stroke-linecap="round" stroke-linejoin="round"/>
</g>
<defs>
<clipPath id="clip0_417_50132">
<rect width="20" height="20" fill="white"/>
</clipPath>
</defs>
</svg>
