<svg width="60" height="60" viewBox="0 0 60 60" fill="none" xmlns="http://www.w3.org/2000/svg">
<path d="M57.1875 8.4375V27.1875C57.1875 28.6793 56.5949 30.1101 55.54 31.165C54.4851 32.2199 53.0543 32.8125 51.5625 32.8125H15.9375L13.0256 39.7781C12.9513 39.9378 12.833 40.0729 12.6845 40.1676C12.536 40.2623 12.3636 40.3126 12.1875 40.3126C12.0114 40.3126 11.839 40.2623 11.6905 40.1676C11.542 40.0729 11.4237 39.9378 11.3494 39.7781L8.4375 32.8125C6.94566 32.8125 5.51492 32.2199 4.46002 31.165C3.40513 30.1101 2.8125 28.6793 2.8125 27.1875V8.4375C2.8125 6.94566 3.40513 5.51492 4.46002 4.46002C5.51492 3.40513 6.94566 2.8125 8.4375 2.8125H51.5625C53.0543 2.8125 54.4851 3.40513 55.54 4.46002C56.5949 5.51492 57.1875 6.94566 57.1875 8.4375Z" fill="url(#paint0_linear_569_6082)"/>
<path d="M31.0482 11.0315L32.2689 14.0624H36.3479C36.5773 14.0753 36.7983 14.1532 36.985 14.287C37.1718 14.4208 37.3166 14.605 37.4025 14.8181C37.4884 15.0312 37.5119 15.2643 37.4703 15.4902C37.4286 15.7161 37.3236 15.9255 37.1673 16.094L34.5423 18.7611L35.9664 23.833C36.0339 24.0578 36.0305 24.298 35.9567 24.5208C35.8829 24.7437 35.7421 24.9383 35.5537 25.0783C35.3652 25.2183 35.1382 25.2967 34.9036 25.3031C34.6689 25.3094 34.438 25.2433 34.2423 25.1136L30.6273 22.663C30.4398 22.5357 30.2183 22.4676 29.9917 22.4676C29.765 22.4676 29.5436 22.5357 29.3561 22.663L25.7439 25.1136C25.5481 25.243 25.3172 25.309 25.0826 25.3026C24.848 25.2961 24.6211 25.2177 24.4326 25.0778C24.2442 24.9379 24.1034 24.7434 24.0294 24.5207C23.9554 24.298 23.9517 24.0579 24.0189 23.833L25.4439 18.7611L22.8357 16.109C22.6781 15.9393 22.5721 15.7283 22.53 15.5006C22.488 15.2729 22.5117 15.0379 22.5983 14.8232C22.685 14.6085 22.831 14.4229 23.0194 14.2881C23.2077 14.1534 23.4305 14.0751 23.6617 14.0624H27.7192L28.9379 11.0315C29.0208 10.819 29.1658 10.6365 29.3541 10.5078C29.5423 10.3791 29.7651 10.3103 29.9931 10.3103C30.2211 10.3103 30.4439 10.3791 30.6321 10.5078C30.8204 10.6365 30.9654 10.819 31.0482 11.0315Z" fill="url(#paint1_linear_569_6082)"/>
<path d="M46.0482 11.0315L47.2689 14.0624H51.3479C51.5773 14.0753 51.7983 14.1532 51.985 14.287C52.1718 14.4208 52.3166 14.605 52.4025 14.8181C52.4884 15.0312 52.5119 15.2643 52.4703 15.4902C52.4286 15.7161 52.3236 15.9255 52.1673 16.094L49.5423 18.7611L50.9664 23.833C51.0339 24.0578 51.0305 24.298 50.9567 24.5208C50.8829 24.7437 50.7421 24.9383 50.5537 25.0783C50.3652 25.2183 50.1382 25.2967 49.9036 25.3031C49.6689 25.3094 49.438 25.2433 49.2423 25.1136L45.6273 22.663C45.4398 22.5357 45.2183 22.4676 44.9917 22.4676C44.765 22.4676 44.5436 22.5357 44.3561 22.663L40.7439 25.1136C40.5481 25.243 40.3172 25.309 40.0826 25.3026C39.848 25.2961 39.6211 25.2177 39.4326 25.0778C39.2442 24.9379 39.1034 24.7434 39.0294 24.5207C38.9554 24.298 38.9517 24.0579 39.0189 23.833L40.4439 18.7611L37.8357 16.109C37.6781 15.9393 37.5721 15.7283 37.53 15.5006C37.488 15.2729 37.5117 15.0379 37.5983 14.8232C37.685 14.6085 37.831 14.4229 38.0194 14.2881C38.2077 14.1534 38.4305 14.0751 38.6617 14.0624H42.7192L43.9379 11.0315C44.0208 10.819 44.1658 10.6365 44.3541 10.5078C44.5423 10.3791 44.7651 10.3103 44.9931 10.3103C45.2211 10.3103 45.4439 10.3791 45.6321 10.5078C45.8204 10.6365 45.9654 10.819 46.0482 11.0315Z" fill="url(#paint2_linear_569_6082)"/>
<path d="M16.0482 11.0315L17.2689 14.0624H21.3479C21.5775 14.0749 21.7987 14.1526 21.9857 14.2864C22.1727 14.4201 22.3177 14.6044 22.4037 14.8176C22.4897 15.0308 22.5131 15.2641 22.4712 15.4902C22.4294 15.7162 22.3239 15.9257 22.1673 16.094L19.5423 18.7611L20.9664 23.833C21.0339 24.0578 21.0305 24.298 20.9567 24.5208C20.8829 24.7437 20.7421 24.9383 20.5537 25.0783C20.3652 25.2183 20.1382 25.2967 19.9036 25.3031C19.6689 25.3094 19.438 25.2433 19.2423 25.1136L15.6273 22.663C15.4398 22.5357 15.2183 22.4676 14.9917 22.4676C14.765 22.4676 14.5436 22.5357 14.3561 22.663L10.7439 25.1136C10.5481 25.243 10.3172 25.309 10.0826 25.3026C9.848 25.2961 9.62107 25.2177 9.43264 25.0778C9.24421 24.9379 9.10342 24.7434 9.02939 24.5207C8.95536 24.298 8.95169 24.0579 9.01887 23.833L10.4439 18.7611L7.83575 16.109C7.67812 15.9393 7.57207 15.7283 7.53003 15.5006C7.48798 15.2729 7.51167 15.0379 7.59833 14.8232C7.68499 14.6085 7.83103 14.4229 8.01935 14.2881C8.20767 14.1534 8.43048 14.0751 8.66168 14.0624H12.7192L13.9379 11.0315C14.0208 10.819 14.1658 10.6365 14.3541 10.5078C14.5423 10.3791 14.7651 10.3103 14.9931 10.3103C15.2211 10.3103 15.4439 10.3791 15.6321 10.5078C15.8204 10.6365 15.9654 10.819 16.0482 11.0315Z" fill="url(#paint3_linear_569_6082)"/>
<path d="M44.0625 40.3125H34.6875L36.1144 33.18C36.1688 32.9079 36.1621 32.6272 36.0948 32.358C36.0276 32.0888 35.9014 31.8379 35.7255 31.6234C35.5495 31.4089 35.3281 31.2361 35.0773 31.1175C34.8265 30.9989 34.5525 30.9374 34.275 30.9375H30.0656C29.7569 30.9376 29.453 31.0138 29.1809 31.1595C28.9087 31.3053 28.6768 31.5159 28.5056 31.7728L21.5625 42.1875H19.6875V57.1875H39.87C40.5665 57.1876 41.2492 56.9937 41.8416 56.6276C42.4341 56.2615 42.9129 55.7376 43.2244 55.1147L47.4169 46.7297C47.6768 46.2088 47.8122 45.6346 47.8125 45.0525V44.0625C47.8125 43.0679 47.4174 42.1141 46.7141 41.4109C46.0109 40.7076 45.0571 40.3125 44.0625 40.3125Z" fill="url(#paint4_linear_569_6082)"/>
<path d="M21.5625 57.1875H15.9375C15.4402 57.1875 14.9633 56.99 14.6117 56.6383C14.26 56.2867 14.0625 55.8098 14.0625 55.3125V44.0625C14.0625 43.5652 14.26 43.0883 14.6117 42.7367C14.9633 42.385 15.4402 42.1875 15.9375 42.1875H21.5625V57.1875Z" fill="url(#paint5_linear_569_6082)"/>
<path d="M27.1875 56.25C26.9389 56.25 26.7004 56.3488 26.5246 56.5246C26.3488 56.7004 26.25 56.9389 26.25 57.1875C26.25 57.4361 26.3488 57.6746 26.5246 57.8504C26.7004 58.0262 26.9389 58.125 27.1875 58.125H29.0625C29.3111 58.125 29.5496 58.0262 29.7254 57.8504C29.9012 57.6746 30 57.4361 30 57.1875C30 56.9389 29.9012 56.7004 29.7254 56.5246C29.5496 56.3488 29.3111 56.25 29.0625 56.25H27.1875Z" fill="#2C3D60"/>
<path d="M46.5806 46.3059L42.3919 54.6938C42.1549 55.1592 41.7944 55.5506 41.35 55.8251C40.9056 56.0995 40.3942 56.2465 39.8719 56.25H32.8125C32.5639 56.25 32.3254 56.3488 32.1496 56.5246C31.9738 56.7004 31.875 56.9389 31.875 57.1875C31.875 57.4361 31.9738 57.6746 32.1496 57.8504C32.3254 58.0262 32.5639 58.125 32.8125 58.125H39.8719C40.7415 58.1199 41.593 57.8754 42.333 57.4185C43.073 56.9616 43.673 56.3099 44.0672 55.5347L48.2541 47.1506C48.5816 46.5012 48.7515 45.7836 48.75 45.0563V44.0625C48.7485 42.8198 48.2542 41.6283 47.3754 40.7496C46.4967 39.8708 45.3052 39.3765 44.0625 39.375H35.8313L37.0312 33.3638C37.1128 32.9559 37.1028 32.535 37.0021 32.1314C36.9014 31.7279 36.7124 31.3517 36.4488 31.0299C36.1851 30.7082 35.8534 30.449 35.4775 30.2709C35.1017 30.0928 34.6909 30.0003 34.275 30H30.0656C29.603 29.9988 29.1474 30.1126 28.7396 30.331C28.3318 30.5495 27.9847 30.8658 27.7294 31.2516L21.0609 41.25H15.9375C15.1916 41.25 14.4762 41.5463 13.9488 42.0738C13.4213 42.6012 13.125 43.3166 13.125 44.0625V55.3125C13.125 56.0584 13.4213 56.7738 13.9488 57.3012C14.4762 57.8287 15.1916 58.125 15.9375 58.125H23.4375C23.6861 58.125 23.9246 58.0262 24.1004 57.8504C24.2762 57.6746 24.375 57.4361 24.375 57.1875C24.375 56.9389 24.2762 56.7004 24.1004 56.5246C23.9246 56.3488 23.6861 56.25 23.4375 56.25H22.5V42.4688L29.2913 32.2856C29.3764 32.1586 29.4917 32.0546 29.6268 31.9829C29.7619 31.9113 29.9127 31.8742 30.0656 31.875H34.275C34.414 31.8748 34.5512 31.9054 34.6769 31.9648C34.8026 32.0241 34.9135 32.1107 35.0016 32.2181C35.089 32.3252 35.1513 32.4505 35.1838 32.5849C35.2162 32.7193 35.218 32.8592 35.1891 32.9944L33.7688 40.125C33.7409 40.2612 33.7438 40.4019 33.7771 40.5369C33.8103 40.6719 33.8732 40.7978 33.9612 40.9055C34.0491 41.0132 34.1599 41.1 34.2855 41.1596C34.4112 41.2191 34.5485 41.25 34.6875 41.25H44.0625C44.8084 41.25 45.5238 41.5463 46.0512 42.0738C46.5787 42.6012 46.875 43.3166 46.875 44.0625V45.0563C46.8767 45.4902 46.7758 45.9184 46.5806 46.3059ZM15 55.3125V44.0625C15 43.8139 15.0988 43.5754 15.2746 43.3996C15.4504 43.2238 15.6889 43.125 15.9375 43.125H20.625V56.25H15.9375C15.6889 56.25 15.4504 56.1512 15.2746 55.9754C15.0988 55.7996 15 55.5611 15 55.3125Z" fill="#2C3D60"/>
<path d="M40.3125 3.75C40.5611 3.75 40.7996 3.65123 40.9754 3.47541C41.1512 3.2996 41.25 3.06114 41.25 2.8125C41.25 2.56386 41.1512 2.3254 40.9754 2.14959C40.7996 1.97377 40.5611 1.875 40.3125 1.875H38.4375C38.1889 1.875 37.9504 1.97377 37.7746 2.14959C37.5988 2.3254 37.5 2.56386 37.5 2.8125C37.5 3.06114 37.5988 3.2996 37.7746 3.47541C37.9504 3.65123 38.1889 3.75 38.4375 3.75H40.3125Z" fill="#2C3D60"/>
<path d="M7.80094 33.72L10.5056 40.1794C10.6565 40.5027 10.8973 40.7758 11.1994 40.9657C11.5014 41.1556 11.8519 41.2545 12.2086 41.2503C12.5654 41.2462 12.9135 41.1392 13.211 40.9423C13.5085 40.7453 13.743 40.4668 13.8863 40.14L16.5609 33.75H23.4375C23.6861 33.75 23.9246 33.6512 24.1004 33.4754C24.2762 33.2996 24.375 33.0611 24.375 32.8125C24.375 32.5639 24.2762 32.3254 24.1004 32.1496C23.9246 31.9738 23.6861 31.875 23.4375 31.875H15.9375C15.7526 31.8749 15.5717 31.9295 15.4178 32.0319C15.2638 32.1344 15.1436 32.28 15.0722 32.4506L12.2184 39.4162L9.30281 32.4506C9.23143 32.28 9.11119 32.1344 8.95722 32.0319C8.80325 31.9295 8.62243 31.8749 8.4375 31.875C7.19498 31.8728 6.00399 31.3782 5.1254 30.4996C4.24681 29.621 3.75223 28.43 3.75 27.1875V8.4375C3.75149 7.19475 4.24583 6.00333 5.12458 5.12458C6.00334 4.24583 7.19475 3.75149 8.4375 3.75H34.6875C34.9361 3.75 35.1746 3.65123 35.3504 3.47541C35.5262 3.2996 35.625 3.06114 35.625 2.8125C35.625 2.56386 35.5262 2.3254 35.3504 2.14959C35.1746 1.97377 34.9361 1.875 34.6875 1.875H8.4375C6.69763 1.87699 5.02958 2.56903 3.7993 3.7993C2.56903 5.02958 1.87699 6.69763 1.875 8.4375V27.1875C1.8775 28.8172 2.48515 30.3878 3.5801 31.5948C4.67504 32.8018 6.17923 33.5592 7.80094 33.72Z" fill="#2C3D60"/>
<path d="M51.5625 1.875H44.0625C43.8139 1.875 43.5754 1.97377 43.3996 2.14959C43.2238 2.3254 43.125 2.56386 43.125 2.8125C43.125 3.06114 43.2238 3.2996 43.3996 3.47541C43.5754 3.65123 43.8139 3.75 44.0625 3.75H51.5625C52.8052 3.75149 53.9967 4.24583 54.8754 5.12458C55.7542 6.00334 56.2485 7.19475 56.25 8.4375V27.1875C56.2485 28.4302 55.7542 29.6217 54.8754 30.5004C53.9967 31.3792 52.8052 31.8735 51.5625 31.875H40.3125C40.0639 31.875 39.8254 31.9738 39.6496 32.1496C39.4738 32.3254 39.375 32.5639 39.375 32.8125C39.375 33.0611 39.4738 33.2996 39.6496 33.4754C39.8254 33.6512 40.0639 33.75 40.3125 33.75H51.5625C53.3024 33.748 54.9704 33.056 56.2007 31.8257C57.431 30.5954 58.123 28.9274 58.125 27.1875V8.4375C58.123 6.69763 57.431 5.02958 56.2007 3.7993C54.9704 2.56903 53.3024 1.87699 51.5625 1.875Z" fill="#2C3D60"/>
<path d="M53.2974 14.5313C53.146 14.1316 52.8804 13.7852 52.5337 13.5352C52.187 13.2852 51.7745 13.1425 51.3474 13.1251H47.9058L46.9224 10.6876C46.7695 10.3018 46.5042 9.97089 46.1609 9.73772C45.8176 9.50455 45.4122 9.37988 44.9972 9.37988C44.5823 9.37988 44.1769 9.50455 43.8336 9.73772C43.4903 9.97089 43.225 10.3018 43.0721 10.6876L42.0849 13.1251H38.5965C38.2012 13.1539 37.8213 13.29 37.4977 13.5188C37.1566 13.2865 36.7593 13.1505 36.3474 13.1251H32.9058L31.9224 10.6876C31.7695 10.3018 31.5042 9.97089 31.1609 9.73772C30.8176 9.50455 30.4122 9.37988 29.9972 9.37988C29.5823 9.37988 29.1769 9.50455 28.8336 9.73772C28.4903 9.97089 28.225 10.3018 28.0721 10.6876L27.0849 13.1251H23.5965C23.2012 13.1539 22.8213 13.29 22.4977 13.5188C22.1566 13.2865 21.7593 13.1505 21.3474 13.1251H17.9058L16.9224 10.6876C16.7695 10.3018 16.5042 9.97089 16.1609 9.73772C15.8176 9.50455 15.4122 9.37988 14.9972 9.37988C14.5823 9.37988 14.1769 9.50455 13.8336 9.73772C13.4903 9.97089 13.225 10.3018 13.0721 10.6876L12.0849 13.1251H8.59646C8.17873 13.1516 7.7776 13.2985 7.44155 13.548C7.10549 13.7976 6.84888 14.1391 6.70271 14.5313C6.55618 14.908 6.52203 15.3191 6.6044 15.7148C6.68677 16.1105 6.88211 16.4738 7.16677 16.7607L9.39427 19.0313L8.11552 23.5791C7.99483 23.9938 8.00607 24.4357 8.14766 24.8437C8.28926 25.2517 8.55422 25.6056 8.90584 25.8563C9.24761 26.106 9.6585 26.2434 10.0817 26.2494C10.5049 26.2554 10.9196 26.1299 11.2683 25.8901L14.8843 23.4376C14.9164 23.416 14.9543 23.4044 14.993 23.4044C15.0318 23.4044 15.0696 23.416 15.1018 23.4376L18.7168 25.8891C19.0654 26.1292 19.4801 26.2549 19.9034 26.2489C20.3267 26.2428 20.7376 26.1053 21.0793 25.8554C21.431 25.6049 21.6961 25.2513 21.8379 24.8434C21.9796 24.4356 21.991 23.9937 21.8705 23.5791L20.5927 19.0313L22.493 17.0982L24.3943 19.0313L23.1155 23.5791C22.9948 23.9938 23.0061 24.4357 23.1477 24.8437C23.2893 25.2517 23.5542 25.6056 23.9058 25.8563C24.2476 26.106 24.6585 26.2434 25.0817 26.2494C25.5049 26.2554 25.9196 26.1299 26.2683 25.8901L29.8843 23.4376C29.9164 23.416 29.9543 23.4044 29.993 23.4044C30.0318 23.4044 30.0696 23.416 30.1018 23.4376L33.7168 25.8891C34.0654 26.1292 34.4801 26.2549 34.9034 26.2489C35.3267 26.2428 35.7376 26.1053 36.0793 25.8554C36.431 25.6049 36.6961 25.2513 36.8379 24.8434C36.9796 24.4356 36.991 23.9937 36.8705 23.5791L35.5927 19.0313L37.493 17.0982L39.3943 19.0313L38.1155 23.5791C37.9948 23.9938 38.0061 24.4357 38.1477 24.8437C38.2893 25.2517 38.5542 25.6056 38.9058 25.8563C39.2476 26.106 39.6585 26.2434 40.0817 26.2494C40.5049 26.2554 40.9196 26.1299 41.2683 25.8901L44.8843 23.4376C44.9164 23.416 44.9543 23.4044 44.993 23.4044C45.0318 23.4044 45.0696 23.416 45.1018 23.4376L48.7168 25.8891C49.0654 26.1292 49.4801 26.2549 49.9034 26.2489C50.3267 26.2428 50.7376 26.1053 51.0793 25.8554C51.431 25.6049 51.6961 25.2513 51.8379 24.8434C51.9796 24.4356 51.991 23.9937 51.8705 23.5791L50.5927 19.0313L52.8343 16.7513C53.1179 16.4657 53.3126 16.104 53.3948 15.7099C53.477 15.3159 53.4431 14.9065 53.2974 14.5313ZM21.4983 15.436L18.8733 18.1051C18.7576 18.2227 18.675 18.3689 18.6338 18.5287C18.5927 18.6886 18.5944 18.8564 18.639 19.0154L20.063 24.0873C20.0791 24.1317 20.0798 24.1802 20.065 24.2251C20.0502 24.27 20.0208 24.3086 19.9815 24.3348C19.9517 24.3603 19.9138 24.3743 19.8746 24.3743C19.8354 24.3743 19.7975 24.3603 19.7677 24.3348L16.1527 21.8841C15.8103 21.6508 15.4055 21.5259 14.9911 21.5259C14.5768 21.5259 14.172 21.6508 13.8296 21.8841L10.2183 24.3376C10.1884 24.363 10.1503 24.377 10.111 24.377C10.0717 24.377 10.0336 24.363 10.0036 24.3376C9.9643 24.3114 9.93487 24.2728 9.92008 24.2279C9.90529 24.183 9.906 24.1345 9.92209 24.0901L11.3471 19.0182C11.3916 18.8593 11.3934 18.6914 11.3522 18.5315C11.3111 18.3717 11.2285 18.2256 11.1127 18.1079L8.50271 15.4519C8.46929 15.4204 8.4468 15.379 8.43854 15.3338C8.43028 15.2887 8.43666 15.242 8.45677 15.2007C8.47271 15.1566 8.54209 15.0132 8.66115 15.0001H12.7177C12.9047 15.0002 13.0875 14.9443 13.2425 14.8398C13.3976 14.7352 13.5178 14.5866 13.5877 14.4132L14.8065 11.3748C14.8188 11.3359 14.844 11.3024 14.8779 11.2798C14.9118 11.2571 14.9524 11.2467 14.993 11.2501C15.0329 11.2474 15.0726 11.2583 15.1056 11.2809C15.1386 11.3035 15.163 11.3366 15.1749 11.3748V11.3823L16.3936 14.4132C16.4639 14.5874 16.5848 14.7364 16.7408 14.8411C16.8967 14.9457 17.0805 15.0011 17.2683 15.0001H21.2808C21.3391 15.0031 21.3951 15.0234 21.4417 15.0585C21.4884 15.0936 21.5234 15.1418 21.5424 15.1969C21.5613 15.2363 21.5673 15.2807 21.5593 15.3237C21.5514 15.3666 21.5301 15.406 21.4983 15.436ZM36.4983 15.436L33.8733 18.1051C33.7576 18.2227 33.675 18.3689 33.6338 18.5287C33.5927 18.6886 33.5944 18.8564 33.639 19.0154L35.063 24.0873C35.0791 24.1317 35.0798 24.1802 35.065 24.2251C35.0502 24.27 35.0208 24.3086 34.9815 24.3348C34.9517 24.3603 34.9138 24.3743 34.8746 24.3743C34.8354 24.3743 34.7975 24.3603 34.7677 24.3348L31.1527 21.8841C30.8103 21.6508 30.4055 21.5259 29.9911 21.5259C29.5768 21.5259 29.172 21.6508 28.8296 21.8841L25.2183 24.3376C25.1884 24.363 25.1503 24.377 25.111 24.377C25.0717 24.377 25.0336 24.363 25.0036 24.3376C24.9643 24.3114 24.9349 24.2728 24.9201 24.2279C24.9053 24.183 24.906 24.1345 24.9221 24.0901L26.3471 19.0182C26.3916 18.8593 26.3934 18.6914 26.3522 18.5315C26.3111 18.3717 26.2285 18.2256 26.1127 18.1079L23.5036 15.4548C23.4702 15.4232 23.4477 15.3819 23.4395 15.3367C23.4312 15.2915 23.4376 15.2448 23.4577 15.2035C23.4736 15.1594 23.543 15.016 23.6621 15.0029H27.7186C27.9057 15.003 28.0884 14.9472 28.2435 14.8426C28.3985 14.738 28.5187 14.5894 28.5886 14.416L29.8074 11.3776C29.8192 11.3384 29.8441 11.3044 29.8778 11.2812C29.9116 11.258 29.9522 11.247 29.993 11.2501C30.0329 11.2474 30.0726 11.2583 30.1056 11.2809C30.1386 11.3035 30.163 11.3366 30.1749 11.3748V11.3823L31.3936 14.4132C31.4639 14.5874 31.5848 14.7364 31.7408 14.8411C31.8967 14.9457 32.0805 15.0011 32.2683 15.0001H36.2808C36.3391 15.0031 36.3951 15.0234 36.4417 15.0585C36.4883 15.0936 36.5234 15.1418 36.5424 15.1969C36.5613 15.2363 36.5672 15.2807 36.5593 15.3237C36.5514 15.3666 36.5301 15.406 36.4983 15.436ZM51.4983 15.436L48.8733 18.1051C48.7576 18.2227 48.675 18.3689 48.6338 18.5287C48.5927 18.6886 48.5944 18.8564 48.639 19.0154L50.063 24.0873C50.0791 24.1317 50.0798 24.1802 50.065 24.2251C50.0502 24.27 50.0208 24.3086 49.9815 24.3348C49.9517 24.3603 49.9138 24.3743 49.8746 24.3743C49.8354 24.3743 49.7975 24.3603 49.7677 24.3348L46.1527 21.8841C45.8103 21.6508 45.4055 21.5259 44.9911 21.5259C44.5768 21.5259 44.172 21.6508 43.8296 21.8841L40.2183 24.3376C40.1884 24.363 40.1503 24.377 40.111 24.377C40.0717 24.377 40.0336 24.363 40.0037 24.3376C39.9643 24.3114 39.9349 24.2728 39.9201 24.2279C39.9053 24.183 39.906 24.1345 39.9221 24.0901L41.3471 19.0182C41.3916 18.8593 41.3934 18.6914 41.3522 18.5315C41.3111 18.3717 41.2285 18.2256 41.1127 18.1079L38.5037 15.4548C38.4702 15.4232 38.4477 15.3819 38.4395 15.3367C38.4312 15.2915 38.4376 15.2448 38.4577 15.2035C38.4736 15.1594 38.543 15.016 38.6621 15.0029H42.7187C42.9057 15.003 43.0884 14.9472 43.2435 14.8426C43.3985 14.738 43.5187 14.5894 43.5886 14.416L44.8074 11.3776C44.8192 11.3384 44.8441 11.3044 44.8778 11.2812C44.9116 11.258 44.9522 11.247 44.993 11.2501C45.0329 11.2474 45.0726 11.2583 45.1056 11.2809C45.1386 11.3035 45.163 11.3366 45.1749 11.3748V11.3823L46.3937 14.4132C46.4639 14.5874 46.5848 14.7364 46.7408 14.8411C46.8967 14.9457 47.0805 15.0011 47.2683 15.0001H51.2808C51.3391 15.0031 51.3951 15.0234 51.4417 15.0585C51.4884 15.0936 51.5234 15.1418 51.5424 15.1969C51.5613 15.2363 51.5672 15.2807 51.5593 15.3237C51.5514 15.3666 51.5301 15.406 51.4983 15.436Z" fill="#2C3D60"/>
<defs>
<linearGradient id="paint0_linear_569_6082" x1="30" y1="2.8125" x2="30" y2="40.3125" gradientUnits="userSpaceOnUse">
<stop stop-color="#E4E9F4"/>
<stop offset="1" stop-color="#BCCBE2"/>
</linearGradient>
<linearGradient id="paint1_linear_569_6082" x1="30.0001" y1="10.3124" x2="30.0001" y2="25.3124" gradientUnits="userSpaceOnUse">
<stop stop-color="#FFD270"/>
<stop offset="1" stop-color="#F79F63"/>
</linearGradient>
<linearGradient id="paint2_linear_569_6082" x1="45.0001" y1="10.3124" x2="45.0001" y2="25.3124" gradientUnits="userSpaceOnUse">
<stop stop-color="#FFD270"/>
<stop offset="1" stop-color="#F79F63"/>
</linearGradient>
<linearGradient id="paint3_linear_569_6082" x1="15.0001" y1="10.3124" x2="15.0001" y2="25.3124" gradientUnits="userSpaceOnUse">
<stop stop-color="#FFD270"/>
<stop offset="1" stop-color="#F79F63"/>
</linearGradient>
<linearGradient id="paint4_linear_569_6082" x1="33.75" y1="30.9375" x2="33.75" y2="57.1875" gradientUnits="userSpaceOnUse">
<stop stop-color="#F4B8AB"/>
<stop offset="1" stop-color="#ED9F93"/>
</linearGradient>
<linearGradient id="paint5_linear_569_6082" x1="17.8125" y1="42.1875" x2="17.8125" y2="57.1875" gradientUnits="userSpaceOnUse">
<stop stop-color="#F2756B"/>
<stop offset="1" stop-color="#C44747"/>
</linearGradient>
</defs>
</svg>
