<svg width="60" height="60" viewBox="0 0 60 60" fill="none" xmlns="http://www.w3.org/2000/svg">
<g clip-path="url(#clip0_569_6050)">
<path d="M18.6368 19.9001H41.3618C42.0249 19.9001 42.6608 20.1635 43.1296 20.6324C43.5985 21.1012 43.8618 21.7371 43.8618 22.4001V37.5751C43.8618 38.2382 43.5985 38.8741 43.1296 39.3429C42.6608 39.8118 42.0249 40.0751 41.3618 40.0751H34.9993L29.9993 46.4001L24.9993 40.0751H18.6368C17.9738 40.0751 17.3379 39.8118 16.8691 39.3429C16.4002 38.8741 16.1368 38.2382 16.1368 37.5751V22.4251C16.1335 22.0947 16.1958 21.767 16.3199 21.4608C16.4441 21.1546 16.6277 20.876 16.8602 20.6412C17.0927 20.4064 17.3694 20.22 17.6743 20.0928C17.9793 19.9656 18.3064 19.9001 18.6368 19.9001Z" fill="#8396FF"/>
<path d="M18.6368 19.9001H36.6868C37.5919 19.9001 38.4599 20.2597 39.0998 20.8996C39.7398 21.5396 40.0993 22.4076 40.0993 23.3126V36.6876C40.0993 37.5927 39.7398 38.4607 39.0998 39.1006C38.4599 39.7406 37.5919 40.1001 36.6868 40.1001H34.9993L29.9993 46.4251L24.9993 40.1001H18.6368C17.9738 40.1001 17.3379 39.8368 16.8691 39.3679C16.4002 38.8991 16.1368 38.2632 16.1368 37.6001V22.4251C16.1335 22.0947 16.1958 21.767 16.3199 21.4608C16.4441 21.1546 16.6277 20.876 16.8602 20.6412C17.0927 20.4064 17.3694 20.22 17.6743 20.0928C17.9793 19.9656 18.3064 19.9001 18.6368 19.9001Z" fill="#B5DAFF"/>
<path d="M23.7494 19.9001H36.7494C37.6544 19.9001 38.5224 20.2597 39.1624 20.8996C39.8024 21.5396 40.1619 22.4076 40.1619 23.3126V36.6876C40.1619 37.5927 39.8024 38.4607 39.1624 39.1006C38.5224 39.7406 37.6544 40.1001 36.7494 40.1001H34.9994L29.9994 46.4251L24.9994 40.1001H23.7494C22.7548 40.1001 21.801 39.7051 21.0977 39.0018C20.3945 38.2985 19.9994 37.3447 19.9994 36.3501V23.7501C19.986 23.2493 20.0731 22.7509 20.2556 22.2844C20.4381 21.8178 20.7122 21.3925 21.0617 21.0336C21.4113 20.6747 21.8292 20.3895 22.2908 20.1949C22.7525 20.0002 23.2484 19.9 23.7494 19.9001Z" fill="#8EB6FF"/>
<path d="M29.9996 47.3625C29.8581 47.3644 29.718 47.3339 29.5902 47.2732C29.4623 47.2126 29.3501 47.1233 29.2621 47.0125L24.4871 41.05H18.6371C18.1803 41.0516 17.7277 40.9629 17.3054 40.7888C16.883 40.6148 16.4993 40.3589 16.1763 40.0359C15.8532 39.7128 15.5973 39.3291 15.4233 38.9068C15.2492 38.4844 15.1605 38.0318 15.1621 37.575V22.425C15.1605 21.9682 15.2492 21.5155 15.4233 21.0932C15.5973 20.6708 15.8532 20.2871 16.1763 19.9641C16.4993 19.6411 16.883 19.3852 17.3054 19.2111C17.7277 19.0371 18.1803 18.9483 18.6371 18.95H41.3621C41.8189 18.9483 42.2716 19.0371 42.6939 19.2111C43.1163 19.3852 43.5 19.6411 43.823 19.9641C44.146 20.2871 44.4019 20.6708 44.576 21.0932C44.75 21.5155 44.8388 21.9682 44.8371 22.425V37.575C44.8388 38.0318 44.75 38.4844 44.576 38.9068C44.4019 39.3291 44.146 39.7128 43.823 40.0359C43.5 40.3589 43.1163 40.6148 42.6939 40.7888C42.2716 40.9629 41.8189 41.0516 41.3621 41.05H35.5121L30.7371 47.0125C30.6492 47.1233 30.5369 47.2126 30.4091 47.2732C30.2812 47.3339 30.1411 47.3644 29.9996 47.3625ZM18.6371 20.8375C18.2161 20.8375 17.8123 21.0047 17.5146 21.3024C17.2169 21.6002 17.0496 22.0039 17.0496 22.425V37.575C17.0496 37.996 17.2169 38.3998 17.5146 38.6975C17.8123 38.9952 18.2161 39.1625 18.6371 39.1625H24.9996C25.1411 39.1605 25.2812 39.191 25.4091 39.2517C25.5369 39.3124 25.6492 39.4016 25.7371 39.5125L29.9996 44.9L34.3121 39.5125C34.4001 39.4016 34.5123 39.3124 34.6402 39.2517C34.768 39.191 34.9081 39.1605 35.0496 39.1625H41.3621C41.7832 39.1625 42.1869 38.9952 42.4847 38.6975C42.7824 38.3998 42.9496 37.996 42.9496 37.575V22.425C42.9496 22.0039 42.7824 21.6002 42.4847 21.3024C42.1869 21.0047 41.7832 20.8375 41.3621 20.8375H18.6371Z" fill="#2C3D60"/>
<path d="M36.3125 56.2501C36.0605 56.2501 35.8189 56.15 35.6407 55.9718C35.4626 55.7937 35.3625 55.552 35.3625 55.3001C35.3625 55.0481 35.4626 54.8065 35.6407 54.6283C35.8189 54.4502 36.0605 54.3501 36.3125 54.3501C38.3474 54.3484 40.362 53.9458 42.2412 53.1652C44.1205 52.3846 45.8274 51.2413 47.2646 49.8006C48.7017 48.36 49.8409 46.6503 50.617 44.7692C51.393 42.8881 51.7908 40.8725 51.7875 38.8376V17.3626C51.7809 13.2615 50.148 9.33053 47.2469 6.43183C44.3459 3.53312 40.4135 1.90338 36.3125 1.90007H23.75C21.7141 1.8935 19.6968 2.28841 17.8136 3.06222C15.9304 3.83604 14.2183 4.97356 12.7752 6.40971C11.3321 7.84587 10.1863 9.55246 9.40336 11.4319C8.62045 13.3113 8.21578 15.3266 8.2125 17.3626V19.8626C8.2125 20.1145 8.11241 20.3562 7.93425 20.5343C7.75609 20.7125 7.51446 20.8126 7.2625 20.8126C7.01054 20.8126 6.76891 20.7125 6.59075 20.5343C6.41259 20.3562 6.3125 20.1145 6.3125 19.8626V17.3626C6.31578 15.0771 6.76959 12.8147 7.64799 10.7048C8.52639 8.59485 9.81214 6.6788 11.4317 5.06621C13.0512 3.45363 14.9728 2.17615 17.0865 1.30685C19.2002 0.437558 21.4645 -0.00650256 23.75 7.19487e-05H36.375C40.98 0.00337773 45.3955 1.8333 48.6529 5.08833C51.9103 8.34335 53.7434 12.7576 53.75 17.3626V38.8376C53.7517 41.1268 53.3016 43.3938 52.4255 45.5088C51.5495 47.6237 50.2647 49.545 48.6448 51.1626C47.025 52.7801 45.1018 54.0622 42.9856 54.9352C40.8694 55.8082 38.6017 56.255 36.3125 56.2501Z" fill="#2C3D60"/>
<path d="M32.5 59.05H27.5C26.5054 59.05 25.5516 58.655 24.8483 57.9517C24.1451 57.2484 23.75 56.2946 23.75 55.3C23.75 54.3055 24.1451 53.3517 24.8483 52.6484C25.5516 51.9451 26.5054 51.55 27.5 51.55H32.5C33.4946 51.55 34.4484 51.9451 35.1517 52.6484C35.8549 53.3517 36.25 54.3055 36.25 55.3C36.25 56.2946 35.8549 57.2484 35.1517 57.9517C34.4484 58.655 33.4946 59.05 32.5 59.05Z" fill="#BAC4D3"/>
<path d="M23.7508 0.950006C21.5805 0.944393 19.4307 1.36926 17.4258 2.20001C17.4258 3.8775 18.0922 5.48629 19.2783 6.67246C20.4645 7.85862 22.0733 8.52501 23.7508 8.52501H36.3758C38.0511 8.52501 39.658 7.86034 40.8438 6.67688C42.0296 5.49341 42.6975 3.88783 42.7008 2.21251C40.6958 1.38176 38.546 0.956893 36.3758 0.962506L23.7508 0.950006Z" fill="white"/>
<path d="M36.3121 8.525C37.6126 8.53022 38.8824 8.12962 39.9444 7.37901C41.0065 6.6284 41.8079 5.56518 42.2371 4.3375C40.8722 3.96302 39.4649 3.76556 38.0496 3.75H25.4121C23.2669 3.75262 21.1433 4.17736 19.1621 5C19.1733 5.60231 19.2701 6.19997 19.4496 6.775C20.6051 7.88878 22.1448 8.51538 23.7496 8.525H36.3121Z" fill="#DFEBF7"/>
<path d="M52.7383 40.1001C52.0752 40.1001 51.4394 39.8367 50.9705 39.3679C50.5017 38.899 50.2383 38.2632 50.2383 37.6001V22.4251C50.2383 21.7621 50.5017 21.1262 50.9705 20.6574C51.4394 20.1885 52.0752 19.9251 52.7383 19.9251C53.5643 19.9169 54.3837 20.0724 55.1493 20.3828C55.9148 20.6932 56.6112 21.1523 57.1982 21.7335C57.7852 22.3146 58.2511 23.0064 58.5691 23.7688C58.8871 24.5312 59.0508 25.3491 59.0508 26.1751V33.7501C59.0642 34.5845 58.9103 35.4132 58.5983 36.1872C58.2863 36.9612 57.8224 37.6649 57.2341 38.2567C56.6457 38.8486 55.9448 39.3166 55.1726 39.6332C54.4005 39.9498 53.5728 40.1086 52.7383 40.1001Z" fill="#BAC4D3"/>
<path d="M51.6504 37.5752C51.2691 37.5752 50.9035 37.4237 50.6339 37.1541C50.3643 36.8845 50.2129 36.5189 50.2129 36.1377V21.3377C50.2129 20.9564 50.3643 20.5908 50.6339 20.3212C50.9035 20.0516 51.2691 19.9002 51.6504 19.9002C52.1242 19.8985 52.5937 19.9904 53.0319 20.1706C53.4701 20.3508 53.8684 20.6157 54.2041 20.9502C54.5397 21.2846 54.806 21.682 54.9877 22.1196C55.1694 22.5572 55.2629 23.0264 55.2629 23.5002V33.9752C55.2629 34.449 55.1694 34.9181 54.9877 35.3557C54.806 35.7933 54.5397 36.1907 54.2041 36.5252C53.8684 36.8596 53.4701 37.1245 53.0319 37.3047C52.5937 37.4849 52.1242 37.5768 51.6504 37.5752Z" fill="#DFEBF7"/>
<path d="M7.26172 40.1001C5.60412 40.1001 4.0144 39.4416 2.8423 38.2695C1.6702 37.0974 1.01172 35.5077 1.01172 33.8501V26.2501C1.01168 25.424 1.17539 24.6062 1.49338 23.8438C1.81137 23.0814 2.27734 22.3896 2.86434 21.8084C3.45135 21.2272 4.14774 20.7682 4.91325 20.4578C5.67876 20.1474 6.49821 19.9918 7.32422 20.0001C7.98726 20.0001 8.62315 20.2635 9.09199 20.7323C9.56083 21.2011 9.82422 21.837 9.82422 22.5001V37.5751C9.82768 37.9108 9.76348 38.2438 9.63546 38.5542C9.50743 38.8645 9.31819 39.146 9.07904 39.3816C8.83989 39.6173 8.55572 39.8023 8.24349 39.9258C7.93126 40.0492 7.59736 40.1085 7.26172 40.1001Z" fill="white"/>
<path d="M8.35078 40.1001C7.87697 40.1017 7.4075 40.0098 6.96928 39.8296C6.53107 39.6495 6.13273 39.3845 5.79711 39.0501C5.4615 38.7156 5.1952 38.3182 5.01351 37.8806C4.83181 37.443 4.73828 36.9739 4.73828 36.5001V26.0251C4.73828 25.5513 4.83181 25.0821 5.01351 24.6445C5.1952 24.2069 5.4615 23.8095 5.79711 23.4751C6.13273 23.1406 6.53107 22.8757 6.96928 22.6955C7.4075 22.5153 7.87697 22.4234 8.35078 22.4251C8.73203 22.4251 9.09766 22.5765 9.36725 22.8461C9.63683 23.1157 9.78828 23.4813 9.78828 23.8626V38.6626C9.78828 39.0438 9.63683 39.4095 9.36725 39.679C9.09766 39.9486 8.73203 40.1001 8.35078 40.1001Z" fill="#DFEBF7"/>
<path d="M31.25 56.5251H25C24.6685 56.5251 24.3505 56.3934 24.1161 56.159C23.8817 55.9246 23.75 55.6067 23.75 55.2751C23.75 54.2806 24.1451 53.3268 24.8483 52.6235C25.5516 51.9202 26.5054 51.5251 27.5 51.5251H32.5C32.8315 51.5251 33.1495 51.6568 33.3839 51.8913C33.6183 52.1257 33.75 52.4436 33.75 52.7751V54.0251C33.75 54.6882 33.4866 55.3241 33.0178 55.7929C32.5489 56.2618 31.913 56.5251 31.25 56.5251Z" fill="#DFEBF7"/>
<path d="M32.4992 59.9999H27.4992C26.2428 59.9999 25.0378 59.5008 24.1493 58.6123C23.2608 57.7239 22.7617 56.5189 22.7617 55.2624C22.7617 54.0059 23.2608 52.8009 24.1493 51.9125C25.0378 51.024 26.2428 50.5249 27.4992 50.5249H32.4992C33.7557 50.5249 34.9607 51.024 35.8491 51.9125C36.7376 52.8009 37.2367 54.0059 37.2367 55.2624C37.2367 56.5189 36.7376 57.7239 35.8491 58.6123C34.9607 59.5008 33.7557 59.9999 32.4992 59.9999ZM27.4992 52.4249C26.7467 52.4249 26.0249 52.7239 25.4928 53.256C24.9607 53.7881 24.6617 54.5099 24.6617 55.2624C24.6617 56.015 24.9607 56.7367 25.4928 57.2688C26.0249 57.801 26.7467 58.0999 27.4992 58.0999H32.4992C33.2518 58.0999 33.9735 57.801 34.5056 57.2688C35.0378 56.7367 35.3367 56.015 35.3367 55.2624C35.3367 54.5099 35.0378 53.7881 34.5056 53.256C33.9735 52.7239 33.2518 52.4249 32.4992 52.4249H27.4992Z" fill="#2C3D60"/>
<path d="M36.3133 9.47502H23.7508C21.8247 9.47502 19.9775 8.70986 18.6155 7.34788C17.2535 5.9859 16.4883 4.13865 16.4883 2.21252C16.4863 2.02602 16.5399 1.84314 16.6423 1.68727C16.7447 1.5314 16.8913 1.40962 17.0633 1.33752C19.1814 0.451398 21.4549 -0.0033074 23.7508 1.81098e-05H36.3758C38.6507 0.00496664 40.9022 0.459511 43.0008 1.33752C43.1729 1.40962 43.3194 1.5314 43.4219 1.68727C43.5243 1.84314 43.5779 2.02602 43.5758 2.21252C43.5758 4.13865 42.8107 5.9859 41.4487 7.34788C40.0867 8.70986 38.2395 9.47502 36.3133 9.47502ZM18.3508 2.83752C18.508 4.15421 19.1464 5.36633 20.1432 6.24085C21.14 7.11536 22.4249 7.59053 23.7508 7.57502H36.3758C37.6911 7.57513 38.9607 7.09301 39.9443 6.21994C40.928 5.34687 41.5574 4.14345 41.7133 2.83752C40.0031 2.21375 38.1963 1.8964 36.3758 1.90002H23.7508C21.9094 1.889 20.0808 2.20648 18.3508 2.83752Z" fill="#2C3D60"/>
<path d="M52.7367 41.05C52.2804 41.05 51.8285 40.9601 51.4069 40.7854C50.9853 40.6108 50.6022 40.3548 50.2795 40.0321C49.9568 39.7095 49.7009 39.3264 49.5262 38.9048C49.3516 38.4832 49.2617 38.0313 49.2617 37.575V22.425C49.2617 21.5033 49.6278 20.6194 50.2795 19.9678C50.9312 19.3161 51.8151 18.95 52.7367 18.95C53.6936 18.9499 54.6411 19.139 55.5246 19.5063C56.4082 19.8737 57.2105 20.412 57.8854 21.0903C58.5603 21.7687 59.0944 22.5737 59.4572 23.4592C59.82 24.3447 60.0042 25.2931 59.9992 26.25V33.75C60.0042 34.7068 59.82 35.6552 59.4572 36.5407C59.0944 37.4262 58.5603 38.2312 57.8854 38.9096C57.2105 39.5879 56.4082 40.1262 55.5246 40.4936C54.6411 40.8609 53.6936 41.05 52.7367 41.05ZM52.7367 20.8375C52.5288 20.8374 52.323 20.8786 52.1311 20.9585C51.9392 21.0385 51.765 21.1556 51.6186 21.3032C51.4722 21.4507 51.3564 21.6259 51.278 21.8184C51.1996 22.0109 51.1601 22.2171 51.1617 22.425V37.575C51.1601 37.7828 51.1996 37.989 51.278 38.1815C51.3564 38.374 51.4722 38.5492 51.6186 38.6967C51.765 38.8443 51.9392 38.9614 52.1311 39.0414C52.323 39.1213 52.5288 39.1625 52.7367 39.1625C53.4447 39.1608 54.1454 39.0193 54.7985 38.7461C55.4516 38.473 56.0444 38.0734 56.5426 37.5705C57.0409 37.0676 57.4349 36.4711 57.7021 35.8155C57.9692 35.1599 58.1042 34.4579 58.0992 33.75V26.25C58.1042 25.542 57.9692 24.84 57.7021 24.1844C57.4349 23.5288 57.0409 22.9323 56.5426 22.4294C56.0444 21.9265 55.4516 21.527 54.7985 21.2538C54.1454 20.9806 53.4447 20.8391 52.7367 20.8375Z" fill="#2C3D60"/>
<path d="M7.2626 41.0501C6.30571 41.0501 5.35825 40.861 4.47467 40.4937C3.59109 40.1263 2.78881 39.588 2.11393 38.9097C1.43905 38.2313 0.904884 37.4263 0.542121 36.5408C0.179359 35.6553 -0.00484408 34.7069 9.68249e-05 33.7501V26.2501C9.68249e-05 24.3239 0.765251 22.4767 2.12723 21.1147C3.48922 19.7527 5.33646 18.9875 7.2626 18.9875C8.18422 18.9875 9.0681 19.3537 9.71979 20.0054C10.3715 20.657 10.7376 21.5409 10.7376 22.4625V37.5751C10.7376 38.4967 10.3715 39.3806 9.71979 40.0322C9.0681 40.6839 8.18422 41.0501 7.2626 41.0501ZM7.2626 20.8375C6.55463 20.8392 5.85396 20.9807 5.20082 21.2539C4.54768 21.527 3.95495 21.9266 3.45667 22.4295C2.95839 22.9324 2.56437 23.5289 2.29725 24.1845C2.03012 24.8401 1.89516 25.5421 1.9001 26.2501V33.7501C1.90009 35.1734 2.46467 36.5387 3.46998 37.5463C4.47528 38.554 5.83923 39.1217 7.2626 39.1251C7.47049 39.1251 7.67632 39.0839 7.86823 39.004C8.06013 38.924 8.23432 38.8069 8.38073 38.6593C8.52715 38.5118 8.6429 38.3367 8.72131 38.1441C8.79973 37.9516 8.83925 37.7454 8.8376 37.5376V22.4251C8.83925 22.2172 8.79973 22.011 8.72131 21.8185C8.6429 21.626 8.52715 21.4508 8.38073 21.3033C8.23432 21.1557 8.06013 21.0386 7.86823 20.9586C7.67632 20.8787 7.47049 20.8375 7.2626 20.8375Z" fill="#2C3D60"/>
<path d="M27.4996 36.6375H22.4996C22.3749 36.6375 22.2513 36.613 22.1361 36.5652C22.0208 36.5175 21.9161 36.4475 21.8279 36.3593C21.7396 36.2711 21.6697 36.1664 21.6219 36.0511C21.5742 35.9358 21.5496 35.8123 21.5496 35.6875V31.1375C21.5473 30.9542 21.5996 30.7744 21.6997 30.6208C21.7999 30.4672 21.9434 30.3469 22.1121 30.275L26.5996 28.25V25.2625H22.4246C22.1727 25.2625 21.931 25.1625 21.7529 24.9843C21.5747 24.8061 21.4746 24.5645 21.4746 24.3125C21.4746 24.0606 21.5747 23.819 21.7529 23.6408C21.931 23.4626 22.1727 23.3625 22.4246 23.3625H27.4246C27.6766 23.3625 27.9182 23.4626 28.0964 23.6408C28.2745 23.819 28.3746 24.0606 28.3746 24.3125V28.8625C28.3737 29.0452 28.3201 29.2237 28.2204 29.3766C28.1206 29.5296 27.9789 29.6506 27.8121 29.725L23.3121 31.75V34.7376H27.4996C27.7516 34.7376 27.9932 34.8376 28.1714 35.0158C28.3495 35.194 28.4496 35.4356 28.4496 35.6875C28.4496 35.9395 28.3495 36.1811 28.1714 36.3593C27.9932 36.5375 27.7516 36.6375 27.4996 36.6375Z" fill="#2C3D60"/>
<path d="M37.5743 36.6375C37.4501 36.6376 37.3272 36.6129 37.2126 36.565C37.0981 36.5171 36.9942 36.4469 36.9069 36.3586C36.8197 36.2702 36.7509 36.1653 36.7045 36.0502C36.6582 35.935 36.6351 35.8117 36.6368 35.6875V26.25C36.6351 26.1259 36.6582 26.0026 36.7045 25.8874C36.7509 25.7723 36.8197 25.6674 36.9069 25.579C36.9942 25.4907 37.0981 25.4205 37.2126 25.3726C37.3272 25.3247 37.4501 25.3 37.5743 25.3C37.8263 25.3 38.0679 25.4001 38.2461 25.5783C38.4242 25.7565 38.5243 25.9981 38.5243 26.25V35.725C38.5146 35.9704 38.4103 36.2026 38.2331 36.3727C38.056 36.5428 37.8199 36.6377 37.5743 36.6375Z" fill="#2C3D60"/>
<path d="M37.5758 32.2125H32.5008C32.376 32.2125 32.2525 32.188 32.1372 32.1402C32.022 32.0925 31.9172 32.0225 31.829 31.9343C31.7408 31.8461 31.6708 31.7414 31.6231 31.6261C31.5754 31.5108 31.5508 31.3873 31.5508 31.2625V24.3125C31.5508 24.0606 31.6509 23.819 31.829 23.6408C32.0072 23.4626 32.2488 23.3625 32.5008 23.3625C32.7527 23.3625 32.9944 23.4626 33.1725 23.6408C33.3507 23.819 33.4508 24.0606 33.4508 24.3125V30.3125H37.5508C37.8027 30.3125 38.0444 30.4126 38.2225 30.5908C38.4007 30.769 38.5008 31.0106 38.5008 31.2625C38.5008 31.5145 38.4007 31.7561 38.2225 31.9343C38.0444 32.1125 37.8027 32.2125 37.5508 32.2125H37.5758Z" fill="#2C3D60"/>
</g>
<defs>
<clipPath id="clip0_569_6050">
<rect width="60" height="60" fill="white"/>
</clipPath>
</defs>
</svg>
