<svg width="60" height="60" viewBox="0 0 60 60" fill="none" xmlns="http://www.w3.org/2000/svg">
<path fill-rule="evenodd" clip-rule="evenodd" d="M48.6467 41.0416H42.2766C41.8885 41.0416 41.5736 40.7262 41.5736 40.3385V33.679C41.5736 33.2909 41.8889 32.9759 42.2766 32.9759H48.6467C49.0348 32.9759 49.3499 33.2912 49.3499 33.679V40.3385C49.3501 40.7262 49.0348 41.0416 48.6467 41.0416ZM48.6467 29.919H42.2771C41.8889 29.919 41.5739 29.604 41.5739 29.2159V22.5572C41.5739 22.1693 41.8894 21.8542 42.2771 21.8542H48.6467C49.0348 21.8542 49.3499 22.1693 49.3499 22.5572V29.2164C49.3501 29.6046 49.0348 29.919 48.6467 29.919ZM42.9806 28.5129H47.9437V23.2604H42.9806V28.5129ZM37.8144 29.919H31.4449C31.0569 29.919 30.7419 29.604 30.7419 29.2159V22.5572C30.7419 22.1693 31.0572 21.8542 31.4449 21.8542H37.8144C38.2025 21.8542 38.5175 22.1693 38.5175 22.5572V29.2164C38.5175 29.6046 38.2028 29.919 37.8144 29.919ZM32.148 28.5129H37.111V23.2604H32.148V28.5129ZM37.8144 41.0416H31.4449C31.0569 41.0416 30.7419 40.7262 30.7419 40.3385V33.679C30.7419 33.2909 31.0572 32.9759 31.4449 32.9759H37.8144C38.2025 32.9759 38.5175 33.2912 38.5175 33.679V40.3385C38.5175 40.7262 38.2028 41.0416 37.8144 41.0416ZM32.148 39.6351H37.111V34.382H32.148V39.6351ZM26.9824 41.0416H20.6127C20.2246 41.0416 19.9096 40.7262 19.9096 40.3385V33.679C19.9096 33.2909 20.2246 32.9759 20.6127 32.9759H26.9824C27.3705 32.9759 27.6855 33.2912 27.6855 33.679V40.3385C27.6855 40.7262 27.3705 41.0416 26.9824 41.0416ZM21.3157 39.6351H26.2794V34.382H21.3157V39.6351ZM26.9824 52.1633H20.6127C20.2246 52.1633 19.9096 51.848 19.9096 51.4604V44.8011C19.9096 44.413 20.2246 44.098 20.6127 44.098H26.9824C27.3705 44.098 27.6855 44.4134 27.6855 44.8011V51.4604C27.6855 51.848 27.3705 52.1633 26.9824 52.1633ZM21.3157 50.7567H26.2794V45.5041H21.3157V50.7567ZM16.1501 52.1633H9.78053C9.39256 52.1633 9.07753 51.848 9.07753 51.4604V44.8011C9.07753 44.413 9.39256 44.098 9.78053 44.098H16.1501C16.5382 44.098 16.8532 44.4134 16.8532 44.8011V51.4604C16.8532 51.848 16.5384 52.1633 16.1501 52.1633ZM10.4837 50.7567H15.4476V45.5041H10.4837V50.7567ZM42.3064 55.7056H8.46381C7.36428 55.7056 6.46931 55.2809 5.79982 54.6849V55.9273C5.79982 57.396 6.995 58.5907 8.46409 58.5907H51.537C53.0061 58.5907 54.201 57.396 54.201 55.9273V45.352L42.8554 55.4549C42.7448 55.5979 42.5407 55.6981 42.3064 55.7056ZM4.39376 52.1834C4.36635 51.9746 4.36594 51.7806 4.39376 51.6111V10.8838C4.39376 8.63935 6.21967 6.8137 8.46388 6.8137C8.87566 6.8137 9.22002 6.80387 9.50778 6.79916V2.38384C9.50778 -0.750341 14.2705 -0.750063 14.2705 2.38384V6.81368H18.5632V2.38384C18.5632 -0.750341 23.3259 -0.750063 23.3259 2.38384V6.81368H27.6191V2.38384C27.6191 -0.750619 32.3824 -0.749512 32.3824 2.38384V6.81368H36.6746V2.38384C36.6746 -0.750341 41.4378 -0.750341 41.4378 2.38384V6.81368H45.7295V2.38384C45.7295 -0.750619 50.4932 -0.749789 50.4932 2.38384V6.79916C50.7808 6.80387 51.1249 6.8137 51.5362 6.8137C53.7807 6.8137 55.6066 8.63934 55.6066 10.8838V55.9272C55.6072 58.1716 53.781 59.9972 51.5365 59.9972H8.46396C6.21949 59.9972 4.39383 58.1716 4.39383 55.9271L4.39376 52.1834ZM5.79988 51.635C5.79988 53.1041 6.99506 54.299 8.46387 54.299H41.6031V46.0139C41.6031 44.3969 42.9184 43.0814 44.5354 43.0814L54.2011 43.0817V19.5478H5.79988V51.635ZM44.5352 44.4878C43.6935 44.4878 43.0093 45.1718 43.0093 46.0135V53.4348L53.057 44.4878L44.5352 44.4878ZM11.8889 13.1092C11.4932 13.1092 11.1199 13.012 10.7912 12.8405C10.0873 12.5126 9.54781 11.8459 9.5103 10.8402C9.5085 10.8033 9.50767 10.766 9.50767 10.7287V8.22052H8.46433C6.99523 8.22052 5.79991 9.41583 5.79991 10.8845L5.79978 14.5427H54.2003V10.8842C54.2003 9.41555 53.0057 8.22037 51.5363 8.22037L50.4929 8.22051V10.7287C50.4929 10.766 50.4921 10.8031 50.4903 10.8402C50.4529 11.8447 49.9142 12.5108 49.2117 12.8391C48.8823 13.0115 48.5079 13.1092 48.1109 13.1092C47.7155 13.1092 47.342 13.0122 47.0134 12.8408C46.3092 12.5131 45.7694 11.846 45.7319 10.8402C45.7301 10.8034 45.7293 10.766 45.7293 10.7287V8.22051H41.4375V10.728C41.4375 10.7727 41.4363 10.817 41.4338 10.8611C41.3899 11.8535 40.8541 12.5125 40.1571 12.8387C39.8277 13.0113 39.453 13.1092 39.056 13.1092C38.6636 13.1092 38.2931 13.0137 37.9663 12.8448C37.2477 12.5137 36.6986 11.8303 36.6755 10.7955C36.6749 10.7777 36.6738 10.7464 36.6738 10.7282V8.22051H32.3821V10.728C32.3821 10.7727 32.3809 10.817 32.3784 10.8611C32.3345 11.8531 31.799 12.5122 31.1021 12.8385C30.7723 13.0112 30.3975 13.1092 30.0001 13.1092C29.6064 13.1092 29.2348 13.013 28.9073 12.8432C28.1903 12.5115 27.6429 11.8287 27.62 10.7955C27.6194 10.7777 27.6183 10.7464 27.6183 10.7282V8.22051H23.3256V10.7287C23.3256 10.766 23.3248 10.8031 23.323 10.8402C23.2856 11.8449 22.7468 12.5113 22.0441 12.8394C21.7148 13.0116 21.3407 13.1092 20.9441 13.1092C20.5484 13.1092 20.1751 13.012 19.8464 12.8405C19.1426 12.5126 18.603 11.8459 18.5655 10.8402C18.5637 10.8033 18.5629 10.766 18.5629 10.7287V8.22051H14.2702V10.7287C14.2702 10.766 14.2694 10.8031 14.2676 10.8402C14.2302 11.8449 13.6914 12.5113 12.9887 12.8394C12.6594 13.0116 12.2854 13.1092 11.8889 13.1092ZM11.8889 1.40791C11.3507 1.40791 10.9134 1.84543 10.9134 2.38343V7.58173C10.9762 8.13302 10.9159 9.06355 10.9134 10.6259V10.7274C10.9134 11.8974 12.8275 12.2215 12.8758 10.5275C12.9202 8.98203 12.8643 3.20284 12.8643 2.38341C12.8643 1.84541 12.4268 1.40791 11.8889 1.40791ZM20.9443 1.40791C20.4062 1.40791 19.9688 1.84543 19.9688 2.38343V7.49524L19.9692 10.7277C19.9692 12.0115 21.9197 12.011 21.9197 10.7274V2.38343C21.9197 1.84543 21.4823 1.40791 20.9443 1.40791ZM30.0003 1.40791C29.4621 1.40791 29.0247 1.84543 29.0247 2.38343V7.49524L29.0252 10.7277C29.0252 10.9782 29.0994 11.1799 29.2188 11.3327C29.7398 11.9939 30.9757 11.715 30.9757 10.7274V2.38344C30.9757 1.84543 30.5377 1.40791 30.0003 1.40791ZM39.0562 1.40791C38.5181 1.40791 38.0811 1.84543 38.0811 2.38343V7.51697C38.0811 8.54343 37.986 10.1266 38.1293 11.0549C38.173 11.3381 38.5354 11.5923 38.7851 11.6566C38.7851 11.6843 39.1929 11.6978 39.1929 11.6819C39.6835 11.6206 40.0312 11.2538 40.0312 10.7274V2.38343C40.0311 1.84543 39.5937 1.40791 39.0562 1.40791ZM16.1501 29.919H9.78053C9.39256 29.919 9.07754 29.604 9.07754 29.2159V22.5572C9.07754 22.1693 9.39256 21.8542 9.78053 21.8542H16.1501C16.5382 21.8542 16.8532 22.1693 16.8532 22.5572V29.2164C16.8532 29.6045 16.5384 29.919 16.1501 29.919ZM10.4837 28.5129H15.4476V23.2604H10.4837V28.5129ZM26.9824 29.919H20.6127C20.2246 29.919 19.9096 29.604 19.9096 29.2159V22.5572C19.9096 22.1693 20.2246 21.8542 20.6127 21.8542H26.9824C27.3705 21.8542 27.6855 22.1693 27.6855 22.5572V29.2164C27.6855 29.6045 27.3705 29.919 26.9824 29.919ZM21.3157 28.5129H26.2794V23.2604H21.3157V28.5129ZM16.1501 41.0416H9.78053C9.39256 41.0416 9.07754 40.7262 9.07754 40.3385V33.679C9.07754 33.2909 9.39256 32.9759 9.78053 32.9759H16.1501C16.5382 32.9759 16.8532 33.2912 16.8532 33.679V40.3385C16.8532 40.7262 16.5384 41.0416 16.1501 41.0416ZM10.4837 39.6351H15.4476V34.382H10.4837V39.6351ZM37.8144 52.1633H31.4449C31.0569 52.1633 30.7419 51.848 30.7419 51.4604V44.8011C30.7419 44.413 31.0572 44.098 31.4449 44.098H37.8144C38.2026 44.098 38.5176 44.4134 38.5176 44.8011V51.4604C38.5176 51.848 38.2028 52.1633 37.8144 52.1633ZM32.148 50.7567H37.111V45.5041H32.148V50.7567ZM47.136 7.50763L47.1362 10.7275C47.1362 10.7474 47.1364 10.7671 47.1374 10.7864C47.1384 10.8058 47.1398 10.8252 47.1416 10.8439C47.1434 10.8626 47.1459 10.8813 47.1485 10.8994C47.1512 10.9175 47.1543 10.9355 47.1579 10.953C47.1615 10.9704 47.1655 10.9878 47.1699 11.0047C47.1744 11.0216 47.1791 11.0384 47.1842 11.0545C47.1893 11.0707 47.195 11.0869 47.2009 11.1024C47.2069 11.1181 47.2133 11.1336 47.2199 11.1485C47.2265 11.1635 47.2336 11.1784 47.2409 11.1927C47.2483 11.2071 47.256 11.2213 47.2641 11.235C47.2721 11.2487 47.2805 11.2624 47.2891 11.2755L47.3162 11.3142C47.3255 11.3267 47.3349 11.3388 47.3447 11.3507C47.3546 11.3626 47.3648 11.3743 47.3752 11.3855C47.3856 11.3967 47.3962 11.4079 47.4072 11.4184C47.418 11.4291 47.4295 11.4395 47.4408 11.4494C47.4522 11.4594 47.4641 11.4692 47.4758 11.4786C47.4876 11.488 47.4999 11.4972 47.5121 11.5059C47.5351 11.5222 47.559 11.5375 47.5834 11.5517C47.6088 11.5663 47.6423 11.5841 47.669 11.5961L47.7108 11.6141C47.7389 11.6255 47.7673 11.6353 47.7964 11.644C47.8255 11.6528 47.8548 11.6604 47.8846 11.6666C47.8994 11.6698 47.9144 11.6726 47.9294 11.675L47.9747 11.6818L48.0202 11.6865L48.0657 11.6893L48.1113 11.6901C48.5989 11.6905 49.0865 11.3692 49.0865 10.7272V10.5242C49.0817 9.0235 49.0252 8.12231 49.0865 7.58292V2.38322C49.0871 1.84522 48.6491 1.4077 48.1111 1.4077C47.573 1.4077 47.136 1.84522 47.136 2.38322L47.136 7.50763ZM5.79984 18.1414H54.2003V15.9482H5.79984V18.1414ZM42.9802 39.6349H47.9439V34.3818H42.9802V39.6349Z" fill="#000002"/>
<path fill-rule="evenodd" clip-rule="evenodd" d="M21.9197 10.7275V2.38348C21.9197 1.84548 21.4823 1.40796 20.9443 1.40796C20.4061 1.40796 19.9688 1.84548 19.9688 2.38348V7.49529L19.9692 10.7277C19.9692 12.0115 21.9197 12.0111 21.9197 10.7275Z" fill="#CBDDFF"/>
<path fill-rule="evenodd" clip-rule="evenodd" d="M12.8755 10.5276C12.9199 8.9821 12.864 3.2029 12.864 2.38348C12.864 1.84548 12.4265 1.40796 11.8886 1.40796C11.3505 1.40796 10.9131 1.84548 10.9131 2.38348V7.58177C10.9759 8.13306 10.9156 9.0636 10.9131 10.626V10.7274C10.9131 11.8974 12.8272 12.2216 12.8755 10.5276Z" fill="#CBDDFF"/>
<path fill-rule="evenodd" clip-rule="evenodd" d="M29.0244 2.38347V7.49528L29.0248 10.7277C29.0248 10.9783 29.099 11.1799 29.2185 11.3327C29.7394 11.9939 30.9753 11.715 30.9753 10.7275V2.38348C30.9753 1.84548 30.5374 1.40796 29.9999 1.40796C29.4618 1.40796 29.0244 1.84547 29.0244 2.38347Z" fill="#CBDDFF"/>
<path fill-rule="evenodd" clip-rule="evenodd" d="M38.0807 2.38348V7.51701C38.0807 8.54347 37.9856 10.1266 38.1289 11.0549C38.1726 11.3381 38.535 11.5924 38.7847 11.6566C38.7847 11.6843 39.1925 11.6979 39.1925 11.6819C39.6831 11.6206 40.0308 11.2538 40.0308 10.7275V2.38348C40.0307 1.84548 39.5933 1.40796 39.0558 1.40796C38.5177 1.40796 38.0807 1.84547 38.0807 2.38348Z" fill="#CBDDFF"/>
<path fill-rule="evenodd" clip-rule="evenodd" d="M47.1357 2.38349V7.50788L47.1359 10.7277L47.1373 10.787L47.1414 10.8444L47.1483 10.8998L47.1577 10.9535L47.1698 11.0051L47.184 11.0549L47.2008 11.103L47.2198 11.1491L47.2408 11.1932L47.2639 11.2356L47.289 11.276L47.316 11.3145L47.3446 11.3511L47.3751 11.386L47.4072 11.4188L47.4407 11.45L47.4757 11.479L47.5119 11.5063L47.5831 11.552C47.6086 11.5665 47.642 11.5844 47.6689 11.5965L47.7106 11.6144C47.7387 11.6257 47.767 11.6356 47.7962 11.6444L47.8844 11.667L47.9293 11.6754L47.9744 11.6821L48.0199 11.6868L48.0654 11.6896L48.111 11.6904C48.5986 11.6908 49.0862 11.3694 49.0862 10.7275V10.5244C49.0814 9.02376 49.0249 8.12257 49.0862 7.58318V2.38348C49.0868 1.84548 48.6489 1.40796 48.1108 1.40796C47.5727 1.40796 47.1357 1.84549 47.1357 2.38349Z" fill="#CBDDFF"/>
<path fill-rule="evenodd" clip-rule="evenodd" d="M45.7294 8.2206H41.4377V10.7281L41.434 10.8612C41.3901 11.8536 40.8543 12.5126 40.1573 12.8388C39.8279 13.0114 39.4532 13.1093 39.0562 13.1093C38.6638 13.1093 38.2933 13.0138 37.9665 12.8449C37.2479 12.5138 36.6988 11.8304 36.6757 10.7956L36.674 10.7283V8.2206H32.3823V10.7281L32.3786 10.8612C32.3347 11.8532 31.7992 12.5123 31.1023 12.8385C30.7725 13.0113 30.3976 13.1093 30.0003 13.1093C29.6066 13.1093 29.235 13.0131 28.9075 12.8433C28.1905 12.5116 27.6431 11.8288 27.6201 10.7956L27.6185 10.7283V8.2206H23.3258V10.7287L23.3232 10.8403C23.2858 11.845 22.747 12.5113 22.0443 12.8395C21.715 13.0117 21.3409 13.1093 20.9443 13.1093C20.5486 13.1093 20.1753 13.0121 19.8466 12.8406C19.1428 12.5127 18.6032 11.846 18.5657 10.8403L18.5631 10.7287V8.2206H14.2704V10.7287L14.2678 10.8403C14.2304 11.845 13.6916 12.5113 12.9889 12.8395C12.6596 13.0117 12.2855 13.1093 11.8889 13.1093C11.4932 13.1093 11.1199 13.0121 10.7912 12.8406C10.0874 12.5127 9.54784 11.846 9.51033 10.8403L9.5077 10.7287V8.2206H8.46435C6.99526 8.2206 5.79994 9.41592 5.79994 10.8846L5.7998 14.5428H54.2003V10.8843C54.2003 9.41564 53.0057 8.22046 51.5363 8.22046L50.493 8.2206V10.7287L50.4903 10.8403C50.453 11.8448 49.9143 12.5109 49.2117 12.8392C48.8823 13.0116 48.5079 13.1093 48.1109 13.1093C47.7155 13.1093 47.342 13.0122 47.0135 12.8409C46.3092 12.5131 45.7694 11.8461 45.7319 10.8403L45.7293 10.7287L45.7294 8.2206Z" fill="#FB4A34"/>
<path fill-rule="evenodd" clip-rule="evenodd" d="M54.2006 15.9485H5.7998V18.1418H54.2006V15.9485Z" fill="#B8D0FF"/>
<path fill-rule="evenodd" clip-rule="evenodd" d="M47.9438 23.2605H42.9805V28.513H47.9438V23.2605Z" fill="#67AAE6"/>
<path fill-rule="evenodd" clip-rule="evenodd" d="M37.1116 28.513V23.2605H32.1484V28.513H37.1116Z" fill="#67AAE6"/>
<path fill-rule="evenodd" clip-rule="evenodd" d="M26.2791 28.513V23.2605H21.3154V28.513H26.2791Z" fill="#67AAE6"/>
<path fill-rule="evenodd" clip-rule="evenodd" d="M15.4474 28.513V23.2605H10.4834V28.513H15.4474Z" fill="#67AAE6"/>
<path fill-rule="evenodd" clip-rule="evenodd" d="M16.15 21.8543C16.5381 21.8543 16.8532 22.1694 16.8532 22.5573V29.2165C16.8532 29.6047 16.5384 29.9191 16.15 29.9191H9.78051C9.39254 29.9191 9.07752 29.6041 9.07752 29.216V22.5573C9.07752 22.1693 9.39254 21.8543 9.78051 21.8543L16.15 21.8543ZM19.9096 29.216V22.5573C19.9096 22.1694 20.2246 21.8543 20.6127 21.8543H26.9824C27.3705 21.8543 27.6855 22.1694 27.6855 22.5573V29.2165C27.6855 29.6047 27.3705 29.9191 26.9824 29.9191H20.6127C20.2246 29.9191 19.9096 29.6041 19.9096 29.216ZM31.4449 32.976H37.8144C38.2025 32.976 38.5175 33.2913 38.5175 33.6791V40.3386C38.5175 40.7263 38.2028 41.0417 37.8144 41.0417H31.4449C31.0569 41.0417 30.7419 40.7263 30.7419 40.3386V33.6791C30.7419 33.291 31.0572 32.976 31.4449 32.976ZM41.5736 40.3386V33.6791C41.5736 33.291 41.8889 32.976 42.2766 32.976H48.6467C49.0348 32.976 49.3498 33.2913 49.3498 33.6791V40.3386C49.3501 40.7263 49.0348 41.0417 48.6467 41.0417H42.2766C41.8885 41.0417 41.5736 40.7263 41.5736 40.3386ZM30.7419 29.216V22.5573C30.7419 22.1694 31.0572 21.8543 31.4449 21.8543H37.8144C38.2025 21.8543 38.5175 22.1694 38.5175 22.5573V29.2165C38.5175 29.6047 38.2028 29.9191 37.8144 29.9191H31.4449C31.0569 29.9191 30.7419 29.6041 30.7419 29.216ZM41.5739 29.216V22.5573C41.5739 22.1694 41.8893 21.8543 42.277 21.8543H48.6467C49.0348 21.8543 49.3498 22.1694 49.3498 22.5573V29.2165C49.3501 29.6047 49.0348 29.9191 48.6467 29.9191H42.277C41.8889 29.9191 41.5739 29.6041 41.5739 29.216ZM20.6127 32.976H26.9824C27.3705 32.976 27.6855 33.2913 27.6855 33.6791V40.3386C27.6855 40.7263 27.3705 41.0417 26.9824 41.0417H20.6127C20.2246 41.0417 19.9096 40.7263 19.9096 40.3386V33.6791C19.9096 33.291 20.2246 32.976 20.6127 32.976ZM20.6127 44.0981H26.9824C27.3705 44.0981 27.6855 44.4135 27.6855 44.8012V51.4604C27.6855 51.8481 27.3705 52.1634 26.9824 52.1634H20.6127C20.2246 52.1634 19.9096 51.8481 19.9096 51.4604V44.8012C19.9096 44.4131 20.2246 44.0981 20.6127 44.0981ZM9.78051 32.976H16.15C16.5381 32.976 16.8532 33.2913 16.8532 33.6791V40.3386C16.8532 40.7263 16.5384 41.0417 16.15 41.0417H9.78051C9.39254 41.0417 9.07752 40.7263 9.07752 40.3386V33.6791C9.07752 33.291 9.39254 32.976 9.78051 32.976ZM9.78051 44.0981H16.15C16.5381 44.0981 16.8532 44.4135 16.8532 44.8012V51.4604C16.8532 51.8481 16.5384 52.1634 16.15 52.1634H9.78051C9.39254 52.1634 9.07752 51.8481 9.07752 51.4604V44.8012C9.07752 44.4131 9.39254 44.0981 9.78051 44.0981ZM8.4638 54.2991H41.603V46.014C41.603 44.3969 42.9183 43.0815 44.5354 43.0815L54.201 43.0817V19.5479H5.7998V51.6351C5.7998 53.1042 6.99499 54.2991 8.4638 54.2991ZM30.7419 44.8012C30.7419 44.4131 31.0572 44.0981 31.4449 44.0981H37.8144C38.2025 44.0981 38.5175 44.4135 38.5175 44.8012V51.4604C38.5175 51.8481 38.2028 52.1634 37.8144 52.1634H31.4449C31.0569 52.1634 30.7419 51.8481 30.7419 51.4604V44.8012Z" fill="#E2ECFF"/>
<path fill-rule="evenodd" clip-rule="evenodd" d="M15.4474 34.3821H10.4834V39.6351H15.4474V34.3821Z" fill="#67AAE6"/>
<path fill-rule="evenodd" clip-rule="evenodd" d="M21.3154 34.3821V39.6351H26.2791V34.3821H21.3154Z" fill="#67AAE6"/>
<path fill-rule="evenodd" clip-rule="evenodd" d="M32.1484 34.3821V39.6351H37.1116V34.3821H32.1484Z" fill="#67AAE6"/>
<path fill-rule="evenodd" clip-rule="evenodd" d="M42.9805 34.3821V39.6351H47.9442V34.3821H42.9805Z" fill="#67AAE6"/>
<path fill-rule="evenodd" clip-rule="evenodd" d="M44.5356 44.488C43.6939 44.488 43.0098 45.1721 43.0098 46.0138V53.4351L53.0574 44.488L44.5356 44.488Z" fill="#CBDDFF"/>
<path fill-rule="evenodd" clip-rule="evenodd" d="M37.1116 50.7566V45.5039H32.1484V50.7566H37.1116Z" fill="#67AAE6"/>
<path fill-rule="evenodd" clip-rule="evenodd" d="M26.2791 50.7566V45.5039H21.3154V50.7566H26.2791Z" fill="#67AAE6"/>
<path fill-rule="evenodd" clip-rule="evenodd" d="M15.4474 50.7566V45.5039H10.4834V50.7566H15.4474Z" fill="#67AAE6"/>
<path fill-rule="evenodd" clip-rule="evenodd" d="M54.201 45.3521L42.8555 55.4549C42.7449 55.5979 42.5724 55.6974 42.3381 55.7049L8.4638 55.7056C7.36426 55.7056 6.4693 55.281 5.7998 54.685V55.9273C5.7998 57.396 6.99498 58.5908 8.46408 58.5908H51.537C53.0061 58.5908 54.201 57.396 54.201 55.9273L54.201 45.3521Z" fill="#B8D0FF"/>
</svg>
