<svg width="60" height="60" viewBox="0 0 60 60" fill="none" xmlns="http://www.w3.org/2000/svg">
<path fill-rule="evenodd" clip-rule="evenodd" d="M51.7214 43.9457C50.9705 43.8512 50.3819 43.2647 50.2887 42.5134C50.2407 42.1259 49.9079 41.8373 49.5184 41.8373H27.7086C27.3213 41.8373 26.9914 42.1292 26.9437 42.5134C26.8508 43.2621 26.2591 43.8511 25.5113 43.9456C25.126 43.9942 24.8347 44.3262 24.8347 44.7145V52.9104C24.8347 53.2982 25.126 53.6308 25.5111 53.6793C26.2586 53.7734 26.8508 54.3625 26.9437 55.111C26.9914 55.4956 27.3209 55.7871 27.7086 55.7871H49.5184C49.9081 55.7871 50.2406 55.4987 50.2887 55.111C50.3819 54.3599 50.971 53.7733 51.7216 53.6793C52.1067 53.6311 52.3978 53.2981 52.3978 52.9105V44.7146C52.3978 44.3264 52.1067 43.9941 51.7214 43.9457ZM54.5101 57.6563H22.7169V39.9681H54.5102L54.5101 57.6563ZM29.1547 21.5339H26.0198L26.82 20.7338C26.8238 20.7299 26.8278 20.7261 26.8316 20.721C26.9408 20.5852 26.968 20.4006 26.8985 20.2414C26.2046 18.6536 25.3046 17.2056 24.2805 15.8114C23.414 14.632 21.9543 13.1848 20.3388 13.3744C19.2078 13.5072 18.4344 14.4829 18.3973 15.5975C18.3054 18.3639 21.9007 19.738 24.0354 20.3405C24.3801 20.4378 24.7278 20.5259 25.0762 20.6093L25.4814 20.7064L25.3837 21.5339H22.3531L22.2759 21.5061C19.6358 20.5516 16.6491 18.7427 16.7543 15.5466C16.8179 13.6104 18.2061 11.9646 20.1575 11.7346C22.4319 11.4665 24.3528 13.1273 25.6096 14.8383C27.0035 16.7361 28.1234 18.6872 28.927 20.9056L29.1547 21.5339ZM31.1502 20.738L31.9863 21.5338H30.1357L30.0279 21.2153C29.8829 20.7869 29.7308 20.3607 29.5664 19.9393L29.4992 19.7672L29.5674 19.5957C30.2514 17.8751 31.1701 16.0784 32.4825 14.7483C33.8912 13.3206 35.8078 12.599 37.7545 13.2864C39.2203 13.804 40.3734 15.0716 40.4711 16.6582C40.5393 17.7659 40.0911 18.7143 39.312 19.4886C38.3646 20.43 36.9966 21.0651 35.753 21.5068L35.677 21.5338H32.6302L32.5343 20.704L32.9409 20.6087C33.2891 20.5272 33.6356 20.4386 33.9796 20.3414C35.4711 19.9209 38.9527 18.8131 38.8293 16.7532C38.7754 15.8515 38.0187 15.1299 37.2052 14.8428C35.9076 14.3848 34.5812 14.9663 33.6569 15.9013C32.5 17.0717 31.678 18.7514 31.0725 20.2626C31.0091 20.4208 31.0372 20.6024 31.1464 20.7336L31.1502 20.738ZM31.5861 22.4718V36.2249H26.8647V22.4718H31.5861ZM50.8167 15.5042C50.6056 15.6747 50.5114 15.9518 50.5829 16.2146L51.16 18.3372L49.3132 17.1311C49.2046 17.0586 49.0749 17.0219 48.9447 17.0219C48.8105 17.0219 48.6847 17.0603 48.5722 17.1337L46.7293 18.3371L47.3064 16.2145C47.377 15.9551 47.2899 15.6737 47.0795 15.5051L45.3582 14.1255L47.5596 14.0186C47.8303 14.0055 48.0684 13.8337 48.1644 13.5801L48.9446 11.5188L49.7251 13.5794C49.8216 13.8344 50.0582 14.0046 50.3302 14.018L52.5238 14.1258L50.8167 15.5042ZM30.858 7.50027L31.4496 9.62887L29.5979 8.41973C29.3709 8.27148 29.0756 8.26961 28.8486 8.41891L27.0084 9.62898L27.5872 7.50098C27.6587 7.23801 27.5647 6.96133 27.3534 6.7907L25.6463 5.41258L27.84 5.30477C28.107 5.29164 28.345 5.11914 28.4389 4.86848L29.2288 2.81348L30.0058 4.86625C30.1019 5.11996 30.3402 5.29152 30.6109 5.30477L32.812 5.41293L31.0904 6.79141C30.8777 6.96168 30.7906 7.24117 30.858 7.50027ZM10.8861 14.0181L13.0796 14.1259L11.3727 15.5041C11.1614 15.6747 11.0674 15.9515 11.1389 16.2145L11.7159 18.3371L9.87313 17.1337C9.64719 16.9861 9.3541 16.9861 9.12816 17.1337L7.28527 18.3371L7.8623 16.2145C7.93285 15.9552 7.84578 15.6737 7.63543 15.5051L5.91406 14.1255L8.11555 14.0186C8.38566 14.0055 8.62449 13.8332 8.72023 13.5801L9.50035 11.5178L10.2809 13.5789C10.3775 13.8337 10.6143 14.0049 10.8861 14.0181Z" fill="#9BC9FF"/>
<path fill-rule="evenodd" clip-rule="evenodd" d="M47.5831 14.4868C48.041 14.4648 48.4437 14.174 48.6036 13.7461L48.9456 12.8426L49.2875 13.7455C49.453 14.174 49.8501 14.4648 50.308 14.4862L51.2733 14.5337L50.5231 15.1393C50.1646 15.4256 50.0101 15.8961 50.1315 16.3373L50.3852 17.2706L49.5744 16.7412C49.3869 16.6159 49.1662 16.5531 48.9456 16.5531C48.7249 16.5531 48.5099 16.616 48.3167 16.7412L47.5059 17.2706L47.7596 16.3373C47.8809 15.8961 47.7265 15.4256 47.3735 15.1393L46.6179 14.5337L47.5831 14.4868ZM43.9536 14.799L45.8291 16.3037L45.1947 18.621C45.0733 19.086 45.2444 19.5697 45.6305 19.8532C46.0221 20.1362 46.535 20.1488 46.9377 19.8847L48.9455 18.5697L50.9532 19.8847C51.1519 20.0115 51.3669 20.0744 51.5876 20.0744C51.8192 20.0744 52.0564 20.0005 52.2606 19.8532C52.6522 19.5697 52.8232 19.0864 52.6964 18.6204L52.0676 16.3037L53.9375 14.799C54.3126 14.4972 54.4615 14.0058 54.3071 13.5469C54.1637 13.0885 53.7555 12.7774 53.2701 12.7536L50.8762 12.6367L50.0212 10.3917C49.8503 9.94158 49.4311 9.65096 48.9457 9.65096C48.4658 9.65096 48.0411 9.9417 47.8701 10.3917L47.0206 12.6367L44.6212 12.7536C44.1414 12.7773 43.7332 13.0884 43.5842 13.5469C43.4352 14.0059 43.5786 14.4974 43.9536 14.799ZM8.13913 14.4868C8.59698 14.4648 8.99963 14.173 9.1596 13.7461L9.50155 12.842L9.8435 13.7449C10.009 14.173 10.4061 14.4647 10.864 14.4862L11.8292 14.5337L11.0791 15.1393C10.7205 15.4262 10.5662 15.8961 10.6875 16.3373L10.9412 17.2706L10.1304 16.7412C9.74975 16.4901 9.25334 16.4901 8.87272 16.7412L8.0619 17.2706L8.31561 16.3373C8.4369 15.8961 8.28256 15.4256 7.92948 15.1393L7.17374 14.5337L8.13913 14.4868ZM7.49377 19.8847L9.50155 18.5697L11.5093 19.8847C11.9175 20.1488 12.4304 20.1362 12.8165 19.8527C13.2082 19.5697 13.3792 19.0855 13.2523 18.6205L12.6234 16.3038L14.4933 14.7991C14.8684 14.4974 15.0173 14.0059 14.8684 13.547C14.7194 13.0887 14.3113 12.7775 13.8259 12.7537L11.432 12.6368L10.577 10.3918C10.406 9.9417 9.98682 9.65107 9.50143 9.65107C9.02155 9.65107 8.59686 9.94182 8.42577 10.3918L7.57639 12.6368L5.17698 12.7537C4.69709 12.7774 4.28893 13.0885 4.13999 13.547C3.99104 14.0059 4.13448 14.4974 4.50948 14.7991L6.38495 16.3038L5.75612 18.6205C5.6292 19.0855 5.80018 19.5698 6.18631 19.8527C6.39045 20.0006 6.62764 20.0744 6.86471 20.0744C7.0801 20.0744 7.30065 20.0116 7.49377 19.8847ZM27.8639 5.77287C28.3162 5.75072 28.7189 5.4601 28.8789 5.0326L29.2263 4.1285L29.5683 5.03201C29.7282 5.4601 30.1309 5.75072 30.5887 5.77287L31.554 5.82033L30.7984 6.42537C30.4399 6.71225 30.291 7.18217 30.4067 7.62396L30.666 8.55666L29.8551 8.02721C29.4745 7.77678 28.9781 7.77678 28.592 8.02721L27.7867 8.55666L28.0404 7.62396C28.1617 7.18217 28.0073 6.71225 27.6487 6.42596L26.8985 5.82033L27.8639 5.77287ZM24.2345 6.08564L26.1043 7.58975L25.4755 9.90748C25.3486 10.3725 25.5196 10.8562 25.9112 11.1392C26.2973 11.4227 26.8103 11.4355 27.2129 11.1712L29.2262 9.85627L31.234 11.1712C31.427 11.2981 31.6476 11.361 31.8628 11.361C32.1 11.361 32.3372 11.2865 32.5412 11.1392C32.9273 10.8562 33.0983 10.3725 32.9714 9.90701L32.3426 7.58975L34.2179 6.08564C34.593 5.7833 34.7365 5.29193 34.5875 4.8335C34.4386 4.37506 34.0304 4.06346 33.5505 4.04025L31.1511 3.9233L30.3016 1.67834C30.1307 1.22822 29.706 0.937012 29.226 0.937012C28.7406 0.937012 28.3214 1.22822 28.1504 1.67834L27.2954 3.9233L24.896 4.04025C24.4161 4.06334 24.008 4.37506 23.859 4.8335C23.7104 5.29193 23.8594 5.7833 24.2345 6.08564ZM39.6733 50.6919C39.7119 50.645 39.7561 50.5816 39.734 50.4305C39.7175 50.2744 39.6733 49.9113 38.4709 49.7144C36.2591 49.3509 35.8673 48.074 35.8343 47.3448C35.7736 46.1942 36.5072 45.2229 37.6766 44.8594V44.7436C37.6766 44.2256 38.0958 43.8058 38.6143 43.8058C39.1328 43.8058 39.5521 44.2256 39.5521 44.7436V44.8461C40.3574 45.0949 41.0304 45.6751 41.3723 46.4965C41.5764 46.9735 41.3503 47.523 40.8704 47.7232C40.396 47.9239 39.8444 47.7 39.6459 47.2217C39.3756 46.5758 38.6972 46.5422 38.3387 46.6233C38.1842 46.6579 37.6823 46.8069 37.7044 47.2543C37.7099 47.3625 37.7264 47.6918 38.7744 47.8638C40.4953 48.1462 41.444 48.934 41.5985 50.2042C41.6757 50.8512 41.4992 51.4441 41.091 51.9185C40.727 52.3383 40.1809 52.646 39.5521 52.8V52.8805C39.5521 53.399 39.1329 53.8182 38.6143 53.8182C38.0958 53.8182 37.6766 53.399 37.6766 52.8805V52.7823C36.6616 52.4999 35.895 51.7651 35.6468 50.769C35.5199 50.2665 35.8233 49.7579 36.3252 49.6322C36.8271 49.507 37.3401 49.8125 37.4614 50.3146C37.5994 50.8639 38.206 51.0465 38.6804 51.0338C39.0997 51.0246 39.5079 50.884 39.6733 50.6919ZM28.0018 48.8122C28.0018 48.1514 28.5368 47.6158 29.1988 47.6158C29.8606 47.6158 30.3957 48.1514 30.3957 48.8122C30.3957 49.473 29.8606 50.0086 29.1988 50.0086C28.5368 50.0086 28.0018 49.4729 28.0018 48.8122ZM46.8384 48.8122C46.8384 48.1514 47.3735 47.6158 48.0354 47.6158C48.6917 47.6158 49.2268 48.1514 49.2268 48.8122C49.2268 49.473 48.6917 50.0086 48.0354 50.0086C47.3735 50.0086 46.8384 49.4729 46.8384 48.8122ZM26.2421 45.2191V52.4052C27.1799 52.7063 27.919 53.4432 28.2169 54.381H49.0172C49.3151 53.4432 50.0542 52.7063 50.9919 52.4052V45.2191C50.0542 44.9196 49.3151 44.1811 49.0172 43.2433H28.2169C27.919 44.1811 27.1799 44.9179 26.2421 45.2191ZM25.4535 54.1444C25.9885 54.2112 26.4132 54.633 26.4794 55.1687C26.5567 55.7887 27.0862 56.2558 27.7094 56.2558H49.5192C50.148 56.2558 50.6775 55.7886 50.7547 55.1687C50.8209 54.6331 51.2401 54.2112 51.7807 54.1444C52.3985 54.0661 52.8672 53.5359 52.8672 52.9105V44.7145C52.8672 44.0885 52.3984 43.5589 51.7807 43.4806C51.2401 43.4134 50.8209 42.992 50.7547 42.4558C50.6775 41.8364 50.1479 41.3687 49.5192 41.3687H27.7094C27.0861 41.3687 26.5567 41.8364 26.4794 42.4558C26.4132 42.992 25.9885 43.4134 25.4535 43.4806C24.8356 43.5589 24.3669 44.0885 24.3669 44.7145V52.9105C24.3668 53.5359 24.8356 54.0661 25.4535 54.1444ZM54.0422 57.1875V40.4368H23.1864V57.1875H54.0422ZM21.311 40.1599C21.311 39.279 22.0281 38.5619 22.9106 38.5619H50.9919V37.6313H20.1306V54.3808H21.311V40.1599ZM18.2607 37.3535V54.381H14.8353C13.6274 54.381 12.6401 53.3981 12.6401 52.1896V31.2198H25.459V35.756H19.8548C18.9723 35.7561 18.2607 36.4737 18.2607 37.3535ZM8.73479 28.6268V23.6586C8.73479 23.2625 9.06022 22.9405 9.45737 22.9405H25.459V29.345H9.45737C9.06022 29.345 8.73479 29.0229 8.73479 28.6268ZM24.7419 19.0749C24.6316 19.0456 24.5267 19.0165 24.4165 18.9867C23.0099 18.5896 19.7501 17.4687 19.8053 15.643C19.8218 15.2481 20.0424 14.8261 20.5058 14.7709C21.2339 14.6843 22.2212 15.3859 23.1479 16.6446C23.7711 17.492 24.2951 18.2896 24.7419 19.0749ZM17.2237 15.5619C17.13 18.5052 19.9706 20.1737 22.4362 21.0651H24.968C24.604 20.9779 24.2454 20.8864 23.9089 20.7915C18.8729 19.37 17.8801 17.1737 17.9298 15.5817C17.9794 14.1879 18.9668 13.0643 20.285 12.9087C21.1234 12.811 22.8112 13.0195 24.6592 15.5337C25.8231 17.1194 26.6724 18.5552 27.3288 20.0533C27.4667 20.3727 27.4171 20.7429 27.1964 21.0147C27.1854 21.0323 27.1689 21.0484 27.1522 21.0649H28.4871C27.737 18.9937 26.711 17.1272 25.2327 15.1154C23.7048 13.0343 21.9232 11.9973 20.2133 12.1998C18.5365 12.3969 17.2844 13.8106 17.2237 15.5619ZM33.1316 19.1142C33.6225 18.1644 34.1244 17.4296 34.6595 16.8902C35.1779 16.3657 35.7405 16.0888 36.2646 16.0888C36.4301 16.0888 36.59 16.1147 36.739 16.1688C37.1031 16.2974 37.4119 16.5979 37.423 16.839C37.445 17.203 36.6784 18.1203 33.6005 18.988C33.4459 19.0309 33.2914 19.0727 33.1316 19.1142ZM32.8172 15.0776C31.7581 16.1498 30.8314 17.6877 30.0041 19.7688C30.1696 20.193 30.324 20.6249 30.473 21.065H30.8149C30.8039 21.0545 30.7929 21.0446 30.7874 21.0336C30.5667 20.7689 30.5116 20.406 30.6384 20.0883C31.4548 18.0524 32.3318 16.5752 33.3246 15.5719C34.516 14.3655 36.0274 13.9288 37.3622 14.4008C38.2779 14.7229 39.2265 15.5668 39.2982 16.7252C39.3975 18.4235 37.6544 19.7926 34.1078 20.7927C33.7713 20.8876 33.4182 20.9785 33.0487 21.0651H35.5971C38.6364 19.9857 40.1201 18.5129 40.0043 16.6871C39.9271 15.3787 38.9838 14.2178 37.5994 13.7284C35.9722 13.1542 34.2292 13.6456 32.8172 15.0776ZM49.7122 23.6586V28.6268C49.7122 29.0229 49.3923 29.345 48.9951 29.345H32.9937V22.9405H48.9953C49.3923 22.9405 49.7122 23.2626 49.7122 23.6586ZM27.3343 22.9405H31.1182V35.7561H27.3343V22.9405ZM45.8069 35.7561H32.9937V31.2199H45.8071V35.7561H45.8069ZM54.3235 38.562H52.8674V37.3535C52.8674 36.4738 52.1503 35.7561 51.2678 35.7561H47.6824V31.2199H48.9951C50.4238 31.2199 51.5876 30.0566 51.5876 28.6269V23.6587C51.5876 22.2285 50.4238 21.0651 48.9951 21.0651H39.6458C39.7451 20.9895 39.8443 20.9123 39.9382 20.8335C41.3226 19.6487 41.979 18.2156 41.8797 16.573C41.753 14.5117 40.3188 12.7009 38.2227 11.9612C35.9225 11.1465 33.4018 11.8194 31.4823 13.7599C30.5446 14.7103 29.7062 15.9436 28.9561 17.4957C28.3438 16.3358 27.6157 15.1929 26.7443 14.0047C24.1187 10.4321 21.3883 10.174 19.9929 10.3378C17.3893 10.6439 15.4367 12.8149 15.3485 15.5006C15.2768 17.713 16.3028 19.5962 18.3381 21.065H9.45737C8.02323 21.065 6.85944 22.2283 6.85944 23.6586V28.6268C6.85944 30.0565 8.02323 31.2198 9.45737 31.2198H10.7701V52.1894C10.7701 54.4322 12.5904 56.2557 14.8352 56.2557H21.3109V57.4653C21.3109 58.3451 22.028 59.0627 22.9105 59.0627H54.3234C55.206 59.0627 55.9175 58.3451 55.9175 57.4653V40.1599C55.9176 39.2791 55.2061 38.562 54.3235 38.562Z" fill="#2C3D60"/>
</svg>
