<svg width="200" height="200" viewBox="0 0 200 200" fill="none" xmlns="http://www.w3.org/2000/svg">
<circle cx="100" cy="100" r="88" fill="#D12F2F"/>
<path d="M99.9998 154.108C129.883 154.108 154.108 129.883 154.108 100C154.108 70.1172 129.883 45.8921 99.9998 45.8921C70.1167 45.8921 45.8916 70.1172 45.8916 100C45.8916 129.883 70.1167 154.108 99.9998 154.108Z" fill="#A62D2D"/>
<path d="M141.545 65.3645C132.186 57.6653 120.212 53.0376 107.159 53.0376C77.2764 53.0376 53.0381 77.2759 53.0381 107.159C53.0381 120.212 57.6658 132.186 65.3646 141.545C53.4736 131.625 45.8994 116.705 45.8994 99.9993C45.8994 70.1161 70.117 45.8989 99.9998 45.8989C116.705 45.8989 131.626 53.4731 141.545 65.3645Z" fill="black" fill-opacity="0.0627451"/>
<g clip-path="url(#clip0_4524_193)">
<path d="M105.469 77.2091C105.533 77.2566 105.598 77.3041 105.665 77.3531C106.683 78.1434 107.361 79.3385 107.938 80.4684C108.112 80.8098 108.29 81.1489 108.468 81.4884C108.521 81.5902 108.521 81.5902 108.575 81.694C108.897 82.3099 109.238 82.9144 109.584 83.5171C110.08 84.3849 110.549 85.2642 111.006 86.153C111.358 86.832 111.727 87.499 112.107 88.1624C112.677 89.158 113.216 90.1682 113.75 91.1837C114.274 92.1796 114.801 93.1708 115.361 94.1469C115.979 95.2247 116.561 96.3201 117.142 97.4184C117.216 97.5594 117.291 97.7004 117.366 97.8415C117.42 97.9446 117.42 97.9446 117.476 98.0498C117.935 98.9166 118.406 99.7764 118.878 100.636C119.154 101.142 119.428 101.649 119.702 102.156C120.183 103.045 120.665 103.932 121.15 104.818C121.417 105.307 121.683 105.796 121.947 106.287C122.502 107.316 123.063 108.341 123.642 109.357C124.206 110.347 124.74 111.351 125.261 112.364C125.444 112.718 125.63 113.069 125.821 113.419C126.909 115.41 127.396 117.508 126.838 119.767C126.472 120.919 125.923 121.938 125.137 122.86C125.071 122.945 125.004 123.031 124.936 123.119C123.731 124.576 121.773 125.334 119.94 125.529C119.326 125.575 118.71 125.565 118.094 125.565C117.936 125.565 117.779 125.565 117.621 125.565C117.189 125.566 116.757 125.566 116.326 125.566C115.859 125.566 115.393 125.567 114.926 125.567C114.013 125.568 113.1 125.568 112.187 125.568C111.445 125.568 110.702 125.568 109.96 125.569C107.853 125.57 105.747 125.57 103.64 125.57C103.47 125.57 103.47 125.57 103.296 125.57C103.182 125.57 103.069 125.57 102.952 125.57C101.111 125.57 99.2694 125.571 97.4283 125.572C95.5363 125.574 93.6444 125.575 91.7524 125.575C90.6908 125.575 89.6292 125.575 88.5677 125.576C87.6637 125.577 86.7598 125.577 85.8558 125.576C85.3951 125.576 84.9343 125.576 84.4735 125.577C84.0508 125.578 83.6282 125.578 83.2055 125.577C83.0535 125.577 82.9014 125.577 82.7493 125.577C80.1656 125.587 77.9688 124.979 76.0705 123.17C74.348 121.341 73.9255 119.154 73.9883 116.726C74.0647 114.887 75.2841 113.103 76.1782 111.548C76.5741 110.859 76.9491 110.161 77.3126 109.454C77.7791 108.548 78.2709 107.66 78.7768 106.776C79.1676 106.089 79.5389 105.395 79.9005 104.693C80.3024 103.912 80.7192 103.144 81.1557 102.383C81.726 101.387 82.2653 100.377 82.799 99.3615C83.3224 98.3656 83.8502 97.3744 84.4099 96.3983C85.0279 95.3205 85.6101 94.2251 86.1907 93.1268C86.2652 92.9858 86.3398 92.8447 86.4143 92.7037C86.4507 92.635 86.487 92.5662 86.5245 92.4954C86.9833 91.6286 87.455 90.7688 87.9264 89.9088C88.2029 89.403 88.4769 88.8958 88.7511 88.3888C89.2318 87.5005 89.7142 86.6133 90.1985 85.7271C90.4656 85.2382 90.7315 84.7487 90.9957 84.2583C91.6163 83.1067 92.2455 81.961 92.8929 80.8243C92.9447 80.7334 92.9965 80.6424 93.0498 80.5487C93.1008 80.4594 93.1517 80.3702 93.2042 80.2782C93.3097 80.0897 93.4126 79.8997 93.5133 79.7086C93.8229 79.1216 94.1456 78.6043 94.5868 78.1084C94.6408 78.0467 94.6948 77.985 94.7505 77.9214C95.1442 77.4807 95.5476 77.1111 96.049 76.795C96.1072 76.7525 96.1653 76.7099 96.2253 76.6661C98.9943 74.7337 102.921 75.1804 105.469 77.2091ZM98.2228 89.2169C97.3918 90.3376 97.3636 91.4561 97.3679 92.8137C97.3676 92.9651 97.3672 93.1166 97.3668 93.268C97.3658 93.6765 97.3662 94.085 97.3669 94.4935C97.3674 94.9227 97.3669 95.3519 97.3666 95.781C97.3662 96.5015 97.3667 97.222 97.3677 97.9425C97.3688 98.7733 97.3684 99.6042 97.3673 100.435C97.3664 101.151 97.3662 101.866 97.3668 102.582C97.3671 103.008 97.3671 103.435 97.3665 103.861C97.3659 104.262 97.3663 104.663 97.3675 105.064C97.3677 105.211 97.3677 105.357 97.3672 105.504C97.3638 106.7 97.3641 107.977 98.2244 108.902C98.9704 109.599 99.6844 109.917 100.707 109.92C101.605 109.851 102.315 109.395 102.92 108.743C103.521 107.986 103.618 107.088 103.619 106.145C103.62 106.015 103.62 105.885 103.621 105.751C103.621 105.608 103.621 105.466 103.621 105.323C103.621 105.172 103.621 105.021 103.622 104.869C103.623 104.459 103.623 104.05 103.623 103.64C103.623 103.383 103.623 103.127 103.623 102.87C103.624 101.975 103.625 101.079 103.625 100.183C103.625 99.3496 103.626 98.5165 103.627 97.6834C103.629 96.9664 103.629 96.2495 103.629 95.5325C103.629 95.1051 103.63 94.6776 103.631 94.2501C103.632 93.8478 103.632 93.4455 103.631 93.0432C103.631 92.8962 103.631 92.7493 103.632 92.6023C103.637 91.3322 103.582 90.2475 102.777 89.2169C102.128 88.5798 101.416 88.2758 100.513 88.24C99.6176 88.2649 98.8476 88.5637 98.2228 89.2169ZM98.2228 114.061C97.5798 115.005 97.4106 115.709 97.4982 116.856C97.6919 117.645 98.2088 118.325 98.8775 118.778C99.6854 119.221 100.512 119.355 101.408 119.118C102.265 118.79 103 118.152 103.386 117.315C103.646 116.508 103.64 115.595 103.269 114.831C103.178 114.675 103.084 114.522 102.985 114.371C102.923 114.275 102.861 114.179 102.797 114.08C102.159 113.442 101.424 113.126 100.526 113.09C99.623 113.107 98.8533 113.401 98.2228 114.061Z" fill="white"/>
</g>
<defs>
<clipPath id="clip0_4524_193">
<rect width="53" height="53" fill="white" transform="translate(74 74)"/>
</clipPath>
</defs>
</svg>
