<svg width="31" height="31" viewBox="0 0 31 31" fill="none" xmlns="http://www.w3.org/2000/svg">
<g clip-path="url(#clip0_613_11561)">
<path d="M26.5835 0.145508H4.0835C2.01537 0.145508 0.333496 1.82738 0.333496 3.89551V26.3955C0.333496 28.4636 2.01537 30.1455 4.0835 30.1455H26.5835C28.6516 30.1455 30.3335 28.4636 30.3335 26.3955V3.89551C30.3335 1.82738 28.6516 0.145508 26.5835 0.145508Z" fill="#1976D2"/>
<path d="M25.646 15.1455H20.9585V11.3955C20.9585 10.3605 21.7985 10.458 22.8335 10.458H24.7085V5.77051H20.9585C17.8516 5.77051 15.3335 8.28863 15.3335 11.3955V15.1455H11.5835V19.833H15.3335V30.1455H20.9585V19.833H23.771L25.646 15.1455Z" fill="#FAFAFA"/>
</g>
<defs>
<clipPath id="clip0_613_11561">
<rect width="30" height="30" fill="white" transform="translate(0.333496 0.145508)"/>
</clipPath>
</defs>
</svg>
