<svg width="18" height="17" viewBox="0 0 18 17" fill="none" xmlns="http://www.w3.org/2000/svg">
<path d="M9.00803 0.293457C9.65618 0.293496 10.2821 0.529599 10.7689 0.957624L10.8972 1.07846L11.4789 1.66012C11.6385 1.81872 11.8469 1.91884 12.0705 1.94429L12.183 1.95096H13.0164C13.6974 1.95092 14.3526 2.21143 14.8477 2.67907C15.3427 3.14672 15.6401 3.78605 15.6789 4.46596L15.683 4.61762V5.45096C15.683 5.67596 15.7597 5.89512 15.898 6.07012L15.973 6.15346L16.5539 6.73512C17.0353 7.21383 17.316 7.85814 17.3388 8.53668C17.3615 9.21522 17.1246 9.8769 16.6764 10.3868L16.5555 10.5151L15.9739 11.0968C15.8153 11.2564 15.7151 11.4649 15.6897 11.6885L15.683 11.801V12.6343C15.6831 13.3153 15.4226 13.9705 14.9549 14.4656C14.4873 14.9607 13.8479 15.2581 13.168 15.2968L13.0164 15.301H12.183C11.9583 15.301 11.7402 15.3768 11.5639 15.516L11.4805 15.591L10.8989 16.1718C10.4202 16.6532 9.77584 16.9339 9.0973 16.9567C8.41876 16.9795 7.75709 16.7426 7.24719 16.2943L7.11886 16.1735L6.53719 15.5918C6.37756 15.4332 6.1691 15.3331 5.94553 15.3076L5.83303 15.301H4.99969C4.31868 15.301 3.66345 15.0405 3.16839 14.5728C2.67332 14.1052 2.37592 13.4659 2.33719 12.786L2.33303 12.6343V11.801C2.33295 11.5763 2.25721 11.3582 2.11803 11.1818L2.04303 11.0985L1.46219 10.5168C0.98076 10.0381 0.700044 9.39377 0.677282 8.71523C0.654519 8.03669 0.891424 7.37502 1.33969 6.86512L1.46053 6.73679L2.04219 6.15512C2.20079 5.99549 2.3009 5.78703 2.32636 5.56346L2.33303 5.45096V4.61762L2.33719 4.46596C2.3744 3.81216 2.65088 3.19492 3.11393 2.73186C3.57698 2.26881 4.19423 1.99233 4.84803 1.95512L4.99969 1.95096H5.83303C6.05771 1.95088 6.27582 1.87515 6.45219 1.73596L6.53553 1.66096L7.11719 1.08012C7.36497 0.830864 7.65958 0.633045 7.98408 0.49804C8.30858 0.363035 8.65656 0.293508 9.00803 0.293457ZM12.0889 6.36179C11.9326 6.20556 11.7207 6.1178 11.4997 6.1178C11.2787 6.1178 11.0668 6.20556 10.9105 6.36179L8.16636 9.10512L7.08886 8.02846L7.01053 7.95929C6.84303 7.82978 6.63252 7.76888 6.42175 7.78896C6.21098 7.80904 6.01576 7.90859 5.87573 8.06739C5.7357 8.2262 5.66137 8.43235 5.66784 8.64397C5.6743 8.8556 5.76107 9.05683 5.91053 9.20679L7.57719 10.8735L7.65553 10.9426C7.81586 11.067 8.01607 11.1286 8.21859 11.1159C8.42112 11.1031 8.61203 11.0169 8.75553 10.8735L12.0889 7.54012L12.158 7.46179C12.2824 7.30145 12.344 7.10124 12.3313 6.89872C12.3185 6.6962 12.2323 6.50529 12.0889 6.36179Z" fill="#34C759"/>
</svg>
