<svg width="30" height="31" viewBox="0 0 30 31" fill="none" xmlns="http://www.w3.org/2000/svg">
<g clip-path="url(#clip0_613_11513)">
<path d="M25.9091 0.145508H4.09091C1.83156 0.145508 0 1.97707 0 4.23642V26.0546C0 28.3139 1.83156 30.1455 4.09091 30.1455H25.9091C28.1684 30.1455 30 28.3139 30 26.0546V4.23642C30 1.97707 28.1684 0.145508 25.9091 0.145508Z" fill="#29A71A"/>
<path d="M21.6137 8.53206C20.0531 6.95586 17.9806 5.98923 15.7701 5.80653C13.5595 5.62382 11.3564 6.23707 9.55818 7.53565C7.75996 8.83423 6.48496 10.7327 5.96319 12.8885C5.44141 15.0444 5.70719 17.3157 6.7126 19.2929L5.72567 24.0843C5.71543 24.132 5.71514 24.1813 5.72481 24.2291C5.73449 24.2769 5.75393 24.3222 5.78192 24.3622C5.82291 24.4228 5.88143 24.4695 5.94965 24.496C6.01788 24.5225 6.09256 24.5275 6.16373 24.5105L10.8598 23.3974C12.8313 24.3774 15.0867 24.626 17.2244 24.0992C19.3621 23.5724 21.2436 22.3043 22.5341 20.5204C23.8246 18.7366 24.4404 16.5527 24.2718 14.3575C24.1033 12.1623 23.1614 10.098 21.6137 8.53206ZM20.1495 20.2184C19.0697 21.2952 17.6793 22.006 16.1741 22.2506C14.669 22.4952 13.125 22.2614 11.7598 21.5821L11.1052 21.2582L8.22623 21.94L8.23476 21.9042L8.83135 19.0065L8.51089 18.3741C7.81333 17.0041 7.56725 15.4485 7.80792 13.9301C8.04858 12.4117 8.76364 11.0084 9.85067 9.92126C11.2165 8.55582 13.0688 7.78876 15.0001 7.78876C16.9314 7.78876 18.7837 8.55582 20.1495 9.92126C20.1612 9.9346 20.1737 9.94713 20.187 9.95876C21.536 11.3277 22.289 13.1744 22.282 15.0963C22.275 17.0182 21.5084 18.8594 20.1495 20.2184Z" fill="white"/>
<path d="M19.8939 18.0926C19.5411 18.6483 18.9837 19.3284 18.2831 19.4972C17.0559 19.7938 15.1724 19.5074 12.8286 17.3222L12.7996 17.2966C10.7388 15.3858 10.2036 13.7955 10.3331 12.5341C10.4047 11.8182 11.0013 11.1705 11.5042 10.7478C11.5837 10.6799 11.6779 10.6316 11.7794 10.6067C11.881 10.5818 11.9869 10.581 12.0887 10.6043C12.1906 10.6277 12.2856 10.6746 12.3661 10.7412C12.4467 10.8078 12.5105 10.8924 12.5525 10.9881L13.311 12.6926C13.3603 12.8032 13.3785 12.925 13.3638 13.0451C13.3491 13.1653 13.302 13.2791 13.2275 13.3745L12.8439 13.8722C12.7616 13.975 12.712 14.1 12.7014 14.2312C12.6907 14.3625 12.7196 14.4939 12.7843 14.6085C12.9991 14.9853 13.5138 15.5392 14.0849 16.0523C14.7258 16.6318 15.4366 17.162 15.8866 17.3426C16.007 17.3918 16.1394 17.4038 16.2666 17.3771C16.3939 17.3504 16.5103 17.2861 16.6008 17.1926L17.0456 16.7443C17.1315 16.6597 17.2382 16.5993 17.355 16.5694C17.4718 16.5394 17.5944 16.541 17.7104 16.5739L19.5121 17.0853C19.6115 17.1157 19.7026 17.1685 19.7785 17.2396C19.8543 17.3107 19.9129 17.3982 19.9497 17.4954C19.9866 17.5927 20.0007 17.697 19.991 17.8005C19.9814 17.904 19.9482 18.0039 19.8939 18.0926Z" fill="white"/>
</g>
<defs>
<clipPath id="clip0_613_11513">
<rect width="30" height="30" fill="white" transform="translate(0 0.145508)"/>
</clipPath>
</defs>
</svg>
