<svg width="18" height="19" viewBox="0 0 18 19" fill="none" xmlns="http://www.w3.org/2000/svg">
<g clip-path="url(#clip0_488_20167)">
<path d="M6 5.75C6 6.54565 6.31607 7.30871 6.87868 7.87132C7.44129 8.43393 8.20435 8.75 9 8.75C9.79565 8.75 10.5587 8.43393 11.1213 7.87132C11.6839 7.30871 12 6.54565 12 5.75C12 4.95435 11.6839 4.19129 11.1213 3.62868C10.5587 3.06607 9.79565 2.75 9 2.75C8.20435 2.75 7.44129 3.06607 6.87868 3.62868C6.31607 4.19129 6 4.95435 6 5.75Z" stroke="white" stroke-width="1.2" stroke-linecap="round" stroke-linejoin="round"/>
<path d="M4.5 16.25V14.75C4.5 13.9544 4.81607 13.1913 5.37868 12.6287C5.94129 12.0661 6.70435 11.75 7.5 11.75H10.125" stroke="white" stroke-width="1.2" stroke-linecap="round" stroke-linejoin="round"/>
<path d="M12 14.75C12 15.3467 12.2371 15.919 12.659 16.341C13.081 16.7629 13.6533 17 14.25 17C14.8467 17 15.419 16.7629 15.841 16.341C16.2629 15.919 16.5 15.3467 16.5 14.75C16.5 14.1533 16.2629 13.581 15.841 13.159C15.419 12.7371 14.8467 12.5 14.25 12.5C13.6533 12.5 13.081 12.7371 12.659 13.159C12.2371 13.581 12 14.1533 12 14.75Z" stroke="white" stroke-width="1.2" stroke-linecap="round" stroke-linejoin="round"/>
<path d="M12.75 16.25L15.75 13.25" stroke="white" stroke-width="1.2" stroke-linecap="round" stroke-linejoin="round"/>
</g>
<defs>
<clipPath id="clip0_488_20167">
<rect width="18" height="18" fill="white" transform="translate(0 0.5)"/>
</clipPath>
</defs>
</svg>
