<svg width="16" height="16" viewBox="0 0 16 16" fill="none" xmlns="http://www.w3.org/2000/svg">
<g clip-path="url(#clip0_561_8348)">
<path d="M3 12H2.5C1.96957 12 1.46086 11.7893 1.08579 11.4142C0.710713 11.0391 0.5 10.5304 0.5 10V8C0.5 7.4696 0.710713 6.96087 1.08579 6.58579C1.46086 6.21071 1.96957 6 2.5 6H3C3.13261 6 3.25979 6.05268 3.35355 6.14645C3.44732 6.24021 3.5 6.36739 3.5 6.5V11.5C3.5 11.6326 3.44732 11.7598 3.35355 11.8535C3.25979 11.9473 3.13261 12 3 12Z" stroke="white" stroke-linecap="round" stroke-linejoin="round"/>
<path d="M13.5 12H13C12.8674 12 12.7402 11.9473 12.6465 11.8535C12.5527 11.7598 12.5 11.6326 12.5 11.5V6.5C12.5 6.36739 12.5527 6.24021 12.6465 6.14645C12.7402 6.05268 12.8674 6 13 6H13.5C14.0304 6 14.5391 6.21071 14.9142 6.58579C15.2893 6.96087 15.5 7.4696 15.5 8V10C15.5 10.5304 15.2893 11.0391 14.9142 11.4142C14.5391 11.7893 14.0304 12 13.5 12Z" stroke="white" stroke-linecap="round" stroke-linejoin="round"/>
<path d="M2.5 6C2.5 4.54131 3.07946 3.14236 4.11091 2.11091C5.14236 1.07946 6.54131 0.5 8 0.5C9.45867 0.5 10.8577 1.07946 11.8891 2.11091C12.9205 3.14236 13.5 4.54131 13.5 6" stroke="white" stroke-linecap="round" stroke-linejoin="round"/>
<path d="M10 14.5H11.5C12.0304 14.5 12.5391 14.2893 12.9142 13.9142C13.2893 13.5391 13.5 13.0304 13.5 12.5V12" stroke="white" stroke-linecap="round" stroke-linejoin="round"/>
<path d="M9 15.5H8C7.7348 15.5 7.4804 15.3947 7.29287 15.2071C7.10533 15.0196 7 14.7652 7 14.5C7 14.2348 7.10533 13.9804 7.29287 13.7929C7.4804 13.6053 7.7348 13.5 8 13.5H9C9.2652 13.5 9.5196 13.6053 9.70713 13.7929C9.89467 13.9804 10 14.2348 10 14.5C10 14.7652 9.89467 15.0196 9.70713 15.2071C9.5196 15.3947 9.2652 15.5 9 15.5Z" stroke="white" stroke-linecap="round" stroke-linejoin="round"/>
<path d="M6 5.50011C6.00007 5.13346 6.10093 4.77389 6.29155 4.46069C6.48217 4.14749 6.7552 3.89271 7.08087 3.72421C7.40647 3.55571 7.7722 3.47996 8.13793 3.50525C8.50373 3.53054 8.85553 3.65589 9.15487 3.86761C9.4542 4.07932 9.6896 4.36925 9.83527 4.7057C9.981 5.04215 10.0314 5.41219 9.981 5.77535C9.9306 6.13852 9.7814 6.48085 9.5496 6.76495C9.3178 7.04901 9.01233 7.26388 8.66667 7.38608C8.4716 7.45508 8.30273 7.58281 8.18333 7.75175C8.06393 7.92075 7.99987 8.12255 8 8.32941V8.50008" stroke="white" stroke-linecap="round" stroke-linejoin="round"/>
<path d="M8 11C7.86193 11 7.75 10.8881 7.75 10.75C7.75 10.6119 7.86193 10.5 8 10.5" stroke="white"/>
<path d="M8 11C8.13807 11 8.25 10.8881 8.25 10.75C8.25 10.6119 8.13807 10.5 8 10.5" stroke="white"/>
</g>
<defs>
<clipPath id="clip0_561_8348">
<rect width="16" height="16" fill="white"/>
</clipPath>
</defs>
</svg>
