<svg width="16" height="16" viewBox="0 0 16 16" fill="none" xmlns="http://www.w3.org/2000/svg">
<g clip-path="url(#clip0_477_6181)">
<path d="M6 7.33203C6 7.86246 6.21071 8.37117 6.58579 8.74625C6.96086 9.12132 7.46957 9.33203 8 9.33203C8.53043 9.33203 9.03914 9.12132 9.41421 8.74625C9.78929 8.37117 10 7.86246 10 7.33203C10 6.8016 9.78929 6.29289 9.41421 5.91782C9.03914 5.54274 8.53043 5.33203 8 5.33203C7.46957 5.33203 6.96086 5.54274 6.58579 5.91782C6.21071 6.29289 6 6.8016 6 7.33203Z" stroke="#7A7A7A" stroke-width="1.2" stroke-linecap="round" stroke-linejoin="round"/>
<path d="M8.68276 14.1346C8.42797 14.2863 8.12989 14.3487 7.83565 14.312C7.54141 14.2753 7.26781 14.1416 7.05809 13.9319L4.22876 11.1033C3.54984 10.4239 3.06699 9.57375 2.83119 8.64268C2.59539 7.71161 2.6154 6.73414 2.88911 5.8135C3.16281 4.89285 3.68005 4.06321 4.3862 3.41217C5.09235 2.76114 5.96121 2.31288 6.90102 2.11473C7.84082 1.91658 8.8167 1.9759 9.72558 2.28642C10.6345 2.59694 11.4426 3.14714 12.0647 3.87891C12.6868 4.61069 13.0998 5.49687 13.2599 6.44389C13.4201 7.39091 13.3216 8.3636 12.9748 9.25926" stroke="#7A7A7A" stroke-width="1.2" stroke-linecap="round" stroke-linejoin="round"/>
<path d="M14.6663 14.6654L11.333 11.332" stroke="#7A7A7A" stroke-width="1.2" stroke-linecap="round" stroke-linejoin="round"/>
<path d="M11.333 14.6654L14.6663 11.332" stroke="#7A7A7A" stroke-width="1.2" stroke-linecap="round" stroke-linejoin="round"/>
</g>
<defs>
<clipPath id="clip0_477_6181">
<rect width="16" height="16" fill="white"/>
</clipPath>
</defs>
</svg>
