<svg width="31" height="31" viewBox="0 0 31 31" fill="none" xmlns="http://www.w3.org/2000/svg">
<g clip-path="url(#clip0_613_11565)">
<path d="M2.54163 2.18688C0.184131 4.63563 0.666631 7.23688 0.666631 15.1394C0.666631 21.7019 -0.478369 28.2806 5.51413 29.8294C7.38538 30.3106 23.9654 30.3106 25.8341 29.8269C28.3291 29.1831 30.3591 27.1594 30.6366 23.6306C30.6754 23.1381 30.6754 7.14938 30.6354 6.64688C30.3404 2.88813 28.0266 0.721877 24.9779 0.283127C24.2791 0.181877 24.1391 0.151877 20.5541 0.145627C7.83788 0.151877 5.05038 -0.414373 2.54163 2.18688Z" fill="url(#paint0_linear_613_11565)"/>
<path d="M15.6638 4.06928C11.125 4.06928 6.81502 3.66553 5.16877 7.89053C4.48877 9.63553 4.58752 11.9018 4.58752 15.1468C4.58752 17.9943 4.49627 20.6705 5.16877 22.4018C6.81127 26.6293 11.1563 26.2243 15.6613 26.2243C20.0075 26.2243 24.4888 26.6768 26.155 22.4018C26.8363 20.6393 26.7363 18.4068 26.7363 15.1468C26.7363 10.8193 26.975 8.02553 24.8763 5.92803C22.7513 3.80303 19.8775 4.06928 15.6588 4.06928H15.6638ZM14.6713 6.06553C24.1388 6.05053 25.3438 4.99804 24.6788 19.6193C24.4425 24.7905 20.505 24.223 15.665 24.223C6.84002 24.223 6.58627 23.9705 6.58627 15.1418C6.58627 6.21053 7.28627 6.07053 14.6713 6.06303V6.06553ZM21.5763 7.90428C20.8425 7.90428 20.2475 8.49928 20.2475 9.23303C20.2475 9.96678 20.8425 10.5618 21.5763 10.5618C22.31 10.5618 22.905 9.96678 22.905 9.23303C22.905 8.49928 22.31 7.90428 21.5763 7.90428ZM15.6638 9.45803C12.5225 9.45803 9.97627 12.0055 9.97627 15.1468C9.97627 18.288 12.5225 20.8343 15.6638 20.8343C18.805 20.8343 21.35 18.288 21.35 15.1468C21.35 12.0055 18.805 9.45803 15.6638 9.45803ZM15.6638 11.4543C20.545 11.4543 20.5513 18.8393 15.6638 18.8393C10.7838 18.8393 10.7763 11.4543 15.6638 11.4543Z" fill="white"/>
</g>
<defs>
<linearGradient id="paint0_linear_613_11565" x1="2.59916" y1="28.2295" x2="30.481" y2="4.0981" gradientUnits="userSpaceOnUse">
<stop stop-color="#FFDD55"/>
<stop offset="0.5" stop-color="#FF543E"/>
<stop offset="1" stop-color="#C837AB"/>
</linearGradient>
<clipPath id="clip0_613_11565">
<rect width="30" height="30" fill="white" transform="translate(0.666504 0.145508)"/>
</clipPath>
</defs>
</svg>
