<svg width="18" height="19" viewBox="0 0 18 19" fill="none" xmlns="http://www.w3.org/2000/svg">
<g clip-path="url(#clip0_488_20138)">
<path d="M7.5 6.5V5C7.5 4.60218 7.65804 4.22064 7.93934 3.93934C8.22064 3.65804 8.60218 3.5 9 3.5H14.25C14.6478 3.5 15.0294 3.65804 15.3107 3.93934C15.592 4.22064 15.75 4.60218 15.75 5V14C15.75 14.3978 15.592 14.7794 15.3107 15.0607C15.0294 15.342 14.6478 15.5 14.25 15.5H9C8.60218 15.5 8.22064 15.342 7.93934 15.0607C7.65804 14.7794 7.5 14.3978 7.5 14V12.5" stroke="#C52422" stroke-width="1.2" stroke-linecap="round" stroke-linejoin="round"/>
<path d="M11.25 9.5H2.25L4.5 7.25" stroke="#C52422" stroke-width="1.2" stroke-linecap="round" stroke-linejoin="round"/>
<path d="M4.5 11.75L2.25 9.5" stroke="#C52422" stroke-width="1.2" stroke-linecap="round" stroke-linejoin="round"/>
</g>
<defs>
<clipPath id="clip0_488_20138">
<rect width="18" height="18" fill="white" transform="translate(0 0.5)"/>
</clipPath>
</defs>
</svg>
