<svg width="20" height="20" viewBox="0 0 20 20" fill="none" xmlns="http://www.w3.org/2000/svg">
<g clip-path="url(#clip0_488_24703)">
<path d="M7.5 9.1665C7.5 9.82955 7.76339 10.4654 8.23223 10.9343C8.70107 11.4031 9.33696 11.6665 10 11.6665C10.663 11.6665 11.2989 11.4031 11.7678 10.9343C12.2366 10.4654 12.5 9.82955 12.5 9.1665C12.5 8.50346 12.2366 7.86758 11.7678 7.39874C11.2989 6.9299 10.663 6.6665 10 6.6665C9.33696 6.6665 8.70107 6.9299 8.23223 7.39874C7.76339 7.86758 7.5 8.50346 7.5 9.1665Z" stroke="#EC692E" stroke-width="1.2" stroke-linecap="round" stroke-linejoin="round"/>
<path d="M10.8534 17.6702C10.535 17.8598 10.1624 17.9378 9.79457 17.8919C9.42677 17.8461 9.08476 17.6789 8.82261 17.4169L5.28595 13.881C4.4373 13.0318 3.83373 11.9691 3.53899 10.8053C3.24424 9.64146 3.26925 8.41963 3.61138 7.26882C3.95351 6.11802 4.60006 5.08096 5.48275 4.26717C6.36544 3.45338 7.45151 2.89305 8.62627 2.64537C9.80103 2.39768 11.0209 2.47183 12.157 2.85998C13.2931 3.24813 14.3033 3.93588 15.0809 4.8506C15.8585 5.76531 16.3747 6.87305 16.5749 8.05682C16.7752 9.24059 16.652 10.4565 16.2184 11.576" stroke="#EC692E" stroke-width="1.2" stroke-linecap="round" stroke-linejoin="round"/>
<path d="M18.3337 18.3332L14.167 14.1665" stroke="#EC692E" stroke-width="1.2" stroke-linecap="round" stroke-linejoin="round"/>
<path d="M14.167 18.3332L18.3337 14.1665" stroke="#EC692E" stroke-width="1.2" stroke-linecap="round" stroke-linejoin="round"/>
</g>
<defs>
<clipPath id="clip0_488_24703">
<rect width="20" height="20" fill="white"/>
</clipPath>
</defs>
</svg>
