<svg width="21" height="20" viewBox="0 0 21 20" fill="none" xmlns="http://www.w3.org/2000/svg">
<g clip-path="url(#clip0_474_9227)">
<path d="M6.65039 10.8333C5.90871 10.8333 5.18369 10.6134 4.567 10.2013C3.95032 9.78929 3.46967 9.20362 3.18584 8.5184C2.90201 7.83318 2.82775 7.07918 2.97245 6.35175C3.11714 5.62432 3.47429 4.95613 3.99874 4.43168C4.52319 3.90724 5.19137 3.55008 5.9188 3.40539C6.64623 3.2607 7.40023 3.33496 8.08545 3.61879C8.77068 3.90262 9.35635 4.38326 9.7684 4.99995C10.1805 5.61663 10.4004 6.34166 10.4004 7.08334C10.3993 8.07756 10.0038 9.03075 9.30082 9.73377C8.5978 10.4368 7.64461 10.8322 6.65039 10.8333ZM12.0671 20H1.23372C1.01271 20 0.800749 19.9122 0.644468 19.7559C0.488188 19.5996 0.400391 19.3877 0.400391 19.1667V18.75C0.400391 17.0924 1.05887 15.5027 2.23097 14.3306C3.40308 13.1585 4.99279 12.5 6.65039 12.5C8.30799 12.5 9.89771 13.1585 11.0698 14.3306C12.2419 15.5027 12.9004 17.0924 12.9004 18.75V19.1667C12.9004 19.3877 12.8126 19.5996 12.6563 19.7559C12.5 19.9122 12.2881 20 12.0671 20ZM14.9837 7.5C14.242 7.5 13.517 7.28007 12.9003 6.86801C12.2837 6.45596 11.803 5.87029 11.5192 5.18506C11.2353 4.49984 11.1611 3.74584 11.3058 3.01841C11.4505 2.29098 11.8076 1.6228 12.3321 1.09835C12.8565 0.573904 13.5247 0.216751 14.2521 0.0720569C14.9796 -0.0726377 15.7336 0.00162482 16.4188 0.285453C17.104 0.569282 17.6897 1.04993 18.1017 1.66661C18.5138 2.2833 18.7337 3.00832 18.7337 3.75C18.7326 4.74423 18.3372 5.69741 17.6342 6.40043C16.9311 7.10346 15.9779 7.4989 14.9837 7.5ZM13.7996 9.18417C13.0234 9.2883 12.2771 9.55159 11.6075 9.95754C10.9378 10.3635 10.3592 10.9034 9.90789 11.5433C11.7753 12.3914 13.2426 13.9285 14.0029 15.8333H19.5671C19.7881 15.8333 20 15.7455 20.1563 15.5893C20.3126 15.433 20.4004 15.221 20.4004 15V14.9683C20.3995 14.1377 20.2215 13.3168 19.8781 12.5604C19.5347 11.804 19.034 11.1296 18.4092 10.5821C17.7845 10.0347 17.0502 9.62681 16.2552 9.38574C15.4603 9.14467 14.6231 9.07595 13.7996 9.18417Z" fill="white"/>
</g>
<defs>
<clipPath id="clip0_474_9227">
<rect width="20" height="20" fill="white" transform="translate(0.400391)"/>
</clipPath>
</defs>
</svg>
