<svg width="116" height="116" viewBox="0 0 116 116" fill="none" xmlns="http://www.w3.org/2000/svg">
<g clip-path="url(#clip0_893_6477)">
<path d="M112.493 29.4191C109.448 18.2111 97.7912 6.55219 86.5808 3.50719C79.7069 1.79437 70.4994 0.0294531 58 0C45.5005 0.0294531 36.293 1.79437 29.4191 3.50719C18.2111 6.55219 6.55217 18.2088 3.50717 29.4191C1.79436 36.293 0.0294379 45.5005 -1.52588e-05 58C0.0294379 70.4995 1.79436 79.707 3.50717 86.5809C6.55217 97.7912 18.2111 109.448 29.4191 112.493C36.293 114.206 45.5051 115.971 58 116C70.4972 115.971 79.7069 114.206 86.5808 112.493C97.7912 109.448 109.448 97.7912 112.493 86.5809C114.206 79.707 115.971 70.4949 116 58C115.971 45.5005 114.206 36.293 112.493 29.4191Z" fill="#E5F4D9"/>
<path d="M58 19.4844C50.3823 19.4844 42.9357 21.7433 36.6019 25.9754C30.268 30.2076 25.3314 36.2229 22.4162 43.2607C19.501 50.2985 18.7383 58.0427 20.2244 65.514C21.7106 72.9853 25.3788 79.8482 30.7653 85.2347C36.1518 90.6212 43.0147 94.2894 50.486 95.7756C57.9573 97.2617 65.7015 96.499 72.7393 93.5838C79.7771 90.6686 85.7924 85.732 90.0246 79.3981C94.2567 73.0643 96.5156 65.6177 96.5156 58C96.5156 47.785 92.4577 37.9884 85.2347 30.7653C78.0116 23.5423 68.215 19.4844 58 19.4844Z" fill="url(#paint0_linear_893_6477)"/>
<path d="M79.9765 51.6228L56.8151 75.9375C56.1843 76.5998 55.4264 77.128 54.5866 77.4904C53.7469 77.8529 52.8427 78.0421 51.9281 78.0468H51.8987C50.9894 78.0467 50.0894 77.8642 49.2519 77.5101C48.4144 77.156 47.6565 76.6374 47.023 75.9851L34.7365 63.327C34.0684 62.6975 33.5346 61.9392 33.1675 61.0978C32.8004 60.2564 32.6076 59.3494 32.6006 58.4314C32.5937 57.5134 32.7727 56.6036 33.127 55.7567C33.4813 54.9098 34.0035 54.1435 34.662 53.5039C35.3206 52.8644 36.1018 52.3648 36.9587 52.0355C37.8156 51.7061 38.7303 51.5538 39.6477 51.5876C40.5651 51.6214 41.4661 51.8407 42.2964 52.2322C43.1267 52.6238 43.8691 53.1795 44.4787 53.8658L51.842 61.4534L70.1233 42.2545C70.7385 41.6075 71.475 41.088 72.2909 40.7257C73.1068 40.3634 73.9861 40.1653 74.8785 40.1428C75.771 40.1203 76.6591 40.2738 77.4922 40.5945C78.3254 40.9152 79.0872 41.3969 79.7341 42.012C80.3811 42.6272 80.9006 43.3637 81.2629 44.1796C81.6252 44.9955 81.8233 45.8748 81.8458 46.7672C81.8683 47.6597 81.7148 48.5478 81.3941 49.3809C81.0734 50.214 80.5917 50.9758 79.9765 51.6228Z" fill="url(#paint1_linear_893_6477)"/>
</g>
<defs>
<linearGradient id="paint0_linear_893_6477" x1="85.2396" y1="85.2396" x2="30.7604" y2="30.7604" gradientUnits="userSpaceOnUse">
<stop stop-color="#13B601"/>
<stop offset="0.52" stop-color="#13B601"/>
<stop offset="1" stop-color="#CBF4B4"/>
</linearGradient>
<linearGradient id="paint1_linear_893_6477" x1="68.5669" y1="64.1902" x2="46.4906" y2="42.1117" gradientUnits="userSpaceOnUse">
<stop stop-color="#CBF4B4"/>
<stop offset="0.57" stop-color="white"/>
<stop offset="1" stop-color="white"/>
</linearGradient>
<clipPath id="clip0_893_6477">
<rect width="116" height="116" fill="white"/>
</clipPath>
</defs>
</svg>
