<svg width="20" height="20" viewBox="0 0 20 20" fill="none" xmlns="http://www.w3.org/2000/svg">
<g clip-path="url(#clip0_480_8746)">
<path d="M14.1666 2.78259C15.4235 3.50831 16.4691 4.5497 17.1998 5.80368C17.9305 7.05765 18.3211 8.48074 18.3328 9.93204C18.3445 11.3833 17.977 12.8126 17.2666 14.0782C16.5563 15.3438 15.5277 16.4019 14.2827 17.1479C13.0377 17.8938 11.6194 18.3016 10.1684 18.331C8.71732 18.3603 7.28375 18.0102 6.00959 17.3153C4.73543 16.6204 3.66485 15.6047 2.90385 14.3689C2.14284 13.133 1.7178 11.7199 1.67079 10.2693L1.66663 9.99926L1.67079 9.72926C1.71746 8.29008 2.13625 6.88756 2.88633 5.65842C3.6364 4.42928 4.69217 3.41547 5.9507 2.71583C7.20923 2.01619 8.62758 1.65459 10.0675 1.66629C11.5073 1.67799 12.9196 2.06259 14.1666 2.78259ZM9.99996 4.99926C9.79585 4.99929 9.59885 5.07422 9.44632 5.20986C9.29379 5.34549 9.19634 5.53238 9.17246 5.73509L9.16663 5.83259V9.99926L9.17413 10.1084C9.19313 10.253 9.24973 10.3901 9.33829 10.5059L9.41079 10.5893L11.9108 13.0893L11.9891 13.1576C12.1353 13.271 12.315 13.3325 12.5 13.3325C12.6849 13.3325 12.8646 13.271 13.0108 13.1576L13.0891 13.0884L13.1583 13.0101C13.2717 12.8639 13.3332 12.6842 13.3332 12.4993C13.3332 12.3143 13.2717 12.1346 13.1583 11.9884L13.0891 11.9101L10.8333 9.65343V5.83259L10.8275 5.73509C10.8036 5.53238 10.7061 5.34549 10.5536 5.20986C10.4011 5.07422 10.2041 4.99929 9.99996 4.99926Z" fill="#C52422"/>
</g>
<defs>
<clipPath id="clip0_480_8746">
<rect width="20" height="20" fill="white"/>
</clipPath>
</defs>
</svg>
