<svg width="24" height="18" viewBox="0 0 24 18" fill="none" xmlns="http://www.w3.org/2000/svg">
<path d="M0 1.5C0 1.10218 0.158036 0.720645 0.43934 0.43934C0.720645 0.158036 1.10218 0 1.5 0H22.5C22.8978 0 23.2794 0.158036 23.5607 0.43934C23.842 0.720645 24 1.10218 24 1.5C24 1.89782 23.842 2.27936 23.5607 2.56066C23.2794 2.84196 22.8978 3 22.5 3H1.5C1.10218 3 0.720645 2.84196 0.43934 2.56066C0.158036 2.27936 0 1.89782 0 1.5ZM4.5 9C4.5 8.60218 4.65804 8.22064 4.93934 7.93934C5.22064 7.65804 5.60218 7.5 6 7.5H22.5C22.8978 7.5 23.2794 7.65804 23.5607 7.93934C23.842 8.22064 24 8.60218 24 9C24 9.39782 23.842 9.77936 23.5607 10.0607C23.2794 10.342 22.8978 10.5 22.5 10.5H6C5.60218 10.5 5.22064 10.342 4.93934 10.0607C4.65804 9.77936 4.5 9.39782 4.5 9ZM13.5 15C13.1022 15 12.7206 15.158 12.4393 15.4393C12.158 15.7206 12 16.1022 12 16.5C12 16.8978 12.158 17.2794 12.4393 17.5607C12.7206 17.842 13.1022 18 13.5 18H22.5C22.8978 18 23.2794 17.842 23.5607 17.5607C23.842 17.2794 24 16.8978 24 16.5C24 16.1022 23.842 15.7206 23.5607 15.4393C23.2794 15.158 22.8978 15 22.5 15H13.5Z" fill="black"/>
</svg>
