<svg width="201" height="200" viewBox="0 0 201 200" fill="none" xmlns="http://www.w3.org/2000/svg">
<path d="M189.864 116.564L189.806 116.593C182.951 121.851 180.046 130.797 182.486 139.076L182.515 139.134C186.407 152.293 176.764 165.567 163.053 165.916H162.995C154.339 166.148 146.728 171.667 143.853 179.829V179.858C139.263 192.813 123.636 197.897 112.336 190.083C105.32 185.292 96.0443 185.042 88.6623 190.083H88.6334C77.3342 197.867 61.7064 192.813 57.1459 179.829C55.7383 175.845 53.1547 172.382 49.7369 169.898C46.319 167.413 42.2277 166.025 38.0037 165.915H37.9455C24.2353 165.567 14.5912 152.292 18.4838 139.134L18.5127 139.076C20.9521 130.797 18.0475 121.85 11.1928 116.593L11.1346 116.564C0.241602 108.198 0.241602 91.8154 11.1346 83.4498L11.1928 83.4209C18.0475 78.1635 20.9521 69.2166 18.4838 60.9381V60.8799C14.5619 47.7217 24.235 34.4467 37.9455 34.0982H38.0037C46.6307 33.8658 54.2701 28.3467 57.1459 20.1846V20.1557C61.7061 7.20058 77.3342 2.11738 88.6334 9.93144H88.6623C95.7787 14.8404 105.19 14.8404 112.336 9.93144C123.749 2.0498 139.29 7.27831 143.853 20.1557V20.1846C146.728 28.3178 154.338 33.8662 162.995 34.0982H163.053C176.763 34.4467 186.407 47.7217 182.515 60.8799L182.486 60.9381C180.046 69.2166 182.951 78.1635 189.806 83.4209L189.864 83.4498C200.757 91.8154 200.757 108.198 189.864 116.564Z" fill="#3EB655"/>
<path d="M100.5 154.108C130.383 154.108 154.608 129.883 154.608 100C154.608 70.1172 130.383 45.8921 100.5 45.8921C70.6167 45.8921 46.3916 70.1172 46.3916 100C46.3916 129.883 70.6167 154.108 100.5 154.108Z" fill="#8BD399"/>
<path d="M142.045 65.3645C132.686 57.6653 120.712 53.0376 107.659 53.0376C77.7764 53.0376 53.5381 77.2759 53.5381 107.159C53.5381 120.212 58.1658 132.186 65.8646 141.545C53.9736 131.625 46.3994 116.705 46.3994 99.9993C46.3994 70.1161 70.617 45.8989 100.5 45.8989C117.205 45.8989 132.126 53.4731 142.045 65.3645Z" fill="black" fill-opacity="0.0627451"/>
<path d="M87.6267 121.182L75.6614 108.452C72.5278 105.118 72.6896 99.8754 76.0228 96.7419C79.356 93.6044 84.6009 93.7727 87.7317 97.1047L93.4435 103.179L117.722 75.4297C120.731 71.986 125.966 71.6368 129.412 74.6504C132.856 77.6641 133.204 82.8969 130.192 86.3407L99.8966 120.964C96.6692 124.648 90.9735 124.745 87.6267 121.182Z" fill="white"/>
</svg>
