<svg width="52" height="53" viewBox="0 0 52 53" fill="none" xmlns="http://www.w3.org/2000/svg">
<g clip-path="url(#clip0_726_6063)">
<path d="M17.8837 40.7991C20.5815 44.5171 23.5246 47.3524 28.4115 47.6647C36.2234 48.1635 44.3359 42.9746 46.5266 36.0728C47.7819 32.1219 45.4187 27.3297 43.1719 24.0066L17.8837 40.7991Z" fill="#D87D13"/>
<path d="M43.1741 24.0068L29.6989 32.9549L40.1267 44.2795C43.1426 42.2025 45.4954 39.3276 46.5289 36.073C47.7819 32.1204 45.4207 27.328 43.1741 24.0068Z" fill="#E89B00"/>
<path d="M33.511 30.4261L29.7253 32.9411L40.1531 44.2658C41.4047 43.4011 42.5404 42.3991 43.5139 41.2898L33.511 30.4261Z" fill="#FABF03"/>
<path d="M35.9983 28.7741L34.5929 29.7068L44.3297 40.2824C44.6754 39.8203 44.9927 39.344 45.2799 38.8555L35.9983 28.7741Z" fill="#FABF03"/>
<path d="M37.0329 41.9981C44.2615 37.6861 47.1338 29.803 43.4482 24.3907C39.7626 18.9784 30.9149 18.0865 23.6863 22.3985C16.4576 26.7105 13.5854 34.5936 17.271 40.0059C20.9565 45.4181 29.8042 46.3101 37.0329 41.9981Z" fill="#FFDD15"/>
<path d="M34.3283 19.7028C29.7014 19.4071 24.9718 21.106 21.4261 23.975L37.661 41.6073C40.8877 39.5118 43.4201 36.5182 44.505 33.1048C46.6976 26.2009 42.1423 20.2014 34.3283 19.7028Z" fill="#FFEE71"/>
<path d="M26.5007 42.3339C23.4217 42.1368 20.9041 40.9201 19.4077 38.9071C17.9569 36.9544 17.6172 34.4298 18.4542 31.7978C19.3547 28.9655 21.4762 26.3642 24.4292 24.474C27.392 22.579 30.8019 21.6467 34.0286 21.8531C37.1077 22.0501 39.6253 23.2669 41.1217 25.2799C42.5724 27.2326 42.9122 29.7572 42.0751 32.3892C41.1746 35.2215 39.0532 37.8228 36.1002 39.7129C33.1375 41.6099 29.7275 42.5403 26.5007 42.3339Z" fill="#FABF03"/>
<path d="M41.1206 25.2815C39.6262 23.2683 37.1066 22.0517 34.0276 21.8547C30.8008 21.6483 27.3907 22.5787 24.4281 24.4757C23.8901 24.8201 23.3814 25.1864 22.9018 25.5745L35.9866 39.784C36.0234 39.7609 36.0623 39.7376 36.0989 39.7126C39.0519 37.8225 41.1735 35.2231 42.0739 32.3889C42.909 29.759 42.5714 27.2342 41.1206 25.2815Z" fill="#F7C908"/>
<path d="M18.7258 32.31C19.6264 29.4777 21.7478 26.8764 24.7008 24.9862C27.6636 23.0912 31.0735 22.1589 34.3003 22.3652C37.3793 22.5623 39.8969 23.7791 41.3933 25.7921C41.5498 26.0017 41.6928 26.2204 41.8217 26.4425C41.628 26.0375 41.3946 25.6482 41.1201 25.2806C39.6257 23.2673 37.1061 22.0508 34.027 21.8537C30.8003 21.6473 27.3902 22.5778 24.4276 24.4747C21.4768 26.3665 19.3531 28.9661 18.4549 31.8001C17.7097 34.1483 17.8997 36.4108 18.9797 38.2571C18.1439 36.5115 18.047 34.4461 18.7258 32.31Z" fill="#D87D13"/>
<path d="M33.2389 31.9628C32.7712 31.5658 32.1224 31.1956 31.2905 30.8525L30.7761 30.6386C30.4639 30.5011 30.2215 30.3773 30.0509 30.2689C29.8782 30.1607 29.7653 30.05 29.7083 29.941C29.6511 29.8301 29.6527 29.7092 29.7091 29.5787C29.7859 29.4057 29.9255 29.2606 30.13 29.1431C30.3345 29.0256 30.5825 28.9476 30.8712 28.9036C31.1602 28.8615 31.4638 28.86 31.7781 28.9014C32.2348 28.9604 32.6481 29.0968 33.0134 29.3073C33.3787 29.5177 33.7154 29.8098 34.0237 30.1835L36.7212 28.3587C36.2744 27.808 35.7267 27.3582 35.0721 27.0116C34.6364 26.7798 34.1672 26.6034 33.6665 26.4801L34.2535 25.1357L32.1205 24.8576L31.4988 26.2842C31.0736 26.3082 30.6545 26.3698 30.2416 26.471C29.3793 26.6793 28.6221 27.0221 27.9718 27.4954C27.3196 27.9708 26.8525 28.5358 26.5647 29.193C26.2072 30.0129 26.2316 30.7501 26.6357 31.4049C27.0398 32.0598 27.8019 32.6019 28.9237 33.0293L29.4551 33.228C29.8706 33.3852 30.1833 33.5284 30.3951 33.6555C30.6072 33.7844 30.7407 33.914 30.792 34.0466C30.8452 34.1789 30.8345 34.3315 30.7613 34.4983C30.6731 34.6993 30.5293 34.864 30.3301 34.9925C30.1309 35.1209 29.886 35.2082 29.5974 35.2541C29.3089 35.3 28.9865 35.2996 28.6282 35.2532C28.0898 35.1838 27.6018 35.0246 27.1645 34.7777C26.7251 34.531 26.3536 34.2043 26.0482 33.7977L23.3027 35.5988C23.7686 36.1935 24.3743 36.6832 25.1178 37.0702C25.577 37.309 26.0554 37.4941 26.5552 37.629L25.96 38.9934L28.093 39.2715L28.6999 37.881C29.2129 37.8669 29.7144 37.8023 30.2035 37.6795C31.0653 37.4656 31.821 37.1095 32.4712 36.6152C33.1214 36.1208 33.5959 35.5282 33.8969 34.8389C34.148 34.2642 34.2185 33.7392 34.1064 33.2662C33.9965 32.7948 33.7066 32.3598 33.2389 31.9628Z" fill="white"/>
<path d="M33.7213 32.4872C33.2536 32.0902 32.6048 31.72 31.7729 31.3769L31.2585 31.163C30.9464 31.0255 30.7039 30.9017 30.5333 30.7933C30.3607 30.6851 30.2477 30.5744 30.1907 30.4654C30.1335 30.3546 30.1351 30.2336 30.1916 30.1031C30.2683 29.9301 30.4079 29.785 30.6124 29.6675C30.8169 29.55 31.0649 29.472 31.3537 29.428C31.6426 29.3859 31.9462 29.3844 32.2606 29.4259C32.7173 29.4848 33.1305 29.6212 33.4958 29.8317C33.8611 30.0421 34.1979 30.3342 34.5061 30.7079L37.2036 28.8831C36.7568 28.3325 36.2091 27.8826 35.5545 27.536C35.1188 27.3043 34.6496 27.1278 34.1489 27.0045L34.7359 25.6601L32.603 25.382L31.9813 26.8086C31.5561 26.8326 31.1369 26.8942 30.7241 26.9954C29.8617 27.2037 29.1046 27.5465 28.4542 28.0198C27.802 28.4952 27.3349 29.0602 27.0471 29.7174C26.6897 30.5373 26.714 31.2745 27.1181 31.9293C27.5222 32.5842 28.2843 33.1263 29.4061 33.5538L29.9375 33.7524C30.353 33.9096 30.6657 34.0528 30.8775 34.1799C31.0896 34.3088 31.2231 34.4384 31.2744 34.571C31.3277 34.7033 31.317 34.8559 31.2437 35.0227C31.1555 35.2237 31.0118 35.3884 30.8125 35.5169C30.6133 35.6453 30.3684 35.7326 30.0798 35.7785C29.7913 35.8244 29.4689 35.824 29.1106 35.7776C28.5722 35.7082 28.0842 35.549 27.6469 35.3021C27.2075 35.0554 26.8361 34.7287 26.5306 34.3222L23.7851 36.1232C24.251 36.7179 24.8567 37.2076 25.6002 37.5946C26.0594 37.8334 26.5378 38.0185 27.0377 38.1534L26.4424 39.5178L28.5754 39.796L29.1823 38.4054C29.6954 38.3913 30.1968 38.3267 30.686 38.2039C31.5477 37.99 32.3034 37.634 32.9536 37.1396C33.6038 36.6453 34.0783 36.0526 34.3793 35.3633C34.6304 34.7886 34.7009 34.2636 34.5888 33.7906C34.4767 33.3176 34.1888 32.8823 33.7213 32.4872Z" fill="#D87D13"/>
<path d="M33.444 32.0741C32.9762 31.6771 32.3275 31.3069 31.4956 30.9638L30.9811 30.7499C30.669 30.6124 30.4265 30.4886 30.256 30.3802C30.0833 30.272 29.9703 30.1613 29.9133 30.0523C29.8561 29.9415 29.8578 29.8206 29.9142 29.69C29.991 29.517 30.1306 29.3719 30.3351 29.2544C30.5396 29.1369 30.7876 29.0589 31.0763 29.0149C31.3653 28.9728 31.6689 28.9713 31.9832 29.0128C32.4399 29.0717 32.8532 29.2081 33.2185 29.4186C33.5838 29.629 33.9205 29.9211 34.2287 30.2948L36.9263 28.47C36.4795 27.9194 35.9317 27.4695 35.2772 27.1229C34.8415 26.8912 34.3723 26.7147 33.8716 26.5914L34.4586 25.247L32.3256 24.9689L31.7039 26.3955C31.2787 26.4195 30.8596 26.4811 30.4467 26.5824C29.5844 26.7906 28.8272 27.1334 28.1769 27.6067C27.5247 28.0821 27.0576 28.6471 26.7697 29.3043C26.4123 30.1242 26.4367 30.8614 26.8408 31.5162C27.2449 32.1711 28.0069 32.7133 29.1288 33.1407L29.6602 33.3393C30.0757 33.4965 30.3884 33.6397 30.6002 33.7668C30.8122 33.8957 30.9458 34.0253 30.997 34.1579C31.0503 34.2903 31.0396 34.4428 30.9664 34.6096C30.8781 34.8106 30.7344 34.9754 30.5352 35.1038C30.336 35.2322 30.091 35.3195 29.8025 35.3654C29.5139 35.4113 29.1915 35.4109 28.8333 35.3646C28.2949 35.2951 27.8069 35.136 27.3695 34.889C26.9301 34.6423 26.5587 34.3156 26.2532 33.9091L23.5078 35.7102C23.9737 36.3048 24.5793 36.7945 25.3229 37.1815C25.7821 37.4204 26.2604 37.6054 26.7603 37.7403L26.1651 39.1047L28.2981 39.3829L28.905 37.9923C29.418 37.9782 29.9195 37.9136 30.4086 37.7909C31.2703 37.5769 32.0261 37.2209 32.6763 36.7265C33.3265 36.2322 33.801 35.6395 34.1019 34.9502C34.3531 34.3755 34.4235 33.8505 34.3114 33.3775C34.2016 32.9062 33.9117 32.4711 33.444 32.0741Z" fill="#FFDD15"/>
<path d="M30.3312 29.2558C30.5358 29.1383 30.7837 29.0603 31.0725 29.0163C31.3614 28.9742 31.665 28.9727 31.9794 29.0141C32.4361 29.0731 32.8493 29.2095 33.2146 29.4199C33.5799 29.6304 33.9167 29.9225 34.2249 30.2961L36.9224 28.4714C36.4756 27.9207 35.9279 27.4708 35.2734 27.1243C34.8376 26.8925 34.3685 26.716 33.8678 26.5928L34.4548 25.2484L32.3218 24.9702L31.7001 26.3969C31.2749 26.4208 30.8558 26.4825 30.4429 26.5837C29.5805 26.792 28.8234 27.1347 28.173 27.608C27.5208 28.0834 27.0538 28.6485 26.7659 29.3057C26.7226 29.4042 26.6854 29.502 26.6544 29.5992L30.386 33.6543C30.4645 33.6939 30.5368 33.7323 30.5966 33.77C30.8086 33.899 30.9422 34.0286 30.9934 34.1611C31.0162 34.2201 31.0271 34.2841 31.0237 34.3496L32.9784 36.475C33.4732 36.0355 33.8472 35.5282 34.0983 34.9535C34.3495 34.3787 34.4199 33.8538 34.3078 33.3807C34.1978 32.9075 33.9078 32.4725 33.4401 32.0754C32.9724 31.6784 32.3236 31.3082 31.4917 30.9651L30.9773 30.7513C30.6652 30.6138 30.4227 30.49 30.2521 30.3815C30.0795 30.2733 29.9665 30.1626 29.9095 30.0537C29.8523 29.9428 29.854 29.8219 29.9104 29.6913C29.9871 29.5184 30.1265 29.3714 30.3312 29.2558Z" fill="#FFEE71"/>
<path d="M31.3897 21.1777C31.3401 20.7096 31.2565 20.2527 31.145 19.8045C24.4256 20.6466 18.1134 25.3324 16.2198 31.2943C15.7396 32.8075 15.5832 34.2769 15.7144 35.6525C15.8824 35.6385 16.0501 35.6227 16.2197 35.6047C25.3397 34.6406 32.1315 28.181 31.3897 21.1777Z" fill="#D87D13"/>
<path d="M31.1847 19.2584C31.9144 26.1479 25.8405 32.4395 17.6178 33.3105C9.3951 34.1815 2.13806 29.3038 1.4081 22.4124L1.06641 19.1865L30.843 16.0325L31.1847 19.2584Z" fill="#D87D13"/>
<path d="M17.2654 29.9855C25.488 29.1146 31.5621 22.8232 30.8323 15.9334C30.1025 9.04359 22.8452 4.16434 14.6227 5.0353C6.40008 5.90625 0.325985 12.1976 1.05577 19.0874C1.78556 25.9772 9.04288 30.8565 17.2654 29.9855Z" fill="#FFDD15"/>
<path d="M14.6227 5.0353C6.39997 5.90627 0.326013 12.1979 1.05577 19.0874L30.8323 15.9334C30.1026 9.04385 22.8453 4.16433 14.6227 5.0353Z" fill="#FFEE71"/>
<path d="M17.0457 27.8986C23.8904 27.1736 28.9465 21.9357 28.3389 16.1995C27.7313 10.4632 21.69 6.40075 14.8454 7.12575C8.00081 7.85075 2.94471 13.0886 3.55231 18.8249C4.15991 24.5612 10.2011 28.6236 17.0457 27.8986Z" fill="#FABF03"/>
<path d="M14.8444 7.12575C7.99903 7.85083 2.94363 13.0877 3.55133 18.8249L28.3399 16.1992C27.7302 10.4623 21.6899 6.40066 14.8444 7.12575Z" fill="#F7C908"/>
<path d="M14.9066 7.71254C21.6335 7.00001 27.5856 10.9119 28.3648 16.4929C28.3587 16.3958 28.3503 16.297 28.3398 16.1985C27.7323 10.4632 21.6898 6.3999 14.8464 7.12477C8.00098 7.84986 2.94559 13.0868 3.55329 18.8239C3.56373 18.9225 3.57601 19.019 3.59053 19.1171C3.17915 13.4971 8.17765 8.42529 14.9066 7.71254Z" fill="#D87D13"/>
<path d="M18.6939 16.5385C18.0571 16.282 17.266 16.0898 16.3185 15.9621L15.7315 15.8824C15.3702 15.8268 15.0829 15.7671 14.8679 15.7075C14.6528 15.6479 14.492 15.5729 14.3835 15.4847C14.275 15.3966 14.2137 15.2861 14.1998 15.1554C14.1811 14.9791 14.2362 14.8161 14.3666 14.6624C14.4973 14.5106 14.6861 14.3813 14.9314 14.2787C15.1786 14.1739 15.4586 14.1059 15.7733 14.0726C16.229 14.0243 16.6786 14.0553 17.1264 14.1669C17.5742 14.2785 18.0346 14.4694 18.5117 14.7408L20.0811 12.4682C19.3852 12.0628 18.6462 11.7769 17.8636 11.6068C17.3412 11.4935 16.8147 11.4381 16.2878 11.4383L16.1438 10.0794L14.0207 10.3043L14.1735 11.7466C13.7912 11.8638 13.4353 12.0145 13.1015 12.1994C12.4086 12.5833 11.881 13.0646 11.5189 13.6454C11.1567 14.2243 11.0119 14.8472 11.0821 15.5105C11.1699 16.3388 11.5693 17.0075 12.278 17.5151C12.9889 18.0225 13.9716 18.3458 15.2302 18.4846L15.8236 18.5463C16.2897 18.5966 16.6537 18.6577 16.915 18.7259C17.1766 18.7959 17.3679 18.8849 17.4849 18.9952C17.602 19.1054 17.6704 19.2439 17.6885 19.4144C17.7099 19.6172 17.6612 19.8006 17.542 19.9628C17.4228 20.1249 17.2407 20.2592 16.9978 20.3654C16.7549 20.4716 16.4546 20.5437 16.097 20.5816C15.5617 20.6383 15.0269 20.6029 14.4949 20.4772C13.9627 20.3496 13.4503 20.1355 12.9575 19.8331L11.3311 22.0945C12.0676 22.5321 12.8798 22.8447 13.7673 23.0305C14.3146 23.145 14.8543 23.2067 15.3864 23.2174L15.5324 24.5953L17.6555 24.3704L17.5065 22.9641C17.9765 22.8357 18.4066 22.6637 18.7987 22.4439C19.4889 22.0545 20.009 21.5606 20.359 20.9638C20.7091 20.3671 20.847 19.7181 20.7733 19.0225C20.7117 18.4406 20.5085 17.9466 20.1636 17.5385C19.8205 17.1283 19.3306 16.7949 18.6939 16.5385Z" fill="white"/>
<path d="M19.175 17.0592C18.5383 16.8028 17.7472 16.6106 16.7997 16.4829L16.2127 16.4032C15.8514 16.3476 15.564 16.2879 15.349 16.2283C15.134 16.1686 14.9732 16.0937 14.8646 16.0055C14.7561 15.9174 14.6948 15.8069 14.681 15.6762C14.6623 15.4999 14.7174 15.3369 14.8478 15.1832C14.9784 15.0313 15.1672 14.9021 15.4126 14.7994C15.6598 14.6947 15.9398 14.6267 16.2545 14.5933C16.7101 14.5451 17.1598 14.576 17.6076 14.6877C18.0554 14.7993 18.5157 14.9901 18.9929 15.2616L20.5623 12.989C19.8666 12.5855 19.1275 12.2996 18.345 12.1295C17.8226 12.0162 17.296 11.9608 16.7691 11.961L16.6252 10.602L14.5041 10.8267L14.6569 12.2691C14.2746 12.3862 13.9187 12.537 13.5849 12.7219C12.892 13.1057 12.3644 13.5871 12.0023 14.1679C11.6401 14.7467 11.4953 15.3696 11.5655 16.033C11.6533 16.8612 12.0526 17.53 12.7614 18.0376C13.4723 18.5449 14.455 18.8682 15.7136 19.0071L16.307 19.0688C16.7731 19.1191 17.1371 19.1802 17.3984 19.2483C17.66 19.3184 17.8513 19.4074 17.9683 19.5176C18.0854 19.6279 18.1538 19.7663 18.1719 19.9369C18.1933 20.1397 18.1446 20.3231 18.0254 20.4852C17.9062 20.6474 17.7241 20.7816 17.4812 20.8879C17.2383 20.9941 16.938 21.0661 16.5804 21.104C16.045 21.1607 15.5103 21.1254 14.9783 20.9996C14.4461 20.872 13.9337 20.658 13.4409 20.3556L11.8145 22.617C12.551 23.0545 13.3632 23.3672 14.2507 23.553C14.798 23.6675 15.3377 23.7292 15.8698 23.7399L16.0158 25.1178L18.1389 24.8929L17.9899 23.4865C18.4599 23.3582 18.89 23.1861 19.2821 22.9664C19.9723 22.577 20.4924 22.083 20.8424 21.4863C21.1925 20.8896 21.3304 20.2406 21.2567 19.545C21.1951 18.9631 20.9919 18.4691 20.647 18.0609C20.3037 17.6488 19.8118 17.3157 19.175 17.0592Z" fill="#D87D13"/>
<path d="M18.9233 16.7027C18.2865 16.4463 17.4954 16.2541 16.5479 16.1264L15.9609 16.0467C15.5996 15.9911 15.3123 15.9314 15.0973 15.8718C14.8822 15.8121 14.7214 15.7372 14.6129 15.649C14.5044 15.5608 14.4431 15.4504 14.4292 15.3196C14.4105 15.1434 14.4656 14.9804 14.596 14.8267C14.7267 14.6748 14.9155 14.5456 15.1608 14.4429C15.408 14.3382 15.688 14.2702 16.0027 14.2368C16.4584 14.1886 16.908 14.2195 17.3558 14.3312C17.8036 14.4428 18.264 14.6336 18.7411 14.9051L20.3124 12.6304C19.6167 12.2268 18.8776 11.941 18.0951 11.7709C17.5727 11.6575 17.0461 11.6022 16.5192 11.6024L16.3753 10.2434L14.2522 10.4683L14.4049 11.9107C14.0227 12.0278 13.6667 12.1786 13.3329 12.3635C12.6401 12.7473 12.1125 13.2287 11.7504 13.8095C11.3881 14.3883 11.2433 15.0112 11.3136 15.6746C11.4013 16.5028 11.8007 17.1716 12.5095 17.6792C13.2203 18.1865 14.203 18.5098 15.4617 18.6487L16.055 18.7104C16.5212 18.7607 16.8851 18.8218 17.1465 18.8899C17.4081 18.96 17.5993 19.049 17.7164 19.1592C17.8334 19.2695 17.9018 19.4079 17.9199 19.5785C17.9414 19.7813 17.8926 19.9647 17.7734 20.1268C17.6542 20.289 17.4721 20.4232 17.2292 20.5295C16.9863 20.6357 16.6861 20.7077 16.3285 20.7456C15.7931 20.8023 15.2583 20.767 14.7263 20.6412C14.1942 20.5136 13.6818 20.2996 13.189 19.9972L11.5626 22.2586C12.2991 22.6961 13.1112 23.0088 13.9987 23.1946C14.5461 23.3091 15.0857 23.3708 15.6179 23.3815L15.7638 24.7594L17.8869 24.5345L17.738 23.1282C18.2079 22.9998 18.6381 22.8277 19.0301 22.608C19.7204 22.2186 20.2404 21.7246 20.5905 21.1279C20.9405 20.5312 21.0784 19.8822 21.0048 19.1866C20.9431 18.6047 20.7399 18.1107 20.395 17.7025C20.052 17.2923 19.5602 16.9611 18.9233 16.7027Z" fill="#FFDD15"/>
<path d="M18.9242 16.7038C18.2875 16.4473 17.4964 16.2551 16.5489 16.1274L15.9618 16.0478C15.6005 15.9921 15.3132 15.9325 15.0982 15.8729C14.8832 15.8132 14.7223 15.7383 14.6138 15.6501C14.5053 15.5619 14.444 15.4515 14.4301 15.3207C14.4115 15.1445 14.4665 14.9815 14.5969 14.8277C14.7276 14.6759 14.9164 14.5467 15.1617 14.444C15.4089 14.3392 15.6889 14.2712 16.0036 14.2379C16.4593 14.1896 16.9089 14.2206 17.3567 14.3322C17.8046 14.4439 18.2649 14.6347 18.7421 14.9062L20.3133 12.6315C19.6176 12.2279 18.8785 11.942 18.096 11.7719C17.5736 11.6586 17.047 11.6032 16.5201 11.6035L16.3762 10.2445L14.2531 10.4694L14.4059 11.9117C14.0236 12.0289 13.6676 12.1797 13.3339 12.3645C12.641 12.7484 12.1134 13.2298 11.7513 13.8105C11.389 14.3894 11.2442 15.0123 11.3145 15.6757C11.4022 16.5039 11.8016 17.1727 12.5104 17.6802C12.5953 17.7402 12.682 17.7981 12.7744 17.8516L19.722 17.1157C19.4868 16.9624 19.2222 16.8256 18.9242 16.7038Z" fill="#FFEE71"/>
</g>
<defs>
<clipPath id="clip0_726_6063">
<rect width="52" height="52" fill="white" transform="translate(0 0.5)"/>
</clipPath>
</defs>
</svg>
