<svg width="18" height="18" viewBox="0 0 18 18" fill="none" xmlns="http://www.w3.org/2000/svg">
<g clip-path="url(#clip0_828_6127)">
<path d="M6.75 8.25195C6.75 8.84869 6.98705 9.42099 7.40901 9.84294C7.83097 10.2649 8.40326 10.502 9 10.502C9.59674 10.502 10.169 10.2649 10.591 9.84294C11.0129 9.42099 11.25 8.84869 11.25 8.25195C11.25 7.65522 11.0129 7.08292 10.591 6.66096C10.169 6.23901 9.59674 6.00195 9 6.00195C8.40326 6.00195 7.83097 6.23901 7.40901 6.66096C6.98705 7.08292 6.75 7.65522 6.75 8.25195Z" stroke="#7A7A7A" stroke-linecap="round" stroke-linejoin="round"/>
<path d="M13.2428 12.4945L10.0605 15.6767C9.77924 15.9577 9.39794 16.1155 9.00038 16.1155C8.60282 16.1155 8.22151 15.9577 7.94025 15.6767L4.75725 12.4945C3.91817 11.6554 3.34675 10.5863 3.11527 9.42238C2.88378 8.2585 3.00262 7.05212 3.45676 5.95578C3.91089 4.85944 4.67993 3.92239 5.66661 3.26311C6.6533 2.60384 7.81333 2.25195 9 2.25195C10.1867 2.25195 11.3467 2.60384 12.3334 3.26311C13.3201 3.92239 14.0891 4.85944 14.5433 5.95578C14.9974 7.05212 15.1162 8.2585 14.8847 9.42238C14.6533 10.5863 14.0818 11.6554 13.2428 12.4945Z" stroke="#7A7A7A" stroke-linecap="round" stroke-linejoin="round"/>
</g>
<defs>
<clipPath id="clip0_828_6127">
<rect width="18" height="18" fill="white" transform="translate(0 0.00195312)"/>
</clipPath>
</defs>
</svg>
