<svg width="14" height="15" viewBox="0 0 14 15" fill="none" xmlns="http://www.w3.org/2000/svg">
<path d="M7.30613 12.3234C7.21675 12.3872 7.10969 12.4215 6.99988 12.4215C6.89007 12.4215 6.78301 12.3872 6.69363 12.3234C4.05277 10.4411 1.25004 6.56922 4.0834 3.77141C4.86097 3.00585 5.90868 2.57718 6.99988 2.57813C8.09363 2.57813 9.14308 3.00742 9.91636 3.77086C12.7497 6.56867 9.94699 10.44 7.30613 12.3234Z" stroke="white" stroke-linecap="round" stroke-linejoin="round"/>
<path d="M7 7.5C7.29008 7.5 7.56828 7.38477 7.7734 7.17965C7.97852 6.97453 8.09375 6.69633 8.09375 6.40625C8.09375 6.11617 7.97852 5.83797 7.7734 5.63285C7.56828 5.42773 7.29008 5.3125 7 5.3125C6.70992 5.3125 6.43172 5.42773 6.2266 5.63285C6.02148 5.83797 5.90625 6.11617 5.90625 6.40625C5.90625 6.69633 6.02148 6.97453 6.2266 7.17965C6.43172 7.38477 6.70992 7.5 7 7.5Z" stroke="white" stroke-linecap="round" stroke-linejoin="round"/>
</svg>
