<svg width="21" height="20" viewBox="0 0 21 20" fill="none" xmlns="http://www.w3.org/2000/svg">
<g clip-path="url(#clip0_474_9257)">
<path d="M15.2002 10C12.4427 10 10.2002 12.2425 10.2002 15C10.2002 17.7575 12.4427 20 15.2002 20C17.9577 20 20.2002 17.7575 20.2002 15C20.2002 12.2425 17.9577 10 15.2002 10ZM15.2002 11.6667C15.4221 11.6616 15.6429 11.701 15.8494 11.7825C16.0559 11.8639 16.2441 11.9858 16.4028 12.141C16.5616 12.2962 16.6878 12.4815 16.7739 12.6861C16.8601 12.8907 16.9045 13.1105 16.9045 13.3325C16.9046 13.5545 16.8603 13.7743 16.7742 13.9789C16.6882 14.1836 16.5621 14.369 16.4034 14.5242C16.2447 14.6795 16.0566 14.8015 15.8502 14.883C15.6437 14.9646 15.423 15.0041 15.201 14.9992C14.7656 14.9895 14.3512 14.8098 14.0466 14.4985C13.7419 14.1871 13.5713 13.7689 13.5712 13.3333C13.5711 12.8977 13.7415 12.4794 14.046 12.1679C14.3504 11.8564 14.7647 11.6765 15.2002 11.6667ZM17.7002 17.2025C17.3878 17.5579 17.0033 17.8426 16.5722 18.0377C16.1411 18.2327 15.6734 18.3336 15.2002 18.3336C14.727 18.3336 14.2593 18.2327 13.8282 18.0377C13.3971 17.8426 13.0126 17.5579 12.7002 17.2025V17.0833C12.7002 16.7518 12.8319 16.4339 13.0663 16.1994C13.3007 15.965 13.6187 15.8333 13.9502 15.8333H16.4502C16.7817 15.8333 17.0997 15.965 17.3341 16.1994C17.5685 16.4339 17.7002 16.7518 17.7002 17.0833V17.2025ZM0.200195 6.66667V5.83333C0.200195 3.53583 2.06936 1.66667 4.36686 1.66667H5.2002V0.833333C5.2002 0.61232 5.28799 0.400358 5.44427 0.244078C5.60055 0.0877974 5.81251 0 6.03353 0C6.25454 0 6.4665 0.0877974 6.62278 0.244078C6.77906 0.400358 6.86686 0.61232 6.86686 0.833333V1.66667H13.5335V0.833333C13.5335 0.61232 13.6213 0.400358 13.7776 0.244078C13.9339 0.0877974 14.1458 0 14.3669 0C14.5879 0 14.7998 0.0877974 14.9561 0.244078C15.1124 0.400358 15.2002 0.61232 15.2002 0.833333V1.66667H16.0335C18.331 1.66667 20.2002 3.53583 20.2002 5.83333V6.66667H0.200195ZM10.791 20H4.36686C2.06936 20 0.200195 18.1308 0.200195 15.8333V8.33333H15.2002C13.8461 8.33342 12.5241 8.74585 11.4102 9.51575C10.2962 10.2856 9.44315 11.3765 8.96444 12.6432C8.48573 13.9098 8.4041 15.2922 8.73039 16.6065C9.05669 17.9207 9.77545 19.1043 10.791 20Z" fill="white"/>
</g>
<defs>
<clipPath id="clip0_474_9257">
<rect width="20" height="20" fill="white" transform="translate(0.200195)"/>
</clipPath>
</defs>
</svg>
