<svg width="52" height="53" viewBox="0 0 52 53" fill="none" xmlns="http://www.w3.org/2000/svg">
<g clip-path="url(#clip0_726_7025)">
<rect width="52" height="52" transform="translate(0 0.5)" fill="white"/>
<path d="M18.2984 32.5946C16.6572 31.9822 14.9553 32.119 13.7004 32.8294L21.6229 35.7858C21.1376 34.426 19.9395 33.207 18.2984 32.5946Z" fill="#FFC500"/>
<path d="M21.6231 35.785L13.7005 32.8286C14.1858 34.1888 15.3839 35.4078 17.025 36.0201C18.6662 36.6326 20.3681 36.4958 21.6231 35.785Z" fill="#FFD900"/>
<path d="M20.5985 31.6801C20.3075 33.1073 20.8135 34.5543 21.8248 35.595L23.23 28.7049C21.9101 29.1777 20.8896 30.2528 20.5985 31.6801Z" fill="#FFAC00"/>
<path d="M23.2285 28.7041L21.8233 35.5942C23.1437 35.1216 24.1642 34.0464 24.4552 32.6192C24.7463 31.1919 24.2403 29.7449 23.2285 28.7041Z" fill="#FFB800"/>
<path d="M16.401 27.1405C15.1157 26.151 13.5146 25.7858 12.1221 26.0386L18.3268 30.8155C18.3563 29.5134 17.6863 28.1301 16.401 27.1405Z" fill="#FFC500"/>
<path d="M18.3267 30.816L12.1221 26.0391C12.0923 27.3414 12.7624 28.7247 14.0477 29.7143C15.3329 30.7037 16.9341 31.069 18.3267 30.816Z" fill="#FFD900"/>
<path d="M18.7702 26.8006C17.9452 28.035 17.901 29.5324 18.5091 30.808L22.4917 24.8491C21.0088 24.8823 19.5952 25.5663 18.7702 26.8006Z" fill="#FFAC00"/>
<path d="M22.4922 24.8487L18.5095 30.8077C19.9929 30.7746 21.4065 30.0907 22.2314 28.8563C23.0564 27.6219 23.1007 26.1245 22.4922 24.8487Z" fill="#FFB800"/>
<path d="M16.5826 20.8949C15.6723 19.5332 14.1905 18.6623 12.6733 18.4478L17.0682 25.0216C17.62 23.7922 17.4931 22.2567 16.5826 20.8949Z" fill="#FFC500"/>
<path d="M17.0683 25.0215L12.6733 18.4477C12.1212 19.6774 12.2482 21.2129 13.1585 22.5746C14.0689 23.9363 15.5507 24.8072 17.0683 25.0215Z" fill="#FFD900"/>
<path d="M19.0585 21.0295C17.6914 21.9574 17.0301 23.4033 17.14 24.8515L23.7395 20.3723C22.18 19.908 20.4255 20.1017 19.0585 21.0295Z" fill="#FFAC00"/>
<path d="M23.7391 20.3725L17.1396 24.8517C18.6994 25.3164 20.4539 25.1227 21.8209 24.1948C23.188 23.267 23.8493 21.8211 23.7391 20.3725Z" fill="#FFB800"/>
<path d="M18.3284 14.2975C17.6799 12.8236 16.3593 11.7365 14.8737 11.2836L18.0044 18.3989C18.8023 17.2889 18.9769 15.7714 18.3284 14.2975Z" fill="#FFC500"/>
<path d="M18.0053 18.4003L14.8747 11.2849C14.0764 12.395 13.9017 13.9125 14.5502 15.3864C15.1988 16.8603 16.5193 17.9475 18.0053 18.4003Z" fill="#FFD900"/>
<path d="M20.4348 15.365C18.942 16.0207 18.0317 17.2686 17.8646 18.6372L25.0714 15.4716C23.6555 14.7983 21.9277 14.7092 20.4348 15.365Z" fill="#FFAC00"/>
<path d="M25.0721 15.4709L17.8653 18.6365C19.2814 19.3101 21.0092 19.3991 22.5021 18.7434C23.9949 18.0876 24.9051 16.8398 25.0721 15.4709Z" fill="#FFB800"/>
<path d="M21.2333 9.02073C20.817 7.52427 19.6799 6.31666 18.2842 5.69824L20.2937 12.9222C21.248 11.9539 21.6496 10.5171 21.2333 9.02073Z" fill="#FFC500"/>
<path d="M20.2936 12.9225L18.2841 5.69846C17.3294 6.66688 16.9278 8.1036 17.344 9.60002C17.7602 11.0965 18.8975 12.3041 20.2936 12.9225Z" fill="#FFD900"/>
<path d="M23.129 10.301C21.6232 10.7287 20.5821 11.7708 20.2257 13.0121L27.4951 10.9474C26.2547 10.1598 24.6348 9.87332 23.129 10.301Z" fill="#FFAC00"/>
<path d="M27.4948 10.9475L20.2254 13.0121C21.4659 13.8002 23.0858 14.0866 24.5916 13.6589C26.0975 13.2312 27.1385 12.1891 27.4948 10.9475Z" fill="#FFB800"/>
<path d="M25.4585 6.40318C23.6625 7.94658 22.0951 9.7503 20.8265 11.7504C19.5758 13.7224 18.617 15.8787 17.997 18.1303C17.3807 20.3686 17.0945 22.7029 17.1743 25.0241C17.2523 27.2971 17.7164 29.5719 18.7675 31.6025C19.8682 33.7288 21.5025 35.5225 23.1405 37.245C23.3475 37.4627 23.5553 37.6797 23.7632 37.8966C23.7906 37.9252 23.8388 37.8864 23.8113 37.8577C22.167 36.1418 20.49 34.4052 19.2599 32.3567C18.0694 30.3741 17.4534 28.1332 17.28 25.8362C17.1055 23.5234 17.3186 21.1728 17.8577 18.9187C18.3976 16.6619 19.2755 14.4877 20.4497 12.4864C21.6328 10.4697 23.115 8.62981 24.8325 7.04322C25.0505 6.84184 25.2724 6.64476 25.4974 6.45127C25.5276 6.42533 25.4887 6.37726 25.4585 6.40318Z" fill="#FFD300"/>
<path d="M26.9866 7.36392C27.9955 6.18902 28.2257 4.66786 27.7509 3.30712L22.8802 8.97893C24.425 9.09382 25.9776 8.53881 26.9866 7.36392Z" fill="#FFC500"/>
<path d="M22.8799 8.97836L27.7505 3.30655C26.2054 3.1914 24.6528 3.74641 23.6438 4.92129C22.6349 6.09625 22.4046 7.61742 22.8799 8.97836Z" fill="#FFD900"/>
<path d="M28.2964 36.3731C29.9324 36.999 31.1186 38.2272 31.5901 39.59L23.6922 36.5682C24.9555 35.8691 26.6603 35.7471 28.2964 36.3731Z" fill="#FFC500"/>
<path d="M23.6924 36.5674L31.5902 39.5891C30.3267 40.2886 28.6219 40.4106 26.9859 39.7846C25.3499 39.1587 24.1637 37.9305 23.6924 36.5674Z" fill="#FFD900"/>
<path d="M27.1732 34.166C26.4476 35.4291 25.1111 36.1799 23.6643 36.2917L27.1668 30.1941C27.8443 31.4216 27.8988 32.9029 27.1732 34.166Z" fill="#FFAC00"/>
<path d="M27.1687 30.1941L23.6662 36.2917C22.9883 35.064 22.9339 33.5826 23.6595 32.3196C24.385 31.0565 25.7215 30.3057 27.1687 30.1941Z" fill="#FFB800"/>
<path d="M33.3275 33.5365C34.946 33.6442 36.3886 34.4291 37.2658 35.5396L29.4526 35.0195C30.2916 34.0233 31.709 33.4288 33.3275 33.5365Z" fill="#FFC500"/>
<path d="M29.4526 35.019L37.2658 35.5391C36.4269 36.5357 35.0094 37.1302 33.391 37.0225C31.7724 36.9147 30.3299 36.1299 29.4526 35.019Z" fill="#FFD900"/>
<path d="M31.7714 31.7131C31.5739 33.1846 30.6169 34.3371 29.3171 34.8917L30.2705 27.7881C31.3609 28.7937 31.9689 30.2416 31.7714 31.7131Z" fill="#FFAC00"/>
<path d="M30.2715 27.7886L29.3181 34.8923C28.2273 33.8865 27.6192 32.4386 27.8167 30.9672C28.0142 29.4956 28.9712 28.3431 30.2715 27.7886Z" fill="#FFB800"/>
<path d="M37.3241 28.7338C38.9075 28.3144 40.5949 28.6412 41.8748 29.4836L34.2308 31.5081C34.6299 30.221 35.7406 29.1533 37.3241 28.7338Z" fill="#FFC500"/>
<path d="M34.2309 31.5082L41.875 29.4836C41.476 30.7711 40.3653 31.839 38.7818 32.2583C37.1984 32.6777 35.5109 32.351 34.2309 31.5082Z" fill="#FFD900"/>
<path d="M35.3784 27.196C35.7902 28.7961 35.33 30.318 34.2898 31.3316L32.3018 23.6074C33.7786 24.2905 34.9666 25.5959 35.3784 27.196Z" fill="#FFAC00"/>
<path d="M32.3005 23.6074L34.2885 31.3316C32.8112 30.6486 31.6233 29.3431 31.2115 27.743C30.7997 26.143 31.2599 24.6211 32.3005 23.6074Z" fill="#FFB800"/>
<path d="M40.3761 22.6299C41.8372 21.9531 43.5468 22.011 44.9606 22.6538L37.9067 25.9206C38.0423 24.5604 38.9148 23.3066 40.3761 22.6299Z" fill="#FFC500"/>
<path d="M37.9066 25.9196L44.9604 22.6528C44.8251 24.0134 43.9526 25.2671 42.4913 25.9439C41.0301 26.6206 39.3206 26.5627 37.9066 25.9196Z" fill="#FFD900"/>
<path d="M38.0895 22.0364C38.7757 23.5156 38.6332 25.0536 37.8535 26.1907L34.5411 19.0501C36.0484 19.4815 37.4034 20.5573 38.0895 22.0364Z" fill="#FFAC00"/>
<path d="M34.5404 19.0493L37.8528 26.1898C36.3451 25.7586 34.9901 24.6827 34.304 23.2036C33.6179 21.7245 33.7603 20.1865 34.5404 19.0493Z" fill="#FFB800"/>
<path d="M41.6866 16.7497C42.9884 15.9025 44.6401 15.7487 46.0959 16.2078L39.8112 20.2976C39.7358 18.9402 40.3847 17.5969 41.6866 16.7497Z" fill="#FFC500"/>
<path d="M39.8106 20.2975L46.0954 16.2077C46.171 17.5655 45.5221 18.9087 44.2203 19.756C42.9184 20.6032 41.2668 20.757 39.8106 20.2975Z" fill="#FFD900"/>
<path d="M39.4154 16.4549C40.2622 17.7716 40.3539 19.2418 39.8003 20.4085L35.7129 14.0525C37.1643 14.2819 38.5688 15.1383 39.4154 16.4549Z" fill="#FFAC00"/>
<path d="M35.7132 14.053L39.8005 20.4091C38.3488 20.1799 36.9443 19.3234 36.0977 18.0068C35.2511 16.6901 35.1593 15.2199 35.7132 14.053Z" fill="#FFB800"/>
<path d="M40.1881 12.0027C40.5127 14.3345 40.4964 16.7095 40.1297 19.0355C39.7682 21.3285 39.0684 23.567 38.0551 25.6555C37.0439 27.7399 35.7199 29.6777 34.1326 31.3661C32.5588 33.0401 30.6862 34.4524 28.5302 35.2813C26.3169 36.1321 23.9265 36.392 21.5812 36.5988C21.2819 36.6252 20.9825 36.6506 20.6831 36.6758C20.6435 36.6791 20.654 36.7401 20.6935 36.7368C23.076 36.5358 25.4947 36.3391 27.7849 35.608C29.9999 34.901 31.953 33.6123 33.6067 31.9912C35.2477 30.3825 36.6269 28.4999 37.7075 26.4738C38.8022 24.4213 39.5867 22.2061 40.0351 19.9238C40.4902 17.6071 40.5976 15.2246 40.3564 12.8762C40.3261 12.581 40.29 12.2863 40.2491 11.9924C40.2436 11.9529 40.1826 11.9632 40.1881 12.0027Z" fill="#FFD300"/>
<path d="M38.4679 11.7021C38.488 10.1535 39.3213 8.86024 40.5774 8.1536L40.48 15.6291C39.2453 14.6937 38.4477 13.2506 38.4679 11.7021Z" fill="#FFC500"/>
<path d="M40.4797 15.6288L40.5771 8.15332C41.8123 9.08875 42.6099 10.5319 42.5897 12.0804C42.5695 13.629 41.7362 14.9223 40.4797 15.6288Z" fill="#FFD900"/>
<path d="M33.785 19.2001C33.3826 19.5902 32.9567 20.026 32.5191 20.5075C30.6257 18.6369 28.1983 17.3089 25.5999 16.7303C25.5873 16.5107 25.5729 16.2972 25.5566 16.0909L33.785 19.2001Z" fill="#FFD300"/>
<path d="M32.5188 20.5079C30.9653 22.2167 29.264 24.4992 27.9382 27.3408C27.3154 27.4989 26.6508 27.4932 26.0315 27.3198C25.4408 27.1544 24.8941 26.8371 24.454 26.4104L24.454 26.4102C24.8702 25.0655 25.1545 23.7526 25.3405 22.5019C25.4844 22.6205 25.6325 22.7338 25.7845 22.8413C26.217 23.1475 26.715 23.4172 27.2442 23.391C27.9282 23.3569 28.5177 22.802 28.7169 22.1466C28.916 21.4915 28.7732 20.7685 28.4587 20.1601C27.9102 19.0997 26.8185 18.3571 25.6442 18.1718C25.641 17.6665 25.6248 17.1849 25.5995 16.7307C28.198 17.3093 30.6253 18.6373 32.5188 20.5079Z" fill="#FFDE00"/>
<path d="M25.314 14.0168C25.3998 14.0682 25.4863 14.1185 25.5734 14.1679C28.1567 15.6339 31.2407 16.2103 34.178 15.7612L36.7484 16.7325C36.7484 16.7325 36.5632 16.8532 36.2399 17.0933L36.2395 17.0937L34.8806 18.1914C34.8449 18.2223 34.8087 18.2541 34.7716 18.2866L25.4165 14.7516C25.4129 14.7232 25.4094 14.6949 25.4056 14.667C25.4021 14.639 25.3982 14.6113 25.3946 14.5838L25.314 14.0168Z" fill="#FFDE00"/>
<path d="M25.107 12.8878C25.0956 12.8328 25.0842 12.7814 25.0736 12.7336C25.008 12.4383 24.9639 12.2803 24.9639 12.2803L34.1803 15.763C31.2432 16.212 28.1591 15.6356 25.5758 14.1696C25.4887 14.1202 25.4022 14.0699 25.3164 14.0185L25.107 12.8878Z" fill="#FFE100"/>
<path d="M35.4354 18.8681C35.4285 18.8865 35.4211 18.9046 35.4129 18.9221C35.3205 19.1255 35.1588 19.2793 34.9663 19.3661C34.7573 19.4607 34.5125 19.4756 34.2823 19.3886L25.056 15.9022C24.6139 15.7351 24.3803 15.2501 24.5165 14.8047C24.5219 14.786 24.5283 14.7675 24.5352 14.7492C24.5653 14.6697 24.6252 14.6096 24.6972 14.5771C24.7697 14.5444 24.8543 14.5392 24.9338 14.5693L35.2555 18.4696C35.2629 18.4724 35.2703 18.4755 35.2773 18.4789C35.2843 18.4821 35.2915 18.4857 35.298 18.4896C35.3058 18.4939 35.3131 18.4986 35.3203 18.5035C35.3258 18.5072 35.3312 18.5111 35.3363 18.515C35.3423 18.5197 35.3481 18.5247 35.3536 18.5298C35.3592 18.5347 35.3646 18.54 35.3697 18.5455C35.3802 18.5564 35.3896 18.5679 35.3981 18.5803C35.4036 18.5884 35.409 18.5968 35.414 18.6053C35.419 18.614 35.4234 18.6226 35.4274 18.6318C35.4304 18.6385 35.4332 18.6456 35.4358 18.6524C35.4384 18.6595 35.4408 18.6664 35.443 18.6736C35.4485 18.6927 35.4521 18.7122 35.4539 18.7322C35.4551 18.7445 35.4554 18.7568 35.4551 18.769C35.4549 18.7734 35.4546 18.7776 35.4543 18.7822C35.4534 18.7946 35.4519 18.8066 35.4492 18.8188C35.4484 18.824 35.4473 18.8291 35.4459 18.8344C35.445 18.8382 35.4439 18.8419 35.4427 18.8458C35.4418 18.8488 35.441 18.8518 35.4399 18.8547C35.4393 18.8569 35.4385 18.8591 35.4376 18.8613C35.4372 18.8636 35.4362 18.866 35.4354 18.8681Z" fill="#FFE100"/>
<path d="M26.6887 30.54C26.688 30.5331 26.6873 30.5262 26.6862 30.5195C26.5801 29.691 26.1503 29.0151 25.4729 28.7591C24.9587 28.5648 24.3915 28.6465 23.8736 28.9382C23.7092 29.0306 23.5499 29.1443 23.3986 29.2772C23.3972 29.2877 23.3959 29.2982 23.3949 29.3091C23.3909 29.3034 23.3869 29.2973 23.3833 29.291C22.983 29.6474 22.6416 30.1377 22.4205 30.7227C22.0537 31.6935 22.1076 32.688 22.4912 33.3852C22.7029 33.7699 23.0146 34.064 23.4116 34.214C23.8087 34.364 24.237 34.3496 24.6501 34.201C25.399 33.9317 26.0972 33.2214 26.464 32.2507C26.685 31.6656 26.7534 31.0722 26.6887 30.54ZM23.7421 33.3392C22.9838 33.0527 22.6822 31.9908 23.0689 30.9675C23.4555 29.9444 24.3839 29.3473 25.1423 29.6339C25.9007 29.9205 26.2022 30.9823 25.8156 32.0054C25.4289 33.0287 24.5005 33.6258 23.7421 33.3392Z" fill="#FFE100"/>
<path opacity="0.63" d="M27.4544 16.1642C27.3751 16.3741 26.8982 16.3882 26.3893 16.196C25.8804 16.0036 25.532 15.6776 25.6113 15.4678C25.6906 15.258 26.1676 15.2438 26.6764 15.4361C27.1853 15.6284 27.5337 15.9545 27.4544 16.1642Z" fill="#FFED61"/>
<path d="M22.4573 39.5462C23.13 38.7894 23.3342 37.615 23.033 36.623C22.7799 35.7887 22.239 35.0805 21.5683 34.513C21.9955 34.0226 22.3223 33.604 22.4893 33.3842C22.701 33.7689 23.0127 34.063 23.4097 34.213C23.8068 34.363 24.2351 34.3486 24.6482 34.2C24.5751 35.2049 24.3476 39.6068 25.8712 40.8362L22.4573 39.5462Z" fill="#FFD300"/>
<path d="M22.456 39.5446L17.1821 37.5518C18.6022 37.6137 20.4358 35.811 21.5671 34.5115C22.2378 35.0789 22.7787 35.7872 23.0318 36.6214C23.3329 37.6134 23.1288 38.7878 22.456 39.5446Z" fill="#FFDE00"/>
<path d="M26.4193 41.9354L26.4052 41.9728C26.345 42.1319 26.1657 42.2128 26.0066 42.1527L16.2095 38.4506C16.0504 38.3905 15.9694 38.2112 16.0295 38.0521L16.0436 38.0147C16.206 37.5851 16.6906 37.3663 17.1202 37.5286L25.9333 40.8589C26.363 41.0214 26.5816 41.5058 26.4193 41.9354Z" fill="#FFE100"/>
<path d="M23.7456 11.5885C23.5961 11.9747 23.4334 12.3556 23.2576 12.7305C22.7823 12.3481 22.3449 12.1881 21.6469 11.9993C20.7388 13.104 20.5873 14.6394 20.5679 16.0736C20.5642 16.3386 20.5651 16.6037 20.5701 16.869L20.57 16.8692C20.2256 17.2658 19.8501 17.6545 19.4257 17.9591C19.3868 17.5502 19.3588 17.141 19.3419 16.7324C19.2686 14.9653 19.4954 13.2226 20.3141 11.6524C20.4749 11.3443 20.647 10.9567 20.8299 10.6644C21.1441 10.7391 21.5103 10.8439 21.825 10.9369C22.4949 11.1219 23.1598 11.298 23.7456 11.5885Z" fill="#FFDA00"/>
<path d="M25.4189 14.7524L24.9356 14.5698C24.8561 14.5398 24.7714 14.545 24.699 14.5777C24.627 14.6102 24.5671 14.6702 24.537 14.7498C24.5301 14.7681 24.5237 14.7866 24.5183 14.8052C24.3818 14.1412 24.0768 13.494 23.5566 12.9941C23.4539 12.8956 23.3556 12.8082 23.2587 12.7301C23.4345 12.3552 23.5971 11.9742 23.7467 11.588C24.1228 11.7745 24.4661 12.0083 24.7572 12.3219C24.8762 12.4495 25.0148 12.7415 25.107 12.8869C25.1679 13.1727 25.2413 13.5531 25.3142 14.0161C25.3422 14.1937 25.3699 14.3835 25.3969 14.5846C25.4006 14.6121 25.4044 14.6398 25.4079 14.6678C25.4117 14.6957 25.4153 14.7241 25.4189 14.7524Z" fill="#FFD400"/>
<path d="M23.3981 29.2771C23.3929 29.2814 23.3878 29.2861 23.3827 29.2908C22.6898 28.196 22.0802 27.0617 21.5582 25.9L21.5578 25.8991C20.408 23.3415 19.6826 20.6516 19.4273 17.959C19.8517 17.6544 20.2273 17.2658 20.5716 16.8692C20.6488 20.9063 21.7234 24.9526 23.6743 28.576C23.6347 28.6714 23.5944 28.767 23.5536 28.8626C23.5536 28.8626 23.4322 29.0286 23.3981 29.2771Z" fill="#FFD400"/>
<path d="M26.8421 30.1051C26.8421 30.1051 26.8234 30.3099 26.6847 30.5189C26.5785 29.6904 26.1487 29.0144 25.4714 28.7585C24.9572 28.5642 24.3899 28.6459 23.872 28.9376C23.7076 29.03 23.5484 29.1437 23.3971 29.2766C23.4312 29.0281 23.5526 28.8621 23.5526 28.8621C23.5934 28.7665 23.6336 28.6709 23.6733 28.5755C23.9741 27.8481 24.2325 27.1248 24.4539 26.4104C24.8941 26.8371 25.4408 27.1544 26.0315 27.3198C26.6508 27.4932 27.3154 27.4989 27.9382 27.3408C27.574 28.1217 27.238 28.9451 26.9411 29.8103C26.9078 29.9082 26.8747 30.0064 26.8421 30.1051Z" fill="#FFD300"/>
<path d="M38.0469 23.7668C38.0388 23.775 38.0309 23.7836 38.0228 23.7918C35.8768 26.0316 33.2416 27.8694 30.2997 29.2035L30.2987 29.2039C29.139 29.7301 27.9315 30.1777 26.6878 30.5408C26.6871 30.5339 26.6864 30.527 26.6854 30.5203C26.8241 30.3113 26.8428 30.1065 26.8428 30.1065C26.8754 30.0078 26.9085 29.9096 26.9418 29.8117C31.0551 28.29 34.7393 25.7502 37.5389 22.4869C37.5964 22.42 37.6535 22.3526 37.7105 22.2843C37.8085 22.7816 37.9206 23.276 38.0469 23.7668Z" fill="#FFD400"/>
<path d="M38.0451 23.7653C37.9187 23.2745 37.8067 22.7801 37.7087 22.2828C38.5787 21.2421 39.3758 20.0571 39.4222 18.7157C38.6414 18.3303 38.1717 18.1638 37.3322 18.2C37.2969 18.2016 37.2619 18.2037 37.227 18.2065C37.2088 17.7668 37.2017 17.327 37.2057 16.8869C38.1692 16.8962 39.0694 17.352 39.9912 17.8009C40.2888 17.9393 40.6328 18.1029 40.9179 18.2547C40.8617 18.5949 40.7345 18.9994 40.6514 19.3369C40.2299 21.0448 39.2574 22.4942 38.0451 23.7653Z" fill="#FFDA00"/>
<path d="M36.2407 17.0928L36.2411 17.0924C36.4066 17.0445 36.7031 16.9174 36.8765 16.9003C36.9873 16.8892 37.0971 16.8845 37.206 16.8854C37.202 17.3255 37.2091 17.7653 37.2273 18.205C36.5477 18.2573 35.9283 18.5332 35.4135 18.921C35.4217 18.9034 35.4291 18.8853 35.436 18.867C35.4369 18.8648 35.4378 18.8624 35.4384 18.8601C35.4392 18.858 35.44 18.8558 35.4406 18.8535C35.4417 18.8506 35.4426 18.8476 35.4434 18.8446C35.4447 18.8407 35.4458 18.837 35.4466 18.8332C35.4481 18.8279 35.4492 18.8228 35.45 18.8177C35.4527 18.8055 35.4543 18.7933 35.4551 18.781C35.4554 18.7765 35.4557 18.7721 35.4559 18.7679C35.4561 18.7555 35.4558 18.7433 35.4547 18.731C35.4531 18.7111 35.4495 18.6916 35.4438 18.6724C35.4418 18.6653 35.4395 18.6581 35.4366 18.6512C35.4343 18.6443 35.4314 18.6374 35.4284 18.6307L35.4282 18.6307C35.4242 18.6214 35.4198 18.6129 35.4148 18.6041C35.41 18.5957 35.4046 18.5873 35.3989 18.5791C35.3904 18.5667 35.3809 18.5552 35.3705 18.5443C35.3654 18.5389 35.36 18.5335 35.3544 18.5286C35.3489 18.5235 35.3431 18.5185 35.3371 18.5138C35.332 18.51 35.3266 18.506 35.3211 18.5023C35.3139 18.4974 35.3066 18.4926 35.2988 18.4884C35.2923 18.4845 35.2851 18.481 35.2781 18.4778C35.2711 18.4743 35.2637 18.4712 35.2563 18.4684L34.773 18.2858C34.8101 18.2533 34.8463 18.2215 34.8819 18.1906L36.2407 17.0928Z" fill="#FFD400"/>
<path d="M25.6445 18.1718C26.8188 18.3571 27.9104 19.0996 28.459 20.1601C28.7734 20.7684 28.9162 21.4915 28.7171 22.1466C28.518 22.8019 27.9284 23.3568 27.2444 23.3909C26.7152 23.4171 26.2172 23.1474 25.7847 22.8412C25.6328 22.7337 25.4846 22.6204 25.3407 22.5019L25.6445 18.1718Z" fill="#FFE100"/>
<path opacity="0.63" d="M27.4412 21.1884C27.3059 21.7881 26.8829 22.2035 26.4965 22.1164C26.11 22.0292 25.9062 21.4725 26.0414 20.8728C26.1766 20.2733 26.5996 19.8578 26.9862 19.945C27.3726 20.0322 27.5764 20.5889 27.4412 21.1884Z" fill="#FFED61"/>
<path opacity="0.63" d="M21.4843 37.7515C21.3583 38.0849 20.8844 38.2147 20.4259 38.0415C19.9674 37.8682 19.6977 37.4575 19.8237 37.1241C19.9496 36.7907 20.4235 36.661 20.882 36.8343C21.3405 37.0075 21.6102 37.4182 21.4843 37.7515Z" fill="#FFED61"/>
<path d="M27.1022 42.7691C27.0382 42.6668 26.9424 42.5883 26.8296 42.5456L21.0945 40.3785L15.3595 38.2114C15.2466 38.1687 15.1229 38.1643 15.0072 38.1987L11.7264 39.1758C11.5614 39.2249 11.4288 39.3483 11.368 39.5093L9.88236 43.4408L18.681 46.7656L27.4797 50.0905L28.9653 46.159C29.0262 45.9979 29.0083 45.8177 28.9171 45.6717L27.1022 42.7691Z" fill="#B25908"/>
<path d="M27.6877 51.6866L8.66789 44.4995L9.02052 43.5663C9.10304 43.3479 9.34696 43.2378 9.56531 43.3203L27.7943 50.2086C28.0127 50.2911 28.1228 50.535 28.0402 50.7534L27.6877 51.6866Z" fill="#965718"/>
<path d="M22.0145 46.9829L16.0344 44.7232C15.9743 44.7005 15.9438 44.6327 15.9665 44.5727L17.0037 41.8279C17.0264 41.7679 17.0941 41.7373 17.1541 41.76L23.1342 44.0197C23.1943 44.0424 23.2248 44.1102 23.2021 44.1702L22.1649 46.915C22.1422 46.975 22.0745 47.0056 22.0145 46.9829Z" fill="#EDAE00"/>
<path d="M25.8142 32.0057C25.4275 33.029 24.4991 33.6261 23.7407 33.3395C22.9824 33.053 22.6809 31.9911 23.0676 30.9678C23.4541 29.9447 24.3825 29.3476 25.1409 29.6342C25.8993 29.9208 26.2008 30.9826 25.8142 32.0057Z" fill="#E88441"/>
<path d="M25.3134 31.4956C25.037 32.2271 24.3735 32.6538 23.8314 32.449C23.2893 32.2442 23.0739 31.4852 23.3502 30.7538C23.6266 30.0225 24.2901 29.5958 24.8322 29.8006C25.3742 30.0054 25.5897 30.7644 25.3134 31.4956Z" fill="#EC984E"/>
<path opacity="0.63" d="M24.9919 31.0754C24.879 31.3742 24.5367 31.5216 24.2275 31.4047C23.9182 31.2879 23.7589 30.9509 23.8718 30.6522C23.9847 30.3535 24.327 30.2061 24.6362 30.323C24.9455 30.4398 25.1048 30.7768 24.9919 31.0754Z" fill="#FFD5AA"/>
</g>
<defs>
<clipPath id="clip0_726_7025">
<rect width="52" height="52" fill="white" transform="translate(0 0.5)"/>
</clipPath>
</defs>
</svg>
