<svg width="20" height="20" viewBox="0 0 20 20" fill="none" xmlns="http://www.w3.org/2000/svg">
<g clip-path="url(#clip0_543_6336)">
<path d="M9.24349 2.15302C9.30619 2.01674 9.40451 1.89991 9.52807 1.81486C9.65164 1.7298 9.79588 1.67968 9.94556 1.66979C10.0952 1.65989 10.2448 1.69057 10.3785 1.75861C10.5122 1.82665 10.6251 1.92952 10.7052 2.05635L10.7568 2.15302L17.4277 16.6239C17.5927 17.0955 17.4693 17.6205 17.1127 17.9697C16.9557 18.1248 16.7611 18.2366 16.548 18.294C16.3349 18.3514 16.1105 18.3525 15.8968 18.2972L9.99932 16.2989L4.25016 18.2472C4.04074 18.3293 3.81337 18.3547 3.59099 18.321C3.3686 18.2872 3.15906 18.1953 2.98349 18.0547L2.89016 17.9714C2.55849 17.6497 2.42682 17.1764 2.56266 16.6747L2.60182 16.5497L9.24349 2.15302Z" fill="#009951"/>
</g>
<defs>
<clipPath id="clip0_543_6336">
<rect width="20" height="20" fill="white"/>
</clipPath>
</defs>
</svg>
