<svg width="21" height="20" viewBox="0 0 21 20" fill="none" xmlns="http://www.w3.org/2000/svg">
<g clip-path="url(#clip0_474_9267)">
<path d="M4.96755 3.33333C4.96755 2.8725 5.34089 2.5 5.80089 2.5H7.46755V0.833333C7.46755 0.3725 7.84089 0 8.30089 0C8.76089 0 9.13422 0.3725 9.13422 0.833333V2.5H10.8009C11.2609 2.5 11.6342 2.8725 11.6342 3.33333C11.6342 3.79417 11.2609 4.16667 10.8009 4.16667H9.13422V5.83333C9.13422 6.29417 8.76089 6.66667 8.30089 6.66667C7.84089 6.66667 7.46755 6.29417 7.46755 5.83333V4.16667H5.80089C5.34089 4.16667 4.96755 3.79417 4.96755 3.33333ZM20.8009 10.8333V13.3333C20.8009 13.7933 20.4284 14.1667 19.9676 14.1667H19.4742C18.8026 15.8167 17.4859 17.1717 15.7759 17.8558C15.6026 19.0667 14.5592 20 13.3009 20C12.2142 20 11.2876 19.3033 10.9434 18.3333H8.99088C8.64672 19.3033 7.72005 20 6.63339 20C5.25505 20 4.13339 18.8783 4.13339 17.5V17.4342C1.93922 16.1692 0.649219 13.7875 0.815052 11.225C0.882552 10.1817 1.20005 9.20583 1.70839 8.35C1.21839 7.685 0.915886 6.87417 0.806719 5.92917C0.754219 5.47167 1.08172 5.05833 1.53839 5.00583C1.99922 4.95 2.41005 5.28083 2.46172 5.7375C2.51505 6.19833 2.63172 6.6075 2.80839 6.96167C3.62839 6.16667 4.65672 5.5775 5.80089 5.26167V5.83417C5.80089 7.2125 6.92255 8.33417 8.30089 8.33417C9.67922 8.33417 10.8009 7.2125 10.8009 5.83417V5.00083H12.8842C13.1692 3.83667 14.0301 2.84417 15.1359 2.53C15.6267 2.39 16.1159 2.7725 16.1159 3.28333V5.7075C17.8859 6.55917 19.2517 8.11333 19.7534 10.0017H19.9676C20.4284 10.0017 20.8009 10.375 20.8009 10.835V10.8333ZM16.6342 10.4167C16.6342 9.72667 16.0742 9.16667 15.3842 9.16667C14.6942 9.16667 14.1342 9.72667 14.1342 10.4167C14.1342 11.1067 14.6942 11.6667 15.3842 11.6667C16.0742 11.6667 16.6342 11.1067 16.6342 10.4167Z" fill="white"/>
</g>
<defs>
<clipPath id="clip0_474_9267">
<rect width="20" height="20" fill="white" transform="translate(0.800781)"/>
</clipPath>
</defs>
</svg>
