<svg width="12" height="13" viewBox="0 0 12 13" fill="none" xmlns="http://www.w3.org/2000/svg">
<path d="M8.91797 1.44957C9.79779 1.95757 10.5297 2.68655 11.0412 3.56433C11.5527 4.44212 11.8261 5.43827 11.8343 6.45419C11.8425 7.4701 11.5852 8.47055 11.088 9.35648C10.5907 10.2424 9.87069 10.9831 8.99919 11.5053C8.12769 12.0274 7.13493 12.3129 6.11919 12.3334C5.10345 12.354 4.09996 12.1089 3.20804 11.6225C2.31613 11.136 1.56673 10.425 1.03402 9.55996C0.501322 8.69487 0.203791 7.70565 0.170885 6.69024L0.167969 6.50124L0.170885 6.31224C0.203554 5.30482 0.496705 4.32305 1.02176 3.46265C1.54681 2.60225 2.28585 1.89259 3.16682 1.40284C4.04779 0.913089 5.04064 0.659971 6.04856 0.668161C7.05647 0.676352 8.04507 0.945571 8.91797 1.44957ZM8.16372 4.92216C8.06327 4.82172 7.92963 4.76138 7.78787 4.75247C7.6461 4.74356 7.50595 4.78668 7.39372 4.87374L7.33889 4.92216L5.41797 6.84249L4.66372 6.08882L4.60889 6.04041C4.49664 5.9534 4.35652 5.91034 4.21479 5.91928C4.07306 5.92822 3.93946 5.98856 3.83904 6.08898C3.73862 6.18939 3.67828 6.32299 3.66934 6.46473C3.6604 6.60646 3.70347 6.74658 3.79047 6.85882L3.83889 6.91366L5.00555 8.08032L5.06039 8.12874C5.16269 8.20811 5.28849 8.25119 5.41797 8.25119C5.54745 8.25119 5.67325 8.20811 5.77555 8.12874L5.83039 8.08032L8.16372 5.74699L8.21214 5.69216C8.2992 5.57992 8.34232 5.43977 8.3334 5.29801C8.32449 5.15624 8.26415 5.0226 8.16372 4.92216Z" fill="white"/>
</svg>
