<svg width="18" height="17" viewBox="0 0 18 17" fill="none" xmlns="http://www.w3.org/2000/svg">
<path d="M6.18122 5.51129L1.39622 6.20504L1.31147 6.22229C1.18317 6.25635 1.06622 6.32385 0.972539 6.41789C0.878862 6.51193 0.811823 6.62916 0.778267 6.75758C0.744711 6.88601 0.74584 7.02105 0.781541 7.14889C0.817241 7.27674 0.886232 7.39283 0.98147 7.48529L4.44797 10.8595L3.63047 15.6258L3.62072 15.7083C3.61287 15.841 3.64042 15.9734 3.70056 16.0919C3.7607 16.2105 3.85126 16.3109 3.96297 16.3829C4.07469 16.455 4.20354 16.496 4.33633 16.5019C4.46913 16.5077 4.60109 16.4782 4.71872 16.4163L8.99822 14.1663L13.268 16.4163L13.343 16.4508C13.4668 16.4995 13.6013 16.5145 13.7328 16.4941C13.8643 16.4737 13.988 16.4187 14.0912 16.3347C14.1944 16.2508 14.2734 16.1409 14.3201 16.0163C14.3668 15.8917 14.3795 15.7569 14.357 15.6258L13.5387 10.8595L17.0067 7.48454L17.0652 7.42079C17.1488 7.31786 17.2036 7.19463 17.224 7.06364C17.2444 6.93264 17.2298 6.79857 17.1815 6.67509C17.1333 6.5516 17.0532 6.44311 16.9493 6.36067C16.8455 6.27824 16.7217 6.22479 16.5905 6.20579L11.8055 5.51129L9.66647 1.17629C9.60458 1.05069 9.50876 0.944926 9.38986 0.870968C9.27097 0.79701 9.13374 0.757812 8.99372 0.757812C8.8537 0.757812 8.71647 0.79701 8.59758 0.870968C8.47868 0.944926 8.38286 1.05069 8.32097 1.17629L6.18122 5.51129Z" fill="#FBCA46"/>
</svg>
