<svg width="20" height="20" viewBox="0 0 20 20" fill="none" xmlns="http://www.w3.org/2000/svg">
<g clip-path="url(#clip0_488_24250)">
<path d="M8.33301 9.9987C8.33301 10.4407 8.5086 10.8646 8.82116 11.1772C9.13372 11.4898 9.55765 11.6654 9.99967 11.6654C10.4417 11.6654 10.8656 11.4898 11.1782 11.1772C11.4907 10.8646 11.6663 10.4407 11.6663 9.9987C11.6663 9.55667 11.4907 9.13275 11.1782 8.82019C10.8656 8.50763 10.4417 8.33203 9.99967 8.33203C9.55765 8.33203 9.13372 8.50763 8.82116 8.82019C8.5086 9.13275 8.33301 9.55667 8.33301 9.9987Z" stroke="#1E1E1E" stroke-width="1.25" stroke-linecap="round" stroke-linejoin="round"/>
<path d="M17.5 10C15.5 13.3333 13 15 10 15C7 15 4.5 13.3333 2.5 10C4.5 6.66667 7 5 10 5C13 5 15.5 6.66667 17.5 10Z" stroke="#1E1E1E" stroke-width="1.25" stroke-linecap="round" stroke-linejoin="round"/>
</g>
<defs>
<clipPath id="clip0_488_24250">
<rect width="20" height="20" fill="white"/>
</clipPath>
</defs>
</svg>
