<svg width="19" height="18" viewBox="0 0 19 18" fill="none" xmlns="http://www.w3.org/2000/svg">
<g clip-path="url(#clip0_557_6115)">
<path d="M2.888 9C2.888 9.88642 3.06259 10.7642 3.40181 11.5831C3.74103 12.4021 4.23823 13.1462 4.86503 13.773C5.49183 14.3998 6.23594 14.897 7.05489 15.2362C7.87383 15.5754 8.75158 15.75 9.638 15.75C10.5244 15.75 11.4022 15.5754 12.2211 15.2362C13.0401 14.897 13.7842 14.3998 14.411 13.773C15.0378 13.1462 15.535 12.4021 15.8742 11.5831C16.2134 10.7642 16.388 9.88642 16.388 9C16.388 7.20979 15.6768 5.4929 14.411 4.22703C13.1451 2.96116 11.4282 2.25 9.638 2.25C7.84779 2.25 6.1309 2.96116 4.86503 4.22703C3.59916 5.4929 2.888 7.20979 2.888 9Z" stroke="#7A7A7A" stroke-width="1.2" stroke-linecap="round" stroke-linejoin="round"/>
<path d="M9.638 5.25V9L11.888 11.25" stroke="#7A7A7A" stroke-width="1.2" stroke-linecap="round" stroke-linejoin="round"/>
</g>
<defs>
<clipPath id="clip0_557_6115">
<rect width="18" height="18" fill="white" transform="translate(0.638)"/>
</clipPath>
</defs>
</svg>
