<svg width="114" height="113" viewBox="0 0 114 113" fill="none" xmlns="http://www.w3.org/2000/svg">
<g clip-path="url(#clip0_774_6482)">
<path d="M38.167 32.9583C38.167 37.9532 40.1512 42.7436 43.6831 46.2755C47.2151 49.8074 52.0054 51.7917 57.0003 51.7917C61.9952 51.7917 66.7856 49.8074 70.3175 46.2755C73.8494 42.7436 75.8337 37.9532 75.8337 32.9583C75.8337 27.9634 73.8494 23.1731 70.3175 19.6412C66.7856 16.1092 61.9952 14.125 57.0003 14.125C52.0054 14.125 47.2151 16.1092 43.6831 19.6412C40.1512 23.1731 38.167 27.9634 38.167 32.9583Z" stroke="white" stroke-width="4" stroke-linecap="round" stroke-linejoin="round"/>
<path d="M28.75 98.875V89.4583C28.75 84.4634 30.7342 79.6731 34.2662 76.1412C37.7981 72.6092 42.5884 70.625 47.5833 70.625H64.0625" stroke="white" stroke-width="4" stroke-linecap="round" stroke-linejoin="round"/>
<path d="M75.833 89.4585C75.833 93.2047 77.3212 96.7974 79.9701 99.4464C82.6191 102.095 86.2118 103.583 89.958 103.583C93.7042 103.583 97.2969 102.095 99.9459 99.4464C102.595 96.7974 104.083 93.2047 104.083 89.4585C104.083 85.7123 102.595 82.1196 99.9459 79.4706C97.2969 76.8217 93.7042 75.3335 89.958 75.3335C86.2118 75.3335 82.6191 76.8217 79.9701 79.4706C77.3212 82.1196 75.833 85.7123 75.833 89.4585Z" stroke="white" stroke-width="4" stroke-linecap="round" stroke-linejoin="round"/>
<path d="M80.542 98.8748L99.3753 80.0415" stroke="white" stroke-width="4" stroke-linecap="round" stroke-linejoin="round"/>
</g>
<defs>
<clipPath id="clip0_774_6482">
<rect width="113" height="113" fill="white" transform="translate(0.5)"/>
</clipPath>
</defs>
</svg>
