<svg width="20" height="21" viewBox="0 0 20 21" fill="none" xmlns="http://www.w3.org/2000/svg">
<g clip-path="url(#clip0_550_12533)">
<path d="M7.5 9.6665C7.5 10.3295 7.76339 10.9654 8.23223 11.4343C8.70107 11.9031 9.33696 12.1665 10 12.1665C10.663 12.1665 11.2989 11.9031 11.7678 11.4343C12.2366 10.9654 12.5 10.3295 12.5 9.6665C12.5 9.00346 12.2366 8.36758 11.7678 7.89874C11.2989 7.4299 10.663 7.1665 10 7.1665C9.33696 7.1665 8.70107 7.4299 8.23223 7.89874C7.76339 8.36758 7.5 9.00346 7.5 9.6665Z" stroke="black" stroke-width="1.45833" stroke-linecap="round" stroke-linejoin="round"/>
<path d="M14.7143 14.3806L11.1785 17.9164C10.866 18.2286 10.4423 18.404 10.0006 18.404C9.55885 18.404 9.13518 18.2286 8.82267 17.9164L5.286 14.3806C4.35368 13.4482 3.71878 12.2603 3.46157 10.9671C3.20437 9.67394 3.33641 8.33352 3.841 7.11536C4.3456 5.89721 5.20008 4.85604 6.2964 4.12351C7.39272 3.39098 8.68164 3 10.0002 3C11.3187 3 12.6076 3.39098 13.7039 4.12351C14.8003 4.85604 15.6547 5.89721 16.1593 7.11536C16.6639 8.33352 16.796 9.67394 16.5388 10.9671C16.2816 12.2603 15.6466 13.4482 14.7143 14.3806Z" stroke="black" stroke-width="1.45833" stroke-linecap="round" stroke-linejoin="round"/>
</g>
<defs>
<clipPath id="clip0_550_12533">
<rect width="20" height="20" fill="white" transform="translate(0 0.5)"/>
</clipPath>
</defs>
</svg>
