<svg width="21" height="20" viewBox="0 0 21 20" fill="none" xmlns="http://www.w3.org/2000/svg">
<g clip-path="url(#clip0_474_9247)">
<path d="M16.4339 14.1667C15.556 14.1664 14.6938 13.9347 13.9339 13.495C13.1741 13.9347 12.3118 14.1664 11.4339 14.1667H9.76725C8.88816 14.1655 8.02524 13.9303 7.26725 13.485C6.50929 13.9303 5.64635 14.1656 4.76725 14.1667H3.93392C3.05527 14.1664 2.19249 13.9326 1.43392 13.4892V17.5C1.43392 18.163 1.69731 18.7989 2.16615 19.2678C2.63499 19.7366 3.27088 20 3.93392 20H17.2673C17.9303 20 18.5662 19.7366 19.035 19.2678C19.5039 18.7989 19.7673 18.163 19.7673 17.5V13.49C19.0085 13.9328 18.1458 14.1663 17.2673 14.1667H16.4339ZM14.7673 0V5H13.1006V0H8.10059V5H6.43392V0H2.43392L0.620586 8.1525L0.600586 9.16667C0.600586 10.0507 0.951775 10.8986 1.5769 11.5237C2.20202 12.1488 3.04986 12.5 3.93392 12.5H4.76725C5.24216 12.4985 5.71119 12.3948 6.14254 12.1961C6.57388 11.9974 6.95746 11.7083 7.26725 11.3483C7.57705 11.7083 7.96062 11.9974 8.39197 12.1961C8.82331 12.3948 9.29234 12.4985 9.76725 12.5H11.4339C11.9071 12.5002 12.3749 12.3995 12.806 12.2045C13.2371 12.0095 13.6217 11.7247 13.9339 11.3692C14.2462 11.7247 14.6307 12.0095 15.0618 12.2045C15.493 12.3995 15.9607 12.5002 16.4339 12.5H17.2673C18.1513 12.5 18.9992 12.1488 19.6243 11.5237C20.2494 10.8986 20.6006 10.0507 20.6006 9.16667V8.33333L18.7673 0H14.7673Z" fill="white"/>
</g>
<defs>
<clipPath id="clip0_474_9247">
<rect width="20" height="20" fill="white" transform="translate(0.600586)"/>
</clipPath>
</defs>
</svg>
