<svg width="19" height="18" viewBox="0 0 19 18" fill="none" xmlns="http://www.w3.org/2000/svg">
<path d="M14.138 1.5V3.00001M5.138 1.5V3.00001" stroke="#7A7A7A" stroke-width="1.125" stroke-linecap="round" stroke-linejoin="round"/>
<path d="M2.51294 9.1824C2.51294 5.91445 2.51294 4.28046 3.45202 3.26523C4.39112 2.25 5.90255 2.25 8.92544 2.25H10.3504C13.3733 2.25 14.8848 2.25 15.8239 3.26523C16.7629 4.28046 16.7629 5.91445 16.7629 9.1824V9.5676C16.7629 12.8356 16.7629 14.4695 15.8239 15.4848C14.8848 16.5 13.3733 16.5 10.3504 16.5H8.92544C5.90255 16.5 4.39112 16.5 3.45202 15.4848C2.51294 14.4695 2.51294 12.8356 2.51294 9.5676V9.1824Z" stroke="#7A7A7A" stroke-width="1.125" stroke-linecap="round" stroke-linejoin="round"/>
<path d="M2.888 6H16.388" stroke="#7A7A7A" stroke-width="1.125" stroke-linecap="round" stroke-linejoin="round"/>
</svg>
