<svg width="33" height="33" viewBox="0 0 33 33" fill="none" xmlns="http://www.w3.org/2000/svg">
<g clip-path="url(#clip0_613_8826)">
<path d="M16.5 28.5C16.5 28.8536 16.3595 29.1928 16.1095 29.4428C15.8594 29.6929 15.5203 29.8333 15.1667 29.8333H7.16667C3.49067 29.8333 0.5 26.8427 0.5 23.1667V7.16667C0.5 3.49067 3.49067 0.5 7.16667 0.5H23.1667C26.8427 0.5 29.8333 3.49067 29.8333 7.16667V15.1667C29.8333 15.5203 29.6929 15.8594 29.4428 16.1095C29.1928 16.3595 28.8536 16.5 28.5 16.5C28.1464 16.5 27.8072 16.3595 27.5572 16.1095C27.3071 15.8594 27.1667 15.5203 27.1667 15.1667V7.16667C27.1667 4.96133 25.372 3.16667 23.1667 3.16667H7.16667C4.96133 3.16667 3.16667 4.96133 3.16667 7.16667V16.4453L6.91067 12.7013C7.89388 11.7196 9.22654 11.1681 10.616 11.1681C12.0055 11.1681 13.3381 11.7196 14.3213 12.7013L21.4427 19.8227C21.6927 20.0727 21.8331 20.4118 21.8331 20.7653C21.8331 21.1189 21.6927 21.458 21.4427 21.708C21.1927 21.958 20.8536 22.0985 20.5 22.0985C20.1464 22.0985 19.8073 21.958 19.5573 21.708L12.436 14.5867C11.9525 14.1055 11.2981 13.8353 10.616 13.8353C9.93386 13.8353 9.27949 14.1055 8.796 14.5867L3.16667 20.216V23.1667C3.16667 25.372 4.96133 27.1667 7.16667 27.1667H15.1667C15.5203 27.1667 15.8594 27.3071 16.1095 27.5572C16.3595 27.8072 16.5 28.1464 16.5 28.5ZM20.5 5.16667C22.7053 5.16667 24.5 6.96133 24.5 9.16667C24.5 11.372 22.7053 13.1667 20.5 13.1667C18.2947 13.1667 16.5 11.372 16.5 9.16667C16.5 6.96133 18.2947 5.16667 20.5 5.16667ZM20.5 7.83333C20.1567 7.84869 19.8325 7.99588 19.595 8.24424C19.3575 8.49261 19.225 8.82302 19.225 9.16667C19.225 9.51032 19.3575 9.84072 19.595 10.0891C19.8325 10.3375 20.1567 10.4846 20.5 10.5C20.8433 10.4846 21.1675 10.3375 21.405 10.0891C21.6425 9.84072 21.775 9.51032 21.775 9.16667C21.775 8.82302 21.6425 8.49261 21.405 8.24424C21.1675 7.99588 20.8433 7.84869 20.5 7.83333ZM31.1667 24.5H27.1667V20.5C27.1667 20.1464 27.0262 19.8072 26.7761 19.5572C26.5261 19.3071 26.187 19.1667 25.8333 19.1667C25.4797 19.1667 25.1406 19.3071 24.8905 19.5572C24.6405 19.8072 24.5 20.1464 24.5 20.5V24.5H20.5C20.1464 24.5 19.8072 24.6405 19.5572 24.8905C19.3071 25.1406 19.1667 25.4797 19.1667 25.8333C19.1667 26.187 19.3071 26.5261 19.5572 26.7761C19.8072 27.0262 20.1464 27.1667 20.5 27.1667H24.5V31.1667C24.5 31.5203 24.6405 31.8594 24.8905 32.1095C25.1406 32.3595 25.4797 32.5 25.8333 32.5C26.187 32.5 26.5261 32.3595 26.7761 32.1095C27.0262 31.8594 27.1667 31.5203 27.1667 31.1667V27.1667H31.1667C31.5203 27.1667 31.8594 27.0262 32.1095 26.7761C32.3595 26.5261 32.5 26.187 32.5 25.8333C32.5 25.4797 32.3595 25.1406 32.1095 24.8905C31.8594 24.6405 31.5203 24.5 31.1667 24.5Z" fill="#6E9D9F"/>
</g>
<defs>
<clipPath id="clip0_613_8826">
<rect width="32" height="32" fill="white" transform="translate(0.5 0.5)"/>
</clipPath>
</defs>
</svg>
