<svg width="16" height="16" viewBox="0 0 16 16" fill="none" xmlns="http://www.w3.org/2000/svg">
<g clip-path="url(#clip0_490_14123)">
<path d="M4.66699 4.6665H4.00033C3.6467 4.6665 3.30756 4.80698 3.05752 5.05703C2.80747 5.30708 2.66699 5.64622 2.66699 5.99984V11.9998C2.66699 12.3535 2.80747 12.6926 3.05752 12.9426C3.30756 13.1927 3.6467 13.3332 4.00033 13.3332H10.0003C10.3539 13.3332 10.6931 13.1927 10.9431 12.9426C11.1932 12.6926 11.3337 12.3535 11.3337 11.9998V11.3332" stroke="white" stroke-width="1.33333" stroke-linecap="round" stroke-linejoin="round"/>
<path d="M13.59 4.39007C13.8526 4.12751 14.0001 3.77139 14.0001 3.40007C14.0001 3.02875 13.8526 2.67264 13.59 2.41007C13.3274 2.14751 12.9713 2 12.6 2C12.2287 2 11.8726 2.14751 11.61 2.41007L6 8.00007V10.0001H8L13.59 4.39007Z" stroke="white" stroke-width="1.33333" stroke-linecap="round" stroke-linejoin="round"/>
<path d="M10.667 3.3335L12.667 5.3335" stroke="white" stroke-width="1.33333" stroke-linecap="round" stroke-linejoin="round"/>
</g>
<defs>
<clipPath id="clip0_490_14123">
<rect width="16" height="16" fill="white"/>
</clipPath>
</defs>
</svg>
