<svg width="25" height="17" viewBox="0 0 25 17" fill="none" xmlns="http://www.w3.org/2000/svg">
<g clip-path="url(#clip0_449_30045)">
<path d="M5.9325 16.8216C4.41135 16.8216 3.04231 16.2131 1.82538 14.9962C0.608462 13.7358 0 11.8887 0 9.45484C0 6.67328 0.738844 4.41329 2.21654 2.67484C3.73769 0.892917 5.88904 0.00195312 8.67058 0.00195312C9.67017 0.00195312 10.4525 0.0671441 11.0175 0.197527V3.19638C10.4091 3.10945 9.62675 3.06599 8.67058 3.06599C7.19286 3.06599 5.99769 3.56579 5.085 4.56541C4.21577 5.43464 3.71596 6.58638 3.58558 8.02061C4.15058 7.3252 5.06327 6.97753 6.32365 6.97753C7.6275 6.97753 8.73577 7.43388 9.64846 8.34657C10.5612 9.21578 11.0175 10.3675 11.0175 11.8018C11.0175 13.2795 10.5394 14.4964 9.58327 15.4525C8.62709 16.3652 7.41021 16.8216 5.9325 16.8216ZM18.9058 16.8216C17.3846 16.8216 16.0156 16.2131 14.7987 14.9962C13.5817 13.7358 12.9733 11.8887 12.9733 9.45484C12.9733 6.67328 13.7121 4.41329 15.1898 2.67484C16.7109 0.892917 18.8623 0.00195312 21.6438 0.00195312C22.6434 0.00195312 23.4257 0.0671441 23.9908 0.197527V3.19638C23.3823 3.10945 22.6 3.06599 21.6438 3.06599C20.1661 3.06599 18.971 3.56579 18.0583 4.56541C17.1891 5.43464 16.6892 6.58638 16.5588 8.02061C17.1239 7.3252 18.0366 6.97753 19.2969 6.97753C20.6008 6.97753 21.709 7.43388 22.6217 8.34657C23.5344 9.21578 23.9908 10.3675 23.9908 11.8018C23.9908 13.2795 23.5127 14.4964 22.5565 15.4525C21.6004 16.3652 20.3835 16.8216 18.9058 16.8216Z" fill="#E7E6E6"/>
</g>
<defs>
<clipPath id="clip0_449_30045">
<rect width="24.1212" height="16.95" fill="white" transform="translate(0 0.00195312)"/>
</clipPath>
</defs>
</svg>
