<svg width="21" height="22" viewBox="0 0 21 22" fill="none" xmlns="http://www.w3.org/2000/svg">
<path d="M12.5863 14.3129L12.6066 15.9794C12.612 16.4214 12.4416 16.8475 12.1328 17.1638C11.8241 17.4802 11.4024 17.6609 10.9604 17.6663L5.12748 17.7375C4.68549 17.7429 4.25945 17.5725 3.9431 17.2637C3.62675 16.955 3.446 16.5333 3.4406 16.0913L3.31861 6.09201C3.31321 5.65002 3.48362 5.22399 3.79235 4.90764C4.10107 4.59129 4.52282 4.41053 4.96482 4.40514L10.7977 4.33397C11.2397 4.32858 11.6657 4.49899 11.9821 4.80772C12.2984 5.11644 12.4792 5.53819 12.4846 5.98018L12.5049 7.64673" stroke="#7E8B95" stroke-width="1.5" stroke-linecap="round" stroke-linejoin="round"/>
<path d="M8.37575 11.0309L18.375 10.909L15.9057 13.4393" stroke="#7E8B95" stroke-width="1.5" stroke-linecap="round" stroke-linejoin="round"/>
<path d="M15.8445 8.43964L18.3748 10.909" stroke="#7E8B95" stroke-width="1.5" stroke-linecap="round" stroke-linejoin="round"/>
</svg>
