<svg width="1624" height="420" viewBox="0 0 1624 420" fill="none" xmlns="http://www.w3.org/2000/svg">
<path d="M1382.84 332.087C1382.84 323.697 1375.94 316.895 1367.43 316.895C1358.92 316.895 1352.03 323.697 1352.03 332.087C1352.03 332.087 1351.33 337.364 1357.42 345.936C1360.16 349.795 1367.43 361.25 1367.43 361.25C1367.43 361.25 1374.7 349.795 1377.44 345.936C1383.53 337.364 1382.84 332.087 1382.84 332.087ZM1367.43 343.435C1361.23 343.435 1356.2 338.478 1356.2 332.361C1356.2 326.245 1361.23 321.287 1367.43 321.287C1373.63 321.287 1378.66 326.245 1378.66 332.361C1378.66 338.478 1373.63 343.435 1367.43 343.435Z" fill="white"/>
<path d="M1403.08 41.6467C1399.69 39.7489 1396.25 37.851 1392.77 35.9884C1391.82 35.4612 1391.51 34.4068 1392.16 33.6336C1392.82 32.8605 1394.12 32.6144 1395.08 33.1416C1398.6 35.0043 1402.08 36.9021 1405.47 38.8351C1406.43 39.3623 1406.69 40.4518 1405.99 41.225C1405.6 41.717 1404.91 41.963 1404.25 41.963C1403.82 41.963 1403.43 41.8576 1403.04 41.6467H1403.08ZM1384.55 27.6239C1381.03 25.8315 1377.47 24.0391 1373.86 22.2818C1372.86 21.7898 1371.55 22.0358 1370.94 22.8793C1370.33 23.6876 1370.68 24.742 1371.68 25.234C1375.25 26.9913 1378.81 28.7485 1382.29 30.5409C1382.64 30.7166 1383.03 30.8221 1383.42 30.8221C1384.12 30.8221 1384.82 30.5409 1385.21 30.0137C1385.82 29.2054 1385.55 28.151 1384.55 27.659V27.6239ZM1463.09 79.7087C1463.66 79.7087 1464.22 79.533 1464.66 79.1464C1465.44 78.4435 1465.4 77.354 1464.53 76.7214C1461.44 74.4721 1458.31 72.2228 1455.14 69.9735C1454.27 69.3409 1452.92 69.4464 1452.13 70.1493C1451.35 70.8522 1451.48 71.9417 1452.35 72.5743C1455.53 74.7884 1458.61 77.0377 1461.66 79.2869C1462.05 79.6033 1462.57 79.7438 1463.09 79.7438V79.7087ZM1446.87 389.406C1443.44 387.649 1439.96 385.821 1436.44 383.923C1435.48 383.396 1434.17 383.607 1433.48 384.38C1432.83 385.154 1433.09 386.208 1434.04 386.77C1437.61 388.703 1441.13 390.566 1444.57 392.323C1444.92 392.499 1445.31 392.569 1445.7 392.569C1446.39 392.569 1447.09 392.288 1447.48 391.761C1448.09 390.952 1447.79 389.898 1446.83 389.406H1446.87ZM1363.03 17.1858C1359.42 15.4988 1355.77 13.847 1352.07 12.2304C1351.02 11.7735 1349.76 12.0898 1349.2 12.8981C1348.63 13.7416 1349.02 14.7608 1350.02 15.2177C1353.68 16.8344 1357.33 18.4862 1360.9 20.138C1361.24 20.2786 1361.59 20.3488 1361.94 20.3488C1362.68 20.3488 1363.38 20.0325 1363.77 19.5054C1364.33 18.697 1363.98 17.6427 1362.98 17.1858H1363.03ZM1444.18 66.459C1444.79 66.459 1445.39 66.2482 1445.79 65.8264C1446.52 65.0884 1446.39 64.034 1445.52 63.4366C1442.31 61.2927 1439.09 59.1489 1435.78 57.0402C1434.87 56.4779 1433.52 56.5833 1432.83 57.3213C1432.09 58.0594 1432.26 59.1489 1433.17 59.7112C1436.44 61.8199 1439.65 63.9286 1442.87 66.0724C1443.26 66.3536 1443.74 66.459 1444.22 66.459H1444.18ZM1416.21 372.15C1415.3 371.588 1413.95 371.728 1413.26 372.466C1412.56 373.204 1412.73 374.294 1413.65 374.856C1417.04 376.965 1420.43 378.968 1423.74 380.901C1424.13 381.112 1424.56 381.217 1424.95 381.217C1425.61 381.217 1426.26 380.971 1426.65 380.514C1427.35 379.741 1427.13 378.687 1426.17 378.124C1422.87 376.192 1419.52 374.188 1416.17 372.115L1416.21 372.15ZM1423.26 53.5257C1423.65 53.7717 1424.08 53.8771 1424.52 53.8771C1425.17 53.8771 1425.78 53.6311 1426.22 53.2094C1426.91 52.4713 1426.74 51.3818 1425.82 50.8195C1422.52 48.7811 1419.13 46.7779 1415.74 44.7746C1414.82 44.2123 1413.47 44.388 1412.78 45.1612C1412.08 45.9344 1412.3 46.9887 1413.26 47.551C1416.65 49.5192 1420 51.5224 1423.26 53.5608V53.5257ZM1396.73 359.533C1395.82 358.935 1394.51 359.006 1393.73 359.744C1392.99 360.482 1393.08 361.536 1393.99 362.169C1397.25 364.383 1400.51 366.527 1403.69 368.6C1404.08 368.846 1404.56 368.987 1404.99 368.987C1405.6 368.987 1406.21 368.776 1406.65 368.354C1407.39 367.616 1407.21 366.527 1406.3 365.964C1403.12 363.891 1399.91 361.782 1396.64 359.568L1396.73 359.533ZM1611.13 273.252C1612.13 276.556 1613.04 279.824 1613.87 283.057C1614.08 283.866 1614.95 284.428 1615.95 284.428C1616.09 284.428 1616.26 284.428 1616.39 284.428C1617.52 284.252 1618.26 283.339 1618.04 282.425C1617.22 279.156 1616.3 275.818 1615.3 272.479C1615.04 271.565 1613.91 271.003 1612.74 271.214C1611.61 271.424 1610.91 272.373 1611.17 273.287L1611.13 273.252ZM1616.13 292.968C1616.82 296.307 1617.39 299.646 1617.91 302.914C1618.04 303.793 1618.96 304.426 1620 304.426C1620.09 304.426 1620.17 304.426 1620.26 304.426C1621.43 304.32 1622.26 303.477 1622.09 302.528C1621.61 299.189 1621 295.85 1620.3 292.441C1620.13 291.527 1619 290.86 1617.87 291.035C1616.69 291.176 1615.95 292.055 1616.13 293.003V292.968ZM1340.94 7.41551C1337.24 5.86913 1333.5 4.32275 1329.72 2.81152C1328.67 2.38978 1327.41 2.74123 1326.89 3.58471C1326.37 4.42819 1326.8 5.44739 1327.85 5.86913C1331.59 7.38036 1335.33 8.8916 1338.98 10.438C1339.28 10.5786 1339.63 10.6137 1339.94 10.6137C1340.67 10.6137 1341.41 10.2622 1341.81 9.69993C1342.33 8.85645 1341.94 7.83725 1340.89 7.38036L1340.94 7.41551ZM1604.43 253.852C1605.69 257.085 1606.87 260.319 1608 263.517C1608.26 264.255 1609.13 264.747 1610.04 264.747C1610.21 264.747 1610.43 264.747 1610.61 264.677C1611.74 264.431 1612.39 263.482 1612.08 262.568C1610.95 259.335 1609.78 256.101 1608.47 252.833C1608.13 251.919 1606.95 251.427 1605.82 251.708C1604.69 251.989 1604.08 252.938 1604.43 253.852ZM1619.13 312.895C1619.43 316.269 1619.65 319.643 1619.78 322.912C1619.78 323.826 1620.74 324.564 1621.91 324.564H1621.96C1623.13 324.564 1624.04 323.755 1624 322.806C1623.87 319.468 1623.65 316.058 1623.35 312.614C1623.26 311.665 1622.22 310.962 1621.09 311.033C1619.91 311.103 1619.04 311.911 1619.13 312.86V312.895ZM1600.47 244.328C1600.78 245.031 1601.6 245.487 1602.47 245.487C1602.69 245.487 1602.95 245.487 1603.17 245.382C1604.26 245.066 1604.87 244.082 1604.47 243.203C1603.13 240.04 1601.65 236.842 1600.12 233.644C1599.69 232.765 1598.47 232.308 1597.39 232.66C1596.3 233.011 1595.73 233.995 1596.17 234.874C1597.69 238.037 1599.08 241.2 1600.47 244.328ZM1557.29 171.859C1557.68 172.386 1558.38 172.667 1559.07 172.667C1559.46 172.667 1559.85 172.597 1560.2 172.421C1561.2 171.929 1561.51 170.875 1560.9 170.066C1558.72 167.22 1556.46 164.338 1554.16 161.491C1553.51 160.683 1552.2 160.472 1551.24 160.999C1550.24 161.526 1549.98 162.58 1550.64 163.354C1552.94 166.2 1555.16 169.012 1557.33 171.859H1557.29ZM1581.34 207.179C1581.69 207.777 1582.47 208.128 1583.25 208.128C1583.56 208.128 1583.86 208.058 1584.16 207.953C1585.21 207.531 1585.64 206.512 1585.16 205.668C1583.34 202.646 1581.47 199.623 1579.55 196.566C1579.03 195.722 1577.73 195.406 1576.68 195.828C1575.64 196.249 1575.25 197.304 1575.77 198.147C1577.68 201.17 1579.55 204.157 1581.34 207.144V207.179ZM1538.94 416.081C1534.98 416.081 1530.89 415.835 1526.72 415.413C1525.59 415.308 1524.5 415.976 1524.37 416.889C1524.24 417.838 1525.06 418.682 1526.2 418.787C1530.54 419.209 1534.81 419.455 1538.94 419.455C1540.11 419.455 1541.07 418.682 1541.07 417.768C1541.07 416.819 1540.15 416.046 1538.98 416.046L1538.94 416.081ZM1468.44 399.457C1464.88 397.946 1461.22 396.33 1457.57 394.607C1456.57 394.151 1455.27 394.432 1454.7 395.24C1454.14 396.048 1454.48 397.103 1455.48 397.56C1459.22 399.317 1462.92 400.934 1466.53 402.48C1466.83 402.621 1467.18 402.656 1467.49 402.656C1468.23 402.656 1468.96 402.304 1469.36 401.742C1469.88 400.898 1469.49 399.879 1468.44 399.422V399.457ZM1584.43 404.413C1581.21 406.416 1577.82 408.173 1574.21 409.685C1573.16 410.106 1572.77 411.161 1573.29 412.004C1573.68 412.602 1574.42 412.918 1575.16 412.918C1575.51 412.918 1575.82 412.848 1576.12 412.742C1579.9 411.161 1583.6 409.263 1586.99 407.154C1587.9 406.592 1588.08 405.502 1587.38 404.764C1586.64 404.026 1585.34 403.886 1584.43 404.448V404.413ZM1594.34 226.474C1595.43 226.123 1595.95 225.103 1595.47 224.225C1593.86 221.132 1592.21 218.004 1590.47 214.911C1589.99 214.068 1588.73 213.681 1587.69 214.068C1586.6 214.454 1586.17 215.474 1586.64 216.317C1588.38 219.41 1590.04 222.467 1591.6 225.56C1591.95 226.228 1592.73 226.615 1593.56 226.615C1593.82 226.615 1594.12 226.579 1594.38 226.474H1594.34ZM1573.6 187.639C1571.6 184.687 1569.51 181.734 1567.38 178.782C1566.81 177.974 1565.51 177.693 1564.51 178.185C1563.51 178.677 1563.16 179.696 1563.77 180.504C1565.9 183.421 1567.94 186.338 1569.9 189.291C1570.29 189.853 1570.99 190.169 1571.77 190.169C1572.12 190.169 1572.47 190.099 1572.77 189.958C1573.81 189.502 1574.16 188.447 1573.6 187.639ZM1614.26 371.166C1613.13 370.849 1611.95 371.306 1611.56 372.22C1610.17 375.418 1608.61 378.476 1606.87 381.393C1606.34 382.236 1606.78 383.256 1607.87 383.677C1608.17 383.783 1608.47 383.853 1608.78 383.853C1609.56 383.853 1610.3 383.502 1610.69 382.904C1612.52 379.882 1614.13 376.684 1615.56 373.38C1615.95 372.501 1615.39 371.517 1614.26 371.201V371.166ZM1622 331.311C1620.74 331.276 1619.87 332.014 1619.82 332.963C1619.69 336.372 1619.48 339.711 1619.09 342.944C1619 343.893 1619.83 344.702 1621 344.807C1621.04 344.807 1621.13 344.807 1621.17 344.807C1622.26 344.807 1623.17 344.139 1623.26 343.261C1623.65 339.957 1623.87 336.513 1624 333.069C1624 332.12 1623.13 331.347 1621.96 331.311H1622ZM1563.03 413.34C1559.25 414.289 1555.25 414.992 1551.16 415.448C1549.98 415.589 1549.2 416.433 1549.33 417.381C1549.46 418.225 1550.37 418.858 1551.42 418.858C1551.51 418.858 1551.59 418.858 1551.72 418.858C1556.03 418.365 1560.29 417.627 1564.29 416.643C1565.42 416.362 1566.03 415.413 1565.68 414.5C1565.33 413.586 1564.16 413.094 1563.03 413.375V413.34ZM1620 351.449C1618.87 351.309 1617.74 351.942 1617.56 352.855C1616.91 356.194 1616.04 359.498 1615.08 362.626C1614.78 363.539 1615.48 364.453 1616.61 364.699C1616.78 364.699 1616.95 364.734 1617.13 364.734C1618.09 364.734 1618.96 364.207 1619.17 363.434C1620.17 360.201 1621 356.827 1621.69 353.382C1621.87 352.434 1621.09 351.555 1619.96 351.414L1620 351.449ZM1603.78 389.441C1602.82 388.914 1601.47 389.125 1600.86 389.933C1598.6 392.71 1596.08 395.346 1593.43 397.7C1592.64 398.403 1592.69 399.493 1593.56 400.125C1593.95 400.406 1594.47 400.582 1594.99 400.582C1595.56 400.582 1596.12 400.406 1596.56 400.02C1599.39 397.525 1602.04 394.748 1604.43 391.831C1605.08 391.058 1604.82 389.968 1603.82 389.476L1603.78 389.441ZM1500.23 105.365C1497.41 102.869 1494.54 100.409 1491.62 97.9489C1490.8 97.2812 1489.49 97.246 1488.62 97.9138C1487.8 98.5815 1487.75 99.6359 1488.58 100.339C1491.49 102.764 1494.32 105.224 1497.1 107.684C1497.54 108.036 1498.1 108.246 1498.67 108.246C1499.19 108.246 1499.71 108.106 1500.1 107.789C1500.97 107.157 1501.02 106.067 1500.23 105.365ZM1491.06 407.717C1487.32 406.522 1483.49 405.221 1479.66 403.815C1478.62 403.429 1477.36 403.815 1476.84 404.659C1476.36 405.502 1476.84 406.522 1477.88 406.908C1481.79 408.349 1485.71 409.685 1489.53 410.915C1489.8 410.985 1490.06 411.02 1490.32 411.02C1491.14 411.02 1491.97 410.598 1492.27 409.931C1492.71 409.052 1492.14 408.068 1491.06 407.717ZM1481.32 93.6261C1481.84 93.6261 1482.4 93.4504 1482.79 93.1341C1483.62 92.4663 1483.62 91.3768 1482.79 90.7091C1479.84 88.3192 1476.84 85.9645 1473.79 83.6098C1472.97 82.942 1471.62 82.9772 1470.79 83.6801C1469.96 84.3478 1470.01 85.4373 1470.88 86.1051C1473.92 88.4246 1476.88 90.7793 1479.84 93.1341C1480.23 93.4504 1480.79 93.6261 1481.32 93.6261ZM1539.98 144.692C1539.29 143.919 1537.98 143.743 1537.02 144.305C1536.07 144.867 1535.85 145.922 1536.55 146.695C1538.98 149.436 1541.42 152.178 1543.72 154.919C1544.11 155.411 1544.81 155.657 1545.46 155.657C1545.9 155.657 1546.29 155.551 1546.68 155.341C1547.63 154.813 1547.9 153.724 1547.2 152.951C1544.85 150.174 1542.42 147.398 1539.94 144.657L1539.98 144.692ZM1530.8 139.279C1531.24 139.279 1531.72 139.174 1532.07 138.928C1532.98 138.366 1533.2 137.276 1532.46 136.538C1529.94 133.867 1527.37 131.196 1524.72 128.525C1523.98 127.787 1522.67 127.682 1521.76 128.244C1520.85 128.841 1520.72 129.896 1521.41 130.634C1524.02 133.27 1526.59 135.941 1529.07 138.576C1529.5 139.033 1530.11 139.244 1530.76 139.244L1530.8 139.279ZM1514.67 413.656C1510.8 412.953 1506.8 412.075 1502.76 411.055C1501.62 410.774 1500.45 411.266 1500.1 412.18C1499.75 413.094 1500.36 414.043 1501.49 414.324C1505.63 415.378 1509.76 416.257 1513.76 416.995C1513.93 416.995 1514.06 417.03 1514.24 417.03C1515.19 417.03 1516.06 416.503 1516.28 415.694C1516.54 414.781 1515.8 413.867 1514.67 413.656ZM1508.63 112.921C1507.84 112.218 1506.49 112.147 1505.63 112.78C1504.76 113.413 1504.67 114.467 1505.45 115.205C1508.19 117.736 1510.93 120.301 1513.58 122.867C1514.02 123.288 1514.58 123.464 1515.19 123.464C1515.67 123.464 1516.15 123.324 1516.54 123.078C1517.45 122.48 1517.54 121.391 1516.8 120.653C1514.15 118.052 1511.41 115.486 1508.63 112.921Z" fill="white"/>
<path d="M75.8522 357.378C75.5742 357.97 74.9488 358.299 74.3233 358.299C74.0801 358.299 73.8369 358.266 73.6284 358.168C70.5359 356.819 67.513 355.404 64.5595 353.924C63.7256 353.496 63.4129 352.542 63.8646 351.753C64.3163 350.963 65.3239 350.667 66.1579 351.095C69.0071 352.542 71.9953 353.957 75.0183 355.273C75.8522 355.635 76.2344 356.589 75.8522 357.378ZM69.9452 108.687C70.5359 107.996 70.397 106.977 69.6673 106.45C68.9376 105.891 67.8604 106.023 67.3045 106.713C65.1849 109.213 63.1349 111.713 61.1543 114.214C60.5984 114.904 60.7374 115.924 61.467 116.45C61.7798 116.681 62.1272 116.779 62.4747 116.779C62.9959 116.779 63.4823 116.549 63.8298 116.154C65.8104 113.687 67.8604 111.187 69.9452 108.72V108.687ZM57.6101 346.391C54.7957 344.713 52.0507 342.937 49.4447 341.128C48.6802 340.601 47.6378 340.766 47.0819 341.457C46.5259 342.18 46.6997 343.167 47.4293 343.694C50.1048 345.569 52.9193 347.378 55.8033 349.088C56.0813 349.253 56.394 349.319 56.7067 349.319C57.2627 349.319 57.8186 349.056 58.1313 348.562C58.6178 347.805 58.4093 346.819 57.6101 346.358V346.391ZM46.0395 137.01C45.275 136.517 44.1979 136.747 43.7114 137.471C41.8351 140.168 40.0283 142.833 38.2909 145.497C37.8045 146.254 38.0477 147.241 38.8469 147.701C39.1249 147.866 39.4376 147.932 39.7503 147.932C40.3063 147.932 40.8622 147.668 41.1749 147.175C42.9123 144.543 44.6843 141.879 46.5259 139.214C47.0471 138.491 46.8386 137.471 46.0395 137.01ZM34.6078 328.891C33.9476 328.265 32.8704 328.233 32.2103 328.891C31.5501 329.516 31.5153 330.535 32.2103 331.16C34.5383 333.43 37.0053 335.634 39.5766 337.739C39.8893 338.003 40.3063 338.134 40.6885 338.134C41.1749 338.134 41.6266 337.937 41.9741 337.575C42.5995 336.917 42.4953 335.897 41.8004 335.305C39.2986 333.266 36.9011 331.095 34.6425 328.891H34.6078ZM93.4341 77.831C91.1408 80.1995 88.917 82.535 86.6932 84.8706C86.0677 85.5285 86.1372 86.5483 86.8322 87.1404C87.1449 87.4036 87.5619 87.5352 87.9441 87.5352C88.3958 87.5352 88.8822 87.3378 89.195 87.0088C91.384 84.6733 93.6078 82.3377 95.8663 80.0021C96.4918 79.3442 96.457 78.3244 95.7621 77.7323C95.0672 77.1402 93.99 77.1731 93.3646 77.831H93.4341ZM112.649 366.852C109.383 366.194 106.151 365.438 102.989 364.648C102.086 364.385 101.148 364.944 100.905 365.766C100.661 366.622 101.217 367.51 102.121 367.707C105.317 368.53 108.618 369.253 111.919 369.944C112.024 369.944 112.163 369.977 112.267 369.977C113.031 369.977 113.761 369.451 113.935 368.727C114.143 367.872 113.552 367.017 112.649 366.819V366.852ZM82.4888 91.8774C81.7939 91.3182 80.7167 91.384 80.0913 92.0419C77.9023 94.4762 75.748 96.9104 73.6284 99.3118C73.0377 100.003 73.1419 100.989 73.8369 101.582C74.1496 101.812 74.5318 101.943 74.914 101.943C75.4005 101.943 75.8869 101.746 76.2344 101.351C78.3192 98.95 80.4735 96.5486 82.6626 94.1143C83.2533 93.4564 83.1838 92.4366 82.4888 91.8445V91.8774ZM123.803 50.6592C123.143 50.0341 122.065 50.0013 121.405 50.6263C118.973 52.8632 116.61 55.0672 114.247 57.2712C113.587 57.8962 113.587 58.916 114.247 59.541C114.56 59.8699 115.012 60.0015 115.429 60.0015C115.846 60.0015 116.297 59.837 116.61 59.541C118.938 57.337 121.301 55.133 123.733 52.929C124.393 52.304 124.428 51.2842 123.768 50.6592H123.803ZM93.5036 362.016C90.3069 361.03 87.1796 359.977 84.1567 358.891C83.288 358.562 82.3151 358.99 81.9676 359.812C81.6202 360.635 82.0719 361.556 82.9405 361.885C85.9983 363.003 89.195 364.089 92.4612 365.076C92.6349 365.142 92.8086 365.141 92.9824 365.141C93.712 365.141 94.3722 364.714 94.5807 364.023C94.8587 363.168 94.3722 362.28 93.5036 362.016ZM102.746 73.094C105.005 70.8242 107.298 68.5544 109.661 66.2846C110.321 65.6596 110.286 64.6398 109.661 64.0148C109.001 63.3898 107.923 63.4227 107.263 64.0148C104.9 66.3175 102.572 68.5873 100.314 70.8571C99.6885 71.515 99.6885 72.5019 100.383 73.1269C100.696 73.423 101.113 73.5545 101.53 73.5545C101.982 73.5545 102.433 73.3901 102.746 73.0611V73.094ZM1.70259 254.217C2.64075 254.217 3.37044 253.527 3.40518 252.638C3.40518 249.546 3.57892 246.421 3.82214 243.296C3.89164 242.408 3.1967 241.651 2.25854 241.585C1.35512 241.553 0.521202 242.178 0.451708 243.066C0.173734 246.257 0.0347468 249.48 0 252.638C0 253.527 0.729682 254.25 1.66784 254.25L1.70259 254.217ZM4.72556 271.257C4.23911 268.231 3.89164 265.106 3.68316 261.981C3.61366 261.093 2.81449 260.435 1.87633 260.5C0.938163 260.566 0.243227 261.323 0.312721 262.211C0.521202 265.402 0.903416 268.626 1.38987 271.751C1.52886 272.54 2.22379 273.132 3.05772 273.132C3.12721 273.132 3.23145 273.132 3.30094 273.132C4.23911 273.001 4.86455 272.178 4.72556 271.323V271.257ZM3.02297 235.335C3.02297 235.335 3.1967 235.335 3.2662 235.335C4.10012 235.335 4.8298 234.743 4.93404 233.954C5.38575 230.927 5.9417 227.802 6.60189 224.71C6.77562 223.855 6.18492 222.999 5.28151 222.835C4.37809 222.67 3.47468 223.23 3.30094 224.085C2.64075 227.243 2.05006 230.401 1.59835 233.493C1.45936 234.381 2.11955 235.171 3.02297 235.302V235.335ZM6.77562 216.749C6.77562 216.749 7.05359 216.815 7.19258 216.815C7.95701 216.815 8.6172 216.322 8.82568 215.631C9.62485 212.67 10.563 209.611 11.5707 206.617C11.8486 205.762 11.3622 204.874 10.4588 204.611C9.55536 204.348 8.6172 204.808 8.33922 205.663C7.33157 208.723 6.39341 211.815 5.55948 214.841C5.31626 215.697 5.8722 216.585 6.77562 216.782V216.749ZM50.7303 132.076C51.2515 132.076 51.8074 131.846 52.1202 131.385C53.9965 128.852 55.9075 126.286 57.8881 123.687C58.4441 122.964 58.2703 121.977 57.5059 121.451C56.7415 120.924 55.6991 121.089 55.1431 121.812C53.1278 124.411 51.2167 126.977 49.3404 129.576C48.8192 130.3 48.9929 131.286 49.7574 131.813C50.0353 132.01 50.3828 132.109 50.7303 132.109V132.076ZM22.2032 314.449C21.682 313.726 20.6396 313.528 19.8404 314.022C19.076 314.515 18.8675 315.502 19.3887 316.259C21.265 318.89 23.3151 321.489 25.4346 323.956C25.7821 324.351 26.2686 324.548 26.755 324.548C27.1372 324.548 27.5194 324.417 27.8322 324.186C28.5618 323.627 28.6661 322.607 28.0754 321.95C25.9906 319.548 24.01 317.015 22.2032 314.482V314.449ZM20.0836 181.09C20.3269 181.189 20.5353 181.222 20.7786 181.222C21.4388 181.222 22.0295 180.86 22.3074 180.301C23.6625 177.505 25.0872 174.676 26.5813 171.814C26.9982 171.024 26.6508 170.07 25.8169 169.676C24.9829 169.281 23.9753 169.61 23.5583 170.399C22.0295 173.294 20.5701 176.156 19.215 178.985C18.8327 179.775 19.215 180.729 20.0489 181.09H20.0836ZM6.60189 280.435C6.39341 279.58 5.48999 279.021 4.58657 279.251C3.68316 279.448 3.12721 280.304 3.33569 281.159C4.10012 284.284 5.03828 287.409 6.08068 290.403C6.32391 291.061 6.9841 291.488 7.67904 291.488C7.85277 291.488 8.0265 291.488 8.20024 291.422C9.06891 291.159 9.55536 290.238 9.27739 289.416C8.26973 286.488 7.36631 283.462 6.60189 280.435ZM17.4429 186.847C16.5742 186.518 15.6013 186.913 15.2538 187.702C13.9682 190.696 12.7521 193.657 11.6054 196.584C11.2927 197.407 11.7444 198.328 12.6131 198.624C12.7868 198.69 12.9953 198.722 13.2038 198.722C13.8987 198.722 14.5589 198.328 14.8021 197.67C15.914 194.775 17.0954 191.847 18.381 188.887C18.7285 188.064 18.3115 187.143 17.4776 186.814L17.4429 186.847ZM12.7521 298.133C12.3698 297.311 11.3969 296.949 10.5283 297.311C9.6596 297.673 9.27739 298.594 9.6596 299.416C11.0147 302.344 12.5088 305.239 14.1419 308.068C14.4547 308.594 15.0106 308.89 15.636 308.89C15.914 308.89 16.192 308.824 16.4352 308.693C17.2691 308.265 17.5471 307.311 17.0954 306.521C15.5318 303.791 14.0724 300.995 12.7521 298.166V298.133ZM35.4765 153.063C34.6773 152.603 33.6349 152.866 33.1484 153.655C31.4458 156.452 29.8127 159.215 28.2144 161.945C27.7627 162.735 28.0754 163.689 28.9093 164.116C29.1525 164.248 29.4305 164.314 29.7085 164.314C30.2992 164.314 30.8899 164.018 31.2026 163.491C32.7662 160.761 34.3993 158.031 36.0671 155.267C36.5536 154.511 36.2756 153.524 35.4417 153.096L35.4765 153.063ZM361.123 318.101C358.204 319.647 355.286 321.127 352.367 322.607C351.533 323.035 351.22 323.989 351.672 324.779C351.985 325.305 352.575 325.634 353.166 325.634C353.444 325.634 353.722 325.568 353.965 325.436C356.884 323.956 359.838 322.443 362.791 320.897C363.59 320.469 363.903 319.482 363.451 318.726C362.999 317.969 361.957 317.673 361.158 318.101H361.123ZM325.542 335.174C322.485 336.489 319.462 337.772 316.439 339.022C315.57 339.384 315.188 340.305 315.57 341.128C315.848 341.72 316.474 342.082 317.134 342.082C317.342 342.082 317.585 342.049 317.794 341.95C320.852 340.7 323.909 339.384 326.967 338.068C327.801 337.707 328.183 336.753 327.801 335.963C327.419 335.174 326.411 334.812 325.577 335.174H325.542ZM343.507 326.95C340.518 328.397 337.53 329.779 334.577 331.127C333.743 331.522 333.395 332.476 333.777 333.266C334.055 333.825 334.681 334.154 335.306 334.154C335.55 334.154 335.793 334.088 336.036 333.989C339.024 332.608 342.012 331.226 345.035 329.779C345.869 329.384 346.182 328.43 345.765 327.64C345.348 326.851 344.34 326.522 343.507 326.95ZM269.774 355.536C266.577 356.49 263.381 357.378 260.219 358.233C259.315 358.464 258.794 359.352 259.072 360.207C259.28 360.898 259.975 361.358 260.705 361.358C260.844 361.358 261.018 361.358 261.157 361.293C264.353 360.437 267.55 359.516 270.782 358.562C271.685 358.299 272.171 357.411 271.893 356.556C271.615 355.7 270.677 355.24 269.774 355.503V355.536ZM307.266 342.707C304.173 343.924 301.081 345.075 297.988 346.194C297.12 346.523 296.668 347.444 297.015 348.266C297.259 348.891 297.919 349.286 298.579 349.286C298.787 349.286 298.996 349.253 299.204 349.187C302.297 348.069 305.424 346.884 308.517 345.667C309.385 345.338 309.802 344.384 309.42 343.595C309.073 342.772 308.065 342.378 307.231 342.74L307.266 342.707ZM288.676 349.516C285.514 350.602 282.387 351.621 279.26 352.641C278.391 352.937 277.905 353.825 278.183 354.681C278.426 355.339 279.086 355.766 279.781 355.766C279.955 355.766 280.128 355.766 280.337 355.668C283.499 354.648 286.661 353.628 289.823 352.542C290.691 352.246 291.143 351.325 290.83 350.503C290.518 349.681 289.545 349.253 288.676 349.549V349.516ZM378.392 308.627C375.508 310.272 372.659 311.851 369.81 313.43C369.011 313.857 368.733 314.844 369.184 315.601C369.497 316.127 370.053 316.39 370.644 316.39C370.922 316.39 371.234 316.324 371.478 316.16C374.362 314.581 377.246 312.969 380.13 311.324C380.929 310.864 381.172 309.877 380.72 309.12C380.234 308.364 379.191 308.133 378.392 308.561V308.627ZM411.819 288.001C409.074 289.81 406.329 291.587 403.584 293.363C402.819 293.857 402.611 294.844 403.132 295.6C403.445 296.061 404.001 296.291 404.522 296.291C404.835 296.291 405.182 296.192 405.46 296.028C408.205 294.251 410.985 292.475 413.73 290.633C414.494 290.139 414.668 289.12 414.147 288.396C413.626 287.672 412.548 287.508 411.784 288.001H411.819ZM430.339 277.244C429.783 276.554 428.706 276.389 427.976 276.915C425.3 278.823 422.625 280.665 419.949 282.508C419.185 283.034 419.011 284.021 419.567 284.745C419.915 285.172 420.401 285.402 420.922 285.402C421.27 285.402 421.617 285.304 421.93 285.106C424.606 283.264 427.316 281.389 429.991 279.481C430.721 278.955 430.895 277.935 430.339 277.244ZM395.279 298.594C392.465 300.337 389.685 302.015 386.871 303.692C386.071 304.153 385.828 305.14 386.349 305.896C386.662 306.39 387.218 306.653 387.774 306.653C388.087 306.653 388.399 306.587 388.677 306.423C391.492 304.745 394.306 303.035 397.121 301.291C397.92 300.798 398.128 299.811 397.607 299.087C397.086 298.363 396.044 298.133 395.279 298.627V298.594ZM152.087 371.556C148.751 371.425 145.45 371.227 142.149 370.964C141.176 370.832 140.412 371.556 140.342 372.411C140.273 373.3 140.968 374.056 141.871 374.122C145.172 374.385 148.542 374.583 151.913 374.714H151.982C152.886 374.714 153.615 374.056 153.685 373.201C153.72 372.313 152.99 371.556 152.087 371.523V371.556ZM168.279 14.9345C169.008 14.3753 169.078 13.3555 168.487 12.6647C167.896 12.0068 166.819 11.9081 166.09 12.4673C163.518 14.5397 160.982 16.5793 158.48 18.6188C157.785 19.2109 157.681 20.1978 158.306 20.8886C158.654 21.2505 159.105 21.4478 159.592 21.4478C159.974 21.4478 160.391 21.3162 160.704 21.0531C163.206 19.0136 165.742 16.974 168.313 14.9016L168.279 14.9345ZM150.905 24.869C148.369 26.9743 145.867 29.0796 143.435 31.1849C142.74 31.7771 142.67 32.7968 143.296 33.4547C143.643 33.8166 144.095 33.9811 144.547 33.9811C144.964 33.9811 145.346 33.8495 145.693 33.5863C148.125 31.481 150.627 29.4086 153.164 27.3033C153.859 26.7111 153.928 25.7243 153.303 25.0335C152.677 24.3755 151.6 24.3098 150.905 24.9019V24.869ZM250.594 360.701C247.362 361.49 244.131 362.247 240.934 362.97C240.031 363.168 239.475 364.023 239.683 364.878C239.857 365.602 240.552 366.128 241.316 366.128C241.455 366.128 241.56 366.128 241.699 366.095C244.93 365.372 248.196 364.615 251.462 363.826C252.366 363.595 252.922 362.74 252.679 361.885C252.435 361.03 251.497 360.503 250.628 360.733L250.594 360.701ZM171.962 371.688C169.39 371.754 166.854 371.786 164.352 371.786H162.024C161.156 371.655 160.322 372.477 160.322 373.365C160.322 374.254 161.051 374.977 161.989 374.977H164.352C166.889 374.977 169.46 374.977 172.066 374.879C173.004 374.879 173.734 374.122 173.699 373.234C173.699 372.346 172.935 371.688 171.962 371.688ZM132.281 369.977C128.945 369.582 125.679 369.122 122.448 368.628C121.544 368.497 120.641 369.056 120.502 369.944C120.328 370.832 120.953 371.655 121.892 371.786C125.158 372.313 128.494 372.773 131.864 373.168C131.933 373.168 132.003 373.168 132.072 373.168C132.906 373.168 133.636 372.576 133.74 371.754C133.845 370.865 133.184 370.076 132.281 369.977ZM136.034 37.5667C133.567 39.7378 131.1 41.9089 128.702 44.0471C128.042 44.6722 128.007 45.659 128.633 46.3169C128.98 46.6459 129.397 46.8104 129.849 46.8104C130.266 46.8104 130.683 46.6788 130.995 46.3827C133.393 44.2445 135.825 42.0734 138.292 39.9352C138.987 39.3431 139.022 38.3233 138.396 37.6654C137.771 37.0075 136.694 36.9746 135.999 37.5667H136.034ZM211.608 368.299C208.307 368.76 205.006 369.188 201.74 369.582C200.802 369.681 200.141 370.471 200.28 371.359C200.385 372.181 201.114 372.773 201.948 372.773C202.018 372.773 202.087 372.773 202.157 372.773C205.458 372.411 208.759 371.984 212.129 371.49C213.067 371.359 213.693 370.536 213.554 369.681C213.415 368.793 212.581 368.201 211.643 368.332L211.608 368.299ZM231.205 364.977C227.939 365.602 224.673 366.227 221.406 366.753C220.503 366.918 219.878 367.74 220.051 368.596C220.19 369.385 220.92 369.911 221.719 369.911C221.823 369.911 221.928 369.911 222.032 369.911C225.298 369.352 228.599 368.76 231.9 368.102C232.803 367.938 233.394 367.082 233.22 366.194C233.047 365.339 232.143 364.78 231.24 364.944L231.205 364.977ZM183.915 0.592002C183.324 -0.0988069 182.247 -0.197505 181.552 0.361721C178.946 2.36835 176.34 4.37499 173.803 6.38163C173.074 6.94086 172.969 7.96062 173.595 8.65142C173.942 9.04617 174.429 9.24355 174.915 9.24355C175.297 9.24355 175.68 9.11196 175.992 8.88169C178.529 6.87506 181.1 4.90132 183.706 2.89469C184.436 2.33546 184.54 1.31569 183.949 0.657782L183.915 0.592002ZM191.802 370.569C188.466 370.865 185.166 371.096 181.865 371.26C180.926 371.326 180.231 372.082 180.266 372.938C180.336 373.793 181.065 374.451 181.934 374.451H182.038C185.339 374.254 188.71 374.023 192.08 373.727C193.018 373.661 193.678 372.872 193.609 371.984C193.539 371.096 192.706 370.503 191.767 370.536L191.802 370.569Z" fill="white"/>
<path d="M486.584 244.835C491.54 240.925 496.918 235.279 496.051 234.228C495.183 233.177 488.418 237.088 483.461 241.023C483.015 241.389 482.569 241.731 482.147 242.074C481.28 241.927 479.471 241.634 477.166 241.267C477.191 241.267 477.24 241.267 477.265 241.267L478.603 240.216C478.777 240.094 478.777 239.825 478.603 239.654L477.562 238.383C477.414 238.187 477.166 238.139 476.992 238.285L475.654 239.336C475.654 239.336 475.555 239.483 475.53 239.581L473.969 240.803C472.011 240.485 469.88 240.143 467.773 239.801L469.086 238.774C469.26 238.652 469.26 238.383 469.086 238.212L468.046 236.941C467.897 236.745 467.649 236.697 467.476 236.843L466.137 237.894C466.137 237.894 466.038 238.041 466.013 238.139L464.501 239.312C459.148 238.456 454.662 237.772 454.514 237.821C454.142 237.943 452.234 239.556 452.234 239.556C451.763 239.923 451.441 240.265 451.465 240.314C451.515 240.363 452.06 239.996 452.506 239.654L462.345 243.198C461.998 243.516 461.8 243.809 461.874 243.907C461.974 244.029 462.42 243.809 462.866 243.442L462.915 243.393L464.848 244.102C464.526 244.395 464.328 244.689 464.402 244.786C464.501 244.909 464.948 244.689 465.394 244.322L467.153 244.933L468.219 245.691C467.822 246.033 467.55 246.375 467.624 246.473C467.723 246.595 468.169 246.375 468.616 246.009H468.64L470.747 247.475C470.35 247.817 470.078 248.159 470.177 248.257C470.276 248.379 470.722 248.159 471.168 247.793L473.101 249.161C469.805 251.825 468.516 252.901 466.063 254.856C463.585 256.811 461.329 258.864 459.52 260.697C456.596 260.257 450.821 259.304 450.821 259.304L449.334 260.282L455.604 265.072C455.257 265.537 454.985 265.903 454.836 266.197C453.869 267.076 453.299 267.663 453.374 267.761C453.448 267.859 454.142 267.468 455.183 266.734C455.505 266.637 455.951 266.417 456.521 266.148L459.917 273.309L461.23 272.111C461.23 272.111 461.577 265.952 461.775 263.142C463.907 261.822 466.335 260.257 468.863 258.522C471.937 256.103 473.324 255.076 476.175 252.876L477.092 255.027C476.621 255.418 476.323 255.785 476.422 255.907C476.497 256.005 476.893 255.834 477.339 255.516L478.355 257.887H478.331C477.86 258.278 477.562 258.669 477.662 258.767C477.736 258.864 478.157 258.693 478.579 258.376L479.099 259.549L479.347 261.382C478.876 261.748 478.579 262.139 478.678 262.262C478.752 262.359 479.074 262.237 479.446 261.968L479.719 263.997H479.669C479.198 264.388 478.901 264.779 479 264.901C479.074 264.999 479.421 264.852 479.793 264.584L481.131 274.824C480.71 275.191 480.214 275.631 480.239 275.68C480.289 275.729 480.685 275.484 481.156 275.118C481.156 275.118 483.188 273.627 483.362 273.309C483.436 273.187 483.733 268.714 484.08 263.386L485.592 262.213C485.592 262.213 485.791 262.213 485.865 262.164L487.203 261.113C487.377 260.991 487.377 260.722 487.203 260.551L486.162 259.28C486.014 259.084 485.766 259.035 485.592 259.182L484.279 260.209C484.403 258.107 484.527 256.005 484.65 254.025L486.212 252.803C486.212 252.803 486.41 252.803 486.484 252.754L487.823 251.703C487.996 251.581 487.996 251.312 487.823 251.141L486.782 249.87C486.633 249.675 486.385 249.626 486.212 249.772L484.874 250.823C484.874 250.823 484.874 250.872 484.824 250.921C484.973 248.648 485.072 246.864 485.121 245.984C485.543 245.642 485.989 245.3 486.46 244.933L486.584 244.835Z" fill="white"/>
</svg>
