<svg width="627" height="474" viewBox="0 0 627 474" fill="none" xmlns="http://www.w3.org/2000/svg">
<path d="M313.466 433.749C316.343 433.749 318.675 431.416 318.675 428.54C318.675 425.664 316.343 423.331 313.466 423.331C310.589 423.331 308.257 425.664 308.257 428.54C308.257 431.416 310.589 433.749 313.466 433.749Z" fill="#26A271"/>
<path d="M162.132 41.5679V64.4249" stroke="#26A271" stroke-width="5.3156" stroke-linecap="round" stroke-linejoin="round"/>
<path d="M150.649 52.9961H173.559" stroke="#26A271" stroke-width="5.3156" stroke-linecap="round" stroke-linejoin="round"/>
<path d="M422.328 185.725C377.837 185.725 332.548 183.918 290.183 172.117C248.615 160.582 210.45 138.204 176.43 112.317C154.158 95.467 133.906 82.018 104.989 84.038C76.6996 85.569 49.6476 96.132 27.8066 114.177C-8.97737 146.389 -3.44836 206.083 11.2756 247.863C33.3886 310.959 100.684 354.918 157.879 383.356C223.951 416.366 296.562 435.555 369.332 446.558C433.119 456.285 515.084 463.302 570.366 421.681C621.13 383.356 635.056 295.968 622.618 236.966C619.599 219.536 610.318 203.808 596.519 192.741C560.852 166.642 507.643 184.077 467.564 184.927C452.68 185.247 437.531 185.619 422.328 185.725Z" fill="#6E9D9F" fill-opacity="0.2"/>
<path d="M350.355 10.418C353.232 10.418 355.565 8.086 355.565 5.209C355.565 2.332 353.232 0 350.355 0C347.478 0 345.146 2.332 345.146 5.209C345.145 8.086 347.478 10.418 350.355 10.418Z" fill="#26A271"/>
<path d="M79.6875 416.048V438.905" stroke="#26A271" stroke-width="5.3156" stroke-linecap="round" stroke-linejoin="round"/>
<path d="M68.2588 427.477H91.1158" stroke="#26A271" stroke-width="5.3156" stroke-linecap="round" stroke-linejoin="round"/>
<path d="M472.454 407.437H135.395C133.14 407.437 130.911 406.943 128.864 405.997C126.817 405.051 125 403.669 123.539 401.952C122.078 400.23 121.008 398.215 120.403 396.041C119.798 393.867 119.671 391.591 120.033 389.365L163.142 127.946C163.725 124.308 165.587 120.996 168.393 118.609C171.2 116.221 174.766 114.914 178.451 114.923H515.51C517.764 114.923 519.991 115.414 522.038 116.362C524.079 117.31 525.897 118.692 527.354 120.412C528.81 122.132 529.874 124.148 530.474 126.321C531.069 128.495 531.192 130.772 530.82 132.995L487.924 394.414C487.329 398.076 485.442 401.399 482.603 403.791C479.763 406.177 476.164 407.474 472.454 407.437Z" fill="#4AB58B"/>
<path d="M476.605 108.086L276.536 18.7569C270.638 16.1239 263.723 18.7699 261.09 24.6679L197.68 166.688C195.047 172.586 197.693 179.501 203.59 182.134L403.659 271.462C409.559 274.095 416.475 271.449 419.106 265.552L482.515 123.532C485.153 117.634 482.506 110.719 476.605 108.086Z" fill="#F0FEFF" stroke="#26A271" stroke-width="5.3156" stroke-linecap="round" stroke-linejoin="round"/>
<path d="M305.864 135.6C311.13 128.21 318.789 122.869 327.543 120.481C336.297 118.093 345.607 118.804 353.897 122.495C362.186 126.186 368.944 132.63 373.027 140.734C377.109 148.838 378.263 158.104 376.295 166.962" stroke="#26A271" stroke-width="3.6146" stroke-linecap="round" stroke-linejoin="round"/>
<path d="M401.543 127.573C404.568 127.573 407.018 125.121 407.018 122.098C407.018 119.074 404.567 116.623 401.543 116.623C398.519 116.623 396.068 119.074 396.068 122.098C396.068 125.122 398.519 127.573 401.543 127.573Z" fill="#26A271"/>
<path d="M322.236 92.1719C325.259 92.1719 327.711 89.7209 327.711 86.6969C327.711 83.6739 325.259 81.2219 322.236 81.2219C319.212 81.2219 316.761 83.6739 316.761 86.6969C316.761 89.7209 319.212 92.1719 322.236 92.1719Z" fill="#26A271"/>
<path d="M470.966 407.331H132.259C128.138 407.315 124.19 405.667 121.281 402.749C118.371 399.831 116.738 395.876 116.738 391.756V152.928C116.689 150.856 117.053 148.795 117.81 146.866C118.567 144.936 119.702 143.178 121.148 141.692C122.593 140.207 124.321 139.025 126.229 138.216C128.137 137.407 130.187 136.987 132.26 136.981H255.634C258.497 136.992 261.301 137.791 263.74 139.291C266.178 140.792 268.156 142.935 269.455 145.486L287.049 179.931C288.344 182.486 290.32 184.633 292.76 186.133C295.199 187.634 298.006 188.431 300.87 188.436H470.966C475.08 188.436 479.03 190.071 481.943 192.982C484.851 195.893 486.488 199.841 486.488 203.958V391.756C486.488 395.876 484.856 399.83 481.943 402.749C479.035 405.667 475.085 407.315 470.966 407.331Z" fill="#F0FEFF" stroke="#26A271" stroke-width="5.3156" stroke-linecap="round" stroke-linejoin="round"/>
<path d="M418.82 196.569C399.253 196.558 380.122 202.351 363.847 213.215C347.572 224.078 334.885 239.524 327.39 257.599C319.895 275.674 317.928 295.565 321.739 314.758C325.55 333.95 334.967 351.582 348.799 365.422C362.632 379.262 380.257 388.689 399.45 392.512C418.639 396.334 438.53 394.378 456.608 386.89C474.691 379.405 490.144 366.725 501.014 350.457C511.884 334.189 517.689 315.06 517.689 295.493C517.689 269.266 507.276 244.113 488.735 225.563C470.195 207.011 445.047 196.583 418.82 196.569Z" fill="#F0FEFF" stroke="#26A271" stroke-width="5.3156" stroke-linecap="round" stroke-linejoin="round"/>
<path d="M489.197 367.251L515.562 393.616" stroke="#26A271" stroke-width="5.3156" stroke-linecap="round" stroke-linejoin="round"/>
<path d="M512.58 380.807L504.394 389.376C500.721 393.219 500.859 399.305 504.697 402.978L575.782 470.932C579.62 474.605 585.711 474.467 589.384 470.624L597.575 462.055C601.248 458.217 601.11 452.126 597.267 448.453L526.187 380.502C522.345 376.828 516.253 376.966 512.58 380.807Z" fill="#4AB58B"/>
<path d="M565.21 5.20898V28.119" stroke="#26A271" stroke-width="5.3156" stroke-linecap="round" stroke-linejoin="round"/>
<path d="M553.729 16.6909H576.638" stroke="#26A271" stroke-width="5.3156" stroke-linecap="round" stroke-linejoin="round"/>
</svg>
