<svg width="145" height="16" viewBox="0 0 145 16" fill="none" xmlns="http://www.w3.org/2000/svg">
<path d="M4.91 3.681H0.941V1.056H12.26V3.681H8.291V15H4.91V3.681ZM13.6681 1.056H19.2961C20.6681 1.056 21.7741 1.217 22.6141 1.539C23.4541 1.847 24.0561 2.288 24.4201 2.862C24.7841 3.422 24.9661 4.094 24.9661 4.878C24.9661 5.872 24.6581 6.698 24.0421 7.356C23.4401 8.014 22.6001 8.448 21.5221 8.658C22.2921 8.826 22.9151 9.12 23.3911 9.54C23.8671 9.96 24.2451 10.527 24.5251 11.241C24.8051 11.941 25.0151 12.823 25.1551 13.887C25.1831 14.125 25.2181 14.44 25.2601 14.832C25.2741 14.888 25.2811 14.944 25.2811 15H21.7951L21.7741 14.328C21.6201 12.886 21.2701 11.794 20.7241 11.052C20.1921 10.31 19.3661 9.932 18.2461 9.918H16.9861V15H13.6681V1.056ZM15.6421 7.818H18.6871C19.6811 7.818 20.4231 7.587 20.9131 7.125C21.4171 6.663 21.6691 6.082 21.6691 5.382C21.6691 4.71 21.4521 4.213 21.0181 3.891C20.5981 3.555 19.8981 3.387 18.9181 3.387H16.9861V8.931L15.6421 7.818ZM31.1812 1.056H34.9402L39.8752 15H36.3052L35.1082 11.493H30.3202L29.0812 15H26.0782L31.1812 1.056ZM34.4152 9.162L32.7772 4.353L31.0342 9.162H34.4152ZM38.4424 1.056H41.9704L45.4144 11.199L48.7114 1.056H51.7354L46.8004 15H43.3564L38.4424 1.056ZM52.7971 1.056H63.2341V3.639H56.1151V6.579H60.6511V9.183H56.1151V12.396H63.4441V15H52.7971V1.056ZM65.0197 1.056H68.3797V12.417H74.3227V15H65.0197V1.056ZM72.8565 1.056H76.2795L78.4215 10.317L80.9415 1.056H84.0285L86.5695 10.317L88.7325 1.056H91.7985L87.9135 15H84.9525L82.3275 5.55L79.7025 15H76.6995L72.8565 1.056ZM98.7265 15.294C97.3545 15.294 96.1295 14.993 95.0515 14.391C93.9875 13.775 93.1545 12.921 92.5525 11.829C91.9645 10.723 91.6705 9.456 91.6705 8.028C91.6705 6.614 91.9715 5.354 92.5735 4.248C93.1755 3.142 94.0225 2.288 95.1145 1.686C96.2065 1.07 97.4595 0.761999 98.8735 0.761999C100.246 0.761999 101.464 1.07 102.528 1.686C103.606 2.288 104.439 3.142 105.027 4.248C105.615 5.34 105.909 6.6 105.909 8.028C105.909 9.442 105.608 10.702 105.006 11.808C104.418 12.914 103.578 13.775 102.486 14.391C101.394 14.993 100.141 15.294 98.7265 15.294ZM98.7895 12.585C99.5455 12.585 100.19 12.417 100.722 12.081C101.268 11.731 101.681 11.227 101.961 10.569C102.241 9.897 102.381 9.085 102.381 8.133V7.881C102.381 6.943 102.241 6.145 101.961 5.487C101.695 4.829 101.289 4.332 100.743 3.996C100.211 3.646 99.5665 3.471 98.8105 3.471C98.0545 3.471 97.4035 3.646 96.8575 3.996C96.3255 4.332 95.9125 4.829 95.6185 5.487C95.3385 6.145 95.1985 6.95 95.1985 7.902V8.133C95.1985 9.071 95.3385 9.876 95.6185 10.548C95.8985 11.22 96.3045 11.731 96.8365 12.081C97.3685 12.417 98.0195 12.585 98.7895 12.585ZM107.45 1.056H113.078C114.45 1.056 115.556 1.217 116.396 1.539C117.236 1.847 117.838 2.288 118.202 2.862C118.566 3.422 118.748 4.094 118.748 4.878C118.748 5.872 118.44 6.698 117.824 7.356C117.222 8.014 116.382 8.448 115.304 8.658C116.074 8.826 116.697 9.12 117.173 9.54C117.649 9.96 118.027 10.527 118.307 11.241C118.587 11.941 118.797 12.823 118.937 13.887C118.965 14.125 119 14.44 119.042 14.832C119.056 14.888 119.063 14.944 119.063 15H115.577L115.556 14.328C115.402 12.886 115.052 11.794 114.506 11.052C113.974 10.31 113.148 9.932 112.028 9.918H110.768V15H107.45V1.056ZM109.424 7.818H112.469C113.463 7.818 114.205 7.587 114.695 7.125C115.199 6.663 115.451 6.082 115.451 5.382C115.451 4.71 115.234 4.213 114.8 3.891C114.38 3.555 113.68 3.387 112.7 3.387H110.768V8.931L109.424 7.818ZM120.616 1.056H123.976V12.417H129.919V15H120.616V1.056ZM131.547 1.056H137.112C139.366 1.056 141.116 1.637 142.362 2.799C143.622 3.961 144.252 5.718 144.252 8.07C144.252 10.352 143.601 12.081 142.299 13.257C140.997 14.419 139.205 15 136.923 15H131.547V1.056ZM136.881 12.522C137.777 12.522 138.512 12.368 139.086 12.06C139.66 11.738 140.08 11.255 140.346 10.611C140.626 9.967 140.766 9.134 140.766 8.112V8.007C140.766 6.943 140.633 6.089 140.367 5.445C140.101 4.801 139.688 4.325 139.128 4.017C138.582 3.709 137.861 3.555 136.965 3.555H134.928V12.522H136.881Z" fill="black"/>
</svg>
