<svg width="40" height="40" viewBox="0 0 16 16" fill="none" xmlns="http://www.w3.org/2000/svg">
<path d="M9 11.0003H7C5.34587 11.0003 4 12.3462 4 14.0003V14.3337C4 14.8851 4.44857 15.3337 5 15.3337H11C11.5514 15.3337 12 14.8851 12 14.3337V14.0003C12 12.3462 10.6541 11.0003 9 11.0003ZM11.3333 14.3337C11.3333 14.5174 11.1838 14.667 11 14.667H10V13.3337C10 13.1496 9.85075 13.0003 9.66667 13.0003C9.48258 13.0003 9.33333 13.1496 9.33333 13.3337V14.667H6.66667V13.3337C6.66667 13.1496 6.51742 13.0003 6.33333 13.0003C6.14925 13.0003 6 13.1496 6 13.3337V14.667H5C4.81624 14.667 4.66667 14.5174 4.66667 14.3337V14.0003C4.66667 12.7137 5.71338 11.667 7 11.667H9C10.2866 11.667 11.3333 12.7137 11.3333 14.0003V14.3337ZM8 10.3337C9.28662 10.3337 10.3333 9.28695 10.3333 8.00033C10.3333 6.7137 9.28662 5.66699 8 5.66699C6.71338 5.66699 5.66667 6.7137 5.66667 8.00033C5.66667 9.28695 6.71338 10.3337 8 10.3337ZM8 6.33366C8.91895 6.33366 9.66667 7.08138 9.66667 8.00033C9.66667 8.91927 8.91895 9.66699 8 9.66699C7.08105 9.66699 6.33333 8.91927 6.33333 8.00033C6.33333 7.08138 7.08105 6.33366 8 6.33366Z" fill="url(#paint0_linear_1629_12714)"/>
<path d="M15.3333 9.00033V9.33366C15.3333 9.88509 14.8847 10.3337 14.3333 10.3337H10.5206C10.3365 10.3337 10.1873 10.1844 10.1873 10.0003C10.1873 9.81624 10.3365 9.66699 10.5206 9.66699H14.3333C14.517 9.66699 14.6666 9.51742 14.6666 9.33366V9.00033C14.6666 7.71371 13.6199 6.66699 12.3333 6.66699H10.3333C10.1492 6.66699 9.99996 6.51774 9.99996 6.33366C9.99996 6.14958 10.1492 6.00033 10.3333 6.00033H12.3333C13.9874 6.00033 15.3333 7.34619 15.3333 9.00033ZM11.3333 5.33366C10.0467 5.33366 8.99996 4.28695 8.99996 3.00033C8.99996 1.7137 10.0467 0.666992 11.3333 0.666992C12.6199 0.666992 13.6666 1.7137 13.6666 3.00033C13.6666 4.28695 12.6199 5.33366 11.3333 5.33366ZM11.3333 4.66699C12.2522 4.66699 13 3.91927 13 3.00033C13 2.08138 12.2522 1.33366 11.3333 1.33366C10.4143 1.33366 9.66663 2.08138 9.66663 3.00033C9.66663 3.91927 10.4143 4.66699 11.3333 4.66699ZM5.66663 6.00033H3.66663C2.01249 6.00033 0.666626 7.34619 0.666626 9.00033V9.33366C0.666626 9.88509 1.11519 10.3337 1.66663 10.3337H5.47929C5.66337 10.3337 5.81262 10.1844 5.81262 10.0003C5.81262 9.81624 5.66337 9.66699 5.47929 9.66699H1.66663C1.48287 9.66699 1.33329 9.51742 1.33329 9.33366V9.00033C1.33329 7.71371 2.38 6.66699 3.66663 6.66699H5.66663C5.85071 6.66699 5.99996 6.51774 5.99996 6.33366C5.99996 6.14958 5.85071 6.00033 5.66663 6.00033ZM6.99996 3.00033C6.99996 4.28695 5.95325 5.33366 4.66663 5.33366C3.38 5.33366 2.33329 4.28695 2.33329 3.00033C2.33329 1.7137 3.38 0.666992 4.66663 0.666992C5.95325 0.666992 6.99996 1.7137 6.99996 3.00033ZM6.33329 3.00033C6.33329 2.08138 5.58557 1.33366 4.66663 1.33366C3.74768 1.33366 2.99996 2.08138 2.99996 3.00033C2.99996 3.91927 3.74768 4.66699 4.66663 4.66699C5.58557 4.66699 6.33329 3.91927 6.33329 3.00033Z" fill="black"/>
<defs>
<linearGradient id="paint0_linear_1629_12714" x1="4" y1="6.47255" x2="12.7632" y2="13.6654" gradientUnits="userSpaceOnUse">
<stop stop-color="#4F16FF"/>
<stop offset="1" stop-color="#2BADFF"/>
</linearGradient>
</defs>
</svg>
